<?xml version="1.0" encoding="UTF-8"?>
<svg width="196px" height="85px" viewBox="0 0 196 85" version="1.1" xmlns="http://www.w3.org/2000/svg" xmlns:xlink="http://www.w3.org/1999/xlink">
    <!-- Generator: Sketch 44.1 (41455) - http://www.bohemiancoding.com/sketch -->
    <title>Logo4</title>
    <desc>Created with Sketch.</desc>
    <defs></defs>
    <g id="Symbols" stroke="none" stroke-width="1" fill="none" fill-rule="evenodd">
        <g id="Editor_Template_4" transform="translate(-120.000000, -130.000000)">
            <g id="Logo4" transform="translate(120.000000, 130.000000)">
                <rect id="Rectangle" fill="#FFFFFF" x="1" y="0" width="194" height="84"></rect>
                <path d="M195.2,19.95404 C177.1712,31.21244 160.0916,43.51364 144.3368,56.78564 C134.0792,65.54324 125.414,74.95604 118.1636,84.19964 L195.2,84.19964 L195.2,19.95404 Z" id="Fill-1" fill="#FF8516"></path>
                <path d="M143.99804,0.2 L0.79964,0.2 L0.79964,42.7028 C28.50644,32.4872 80.95604,13.9472 119.57084,5.0828 C127.74524,3.206 135.95084,1.592 143.99804,0.2" id="Fill-3" fill="#FF8516"></path>
                <path d="M195.2,5.80064 L195.2,3.63224 C163.1708,11.10944 130.8812,20.98664 99.44,33.32384 C51.4376,53.80784 17.5628,74.21024 2.1188,84.20024 L75.1136,84.20024 C85.3688,74.60504 96.392,65.47304 108.1292,56.93144 C135.026,37.85144 163.8704,20.96024 195.2,5.80064" id="Fill-6" fill="#FF8516"></path>
            </g>
        </g>
    </g>
</svg>