<?xml version="1.0" encoding="UTF-8"?>
<svg width="280px" height="160px" viewBox="0 0 280 160" version="1.1" xmlns="http://www.w3.org/2000/svg" xmlns:xlink="http://www.w3.org/1999/xlink">
    <!-- Generator: Sketch 44.1 (41455) - http://www.bohemiancoding.com/sketch -->
    <title>Thumb_280x160_4sketch</title>
    <desc>Created with Sketch.</desc>
    <defs>
        <polygon id="path-1" points="0 35.419 0 0 59.66585 0 119.3317 0 119.3317 35.419"></polygon>
        <polygon id="path-3" points="161 34.4301 161 68 0.099 68 0.099 0.8602 161 0.8602"></polygon>
    </defs>
    <g id="Thumbnails" stroke="none" stroke-width="1" fill="none" fill-rule="evenodd">
        <g id="Thumbnails_export_svg" transform="translate(-978.000000, -60.000000)">
            <g id="Thumb_280x160_4sketch" transform="translate(978.000000, 60.000000)">
                <rect id="Mask" fill="#FFFFFF" x="0" y="0" width="280" height="160" rx="10"></rect>
                <path d="M221,32.4617 C205.976,41.8437 191.743,52.0947 178.614,63.1547 C170.066,70.4527 162.845,78.2967 156.803,85.9997 L221,85.9997 L221,32.4617 Z" id="Fill-1" fill="#FF8516"></path>
                <g id="Group-5" transform="translate(59.000000, 16.000000)">
                    <mask id="mask-2" fill="white">
                        <use xlink:href="#path-1"></use>
                    </mask>
                    <g id="Clip-4"></g>
                    <path d="M119.3317,0 L-0.0003,0 L-0.0003,35.419 C23.0887,26.906 66.7967,11.456 98.9757,4.069 C105.7877,2.505 112.6257,1.16 119.3317,0" id="Fill-3" fill="#FF8516" mask="url(#mask-2)"></path>
                </g>
                <g id="Group-8" transform="translate(60.000000, 18.000000)">
                    <mask id="mask-4" fill="white">
                        <use xlink:href="#path-3"></use>
                    </mask>
                    <g id="Clip-7"></g>
                    <path d="M161,2.6672 L161,0.8602 C134.309,7.0912 107.401,15.3222 81.2,25.6032 C41.198,42.6732 12.969,59.6752 0.099,68.0002 L60.928,68.0002 C69.474,60.0042 78.66,52.3942 88.441,45.2762 C110.855,29.3762 134.892,15.3002 161,2.6672" id="Fill-6" fill="#FF8516" mask="url(#mask-4)"></path>
                </g>
                <path d="M84.34375,106.992188 L84.34375,111 L82,111 L82,99.625 L86.4375,99.625 C87.2916709,99.625 88.0429655,99.7812484 88.6914062,100.09375 C89.339847,100.406252 89.8385399,100.850258 90.1875,101.425781 C90.5364601,102.001305 90.7109375,102.656246 90.7109375,103.390625 C90.7109375,104.505214 90.3294309,105.384111 89.5664062,106.027344 C88.8033816,106.670576 87.7474026,106.992188 86.3984375,106.992188 L84.34375,106.992188 Z M84.34375,105.09375 L86.4375,105.09375 C87.0572948,105.09375 87.5299463,104.947918 87.8554688,104.65625 C88.1809912,104.364582 88.34375,103.947919 88.34375,103.40625 C88.34375,102.848956 88.1796891,102.398439 87.8515625,102.054688 C87.5234359,101.710936 87.0703154,101.533854 86.4921875,101.523438 L84.34375,101.523438 L84.34375,105.09375 Z M94.375,103.46875 C94.9739613,102.749996 95.726558,102.390625 96.6328125,102.390625 C98.466155,102.390625 99.3958332,103.455719 99.421875,105.585938 L99.421875,111 L97.1640625,111 L97.1640625,105.648438 C97.1640625,105.16406 97.0598969,104.805991 96.8515625,104.574219 C96.6432281,104.342447 96.2968774,104.226562 95.8125,104.226562 C95.1510384,104.226562 94.6718765,104.481768 94.375,104.992188 L94.375,111 L92.1171875,111 L92.1171875,99 L94.375,99 L94.375,103.46875 Z M104.28125,107.804688 L105.84375,102.546875 L108.265625,102.546875 L104.867188,112.3125 L104.679688,112.757812 C104.174477,113.861985 103.341152,114.414062 102.179688,114.414062 C101.851561,114.414062 101.518231,114.364584 101.179688,114.265625 L101.179688,112.554688 L101.523438,112.5625 C101.950523,112.5625 102.26953,112.497396 102.480469,112.367188 C102.691407,112.236979 102.85677,112.020835 102.976562,111.71875 L103.242188,111.023438 L100.28125,102.546875 L102.710938,102.546875 L104.28125,107.804688 Z M111.539062,111 L109.273438,111 L109.273438,99 L111.539062,99 L111.539062,111 Z M115.78125,111 L113.515625,111 L113.515625,99 L115.78125,99 L115.78125,111 Z M120.023438,111 L117.757812,111 L117.757812,102.546875 L120.023438,102.546875 L120.023438,111 Z M117.625,100.359375 C117.625,100.020832 117.73828,99.7421886 117.964844,99.5234375 C118.191407,99.3046864 118.499998,99.1953125 118.890625,99.1953125 C119.276044,99.1953125 119.583332,99.3046864 119.8125,99.5234375 C120.041668,99.7421886 120.15625,100.020832 120.15625,100.359375 C120.15625,100.703127 120.040366,100.984374 119.808594,101.203125 C119.576822,101.421876 119.270835,101.53125 118.890625,101.53125 C118.510415,101.53125 118.204428,101.421876 117.972656,101.203125 C117.740884,100.984374 117.625,100.703127 117.625,100.359375 Z M126.460938,108.664062 C126.460938,108.388019 126.32422,108.170574 126.050781,108.011719 C125.777342,107.852864 125.338545,107.710938 124.734375,107.585938 C122.723948,107.16406 121.71875,106.309902 121.71875,105.023438 C121.71875,104.273434 122.029945,103.647138 122.652344,103.144531 C123.274743,102.641925 124.088537,102.390625 125.09375,102.390625 C126.166672,102.390625 127.024736,102.643227 127.667969,103.148438 C128.311201,103.653648 128.632812,104.309892 128.632812,105.117188 L126.375,105.117188 C126.375,104.794269 126.270834,104.527345 126.0625,104.316406 C125.854166,104.105468 125.528648,104 125.085938,104 C124.705727,104 124.411459,104.085937 124.203125,104.257812 C123.994791,104.429688 123.890625,104.648436 123.890625,104.914062 C123.890625,105.164064 124.009113,105.365885 124.246094,105.519531 C124.483074,105.673178 124.88281,105.805989 125.445312,105.917969 C126.007815,106.029948 126.481769,106.156249 126.867188,106.296875 C128.059902,106.734377 128.65625,107.492182 128.65625,108.570312 C128.65625,109.34115 128.325524,109.964841 127.664062,110.441406 C127.002601,110.917971 126.148443,111.15625 125.101562,111.15625 C124.393226,111.15625 123.764326,111.029949 123.214844,110.777344 C122.665362,110.524738 122.234377,110.178388 121.921875,109.738281 C121.609373,109.298175 121.453125,108.822919 121.453125,108.3125 L123.59375,108.3125 C123.614583,108.713544 123.763019,109.020832 124.039062,109.234375 C124.315106,109.447918 124.684894,109.554688 125.148438,109.554688 C125.580731,109.554688 125.907551,109.472657 126.128906,109.308594 C126.350262,109.14453 126.460938,108.929689 126.460938,108.664062 Z M136.585938,106.992188 L136.585938,111 L134.242188,111 L134.242188,99.625 L138.679688,99.625 C139.533858,99.625 140.285153,99.7812484 140.933594,100.09375 C141.582034,100.406252 142.080727,100.850258 142.429688,101.425781 C142.778648,102.001305 142.953125,102.656246 142.953125,103.390625 C142.953125,104.505214 142.571618,105.384111 141.808594,106.027344 C141.045569,106.670576 139.98959,106.992188 138.640625,106.992188 L136.585938,106.992188 Z M136.585938,105.09375 L138.679688,105.09375 C139.299482,105.09375 139.772134,104.947918 140.097656,104.65625 C140.423179,104.364582 140.585938,103.947919 140.585938,103.40625 C140.585938,102.848956 140.421877,102.398439 140.09375,102.054688 C139.765623,101.710936 139.312503,101.533854 138.734375,101.523438 L136.585938,101.523438 L136.585938,105.09375 Z M148.304688,111.15625 C147.065098,111.15625 146.055993,110.776045 145.277344,110.015625 C144.498694,109.255205 144.109375,108.242194 144.109375,106.976562 L144.109375,106.757812 C144.109375,105.90885 144.273436,105.149743 144.601562,104.480469 C144.929689,103.811195 145.394528,103.295575 145.996094,102.933594 C146.597659,102.571613 147.28385,102.390625 148.054688,102.390625 C149.210943,102.390625 150.12109,102.755205 150.785156,103.484375 C151.449222,104.213545 151.78125,105.247389 151.78125,106.585938 L151.78125,107.507812 L146.398438,107.507812 C146.471355,108.059899 146.691404,108.502602 147.058594,108.835938 C147.425783,109.169273 147.890622,109.335938 148.453125,109.335938 C149.322921,109.335938 150.002602,109.020836 150.492188,108.390625 L151.601562,109.632812 C151.263019,110.111982 150.80469,110.485676 150.226562,110.753906 C149.648435,111.022137 149.007816,111.15625 148.304688,111.15625 Z M148.046875,104.21875 C147.598956,104.21875 147.235678,104.36979 146.957031,104.671875 C146.678384,104.97396 146.5,105.406247 146.421875,105.96875 L149.5625,105.96875 L149.5625,105.789062 C149.552083,105.28906 149.416668,104.902345 149.15625,104.628906 C148.895832,104.355467 148.526044,104.21875 148.046875,104.21875 Z M155.765625,100.46875 L155.765625,102.546875 L157.210938,102.546875 L157.210938,104.203125 L155.765625,104.203125 L155.765625,108.421875 C155.765625,108.734377 155.82552,108.958333 155.945312,109.09375 C156.065105,109.229167 156.294269,109.296875 156.632812,109.296875 C156.882814,109.296875 157.104166,109.278646 157.296875,109.242188 L157.296875,110.953125 C156.854164,111.088542 156.39844,111.15625 155.929688,111.15625 C154.346346,111.15625 153.539063,110.356779 153.507812,108.757812 L153.507812,104.203125 L152.273438,104.203125 L152.273438,102.546875 L153.507812,102.546875 L153.507812,100.46875 L155.765625,100.46875 Z M162.359375,111.15625 C161.119785,111.15625 160.110681,110.776045 159.332031,110.015625 C158.553382,109.255205 158.164062,108.242194 158.164062,106.976562 L158.164062,106.757812 C158.164062,105.90885 158.328123,105.149743 158.65625,104.480469 C158.984377,103.811195 159.449216,103.295575 160.050781,102.933594 C160.652347,102.571613 161.338538,102.390625 162.109375,102.390625 C163.265631,102.390625 164.175778,102.755205 164.839844,103.484375 C165.50391,104.213545 165.835938,105.247389 165.835938,106.585938 L165.835938,107.507812 L160.453125,107.507812 C160.526042,108.059899 160.746092,108.502602 161.113281,108.835938 C161.480471,109.169273 161.94531,109.335938 162.507812,109.335938 C163.377609,109.335938 164.057289,109.020836 164.546875,108.390625 L165.65625,109.632812 C165.317707,110.111982 164.859378,110.485676 164.28125,110.753906 C163.703122,111.022137 163.062504,111.15625 162.359375,111.15625 Z M162.101562,104.21875 C161.653644,104.21875 161.290366,104.36979 161.011719,104.671875 C160.733072,104.97396 160.554688,105.406247 160.476562,105.96875 L163.617188,105.96875 L163.617188,105.789062 C163.606771,105.28906 163.471355,104.902345 163.210938,104.628906 C162.95052,104.355467 162.580732,104.21875 162.101562,104.21875 Z M171.867188,104.664062 C171.559894,104.622396 171.289064,104.601562 171.054688,104.601562 C170.200517,104.601562 169.640626,104.890622 169.375,105.46875 L169.375,111 L167.117188,111 L167.117188,102.546875 L169.25,102.546875 L169.3125,103.554688 C169.765627,102.778642 170.393225,102.390625 171.195312,102.390625 C171.445314,102.390625 171.679686,102.424479 171.898438,102.492188 L171.867188,104.664062 Z M177.53125,108.664062 C177.53125,108.388019 177.394533,108.170574 177.121094,108.011719 C176.847655,107.852864 176.408857,107.710938 175.804688,107.585938 C173.794261,107.16406 172.789062,106.309902 172.789062,105.023438 C172.789062,104.273434 173.100257,103.647138 173.722656,103.144531 C174.345055,102.641925 175.158849,102.390625 176.164062,102.390625 C177.236985,102.390625 178.095049,102.643227 178.738281,103.148438 C179.381514,103.653648 179.703125,104.309892 179.703125,105.117188 L177.445312,105.117188 C177.445312,104.794269 177.341147,104.527345 177.132812,104.316406 C176.924478,104.105468 176.598961,104 176.15625,104 C175.77604,104 175.481772,104.085937 175.273438,104.257812 C175.065103,104.429688 174.960938,104.648436 174.960938,104.914062 C174.960938,105.164064 175.079426,105.365885 175.316406,105.519531 C175.553387,105.673178 175.953122,105.805989 176.515625,105.917969 C177.078128,106.029948 177.552081,106.156249 177.9375,106.296875 C179.130214,106.734377 179.726562,107.492182 179.726562,108.570312 C179.726562,109.34115 179.395837,109.964841 178.734375,110.441406 C178.072913,110.917971 177.218755,111.15625 176.171875,111.15625 C175.463538,111.15625 174.834638,111.029949 174.285156,110.777344 C173.735674,110.524738 173.304689,110.178388 172.992188,109.738281 C172.679686,109.298175 172.523438,108.822919 172.523438,108.3125 L174.664062,108.3125 C174.684896,108.713544 174.833332,109.020832 175.109375,109.234375 C175.385418,109.447918 175.755206,109.554688 176.21875,109.554688 C176.651044,109.554688 176.977863,109.472657 177.199219,109.308594 C177.420574,109.14453 177.53125,108.929689 177.53125,108.664062 Z M180.828125,106.695312 C180.828125,105.856767 180.989582,105.109378 181.3125,104.453125 C181.635418,103.796872 182.100257,103.289064 182.707031,102.929688 C183.313805,102.570311 184.018225,102.390625 184.820312,102.390625 C185.960943,102.390625 186.891923,102.73958 187.613281,103.4375 C188.334639,104.13542 188.736979,105.083327 188.820312,106.28125 L188.835938,106.859375 C188.835938,108.156256 188.473962,109.196611 187.75,109.980469 C187.026038,110.764327 186.054694,111.15625 184.835938,111.15625 C183.617181,111.15625 182.644535,110.765629 181.917969,109.984375 C181.191403,109.203121 180.828125,108.140632 180.828125,106.796875 L180.828125,106.695312 Z M183.085938,106.859375 C183.085938,107.661462 183.236978,108.274737 183.539062,108.699219 C183.841147,109.1237 184.273435,109.335938 184.835938,109.335938 C185.382815,109.335938 185.809894,109.126304 186.117188,108.707031 C186.424481,108.287758 186.578125,107.617192 186.578125,106.695312 C186.578125,105.90885 186.424481,105.299481 186.117188,104.867188 C185.809894,104.434894 185.377607,104.21875 184.820312,104.21875 C184.268226,104.21875 183.841147,104.433592 183.539062,104.863281 C183.236978,105.292971 183.085938,105.958329 183.085938,106.859375 Z M192.304688,102.546875 L192.375,103.523438 C192.97917,102.768225 193.789057,102.390625 194.804688,102.390625 C195.700525,102.390625 196.367185,102.653643 196.804688,103.179688 C197.24219,103.705732 197.466146,104.492182 197.476562,105.539062 L197.476562,111 L195.21875,111 L195.21875,105.59375 C195.21875,105.114581 195.114584,104.766928 194.90625,104.550781 C194.697916,104.334634 194.351565,104.226562 193.867188,104.226562 C193.231768,104.226562 192.75521,104.497393 192.4375,105.039062 L192.4375,111 L190.179688,111 L190.179688,102.546875 L192.304688,102.546875 Z" id="Phyllis-Peterson" fill="#000000"></path>
                <path d="M99.963623,121.601562 L102.05542,126.822266 L104.147217,121.601562 L105.241455,121.601562 L105.241455,128 L104.397705,128 L104.397705,125.508301 L104.476807,122.818848 L102.376221,128 L101.730225,128 L99.6340332,122.832031 L99.7175293,125.508301 L99.7175293,128 L98.8737793,128 L98.8737793,121.601562 L99.963623,121.601562 Z M108.576904,128.087891 C107.93237,128.087891 107.407961,127.876223 107.003662,127.452881 C106.599363,127.029539 106.397217,126.463382 106.397217,125.754395 L106.397217,125.60498 C106.397217,125.133298 106.487304,124.71216 106.66748,124.341553 C106.847657,123.970945 107.099608,123.680909 107.42334,123.471436 C107.747072,123.261962 108.097899,123.157227 108.47583,123.157227 C109.093997,123.157227 109.574461,123.360838 109.917236,123.768066 C110.260011,124.175295 110.431396,124.758297 110.431396,125.51709 L110.431396,125.855469 L107.210205,125.855469 C107.221924,126.324221 107.358885,126.702879 107.621094,126.991455 C107.883302,127.280031 108.216551,127.424316 108.62085,127.424316 C108.90796,127.424316 109.151122,127.365723 109.350342,127.248535 C109.549562,127.131347 109.723876,126.976075 109.873291,126.782715 L110.369873,127.169434 C109.971434,127.781741 109.373783,128.087891 108.576904,128.087891 Z M108.47583,123.825195 C108.147703,123.825195 107.872316,123.944579 107.649658,124.18335 C107.427001,124.42212 107.289307,124.756834 107.236572,125.1875 L109.618408,125.1875 L109.618408,125.125977 C109.594971,124.712889 109.483644,124.392823 109.284424,124.165771 C109.085204,123.93872 108.815676,123.825195 108.47583,123.825195 Z M112.136475,123.245117 L112.158447,123.772461 C112.507082,123.362303 112.977292,123.157227 113.569092,123.157227 C114.234134,123.157227 114.686766,123.412107 114.927002,123.921875 C115.085206,123.693358 115.291014,123.50879 115.544434,123.368164 C115.797853,123.227538 116.09741,123.157227 116.443115,123.157227 C117.486089,123.157227 118.016357,123.709467 118.033936,124.813965 L118.033936,128 L117.220947,128 L117.220947,124.862305 C117.220947,124.522459 117.143311,124.268311 116.988037,124.099854 C116.832763,123.931396 116.572023,123.847168 116.205811,123.847168 C115.904051,123.847168 115.653565,123.937255 115.454346,124.117432 C115.255126,124.297608 115.139404,124.540038 115.107178,124.844727 L115.107178,128 L114.289795,128 L114.289795,124.884277 C114.289795,124.192868 113.951419,123.847168 113.274658,123.847168 C112.741452,123.847168 112.37671,124.074216 112.18042,124.52832 L112.18042,128 L111.367432,128 L111.367432,123.245117 L112.136475,123.245117 Z M123.2854,125.675293 C123.2854,126.401859 123.11841,126.985593 122.784424,127.426514 C122.450438,127.867434 122.0022,128.087891 121.439697,128.087891 C120.839108,128.087891 120.374758,127.87549 120.046631,127.450684 L120.00708,128 L119.26001,128 L119.26001,121.25 L120.072998,121.25 L120.072998,123.768066 C120.401125,123.360838 120.853757,123.157227 121.430908,123.157227 C122.00806,123.157227 122.461424,123.375486 122.791016,123.812012 C123.120607,124.248537 123.2854,124.846188 123.2854,125.60498 L123.2854,125.675293 Z M122.472412,125.583008 C122.472412,125.029294 122.36548,124.601564 122.151611,124.299805 C121.937743,123.998045 121.630129,123.847168 121.22876,123.847168 C120.692624,123.847168 120.307374,124.096189 120.072998,124.594238 L120.072998,126.650879 C120.322023,127.148928 120.710202,127.397949 121.237549,127.397949 C121.627199,127.397949 121.930419,127.247072 122.147217,126.945312 C122.364015,126.643553 122.472412,126.189456 122.472412,125.583008 Z M126.282471,128.087891 C125.637936,128.087891 125.113527,127.876223 124.709229,127.452881 C124.30493,127.029539 124.102783,126.463382 124.102783,125.754395 L124.102783,125.60498 C124.102783,125.133298 124.19287,124.71216 124.373047,124.341553 C124.553224,123.970945 124.805174,123.680909 125.128906,123.471436 C125.452638,123.261962 125.803465,123.157227 126.181396,123.157227 C126.799564,123.157227 127.280028,123.360838 127.622803,123.768066 C127.965578,124.175295 128.136963,124.758297 128.136963,125.51709 L128.136963,125.855469 L124.915771,125.855469 C124.92749,126.324221 125.064452,126.702879 125.32666,126.991455 C125.588868,127.280031 125.922117,127.424316 126.326416,127.424316 C126.613527,127.424316 126.856688,127.365723 127.055908,127.248535 C127.255128,127.131347 127.429443,126.976075 127.578857,126.782715 L128.075439,127.169434 C127.677,127.781741 127.07935,128.087891 126.282471,128.087891 Z M126.181396,123.825195 C125.85327,123.825195 125.577882,123.944579 125.355225,124.18335 C125.132567,124.42212 124.994873,124.756834 124.942139,125.1875 L127.323975,125.1875 L127.323975,125.125977 C127.300537,124.712889 127.18921,124.392823 126.98999,124.165771 C126.79077,123.93872 126.521242,123.825195 126.181396,123.825195 Z M131.375732,123.974609 C131.252685,123.954101 131.119385,123.943848 130.97583,123.943848 C130.442624,123.943848 130.080811,124.170896 129.890381,124.625 L129.890381,128 L129.077393,128 L129.077393,123.245117 L129.868408,123.245117 L129.881592,123.794434 C130.148195,123.369627 130.526121,123.157227 131.015381,123.157227 C131.173585,123.157227 131.293701,123.177734 131.375732,123.21875 L131.375732,123.974609 Z M135.383545,128 L134.539795,128 L134.539795,121.601562 L135.383545,121.601562 L135.383545,128 Z M136.926025,128 L136.926025,121.601562 L138.732178,121.601562 C139.288821,121.601562 139.781004,121.724608 140.20874,121.970703 C140.636477,122.216798 140.966796,122.566892 141.199707,123.020996 C141.432618,123.4751 141.550537,123.996579 141.553467,124.585449 L141.553467,124.994141 C141.553467,125.597659 141.437013,126.126463 141.204102,126.580566 C140.97119,127.03467 140.638674,127.3833 140.206543,127.626465 C139.774412,127.86963 139.271243,127.994141 138.697021,128 L136.926025,128 Z M137.769775,122.295898 L137.769775,127.310059 L138.657471,127.310059 C139.307865,127.310059 139.813963,127.107912 140.175781,126.703613 C140.537599,126.299314 140.718506,125.723637 140.718506,124.976562 L140.718506,124.603027 C140.718506,123.876461 140.547853,123.31177 140.206543,122.908936 C139.865233,122.506102 139.381107,122.301758 138.75415,122.295898 L137.769775,122.295898 Z M142.674072,127.57373 C142.674072,127.433105 142.71582,127.315918 142.799316,127.222168 C142.882813,127.128417 143.008056,127.081543 143.175049,127.081543 C143.342042,127.081543 143.46875,127.128417 143.555176,127.222168 C143.641602,127.315918 143.684814,127.433105 143.684814,127.57373 C143.684814,127.708497 143.641602,127.821289 143.555176,127.912109 C143.46875,128.00293 143.342042,128.04834 143.175049,128.04834 C143.008056,128.04834 142.882813,128.00293 142.799316,127.912109 C142.71582,127.821289 142.674072,127.708497 142.674072,127.57373 Z M142.678467,123.693359 C142.678467,123.552734 142.720214,123.435547 142.803711,123.341797 C142.887207,123.248046 143.01245,123.201172 143.179443,123.201172 C143.346436,123.201172 143.473144,123.248046 143.55957,123.341797 C143.645997,123.435547 143.689209,123.552734 143.689209,123.693359 C143.689209,123.828126 143.645997,123.940918 143.55957,124.031738 C143.473144,124.122559 143.346436,124.167969 143.179443,124.167969 C143.01245,124.167969 142.887207,124.122559 142.803711,124.031738 C142.720214,123.940918 142.678467,123.828126 142.678467,123.693359 Z M150.905029,123.271484 C150.905029,123.590822 150.820802,123.874999 150.652344,124.124023 C150.483886,124.373048 150.256105,124.56787 149.968994,124.708496 C150.30298,124.852051 150.567382,125.061522 150.762207,125.336914 C150.957032,125.612306 151.054443,125.924315 151.054443,126.272949 C151.054443,126.826663 150.867678,127.267576 150.494141,127.595703 C150.120604,127.92383 149.629153,128.087891 149.019775,128.087891 C148.404538,128.087891 147.911623,127.923097 147.541016,127.593506 C147.170408,127.263914 146.985107,126.823733 146.985107,126.272949 C146.985107,125.927244 147.079589,125.615236 147.268555,125.336914 C147.45752,125.058592 147.718992,124.847657 148.052979,124.704102 C147.768797,124.563476 147.544679,124.368654 147.380615,124.119629 C147.216552,123.870604 147.134521,123.587892 147.134521,123.271484 C147.134521,122.732419 147.307371,122.304689 147.653076,121.988281 C147.998781,121.671873 148.454343,121.513672 149.019775,121.513672 C149.582278,121.513672 150.037108,121.671873 150.384277,121.988281 C150.731447,122.304689 150.905029,122.732419 150.905029,123.271484 Z M150.241455,126.255371 C150.241455,125.897947 150.127931,125.606446 149.900879,125.380859 C149.673827,125.155272 149.377199,125.04248 149.010986,125.04248 C148.644774,125.04248 148.351075,125.153807 148.129883,125.376465 C147.90869,125.599122 147.798096,125.892088 147.798096,126.255371 C147.798096,126.618654 147.905761,126.904296 148.121094,127.112305 C148.336427,127.320314 148.635984,127.424316 149.019775,127.424316 C149.400637,127.424316 149.699462,127.319581 149.91626,127.110107 C150.133058,126.900634 150.241455,126.615724 150.241455,126.255371 Z M149.019775,122.181641 C148.700438,122.181641 148.441896,122.280517 148.244141,122.478271 C148.046386,122.676026 147.94751,122.944823 147.94751,123.284668 C147.94751,123.609865 148.044921,123.872802 148.239746,124.073486 C148.434571,124.274171 148.694578,124.374512 149.019775,124.374512 C149.344972,124.374512 149.604979,124.274171 149.799805,124.073486 C149.99463,123.872802 150.092041,123.609865 150.092041,123.284668 C150.092041,122.959471 149.990968,122.694337 149.788818,122.489258 C149.586669,122.284179 149.330324,122.181641 149.019775,122.181641 Z M155.510498,125.851074 L156.398193,125.851074 L156.398193,126.514648 L155.510498,126.514648 L155.510498,128 L154.693115,128 L154.693115,126.514648 L151.779541,126.514648 L151.779541,126.035645 L154.644775,121.601562 L155.510498,121.601562 L155.510498,125.851074 Z M152.702393,125.851074 L154.693115,125.851074 L154.693115,122.713379 L154.596436,122.88916 L152.702393,125.851074 Z M158.314209,124.405273 L158.925049,124.405273 C159.30884,124.399414 159.610595,124.298341 159.830322,124.102051 C160.05005,123.905761 160.159912,123.640627 160.159912,123.306641 C160.159912,122.556637 159.786381,122.181641 159.039307,122.181641 C158.687742,122.181641 158.407228,122.281981 158.197754,122.482666 C157.98828,122.683351 157.883545,122.949217 157.883545,123.280273 L157.070557,123.280273 C157.070557,122.773435 157.255858,122.352297 157.626465,122.016846 C157.997072,121.681395 158.468015,121.513672 159.039307,121.513672 C159.642825,121.513672 160.115965,121.673338 160.45874,121.992676 C160.801515,122.312013 160.9729,122.755857 160.9729,123.324219 C160.9729,123.60254 160.882813,123.872069 160.702637,124.132812 C160.52246,124.393556 160.277101,124.588378 159.966553,124.717285 C160.318117,124.828614 160.589843,125.013182 160.781738,125.270996 C160.973634,125.52881 161.06958,125.843748 161.06958,126.21582 C161.06958,126.790042 160.882082,127.245604 160.50708,127.58252 C160.132078,127.919435 159.64429,128.087891 159.043701,128.087891 C158.443112,128.087891 157.954592,127.925295 157.578125,127.600098 C157.201658,127.274901 157.013428,126.845706 157.013428,126.3125 L157.830811,126.3125 C157.830811,126.649416 157.940673,126.918944 158.1604,127.121094 C158.380128,127.323243 158.674559,127.424316 159.043701,127.424316 C159.436281,127.424316 159.736571,127.321778 159.94458,127.116699 C160.152589,126.91162 160.256592,126.617189 160.256592,126.233398 C160.256592,125.861326 160.142335,125.575685 159.913818,125.376465 C159.685302,125.177245 159.355715,125.074707 158.925049,125.068848 L158.314209,125.068848 L158.314209,124.405273 Z M166.31665,122.058594 L163.666748,128 L162.814209,128 L165.455322,122.269531 L161.992432,122.269531 L161.992432,121.601562 L166.31665,121.601562 L166.31665,122.058594 Z M170.429932,121.597168 L170.429932,122.287109 L170.280518,122.287109 C169.647702,122.298828 169.143801,122.486326 168.768799,122.849609 C168.393797,123.212892 168.177002,123.724118 168.118408,124.383301 C168.455324,123.99658 168.91528,123.803223 169.498291,123.803223 C170.054934,123.803223 170.49951,123.99951 170.832031,124.39209 C171.164552,124.78467 171.330811,125.291501 171.330811,125.912598 C171.330811,126.571781 171.151369,127.099119 170.79248,127.494629 C170.433592,127.890139 169.952396,128.087891 169.348877,128.087891 C168.736569,128.087891 168.239992,127.852786 167.859131,127.382568 C167.47827,126.912351 167.287842,126.306644 167.287842,125.56543 L167.287842,125.253418 C167.287842,124.075678 167.53906,123.17554 168.041504,122.552979 C168.543948,121.930417 169.291743,121.611816 170.284912,121.597168 L170.429932,121.597168 Z M169.362061,124.47998 C169.083739,124.47998 168.827394,124.563476 168.593018,124.730469 C168.358641,124.897462 168.196045,125.106932 168.105225,125.358887 L168.105225,125.657715 C168.105225,126.185061 168.223876,126.609862 168.461182,126.932129 C168.698488,127.254396 168.994383,127.415527 169.348877,127.415527 C169.71509,127.415527 170.002929,127.280763 170.212402,127.01123 C170.421876,126.741698 170.526611,126.388674 170.526611,125.952148 C170.526611,125.512693 170.420411,125.157472 170.208008,124.886475 C169.995604,124.615477 169.713625,124.47998 169.362061,124.47998 Z M176.424072,122.058594 L173.77417,128 L172.921631,128 L175.562744,122.269531 L172.099854,122.269531 L172.099854,121.601562 L176.424072,121.601562 L176.424072,122.058594 Z M180.018799,128 L179.201416,128 L179.201416,122.581543 L177.562256,123.183594 L177.562256,122.445312 L179.891357,121.570801 L180.018799,121.570801 L180.018799,128 Z" id="Member-ID:-8437671" fill="#000000"></path>
                <path d="M83.2600098,141.879395 L85.0881348,136.601562 L86.0109863,136.601562 L83.6379395,143 L82.8908691,143 L80.5222168,136.601562 L81.4406738,136.601562 L83.2600098,141.879395 Z M89.6760254,143 C89.6291502,142.90625 89.5910646,142.739259 89.5617676,142.499023 C89.183836,142.891604 88.7326686,143.087891 88.208252,143.087891 C87.7394996,143.087891 87.354982,142.955324 87.0546875,142.690186 C86.754393,142.425048 86.604248,142.088869 86.604248,141.681641 C86.604248,141.186521 86.7924786,140.802003 87.1689453,140.528076 C87.545412,140.254149 88.0749478,140.117188 88.7575684,140.117188 L89.548584,140.117188 L89.548584,139.743652 C89.548584,139.459471 89.4636239,139.233155 89.2937012,139.064697 C89.1237784,138.896239 88.8732927,138.812012 88.5422363,138.812012 C88.2521958,138.812012 88.0090342,138.885253 87.8127441,139.031738 C87.6164541,139.178223 87.5183105,139.355468 87.5183105,139.563477 L86.7009277,139.563477 C86.7009277,139.326171 86.7851554,139.096925 86.9536133,138.875732 C87.1220712,138.65454 87.3505845,138.479493 87.6391602,138.350586 C87.9277358,138.221679 88.2448713,138.157227 88.5905762,138.157227 C89.1384305,138.157227 89.5676254,138.294188 89.8781738,138.568115 C90.1887223,138.842042 90.3498535,139.219236 90.3615723,139.699707 L90.3615723,141.888184 C90.3615723,142.324709 90.4172358,142.671874 90.5285645,142.929688 L90.5285645,143 L89.6760254,143 Z M88.3269043,142.380371 C88.5817884,142.380371 88.8234852,142.314454 89.052002,142.182617 C89.2805187,142.050781 89.4460444,141.879396 89.548584,141.668457 L89.548584,140.692871 L88.911377,140.692871 C87.9152782,140.692871 87.4172363,140.984372 87.4172363,141.567383 C87.4172363,141.822267 87.5021964,142.021484 87.6721191,142.165039 C87.8420419,142.308594 88.0603014,142.380371 88.3269043,142.380371 Z M92.5192871,143 L91.7062988,143 L91.7062988,136.25 L92.5192871,136.25 L92.5192871,143 Z M94.7033691,143 L93.8903809,143 L93.8903809,138.245117 L94.7033691,138.245117 L94.7033691,143 Z M93.8244629,136.983887 C93.8244629,136.85205 93.8647457,136.740723 93.9453125,136.649902 C94.0258793,136.559082 94.1452629,136.513672 94.3034668,136.513672 C94.4616707,136.513672 94.5817867,136.559082 94.6638184,136.649902 C94.74585,136.740723 94.7868652,136.85205 94.7868652,136.983887 C94.7868652,137.115723 94.74585,137.225585 94.6638184,137.313477 C94.5817867,137.401368 94.4616707,137.445312 94.3034668,137.445312 C94.1452629,137.445312 94.0258793,137.401368 93.9453125,137.313477 C93.8647457,137.225585 93.8244629,137.115723 93.8244629,136.983887 Z M95.8063965,140.583008 C95.8063965,139.853512 95.9792463,139.266848 96.3249512,138.822998 C96.670656,138.379148 97.1232882,138.157227 97.6828613,138.157227 C98.2395047,138.157227 98.6804183,138.347654 99.0056152,138.728516 L99.0056152,136.25 L99.8186035,136.25 L99.8186035,143 L99.0715332,143 L99.0319824,142.490234 C98.7067855,142.888674 98.2541533,143.087891 97.6740723,143.087891 C97.1232883,143.087891 96.6743181,142.862307 96.3271484,142.411133 C95.9799787,141.959959 95.8063965,141.371097 95.8063965,140.644531 L95.8063965,140.583008 Z M96.6193848,140.675293 C96.6193848,141.214358 96.7307118,141.636229 96.9533691,141.940918 C97.1760265,142.245607 97.4836406,142.397949 97.8762207,142.397949 C98.3918483,142.397949 98.7683094,142.166506 99.0056152,141.703613 L99.0056152,139.519531 C98.76245,139.071287 98.3889185,138.847168 97.8850098,138.847168 C97.4865703,138.847168 97.1760265,139.000975 96.9533691,139.308594 C96.7307118,139.616212 96.6193848,140.071774 96.6193848,140.675293 Z M106.243408,142.529785 C105.927,142.901857 105.46265,143.087891 104.850342,143.087891 C104.343503,143.087891 103.957521,142.940675 103.692383,142.64624 C103.427245,142.351805 103.293213,141.916019 103.290283,141.338867 L103.290283,138.245117 L104.103271,138.245117 L104.103271,141.316895 C104.103271,142.037601 104.396237,142.397949 104.982178,142.397949 C105.603275,142.397949 106.016356,142.166506 106.221436,141.703613 L106.221436,138.245117 L107.034424,138.245117 L107.034424,143 L106.260986,143 L106.243408,142.529785 Z M109.03833,138.245117 L109.064697,138.842773 C109.42798,138.38574 109.902585,138.157227 110.488525,138.157227 C111.493413,138.157227 112.000244,138.724115 112.009033,139.85791 L112.009033,143 L111.196045,143 L111.196045,139.853516 C111.193115,139.51074 111.114747,139.257325 110.960938,139.093262 C110.807128,138.929198 110.567629,138.847168 110.242432,138.847168 C109.978758,138.847168 109.747315,138.91748 109.548096,139.058105 C109.348876,139.198731 109.193604,139.3833 109.082275,139.611816 L109.082275,143 L108.269287,143 L108.269287,138.245117 L109.03833,138.245117 Z M114.338135,137.09375 L114.338135,138.245117 L115.22583,138.245117 L115.22583,138.873535 L114.338135,138.873535 L114.338135,141.822266 C114.338135,142.012696 114.377685,142.155517 114.456787,142.250732 C114.535889,142.345948 114.670653,142.393555 114.861084,142.393555 C114.954834,142.393555 115.083739,142.375977 115.247803,142.34082 L115.247803,143 C115.033934,143.058594 114.825929,143.087891 114.623779,143.087891 C114.260496,143.087891 113.986573,142.978028 113.802002,142.758301 C113.617431,142.538573 113.525146,142.226565 113.525146,141.822266 L113.525146,138.873535 L112.659424,138.873535 L112.659424,138.245117 L113.525146,138.245117 L113.525146,137.09375 L114.338135,137.09375 Z M117.05835,143 L116.245361,143 L116.245361,138.245117 L117.05835,138.245117 L117.05835,143 Z M116.179443,136.983887 C116.179443,136.85205 116.219726,136.740723 116.300293,136.649902 C116.38086,136.559082 116.500243,136.513672 116.658447,136.513672 C116.816651,136.513672 116.936767,136.559082 117.018799,136.649902 C117.10083,136.740723 117.141846,136.85205 117.141846,136.983887 C117.141846,137.115723 117.10083,137.225585 117.018799,137.313477 C116.936767,137.401368 116.816651,137.445312 116.658447,137.445312 C116.500243,137.445312 116.38086,137.401368 116.300293,137.313477 C116.219726,137.225585 116.179443,137.115723 116.179443,136.983887 Z M119.242432,143 L118.429443,143 L118.429443,136.25 L119.242432,136.25 L119.242432,143 Z M122.898682,143 L122.898682,136.601562 L124.704834,136.601562 C125.261477,136.601562 125.75366,136.724608 126.181396,136.970703 C126.609133,137.216798 126.939452,137.566892 127.172363,138.020996 C127.405275,138.4751 127.523193,138.996579 127.526123,139.585449 L127.526123,139.994141 C127.526123,140.597659 127.409669,141.126463 127.176758,141.580566 C126.943846,142.03467 126.61133,142.3833 126.179199,142.626465 C125.747068,142.86963 125.243899,142.994141 124.669678,143 L122.898682,143 Z M123.742432,137.295898 L123.742432,142.310059 L124.630127,142.310059 C125.280521,142.310059 125.786619,142.107912 126.148438,141.703613 C126.510256,141.299314 126.691162,140.723637 126.691162,139.976562 L126.691162,139.603027 C126.691162,138.876461 126.52051,138.31177 126.179199,137.908936 C125.837889,137.506102 125.353763,137.301758 124.726807,137.295898 L123.742432,137.295898 Z M130.64624,143.087891 C130.001706,143.087891 129.477297,142.876223 129.072998,142.452881 C128.668699,142.029539 128.466553,141.463382 128.466553,140.754395 L128.466553,140.60498 C128.466553,140.133298 128.55664,139.71216 128.736816,139.341553 C128.916993,138.970945 129.168944,138.680909 129.492676,138.471436 C129.816408,138.261962 130.167234,138.157227 130.545166,138.157227 C131.163333,138.157227 131.643797,138.360838 131.986572,138.768066 C132.329347,139.175295 132.500732,139.758297 132.500732,140.51709 L132.500732,140.855469 L129.279541,140.855469 C129.29126,141.324221 129.428221,141.702879 129.69043,141.991455 C129.952638,142.280031 130.285887,142.424316 130.690186,142.424316 C130.977296,142.424316 131.220458,142.365723 131.419678,142.248535 C131.618897,142.131347 131.793212,141.976075 131.942627,141.782715 L132.439209,142.169434 C132.040769,142.781741 131.443119,143.087891 130.64624,143.087891 Z M130.545166,138.825195 C130.217039,138.825195 129.941652,138.944579 129.718994,139.18335 C129.496337,139.42212 129.358643,139.756834 129.305908,140.1875 L131.687744,140.1875 L131.687744,140.125977 C131.664307,139.712889 131.55298,139.392823 131.35376,139.165771 C131.15454,138.93872 130.885011,138.825195 130.545166,138.825195 Z M135.348389,142.424316 C135.638429,142.424316 135.891845,142.336427 136.108643,142.160645 C136.325441,141.984862 136.445557,141.765138 136.468994,141.501465 L137.238037,141.501465 C137.223389,141.773927 137.12964,142.033202 136.956787,142.279297 C136.783935,142.525392 136.553224,142.721679 136.264648,142.868164 C135.976073,143.014649 135.670656,143.087891 135.348389,143.087891 C134.700924,143.087891 134.186037,142.871828 133.803711,142.439697 C133.421385,142.007566 133.230225,141.416508 133.230225,140.666504 L133.230225,140.530273 C133.230225,140.06738 133.315185,139.655764 133.485107,139.29541 C133.65503,138.935057 133.898924,138.655274 134.216797,138.456055 C134.53467,138.256835 134.910398,138.157227 135.343994,138.157227 C135.8772,138.157227 136.320311,138.316893 136.67334,138.63623 C137.026369,138.955568 137.214599,139.370115 137.238037,139.879883 L136.468994,139.879883 C136.445557,139.572264 136.329103,139.319581 136.119629,139.121826 C135.910155,138.924071 135.651613,138.825195 135.343994,138.825195 C134.930906,138.825195 134.610841,138.973875 134.383789,139.27124 C134.156737,139.568605 134.043213,139.998532 134.043213,140.561035 L134.043213,140.714844 C134.043213,141.262698 134.156005,141.684569 134.381592,141.980469 C134.607179,142.276369 134.929441,142.424316 135.348389,142.424316 Z M140.125244,143.087891 C139.48071,143.087891 138.956301,142.876223 138.552002,142.452881 C138.147703,142.029539 137.945557,141.463382 137.945557,140.754395 L137.945557,140.60498 C137.945557,140.133298 138.035644,139.71216 138.21582,139.341553 C138.395997,138.970945 138.647948,138.680909 138.97168,138.471436 C139.295412,138.261962 139.646238,138.157227 140.02417,138.157227 C140.642337,138.157227 141.122801,138.360838 141.465576,138.768066 C141.808351,139.175295 141.979736,139.758297 141.979736,140.51709 L141.979736,140.855469 L138.758545,140.855469 C138.770264,141.324221 138.907225,141.702879 139.169434,141.991455 C139.431642,142.280031 139.764891,142.424316 140.169189,142.424316 C140.4563,142.424316 140.699462,142.365723 140.898682,142.248535 C141.097901,142.131347 141.272216,141.976075 141.421631,141.782715 L141.918213,142.169434 C141.519773,142.781741 140.922123,143.087891 140.125244,143.087891 Z M140.02417,138.825195 C139.696043,138.825195 139.420655,138.944579 139.197998,139.18335 C138.975341,139.42212 138.837647,139.756834 138.784912,140.1875 L141.166748,140.1875 L141.166748,140.125977 C141.14331,139.712889 141.031983,139.392823 140.832764,139.165771 C140.633544,138.93872 140.364015,138.825195 140.02417,138.825195 Z M143.684814,138.245117 L143.706787,138.772461 C144.055422,138.362303 144.525632,138.157227 145.117432,138.157227 C145.782474,138.157227 146.235106,138.412107 146.475342,138.921875 C146.633546,138.693358 146.839354,138.50879 147.092773,138.368164 C147.346193,138.227538 147.64575,138.157227 147.991455,138.157227 C149.034429,138.157227 149.564697,138.709467 149.582275,139.813965 L149.582275,143 L148.769287,143 L148.769287,139.862305 C148.769287,139.522459 148.691651,139.268311 148.536377,139.099854 C148.381103,138.931396 148.120363,138.847168 147.75415,138.847168 C147.452391,138.847168 147.201905,138.937255 147.002686,139.117432 C146.803466,139.297608 146.687744,139.540038 146.655518,139.844727 L146.655518,143 L145.838135,143 L145.838135,139.884277 C145.838135,139.192868 145.499759,138.847168 144.822998,138.847168 C144.289792,138.847168 143.92505,139.074216 143.72876,139.52832 L143.72876,143 L142.915771,143 L142.915771,138.245117 L143.684814,138.245117 Z M154.83374,140.675293 C154.83374,141.401859 154.66675,141.985593 154.332764,142.426514 C153.998778,142.867434 153.55054,143.087891 152.988037,143.087891 C152.387448,143.087891 151.923097,142.87549 151.594971,142.450684 L151.55542,143 L150.80835,143 L150.80835,136.25 L151.621338,136.25 L151.621338,138.768066 C151.949465,138.360838 152.402097,138.157227 152.979248,138.157227 C153.556399,138.157227 154.009764,138.375486 154.339355,138.812012 C154.668947,139.248537 154.83374,139.846188 154.83374,140.60498 L154.83374,140.675293 Z M154.020752,140.583008 C154.020752,140.029294 153.913819,139.601564 153.699951,139.299805 C153.486083,138.998045 153.178469,138.847168 152.7771,138.847168 C152.240964,138.847168 151.855714,139.096189 151.621338,139.594238 L151.621338,141.650879 C151.870363,142.148928 152.258542,142.397949 152.785889,142.397949 C153.175539,142.397949 153.478759,142.247072 153.695557,141.945312 C153.912355,141.643553 154.020752,141.189456 154.020752,140.583008 Z M157.830811,143.087891 C157.186276,143.087891 156.661867,142.876223 156.257568,142.452881 C155.853269,142.029539 155.651123,141.463382 155.651123,140.754395 L155.651123,140.60498 C155.651123,140.133298 155.74121,139.71216 155.921387,139.341553 C156.101563,138.970945 156.353514,138.680909 156.677246,138.471436 C157.000978,138.261962 157.351805,138.157227 157.729736,138.157227 C158.347903,138.157227 158.828367,138.360838 159.171143,138.768066 C159.513918,139.175295 159.685303,139.758297 159.685303,140.51709 L159.685303,140.855469 L156.464111,140.855469 C156.47583,141.324221 156.612792,141.702879 156.875,141.991455 C157.137208,142.280031 157.470457,142.424316 157.874756,142.424316 C158.161867,142.424316 158.405028,142.365723 158.604248,142.248535 C158.803468,142.131347 158.977782,141.976075 159.127197,141.782715 L159.623779,142.169434 C159.22534,142.781741 158.62769,143.087891 157.830811,143.087891 Z M157.729736,138.825195 C157.40161,138.825195 157.126222,138.944579 156.903564,139.18335 C156.680907,139.42212 156.543213,139.756834 156.490479,140.1875 L158.872314,140.1875 L158.872314,140.125977 C158.848877,139.712889 158.73755,139.392823 158.53833,139.165771 C158.33911,138.93872 158.069582,138.825195 157.729736,138.825195 Z M162.924072,138.974609 C162.801025,138.954101 162.667725,138.943848 162.52417,138.943848 C161.990964,138.943848 161.629151,139.170896 161.438721,139.625 L161.438721,143 L160.625732,143 L160.625732,138.245117 L161.416748,138.245117 L161.429932,138.794434 C161.696535,138.369627 162.07446,138.157227 162.563721,138.157227 C162.721925,138.157227 162.842041,138.177734 162.924072,138.21875 L162.924072,138.974609 Z M168.487549,143 L167.670166,143 L167.670166,137.581543 L166.031006,138.183594 L166.031006,137.445312 L168.360107,136.570801 L168.487549,136.570801 L168.487549,143 Z M171.24292,139.791992 L171.568115,136.601562 L174.846436,136.601562 L174.846436,137.353027 L172.258057,137.353027 L172.064697,139.097656 C172.378175,138.913085 172.734129,138.820801 173.132568,138.820801 C173.715579,138.820801 174.178465,139.013426 174.52124,139.398682 C174.864015,139.783937 175.0354,140.304684 175.0354,140.960938 C175.0354,141.62012 174.857424,142.139402 174.501465,142.518799 C174.145506,142.898195 173.648197,143.087891 173.009521,143.087891 C172.444089,143.087891 171.982668,142.931154 171.625244,142.617676 C171.26782,142.304198 171.064209,141.870608 171.014404,141.316895 L171.783447,141.316895 C171.833252,141.683107 171.963622,141.959228 172.174561,142.145264 C172.385499,142.3313 172.663817,142.424316 173.009521,142.424316 C173.387453,142.424316 173.684081,142.295411 173.899414,142.037598 C174.114747,141.779784 174.222412,141.42383 174.222412,140.969727 C174.222412,140.54199 174.105958,140.198488 173.873047,139.939209 C173.640136,139.67993 173.330324,139.550293 172.943604,139.550293 C172.58911,139.550293 172.310792,139.627929 172.108643,139.783203 L171.893311,139.958984 L171.24292,139.791992 Z M175.980225,144.274414 L175.518799,143.958008 C175.794191,143.574217 175.937744,143.178713 175.949463,142.771484 L175.949463,142.037598 L176.744873,142.037598 L176.744873,142.674805 C176.744873,142.970705 176.672364,143.2666 176.527344,143.5625 C176.382323,143.8584 176.199952,144.095702 175.980225,144.274414 Z M184.110107,143 L179.917725,143 L179.917725,142.415527 L182.132568,139.95459 C182.460695,139.582518 182.687011,139.28003 182.811523,139.047119 C182.936036,138.814208 182.998291,138.573243 182.998291,138.324219 C182.998291,137.990233 182.897218,137.71631 182.695068,137.502441 C182.492919,137.288573 182.22339,137.181641 181.886475,137.181641 C181.482176,137.181641 181.16797,137.29663 180.943848,137.526611 C180.719725,137.756593 180.607666,138.076658 180.607666,138.486816 L179.794678,138.486816 C179.794678,137.897946 179.984373,137.421877 180.36377,137.058594 C180.743166,136.695311 181.250729,136.513672 181.886475,136.513672 C182.481204,136.513672 182.951414,136.669676 183.297119,136.981689 C183.642824,137.293703 183.815674,137.708982 183.815674,138.227539 C183.815674,138.857425 183.414311,139.607418 182.611572,140.477539 L180.897705,142.336426 L184.110107,142.336426 L184.110107,143 Z M188.983643,140.270996 C188.983643,141.223149 188.821047,141.930662 188.49585,142.393555 C188.170653,142.856448 187.662357,143.087891 186.970947,143.087891 C186.288327,143.087891 185.782961,142.861575 185.454834,142.408936 C185.126707,141.956297 184.956787,141.280278 184.945068,140.380859 L184.945068,139.29541 C184.945068,138.354976 185.107664,137.656252 185.432861,137.199219 C185.758058,136.742185 186.267819,136.513672 186.962158,136.513672 C187.650638,136.513672 188.157469,136.734129 188.482666,137.175049 C188.807863,137.615969 188.974853,138.296382 188.983643,139.216309 L188.983643,140.270996 Z M188.170654,139.15918 C188.170654,138.4707 188.073976,137.968996 187.880615,137.654053 C187.687255,137.33911 187.381106,137.181641 186.962158,137.181641 C186.54614,137.181641 186.242921,137.338377 186.05249,137.651855 C185.86206,137.965334 185.763916,138.447262 185.758057,139.097656 L185.758057,140.398438 C185.758057,141.089847 185.858397,141.60034 186.059082,141.929932 C186.259767,142.259523 186.563719,142.424316 186.970947,142.424316 C187.372316,142.424316 187.670409,142.269045 187.865234,141.958496 C188.06006,141.647948 188.161865,141.158695 188.170654,140.490723 L188.170654,139.15918 Z M191.207275,139.405273 L191.818115,139.405273 C192.201906,139.399414 192.503661,139.298341 192.723389,139.102051 C192.943116,138.905761 193.052979,138.640627 193.052979,138.306641 C193.052979,137.556637 192.679447,137.181641 191.932373,137.181641 C191.580809,137.181641 191.300294,137.281981 191.09082,137.482666 C190.881347,137.683351 190.776611,137.949217 190.776611,138.280273 L189.963623,138.280273 C189.963623,137.773435 190.148924,137.352297 190.519531,137.016846 C190.890139,136.681395 191.361081,136.513672 191.932373,136.513672 C192.535892,136.513672 193.009031,136.673338 193.351807,136.992676 C193.694582,137.312013 193.865967,137.755857 193.865967,138.324219 C193.865967,138.60254 193.77588,138.872069 193.595703,139.132812 C193.415526,139.393556 193.170168,139.588378 192.859619,139.717285 C193.211183,139.828614 193.482909,140.013182 193.674805,140.270996 C193.8667,140.52881 193.962646,140.843748 193.962646,141.21582 C193.962646,141.790042 193.775148,142.245604 193.400146,142.58252 C193.025145,142.919435 192.537357,143.087891 191.936768,143.087891 C191.336179,143.087891 190.847658,142.925295 190.471191,142.600098 C190.094725,142.274901 189.906494,141.845706 189.906494,141.3125 L190.723877,141.3125 C190.723877,141.649416 190.833739,141.918944 191.053467,142.121094 C191.273194,142.323243 191.567625,142.424316 191.936768,142.424316 C192.329348,142.424316 192.629638,142.321778 192.837646,142.116699 C193.045655,141.91162 193.149658,141.617189 193.149658,141.233398 C193.149658,140.861326 193.035402,140.575685 192.806885,140.376465 C192.578368,140.177245 192.248781,140.074707 191.818115,140.068848 L191.207275,140.068848 L191.207275,139.405273 Z M199.27124,143 L195.078857,143 L195.078857,142.415527 L197.293701,139.95459 C197.621828,139.582518 197.848144,139.28003 197.972656,139.047119 C198.097169,138.814208 198.159424,138.573243 198.159424,138.324219 C198.159424,137.990233 198.058351,137.71631 197.856201,137.502441 C197.654052,137.288573 197.384523,137.181641 197.047607,137.181641 C196.643309,137.181641 196.329103,137.29663 196.10498,137.526611 C195.880858,137.756593 195.768799,138.076658 195.768799,138.486816 L194.955811,138.486816 C194.955811,137.897946 195.145506,137.421877 195.524902,137.058594 C195.904299,136.695311 196.411862,136.513672 197.047607,136.513672 C197.642337,136.513672 198.112547,136.669676 198.458252,136.981689 C198.803957,137.293703 198.976807,137.708982 198.976807,138.227539 C198.976807,138.857425 198.575443,139.607418 197.772705,140.477539 L196.058838,142.336426 L199.27124,142.336426 L199.27124,143 Z" id="Valid-until-December" fill="#000000"></path>
            </g>
        </g>
    </g>
</svg>