<?xml version="1.0" encoding="UTF-8"?>
<svg width="280px" height="160px" viewBox="0 0 280 160" version="1.1" xmlns="http://www.w3.org/2000/svg" xmlns:xlink="http://www.w3.org/1999/xlink">
    <!-- Generator: Sketch 44.1 (41455) - http://www.bohemiancoding.com/sketch -->
    <title>Thumb_280x160_2sketch</title>
    <desc>Created with Sketch.</desc>
    <defs></defs>
    <g id="Thumbnails" stroke="none" stroke-width="1" fill="none" fill-rule="evenodd">
        <g id="Thumbnails_export_svg" transform="translate(-334.000000, -58.000000)">
            <g id="Thumb_280x160_2sketch" transform="translate(334.000000, 58.000000)">
                <rect id="Mask" fill="#FFFFFF" x="0" y="0" width="280" height="160" rx="10"></rect>
                <path d="M188.040039,36.4873047 L188.040039,43 L184.231445,43 L184.231445,24.515625 L191.442383,24.515625 C192.830411,24.515625 194.051264,24.7695287 195.10498,25.2773438 C196.158697,25.7851588 196.969073,26.5066685 197.536133,27.4418945 C198.103193,28.3771206 198.386719,29.4414003 198.386719,30.6347656 C198.386719,32.4459726 197.766771,33.874181 196.526855,34.9194336 C195.28694,35.9646862 193.570975,36.4873047 191.378906,36.4873047 L188.040039,36.4873047 Z M188.040039,33.4023438 L191.442383,33.4023438 C192.449549,33.4023438 193.217608,33.165367 193.746582,32.6914062 C194.275556,32.2174455 194.540039,31.540369 194.540039,30.6601562 C194.540039,29.7545528 194.27344,29.0224637 193.740234,28.4638672 C193.207029,27.9052706 192.470708,27.6175131 191.53125,27.6005859 L188.040039,27.6005859 L188.040039,33.4023438 Z M204.34082,30.7617188 C205.314132,29.5937442 206.537102,29.0097656 208.009766,29.0097656 C210.988947,29.0097656 212.499674,30.7405426 212.541992,34.2021484 L212.541992,43 L208.873047,43 L208.873047,34.3037109 C208.873047,33.5165976 208.703778,32.934735 208.365234,32.5581055 C208.026691,32.181476 207.463871,31.9931641 206.676758,31.9931641 C205.601883,31.9931641 204.823245,32.4078735 204.34082,33.2373047 L204.34082,43 L200.671875,43 L200.671875,23.5 L204.34082,23.5 L204.34082,30.7617188 Z M220.438477,37.8076172 L222.977539,29.2636719 L226.913086,29.2636719 L221.390625,45.1328125 L221.085938,45.8564453 C220.26497,47.6507251 218.910817,48.5478516 217.023438,48.5478516 C216.490232,48.5478516 215.94857,48.4674487 215.398438,48.3066406 L215.398438,45.5263672 L215.957031,45.5390625 C216.651045,45.5390625 217.169432,45.4332693 217.512207,45.2216797 C217.854982,45.0100901 218.123697,44.6588566 218.318359,44.1679688 L218.75,43.0380859 L213.938477,29.2636719 L217.886719,29.2636719 L220.438477,37.8076172 Z M232.232422,43 L228.550781,43 L228.550781,23.5 L232.232422,23.5 L232.232422,43 Z M239.125977,43 L235.444336,43 L235.444336,23.5 L239.125977,23.5 L239.125977,43 Z M246.019531,43 L242.337891,43 L242.337891,29.2636719 L246.019531,29.2636719 L246.019531,43 Z M242.12207,25.7089844 C242.12207,25.1588514 242.306151,24.7060565 242.674316,24.3505859 C243.042482,23.9951154 243.543942,23.8173828 244.178711,23.8173828 C244.805016,23.8173828 245.30436,23.9951154 245.676758,24.3505859 C246.049156,24.7060565 246.235352,25.1588514 246.235352,25.7089844 C246.235352,26.2675809 246.04704,26.7246076 245.67041,27.0800781 C245.293781,27.4355487 244.796553,27.6132812 244.178711,27.6132812 C243.560869,27.6132812 243.063641,27.4355487 242.687012,27.0800781 C242.310382,26.7246076 242.12207,26.2675809 242.12207,25.7089844 Z M256.480469,39.2041016 C256.480469,38.7555316 256.258303,38.4021823 255.813965,38.144043 C255.369627,37.8859037 254.65658,37.6552745 253.674805,37.4521484 C250.407861,36.7665981 248.774414,35.3785912 248.774414,33.2880859 C248.774414,32.0693298 249.280106,31.0515991 250.291504,30.2348633 C251.302902,29.4181274 252.625317,29.0097656 254.258789,29.0097656 C256.002287,29.0097656 257.396642,29.4202433 258.441895,30.2412109 C259.487147,31.0621786 260.009766,32.1285742 260.009766,33.4404297 L256.34082,33.4404297 C256.34082,32.9156875 256.171551,32.4819353 255.833008,32.1391602 C255.494464,31.796385 254.965498,31.625 254.246094,31.625 C253.628252,31.625 253.150067,31.764647 252.811523,32.0439453 C252.47298,32.3232436 252.303711,32.6787088 252.303711,33.1103516 C252.303711,33.5166036 252.496255,33.8445626 252.881348,34.0942383 C253.266441,34.343914 253.916011,34.5597322 254.830078,34.7416992 C255.744145,34.9236663 256.51432,35.1289051 257.140625,35.3574219 C259.078786,36.0683629 260.047852,37.2997959 260.047852,39.0517578 C260.047852,40.3043682 259.510422,41.3178672 258.435547,42.0922852 C257.360672,42.8667031 255.972665,43.2539062 254.271484,43.2539062 C253.120437,43.2539062 252.098475,43.0486674 251.205566,42.6381836 C250.312658,42.2276998 249.612307,41.6648799 249.104492,40.949707 C248.596677,40.2345342 248.342773,39.4622437 248.342773,38.6328125 L251.821289,38.6328125 C251.855143,39.2845085 252.096352,39.7838524 252.544922,40.1308594 C252.993492,40.4778663 253.594397,40.6513672 254.347656,40.6513672 C255.050134,40.6513672 255.581216,40.5180677 255.940918,40.2514648 C256.30062,39.9848619 256.480469,39.6357443 256.480469,39.2041016 Z M160.681641,64.4873047 L160.681641,71 L156.873047,71 L156.873047,52.515625 L164.083984,52.515625 C165.472012,52.515625 166.692866,52.7695287 167.746582,53.2773438 C168.800298,53.7851588 169.610674,54.5066685 170.177734,55.4418945 C170.744795,56.3771206 171.02832,57.4414003 171.02832,58.6347656 C171.02832,60.4459726 170.408372,61.874181 169.168457,62.9194336 C167.928542,63.9646862 166.212576,64.4873047 164.020508,64.4873047 L160.681641,64.4873047 Z M160.681641,61.4023438 L164.083984,61.4023438 C165.091151,61.4023438 165.85921,61.165367 166.388184,60.6914062 C166.917158,60.2174455 167.181641,59.540369 167.181641,58.6601562 C167.181641,57.7545528 166.915042,57.0224637 166.381836,56.4638672 C165.84863,55.9052706 165.112309,55.6175131 164.172852,55.6005859 L160.681641,55.6005859 L160.681641,61.4023438 Z M179.724609,71.2539062 C177.710276,71.2539062 176.070482,70.6360739 174.805176,69.4003906 C173.53987,68.1647074 172.907227,66.518565 172.907227,64.4619141 L172.907227,64.1064453 C172.907227,62.7268811 173.173825,61.4933323 173.707031,60.4057617 C174.240237,59.3181912 174.995601,58.4803089 175.973145,57.8920898 C176.950688,57.3038708 178.065749,57.0097656 179.318359,57.0097656 C181.197275,57.0097656 182.676264,57.6022076 183.755371,58.7871094 C184.834478,59.9720111 185.374023,61.6520074 185.374023,63.8271484 L185.374023,65.3251953 L176.626953,65.3251953 C176.745443,66.2223352 177.103024,66.9417291 177.699707,67.4833984 C178.29639,68.0250678 179.051753,68.2958984 179.96582,68.2958984 C181.379239,68.2958984 182.48372,67.7838593 183.279297,66.7597656 L185.082031,68.7783203 C184.531898,69.55697 183.787114,70.1642231 182.847656,70.6000977 C181.908198,71.0359722 180.867193,71.2539062 179.724609,71.2539062 Z M179.305664,59.9804688 C178.577796,59.9804688 177.98747,60.225909 177.534668,60.7167969 C177.081866,61.2076847 176.791993,61.9101517 176.665039,62.8242188 L181.768555,62.8242188 L181.768555,62.5322266 C181.751628,61.7197225 181.531578,61.0913108 181.108398,60.6469727 C180.685219,60.2026345 180.084314,59.9804688 179.305664,59.9804688 Z M191.848633,53.8867188 L191.848633,57.2636719 L194.197266,57.2636719 L194.197266,59.9550781 L191.848633,59.9550781 L191.848633,66.8105469 C191.848633,67.3183619 191.945963,67.6822906 192.140625,67.9023438 C192.335287,68.1223969 192.70768,68.2324219 193.257812,68.2324219 C193.664065,68.2324219 194.023761,68.2027998 194.336914,68.1435547 L194.336914,70.9238281 C193.617509,71.1438813 192.876957,71.2539062 192.115234,71.2539062 C189.542305,71.2539062 188.230469,69.9547656 188.179688,67.3564453 L188.179688,59.9550781 L186.173828,59.9550781 L186.173828,57.2636719 L188.179688,57.2636719 L188.179688,53.8867188 L191.848633,53.8867188 Z M202.563477,71.2539062 C200.549144,71.2539062 198.909349,70.6360739 197.644043,69.4003906 C196.378737,68.1647074 195.746094,66.518565 195.746094,64.4619141 L195.746094,64.1064453 C195.746094,62.7268811 196.012693,61.4933323 196.545898,60.4057617 C197.079104,59.3181912 197.834468,58.4803089 198.812012,57.8920898 C199.789556,57.3038708 200.904616,57.0097656 202.157227,57.0097656 C204.036142,57.0097656 205.515131,57.6022076 206.594238,58.7871094 C207.673345,59.9720111 208.212891,61.6520074 208.212891,63.8271484 L208.212891,65.3251953 L199.46582,65.3251953 C199.58431,66.2223352 199.941892,66.9417291 200.538574,67.4833984 C201.135257,68.0250678 201.89062,68.2958984 202.804688,68.2958984 C204.218106,68.2958984 205.322587,67.7838593 206.118164,66.7597656 L207.920898,68.7783203 C207.370765,69.55697 206.625981,70.1642231 205.686523,70.6000977 C204.747066,71.0359722 203.70606,71.2539062 202.563477,71.2539062 Z M202.144531,59.9804688 C201.416663,59.9804688 200.826337,60.225909 200.373535,60.7167969 C199.920733,61.2076847 199.63086,61.9101517 199.503906,62.8242188 L204.607422,62.8242188 L204.607422,62.5322266 C204.590495,61.7197225 204.370445,61.0913108 203.947266,60.6469727 C203.524086,60.2026345 202.923181,59.9804688 202.144531,59.9804688 Z M218.013672,60.7041016 C217.51432,60.6363929 217.074221,60.6025391 216.693359,60.6025391 C215.305332,60.6025391 214.39551,61.0722609 213.963867,62.0117188 L213.963867,71 L210.294922,71 L210.294922,57.2636719 L213.760742,57.2636719 L213.862305,58.9013672 C214.598636,57.6402932 215.618483,57.0097656 216.921875,57.0097656 C217.328127,57.0097656 217.708983,57.0647781 218.064453,57.1748047 L218.013672,60.7041016 Z M227.217773,67.2041016 C227.217773,66.7555316 226.995608,66.4021823 226.55127,66.144043 C226.106931,65.8859037 225.393885,65.6552745 224.412109,65.4521484 C221.145166,64.7665981 219.511719,63.3785912 219.511719,61.2880859 C219.511719,60.0693298 220.01741,59.0515991 221.028809,58.2348633 C222.040207,57.4181274 223.362622,57.0097656 224.996094,57.0097656 C226.739592,57.0097656 228.133947,57.4202433 229.179199,58.2412109 C230.224452,59.0621786 230.74707,60.1285742 230.74707,61.4404297 L227.078125,61.4404297 C227.078125,60.9156875 226.908856,60.4819353 226.570312,60.1391602 C226.231769,59.796385 225.702803,59.625 224.983398,59.625 C224.365557,59.625 223.887371,59.764647 223.548828,60.0439453 C223.210285,60.3232436 223.041016,60.6787088 223.041016,61.1103516 C223.041016,61.5166036 223.233559,61.8445626 223.618652,62.0942383 C224.003745,62.343914 224.653316,62.5597322 225.567383,62.7416992 C226.48145,62.9236663 227.251624,63.1289051 227.87793,63.3574219 C229.81609,64.0683629 230.785156,65.2997959 230.785156,67.0517578 C230.785156,68.3043682 230.247727,69.3178672 229.172852,70.0922852 C228.097976,70.8667031 226.709969,71.2539062 225.008789,71.2539062 C223.857742,71.2539062 222.835779,71.0486674 221.942871,70.6381836 C221.049963,70.2276998 220.349612,69.6648799 219.841797,68.949707 C219.333982,68.2345342 219.080078,67.4622437 219.080078,66.6328125 L222.558594,66.6328125 C222.592448,67.2845085 222.833657,67.7838524 223.282227,68.1308594 C223.730797,68.4778663 224.331702,68.6513672 225.084961,68.6513672 C225.787438,68.6513672 226.31852,68.5180677 226.678223,68.2514648 C227.037925,67.9848619 227.217773,67.6357443 227.217773,67.2041016 Z M232.575195,64.0048828 C232.575195,62.6422458 232.837562,61.4277397 233.362305,60.3613281 C233.887047,59.2949165 234.64241,58.4697295 235.628418,57.8857422 C236.614426,57.3017549 237.759108,57.0097656 239.0625,57.0097656 C240.916025,57.0097656 242.428868,57.5768172 243.601074,58.7109375 C244.773281,59.8450578 245.427083,61.3854069 245.5625,63.3320312 L245.587891,64.2714844 C245.587891,66.3789168 244.99968,68.0694923 243.823242,69.3432617 C242.646804,70.6170311 241.068369,71.2539062 239.087891,71.2539062 C237.107412,71.2539062 235.526861,70.619147 234.346191,69.3496094 C233.165521,68.0800718 232.575195,66.3535265 232.575195,64.1699219 L232.575195,64.0048828 Z M236.244141,64.2714844 C236.244141,65.5748763 236.489581,66.5714484 236.980469,67.2612305 C237.471357,67.9510126 238.173824,68.2958984 239.087891,68.2958984 C239.976567,68.2958984 240.67057,67.9552443 241.169922,67.2739258 C241.669273,66.5926073 241.918945,65.5029372 241.918945,64.0048828 C241.918945,62.7268816 241.669273,61.7366572 241.169922,61.0341797 C240.67057,60.3317022 239.968103,59.9804688 239.0625,59.9804688 C238.16536,59.9804688 237.471357,60.3295864 236.980469,61.027832 C236.489581,61.7260777 236.244141,62.8072843 236.244141,64.2714844 Z M251.224609,57.2636719 L251.338867,58.8505859 C252.320643,57.6233663 253.63671,57.0097656 255.287109,57.0097656 C256.742846,57.0097656 257.826168,57.4371702 258.537109,58.2919922 C259.24805,59.1468142 259.611979,60.4247962 259.628906,62.1259766 L259.628906,71 L255.959961,71 L255.959961,62.2148438 C255.959961,61.436194 255.790692,60.8712583 255.452148,60.5200195 C255.113605,60.1687808 254.550785,59.9931641 253.763672,59.9931641 C252.731115,59.9931641 251.956708,60.4332638 251.44043,61.3134766 L251.44043,71 L247.771484,71 L247.771484,57.2636719 L251.224609,57.2636719 Z" id="Phyllis-Peterson" fill="#000000"></path>
                <path d="M27.0283203,97.1796875 L29.0371094,102.851562 L31.0351562,97.1796875 L33.1513672,97.1796875 L33.1513672,105 L31.534668,105 L31.534668,102.862305 L31.6958008,99.1723633 L29.5849609,105 L28.4785156,105 L26.3730469,99.1777344 L26.5341797,102.862305 L26.5341797,105 L24.9228516,105 L24.9228516,97.1796875 L27.0283203,97.1796875 Z M37.1313477,105.107422 C36.2791299,105.107422 35.5853705,104.846031 35.0500488,104.323242 C34.5147271,103.800453 34.2470703,103.104008 34.2470703,102.233887 L34.2470703,102.083496 C34.2470703,101.499834 34.3598622,100.977948 34.5854492,100.517822 C34.8110363,100.057696 35.1306132,99.7032076 35.5441895,99.4543457 C35.9577657,99.2054838 36.4295221,99.0810547 36.9594727,99.0810547 C37.7543985,99.0810547 38.3801247,99.3317032 38.8366699,99.8330078 C39.2932152,100.334312 39.5214844,101.04508 39.5214844,101.965332 L39.5214844,102.599121 L35.8208008,102.599121 C35.8709312,102.97868 36.0222155,103.283039 36.2746582,103.512207 C36.5271009,103.741375 36.8466778,103.855957 37.2333984,103.855957 C37.8313832,103.855957 38.2986637,103.639325 38.6352539,103.206055 L39.3979492,104.060059 C39.1652007,104.389487 38.8500996,104.646402 38.4526367,104.830811 C38.0551738,105.015219 37.6147485,105.107422 37.1313477,105.107422 Z M36.9541016,100.337891 C36.6461573,100.337891 36.396404,100.441731 36.204834,100.649414 C36.013264,100.857097 35.8906253,101.154295 35.8369141,101.541016 L37.9960938,101.541016 L37.9960938,101.41748 C37.9889323,101.073729 37.8958342,100.807862 37.7167969,100.619873 C37.5377595,100.431884 37.2835303,100.337891 36.9541016,100.337891 Z M42.2607422,97.7597656 L42.2607422,99.1884766 L43.2543945,99.1884766 L43.2543945,100.327148 L42.2607422,100.327148 L42.2607422,103.227539 C42.2607422,103.442384 42.3019202,103.596354 42.3842773,103.689453 C42.4666345,103.782553 42.624185,103.829102 42.8569336,103.829102 C43.0288095,103.829102 43.1809889,103.816569 43.3134766,103.791504 L43.3134766,104.967773 C43.0091131,105.060873 42.6958024,105.107422 42.3735352,105.107422 C41.284988,105.107422 40.7299806,104.557785 40.7084961,103.458496 L40.7084961,100.327148 L39.8598633,100.327148 L39.8598633,99.1884766 L40.7084961,99.1884766 L40.7084961,97.7597656 L42.2607422,97.7597656 Z M47.3847656,100.644043 C47.1735015,100.615397 46.9873055,100.601074 46.8261719,100.601074 C46.2389294,100.601074 45.8540048,100.799803 45.6713867,101.197266 L45.6713867,105 L44.1191406,105 L44.1191406,99.1884766 L45.5854492,99.1884766 L45.628418,99.8813477 C45.939943,99.3478163 46.3714165,99.0810547 46.9228516,99.0810547 C47.0947274,99.0810547 47.2558586,99.1043292 47.40625,99.1508789 L47.3847656,100.644043 Z M47.8896484,102.040527 C47.8896484,101.464027 48.0006499,100.950198 48.2226562,100.499023 C48.4446626,100.047849 48.7642395,99.6987317 49.1813965,99.4516602 C49.5985535,99.2045886 50.0828423,99.0810547 50.6342773,99.0810547 C51.418461,99.0810547 52.0585099,99.3209611 52.5544434,99.8007812 C53.0503768,100.280601 53.3269854,100.932288 53.3842773,101.755859 L53.3950195,102.15332 C53.3950195,103.044926 53.1461613,103.76017 52.6484375,104.299072 C52.1507137,104.837975 51.4829143,105.107422 50.6450195,105.107422 C49.8071247,105.107422 49.1384302,104.83887 48.638916,104.301758 C48.1394018,103.764646 47.8896484,103.034184 47.8896484,102.110352 L47.8896484,102.040527 Z M49.4418945,102.15332 C49.4418945,102.704755 49.5457346,103.126382 49.753418,103.418213 C49.9611013,103.710044 50.2582988,103.855957 50.6450195,103.855957 C51.020998,103.855957 51.3146148,103.711834 51.5258789,103.423584 C51.737143,103.135334 51.8427734,102.67432 51.8427734,102.040527 C51.8427734,101.499835 51.737143,101.080893 51.5258789,100.783691 C51.3146148,100.486489 51.0174173,100.337891 50.6342773,100.337891 C50.2547182,100.337891 49.9611013,100.485594 49.753418,100.781006 C49.5457346,101.076417 49.4418945,101.533851 49.4418945,102.15332 Z M59.5825195,102.147949 C59.5825195,103.043136 59.3793152,103.76017 58.9729004,104.299072 C58.5664856,104.837975 58.0177443,105.107422 57.3266602,105.107422 C56.7394176,105.107422 56.2649758,104.903322 55.9033203,104.495117 L55.9033203,107.234375 L54.3510742,107.234375 L54.3510742,99.1884766 L55.7905273,99.1884766 L55.8442383,99.7578125 C56.2202167,99.3066384 56.7107717,99.0810547 57.315918,99.0810547 C58.0320674,99.0810547 58.5888652,99.346026 58.9863281,99.8759766 C59.383791,100.405927 59.5825195,101.136389 59.5825195,102.067383 L59.5825195,102.147949 Z M58.0302734,102.035156 C58.0302734,101.494463 57.9344899,101.077313 57.7429199,100.783691 C57.55135,100.49007 57.272951,100.343262 56.9077148,100.343262 C56.4207332,100.343262 56.0859384,100.529458 55.9033203,100.901855 L55.9033203,103.28125 C56.0930999,103.66439 56.4314754,103.855957 56.918457,103.855957 C57.6596717,103.855957 58.0302734,103.24903 58.0302734,102.035156 Z M60.3022461,102.040527 C60.3022461,101.464027 60.4132476,100.950198 60.6352539,100.499023 C60.8572602,100.047849 61.1768371,99.6987317 61.5939941,99.4516602 C62.0111512,99.2045886 62.49544,99.0810547 63.046875,99.0810547 C63.8310586,99.0810547 64.4711075,99.3209611 64.967041,99.8007812 C65.4629745,100.280601 65.739583,100.932288 65.796875,101.755859 L65.8076172,102.15332 C65.8076172,103.044926 65.558759,103.76017 65.0610352,104.299072 C64.5633113,104.837975 63.895512,105.107422 63.0576172,105.107422 C62.2197224,105.107422 61.5510279,104.83887 61.0515137,104.301758 C60.5519995,103.764646 60.3022461,103.034184 60.3022461,102.110352 L60.3022461,102.040527 Z M61.8544922,102.15332 C61.8544922,102.704755 61.9583323,103.126382 62.1660156,103.418213 C62.373699,103.710044 62.6708965,103.855957 63.0576172,103.855957 C63.4335956,103.855957 63.7272125,103.711834 63.9384766,103.423584 C64.1497406,103.135334 64.2553711,102.67432 64.2553711,102.040527 C64.2553711,101.499835 64.1497406,101.080893 63.9384766,100.783691 C63.7272125,100.486489 63.4300149,100.337891 63.046875,100.337891 C62.6673158,100.337891 62.373699,100.485594 62.1660156,100.781006 C61.9583323,101.076417 61.8544922,101.533851 61.8544922,102.15332 Z M68.4018555,105 L66.8442383,105 L66.8442383,96.75 L68.4018555,96.75 L68.4018555,105 Z M71.3183594,105 L69.7607422,105 L69.7607422,99.1884766 L71.3183594,99.1884766 L71.3183594,105 Z M69.6694336,97.6845703 C69.6694336,97.4518218 69.7473137,97.2602547 69.9030762,97.1098633 C70.0588387,96.9594719 70.2709948,96.8842773 70.5395508,96.8842773 C70.8045261,96.8842773 71.015787,96.9594719 71.1733398,97.1098633 C71.3308927,97.2602547 71.409668,97.4518218 71.409668,97.6845703 C71.409668,97.9208996 71.3299975,98.1142571 71.1706543,98.2646484 C71.0113111,98.4150398 70.8009453,98.4902344 70.5395508,98.4902344 C70.2781562,98.4902344 70.0677905,98.4150398 69.9084473,98.2646484 C69.749104,98.1142571 69.6694336,97.9208996 69.6694336,97.6845703 Z M74.4550781,97.7597656 L74.4550781,99.1884766 L75.4487305,99.1884766 L75.4487305,100.327148 L74.4550781,100.327148 L74.4550781,103.227539 C74.4550781,103.442384 74.4962561,103.596354 74.5786133,103.689453 C74.6609705,103.782553 74.818521,103.829102 75.0512695,103.829102 C75.2231454,103.829102 75.3753249,103.816569 75.5078125,103.791504 L75.5078125,104.967773 C75.203449,105.060873 74.8901383,105.107422 74.5678711,105.107422 C73.479324,105.107422 72.9243165,104.557785 72.902832,103.458496 L72.902832,100.327148 L72.0541992,100.327148 L72.0541992,99.1884766 L72.902832,99.1884766 L72.902832,97.7597656 L74.4550781,97.7597656 Z M79.6811523,105 C79.6095374,104.860351 79.5576173,104.686687 79.5253906,104.479004 C79.1494122,104.897951 78.6606475,105.107422 78.059082,105.107422 C77.4897432,105.107422 77.0179869,104.94271 76.6437988,104.613281 C76.2696108,104.283853 76.0825195,103.868492 76.0825195,103.367188 C76.0825195,102.751299 76.3107887,102.278647 76.767334,101.949219 C77.2238792,101.61979 77.883622,101.453288 78.746582,101.449707 L79.4609375,101.449707 L79.4609375,101.116699 C79.4609375,100.848143 79.3920092,100.633302 79.2541504,100.472168 C79.1162916,100.311034 78.8987645,100.230469 78.6015625,100.230469 C78.340168,100.230469 78.1351733,100.293131 77.9865723,100.418457 C77.8379713,100.543783 77.7636719,100.715656 77.7636719,100.934082 L76.2114258,100.934082 C76.2114258,100.597492 76.3152659,100.285971 76.5229492,99.9995117 C76.7306325,99.713052 77.0242494,99.4883634 77.4038086,99.3254395 C77.7833678,99.1625155 78.2094703,99.0810547 78.6821289,99.0810547 C79.3982783,99.0810547 79.9667134,99.2609845 80.3874512,99.6208496 C80.808189,99.9807147 81.0185547,100.486488 81.0185547,101.138184 L81.0185547,103.657227 C81.0221354,104.208662 81.0991203,104.625812 81.2495117,104.908691 L81.2495117,105 L79.6811523,105 Z M78.3974609,103.92041 C78.6266288,103.92041 78.8378897,103.869385 79.03125,103.767334 C79.2246103,103.665283 79.3678381,103.528321 79.4609375,103.356445 L79.4609375,102.357422 L78.8808594,102.357422 C78.1038373,102.357422 77.6902672,102.625974 77.6401367,103.163086 L77.6347656,103.254395 C77.6347656,103.447755 77.7027988,103.607096 77.8388672,103.732422 C77.9749356,103.857748 78.1611316,103.92041 78.3974609,103.92041 Z M83.6396484,99.1884766 L83.6879883,99.8598633 C84.1033549,99.340655 84.6601528,99.0810547 85.3583984,99.0810547 C85.9742869,99.0810547 86.4326157,99.2618797 86.7333984,99.6235352 C87.0341812,99.9851906 87.188151,100.525875 87.1953125,101.245605 L87.1953125,105 L85.6430664,105 L85.6430664,101.283203 C85.6430664,100.953774 85.5714525,100.714763 85.4282227,100.566162 C85.2849928,100.417561 85.0468767,100.343262 84.7138672,100.343262 C84.277016,100.343262 83.9493826,100.529458 83.730957,100.901855 L83.730957,105 L82.1787109,105 L82.1787109,99.1884766 L83.6396484,99.1884766 Z M37.1286621,119 L37.1286621,111.179688 L39.5349121,111.179688 C40.2224155,111.179688 40.8373996,111.334552 41.3798828,111.644287 C41.922366,111.954022 42.345783,112.394447 42.6501465,112.965576 C42.95451,113.536705 43.1066895,114.185706 43.1066895,114.912598 L43.1066895,115.272461 C43.1066895,115.999353 42.9571955,116.645668 42.6582031,117.211426 C42.3592107,117.777184 41.9375841,118.215819 41.3933105,118.527344 C40.849037,118.838869 40.2349481,118.996419 39.5510254,119 L37.1286621,119 Z M38.7399902,112.484863 L38.7399902,117.705566 L39.5187988,117.705566 C40.1490103,117.705566 40.6306136,117.499677 40.963623,117.087891 C41.2966325,116.676105 41.4667155,116.087081 41.473877,115.320801 L41.473877,114.907227 C41.473877,114.112301 41.3091651,113.509849 40.9797363,113.099854 C40.6503076,112.689858 40.1687043,112.484863 39.5349121,112.484863 L38.7399902,112.484863 Z M47.5432129,119 C47.4715979,118.860351 47.4196779,118.686687 47.3874512,118.479004 C47.0114727,118.897951 46.5227081,119.107422 45.9211426,119.107422 C45.3518038,119.107422 44.8800474,118.94271 44.5058594,118.613281 C44.1316713,118.283853 43.9445801,117.868492 43.9445801,117.367188 C43.9445801,116.751299 44.1728493,116.278647 44.6293945,115.949219 C45.0859398,115.61979 45.7456825,115.453288 46.6086426,115.449707 L47.322998,115.449707 L47.322998,115.116699 C47.322998,114.848143 47.2540697,114.633302 47.1162109,114.472168 C46.9783522,114.311034 46.7608251,114.230469 46.463623,114.230469 C46.2022285,114.230469 45.9972338,114.293131 45.8486328,114.418457 C45.7000318,114.543783 45.6257324,114.715656 45.6257324,114.934082 L44.0734863,114.934082 C44.0734863,114.597492 44.1773264,114.285971 44.3850098,113.999512 C44.5926931,113.713052 44.88631,113.488363 45.2658691,113.325439 C45.6454283,113.162515 46.0715308,113.081055 46.5441895,113.081055 C47.2603389,113.081055 47.8287739,113.260985 48.2495117,113.62085 C48.6702495,113.980715 48.8806152,114.486488 48.8806152,115.138184 L48.8806152,117.657227 C48.884196,118.208662 48.9611809,118.625812 49.1115723,118.908691 L49.1115723,119 L47.5432129,119 Z M46.2595215,117.92041 C46.4886893,117.92041 46.6999502,117.869385 46.8933105,117.767334 C47.0866709,117.665283 47.2298986,117.528321 47.322998,117.356445 L47.322998,116.357422 L46.7429199,116.357422 C45.9658978,116.357422 45.5523277,116.625974 45.5021973,117.163086 L45.4968262,117.254395 C45.4968262,117.447755 45.5648593,117.607096 45.7009277,117.732422 C45.8369961,117.857748 46.0231922,117.92041 46.2595215,117.92041 Z M51.7111816,119 L50.1535645,119 L50.1535645,110.75 L51.7111816,110.75 L51.7111816,119 Z M54.8479004,111.759766 L54.8479004,113.188477 L55.8415527,113.188477 L55.8415527,114.327148 L54.8479004,114.327148 L54.8479004,117.227539 C54.8479004,117.442384 54.8890784,117.596354 54.9714355,117.689453 C55.0537927,117.782553 55.2113432,117.829102 55.4440918,117.829102 C55.6159677,117.829102 55.7681471,117.816569 55.9006348,117.791504 L55.9006348,118.967773 C55.5962713,119.060873 55.2829606,119.107422 54.9606934,119.107422 C53.8721463,119.107422 53.3171388,118.557785 53.2956543,117.458496 L53.2956543,114.327148 L52.4470215,114.327148 L52.4470215,113.188477 L53.2956543,113.188477 L53.2956543,111.759766 L54.8479004,111.759766 Z M58.5646973,111.759766 L58.5646973,113.188477 L59.5583496,113.188477 L59.5583496,114.327148 L58.5646973,114.327148 L58.5646973,117.227539 C58.5646973,117.442384 58.6058752,117.596354 58.6882324,117.689453 C58.7705896,117.782553 58.9281401,117.829102 59.1608887,117.829102 C59.3327645,117.829102 59.484944,117.816569 59.6174316,117.791504 L59.6174316,118.967773 C59.3130681,119.060873 58.9997575,119.107422 58.6774902,119.107422 C57.5889431,119.107422 57.0339357,118.557785 57.0124512,117.458496 L57.0124512,114.327148 L56.1638184,114.327148 L56.1638184,113.188477 L57.0124512,113.188477 L57.0124512,111.759766 L58.5646973,111.759766 Z M60.1813965,116.040527 C60.1813965,115.464027 60.292398,114.950198 60.5144043,114.499023 C60.7364106,114.047849 61.0559875,113.698732 61.4731445,113.45166 C61.8903016,113.204589 62.3745903,113.081055 62.9260254,113.081055 C63.710209,113.081055 64.3502579,113.320961 64.8461914,113.800781 C65.3421249,114.280601 65.6187334,114.932288 65.6760254,115.755859 L65.6867676,116.15332 C65.6867676,117.044926 65.4379094,117.76017 64.9401855,118.299072 C64.4424617,118.837975 63.7746624,119.107422 62.9367676,119.107422 C62.0988728,119.107422 61.4301783,118.83887 60.9306641,118.301758 C60.4311498,117.764646 60.1813965,117.034184 60.1813965,116.110352 L60.1813965,116.040527 Z M61.7336426,116.15332 C61.7336426,116.704755 61.8374827,117.126382 62.045166,117.418213 C62.2528493,117.710044 62.5500469,117.855957 62.9367676,117.855957 C63.312746,117.855957 63.6063629,117.711834 63.817627,117.423584 C64.028891,117.135334 64.1345215,116.67432 64.1345215,116.040527 C64.1345215,115.499835 64.028891,115.080893 63.817627,114.783691 C63.6063629,114.486489 63.3091653,114.337891 62.9260254,114.337891 C62.5464662,114.337891 62.2528493,114.485594 62.045166,114.781006 C61.8374827,115.076417 61.7336426,115.533851 61.7336426,116.15332 Z M68.0983887,113.188477 L68.1467285,113.838379 C68.5585144,113.333494 69.1153122,113.081055 69.8171387,113.081055 C70.5655148,113.081055 71.0793443,113.376462 71.3586426,113.967285 C71.7668477,113.376462 72.3487104,113.081055 73.104248,113.081055 C73.7344595,113.081055 74.2035304,113.264565 74.5114746,113.631592 C74.8194189,113.998618 74.9733887,114.55094 74.9733887,115.288574 L74.9733887,119 L73.4157715,119 L73.4157715,115.293945 C73.4157715,114.964517 73.351319,114.723715 73.2224121,114.571533 C73.0935052,114.419351 72.8661312,114.343262 72.5402832,114.343262 C72.0747861,114.343262 71.7525237,114.565265 71.5734863,115.009277 L71.5788574,119 L70.0266113,119 L70.0266113,115.299316 C70.0266113,114.962726 69.9603685,114.719239 69.8278809,114.568848 C69.6953932,114.418456 69.4698095,114.343262 69.151123,114.343262 C68.7106912,114.343262 68.3920094,114.525877 68.1950684,114.891113 L68.1950684,119 L66.6428223,119 L66.6428223,113.188477 L68.0983887,113.188477 Z" id="Metropolitan-Dalttom" fill="#773919"></path>
                <path d="M210.375,100.015625 C210.375,99.5729145 210.218752,99.2330741 209.90625,98.9960938 C209.593748,98.7591134 209.031254,98.5091159 208.21875,98.2460938 C207.406246,97.9830716 206.763023,97.7239596 206.289062,97.46875 C204.997389,96.7708298 204.351562,95.8307351 204.351562,94.6484375 C204.351562,94.0338511 204.524738,93.4856795 204.871094,93.0039062 C205.21745,92.522133 205.714841,92.1458347 206.363281,91.875 C207.011722,91.6041653 207.739579,91.46875 208.546875,91.46875 C209.359379,91.46875 210.08333,91.6158839 210.71875,91.9101562 C211.35417,92.2044286 211.847654,92.619789 212.199219,93.15625 C212.550783,93.692711 212.726562,94.3020799 212.726562,94.984375 L210.382812,94.984375 C210.382812,94.4635391 210.218752,94.0585952 209.890625,93.7695312 C209.562498,93.4804673 209.101565,93.3359375 208.507812,93.3359375 C207.934893,93.3359375 207.489585,93.45703 207.171875,93.6992188 C206.854165,93.9414075 206.695312,94.2604147 206.695312,94.65625 C206.695312,95.0260435 206.881509,95.3359363 207.253906,95.5859375 C207.626304,95.8359387 208.174476,96.0703114 208.898438,96.2890625 C210.231777,96.6901062 211.203122,97.187497 211.8125,97.78125 C212.421878,98.375003 212.726562,99.1145789 212.726562,100 C212.726562,100.98438 212.35417,101.756508 211.609375,102.316406 C210.86458,102.876305 209.861985,103.15625 208.601562,103.15625 C207.726558,103.15625 206.929691,102.996095 206.210938,102.675781 C205.492184,102.355467 204.944012,101.916669 204.566406,101.359375 C204.1888,100.802081 204,100.156254 204,99.421875 L206.351562,99.421875 C206.351562,100.67709 207.101555,101.304688 208.601562,101.304688 C209.158857,101.304688 209.593748,101.191407 209.90625,100.964844 C210.218752,100.73828 210.375,100.421877 210.375,100.015625 Z M216.867188,92.46875 L216.867188,94.546875 L218.3125,94.546875 L218.3125,96.203125 L216.867188,96.203125 L216.867188,100.421875 C216.867188,100.734377 216.927083,100.958333 217.046875,101.09375 C217.166667,101.229167 217.395832,101.296875 217.734375,101.296875 C217.984376,101.296875 218.205728,101.278646 218.398438,101.242188 L218.398438,102.953125 C217.955727,103.088542 217.500002,103.15625 217.03125,103.15625 C215.447909,103.15625 214.640625,102.356779 214.609375,100.757812 L214.609375,96.203125 L213.375,96.203125 L213.375,94.546875 L214.609375,94.546875 L214.609375,92.46875 L216.867188,92.46875 Z M224.632812,102.140625 C224.075518,102.817712 223.304692,103.15625 222.320312,103.15625 C221.414058,103.15625 220.722659,102.895836 220.246094,102.375 C219.769529,101.854164 219.526042,101.091151 219.515625,100.085938 L219.515625,94.546875 L221.773438,94.546875 L221.773438,100.007812 C221.773438,100.888025 222.174475,101.328125 222.976562,101.328125 C223.742191,101.328125 224.268228,101.062503 224.554688,100.53125 L224.554688,94.546875 L226.820312,94.546875 L226.820312,103 L224.695312,103 L224.632812,102.140625 Z M228.171875,98.7109375 C228.171875,97.3932226 228.467445,96.3437539 229.058594,95.5625 C229.649743,94.7812461 230.458328,94.390625 231.484375,94.390625 C232.307296,94.390625 232.986976,94.6979136 233.523438,95.3125 L233.523438,91 L235.789062,91 L235.789062,103 L233.75,103 L233.640625,102.101562 C233.078122,102.804691 232.354171,103.15625 231.46875,103.15625 C230.473953,103.15625 229.675784,102.764327 229.074219,101.980469 C228.472653,101.196611 228.171875,100.106778 228.171875,98.7109375 Z M230.429688,98.875 C230.429688,99.6666706 230.567707,100.273435 230.84375,100.695312 C231.119793,101.11719 231.520831,101.328125 232.046875,101.328125 C232.744795,101.328125 233.236978,101.033857 233.523438,100.445312 L233.523438,97.109375 C233.242186,96.5208304 232.755212,96.2265625 232.0625,96.2265625 C230.973953,96.2265625 230.429688,97.1093662 230.429688,98.875 Z M241.429688,103.15625 C240.190098,103.15625 239.180993,102.776045 238.402344,102.015625 C237.623694,101.255205 237.234375,100.242194 237.234375,98.9765625 L237.234375,98.7578125 C237.234375,97.9088499 237.398436,97.1497429 237.726562,96.4804688 C238.054689,95.8111946 238.519528,95.2955747 239.121094,94.9335938 C239.722659,94.5716128 240.40885,94.390625 241.179688,94.390625 C242.335943,94.390625 243.24609,94.7552047 243.910156,95.484375 C244.574222,96.2135453 244.90625,97.2473891 244.90625,98.5859375 L244.90625,99.5078125 L239.523438,99.5078125 C239.596355,100.059899 239.816404,100.502602 240.183594,100.835938 C240.550783,101.169273 241.015622,101.335938 241.578125,101.335938 C242.447921,101.335938 243.127602,101.020836 243.617188,100.390625 L244.726562,101.632812 C244.388019,102.111982 243.92969,102.485676 243.351562,102.753906 C242.773435,103.022137 242.132816,103.15625 241.429688,103.15625 Z M241.171875,96.21875 C240.723956,96.21875 240.360678,96.3697902 240.082031,96.671875 C239.803384,96.9739598 239.625,97.4062472 239.546875,97.96875 L242.6875,97.96875 L242.6875,97.7890625 C242.677083,97.28906 242.541668,96.9023451 242.28125,96.6289062 C242.020832,96.3554674 241.651044,96.21875 241.171875,96.21875 Z M248.265625,94.546875 L248.335938,95.5234375 C248.940107,94.7682254 249.749995,94.390625 250.765625,94.390625 C251.661463,94.390625 252.328123,94.6536432 252.765625,95.1796875 C253.203127,95.7057318 253.427083,96.4921823 253.4375,97.5390625 L253.4375,103 L251.179688,103 L251.179688,97.59375 C251.179688,97.1145809 251.075522,96.7669282 250.867188,96.5507812 C250.658853,96.3346343 250.312502,96.2265625 249.828125,96.2265625 C249.192705,96.2265625 248.716147,96.4973931 248.398438,97.0390625 L248.398438,103 L246.140625,103 L246.140625,94.546875 L248.265625,94.546875 Z M257.851562,92.46875 L257.851562,94.546875 L259.296875,94.546875 L259.296875,96.203125 L257.851562,96.203125 L257.851562,100.421875 C257.851562,100.734377 257.911458,100.958333 258.03125,101.09375 C258.151042,101.229167 258.380207,101.296875 258.71875,101.296875 C258.968751,101.296875 259.190103,101.278646 259.382812,101.242188 L259.382812,102.953125 C258.940102,103.088542 258.484377,103.15625 258.015625,103.15625 C256.432284,103.15625 255.625,102.356779 255.59375,100.757812 L255.59375,96.203125 L254.359375,96.203125 L254.359375,94.546875 L255.59375,94.546875 L255.59375,92.46875 L257.851562,92.46875 Z" id="Student" fill="#9B9B9B"></path>
                <path d="M179.094727,115.601562 L181.186523,120.822266 L183.27832,115.601562 L184.372559,115.601562 L184.372559,122 L183.528809,122 L183.528809,119.508301 L183.60791,116.818848 L181.507324,122 L180.861328,122 L178.765137,116.832031 L178.848633,119.508301 L178.848633,122 L178.004883,122 L178.004883,115.601562 L179.094727,115.601562 Z M187.708008,122.087891 C187.063473,122.087891 186.539065,121.876223 186.134766,121.452881 C185.730467,121.029539 185.52832,120.463382 185.52832,119.754395 L185.52832,119.60498 C185.52832,119.133298 185.618407,118.71216 185.798584,118.341553 C185.978761,117.970945 186.230711,117.680909 186.554443,117.471436 C186.878175,117.261962 187.229002,117.157227 187.606934,117.157227 C188.225101,117.157227 188.705565,117.360838 189.04834,117.768066 C189.391115,118.175295 189.5625,118.758297 189.5625,119.51709 L189.5625,119.855469 L186.341309,119.855469 C186.353027,120.324221 186.489989,120.702879 186.752197,120.991455 C187.014406,121.280031 187.347654,121.424316 187.751953,121.424316 C188.039064,121.424316 188.282226,121.365723 188.481445,121.248535 C188.680665,121.131347 188.85498,120.976075 189.004395,120.782715 L189.500977,121.169434 C189.102537,121.781741 188.504887,122.087891 187.708008,122.087891 Z M187.606934,117.825195 C187.278807,117.825195 187.003419,117.944579 186.780762,118.18335 C186.558104,118.42212 186.42041,118.756834 186.367676,119.1875 L188.749512,119.1875 L188.749512,119.125977 C188.726074,118.712889 188.614747,118.392823 188.415527,118.165771 C188.216308,117.93872 187.946779,117.825195 187.606934,117.825195 Z M191.267578,117.245117 L191.289551,117.772461 C191.638185,117.362303 192.108395,117.157227 192.700195,117.157227 C193.365238,117.157227 193.81787,117.412107 194.058105,117.921875 C194.216309,117.693358 194.422118,117.50879 194.675537,117.368164 C194.928956,117.227538 195.228514,117.157227 195.574219,117.157227 C196.617193,117.157227 197.147461,117.709467 197.165039,118.813965 L197.165039,122 L196.352051,122 L196.352051,118.862305 C196.352051,118.522459 196.274415,118.268311 196.119141,118.099854 C195.963866,117.931396 195.703127,117.847168 195.336914,117.847168 C195.035155,117.847168 194.784669,117.937255 194.585449,118.117432 C194.386229,118.297608 194.270508,118.540038 194.238281,118.844727 L194.238281,122 L193.420898,122 L193.420898,118.884277 C193.420898,118.192868 193.082523,117.847168 192.405762,117.847168 C191.872556,117.847168 191.507813,118.074216 191.311523,118.52832 L191.311523,122 L190.498535,122 L190.498535,117.245117 L191.267578,117.245117 Z M202.416504,119.675293 C202.416504,120.401859 202.249513,120.985593 201.915527,121.426514 C201.581541,121.867434 201.133304,122.087891 200.570801,122.087891 C199.970212,122.087891 199.505861,121.87549 199.177734,121.450684 L199.138184,122 L198.391113,122 L198.391113,115.25 L199.204102,115.25 L199.204102,117.768066 C199.532228,117.360838 199.98486,117.157227 200.562012,117.157227 C201.139163,117.157227 201.592528,117.375486 201.922119,117.812012 C202.251711,118.248537 202.416504,118.846188 202.416504,119.60498 L202.416504,119.675293 Z M201.603516,119.583008 C201.603516,119.029294 201.496583,118.601564 201.282715,118.299805 C201.068847,117.998045 200.761232,117.847168 200.359863,117.847168 C199.823728,117.847168 199.438478,118.096189 199.204102,118.594238 L199.204102,120.650879 C199.453126,121.148928 199.841306,121.397949 200.368652,121.397949 C200.758303,121.397949 201.061522,121.247072 201.27832,120.945312 C201.495118,120.643553 201.603516,120.189456 201.603516,119.583008 Z M205.413574,122.087891 C204.76904,122.087891 204.244631,121.876223 203.840332,121.452881 C203.436033,121.029539 203.233887,120.463382 203.233887,119.754395 L203.233887,119.60498 C203.233887,119.133298 203.323974,118.71216 203.50415,118.341553 C203.684327,117.970945 203.936278,117.680909 204.26001,117.471436 C204.583742,117.261962 204.934568,117.157227 205.3125,117.157227 C205.930667,117.157227 206.411131,117.360838 206.753906,117.768066 C207.096681,118.175295 207.268066,118.758297 207.268066,119.51709 L207.268066,119.855469 L204.046875,119.855469 C204.058594,120.324221 204.195555,120.702879 204.457764,120.991455 C204.719972,121.280031 205.053221,121.424316 205.45752,121.424316 C205.74463,121.424316 205.987792,121.365723 206.187012,121.248535 C206.386231,121.131347 206.560546,120.976075 206.709961,120.782715 L207.206543,121.169434 C206.808103,121.781741 206.210453,122.087891 205.413574,122.087891 Z M205.3125,117.825195 C204.984373,117.825195 204.708985,117.944579 204.486328,118.18335 C204.263671,118.42212 204.125977,118.756834 204.073242,119.1875 L206.455078,119.1875 L206.455078,119.125977 C206.431641,118.712889 206.320313,118.392823 206.121094,118.165771 C205.921874,117.93872 205.652345,117.825195 205.3125,117.825195 Z M210.506836,117.974609 C210.383788,117.954101 210.250489,117.943848 210.106934,117.943848 C209.573728,117.943848 209.211915,118.170896 209.021484,118.625 L209.021484,122 L208.208496,122 L208.208496,117.245117 L208.999512,117.245117 L209.012695,117.794434 C209.279298,117.369627 209.657224,117.157227 210.146484,117.157227 C210.304688,117.157227 210.424804,117.177734 210.506836,117.21875 L210.506836,117.974609 Z M214.514648,122 L213.670898,122 L213.670898,115.601562 L214.514648,115.601562 L214.514648,122 Z M216.057129,122 L216.057129,115.601562 L217.863281,115.601562 C218.419925,115.601562 218.912107,115.724608 219.339844,115.970703 C219.76758,116.216798 220.097899,116.566892 220.330811,117.020996 C220.563722,117.4751 220.681641,117.996579 220.68457,118.585449 L220.68457,118.994141 C220.68457,119.597659 220.568116,120.126463 220.335205,120.580566 C220.102294,121.03467 219.769778,121.3833 219.337646,121.626465 C218.905515,121.86963 218.402347,121.994141 217.828125,122 L216.057129,122 Z M216.900879,116.295898 L216.900879,121.310059 L217.788574,121.310059 C218.438968,121.310059 218.945067,121.107912 219.306885,120.703613 C219.668703,120.299314 219.849609,119.723637 219.849609,118.976562 L219.849609,118.603027 C219.849609,117.876461 219.678957,117.31177 219.337646,116.908936 C218.996336,116.506102 218.51221,116.301758 217.885254,116.295898 L216.900879,116.295898 Z M221.805176,121.57373 C221.805176,121.433105 221.846923,121.315918 221.93042,121.222168 C222.013916,121.128417 222.139159,121.081543 222.306152,121.081543 C222.473145,121.081543 222.599853,121.128417 222.686279,121.222168 C222.772706,121.315918 222.815918,121.433105 222.815918,121.57373 C222.815918,121.708497 222.772706,121.821289 222.686279,121.912109 C222.599853,122.00293 222.473145,122.04834 222.306152,122.04834 C222.139159,122.04834 222.013916,122.00293 221.93042,121.912109 C221.846923,121.821289 221.805176,121.708497 221.805176,121.57373 Z M221.80957,117.693359 C221.80957,117.552734 221.851318,117.435547 221.934814,117.341797 C222.018311,117.248046 222.143554,117.201172 222.310547,117.201172 C222.47754,117.201172 222.604248,117.248046 222.690674,117.341797 C222.7771,117.435547 222.820312,117.552734 222.820312,117.693359 C222.820312,117.828126 222.7771,117.940918 222.690674,118.031738 C222.604248,118.122559 222.47754,118.167969 222.310547,118.167969 C222.143554,118.167969 222.018311,118.122559 221.934814,118.031738 C221.851318,117.940918 221.80957,117.828126 221.80957,117.693359 Z M230.036133,117.271484 C230.036133,117.590822 229.951905,117.874999 229.783447,118.124023 C229.614989,118.373048 229.387208,118.56787 229.100098,118.708496 C229.434084,118.852051 229.698485,119.061522 229.893311,119.336914 C230.088136,119.612306 230.185547,119.924315 230.185547,120.272949 C230.185547,120.826663 229.998781,121.267576 229.625244,121.595703 C229.251707,121.92383 228.760257,122.087891 228.150879,122.087891 C227.535641,122.087891 227.042726,121.923097 226.672119,121.593506 C226.301512,121.263914 226.116211,120.823733 226.116211,120.272949 C226.116211,119.927244 226.210692,119.615236 226.399658,119.336914 C226.588624,119.058592 226.850096,118.847657 227.184082,118.704102 C226.899901,118.563476 226.675782,118.368654 226.511719,118.119629 C226.347655,117.870604 226.265625,117.587892 226.265625,117.271484 C226.265625,116.732419 226.438475,116.304689 226.78418,115.988281 C227.129885,115.671873 227.585446,115.513672 228.150879,115.513672 C228.713382,115.513672 229.168211,115.671873 229.515381,115.988281 C229.862551,116.304689 230.036133,116.732419 230.036133,117.271484 Z M229.372559,120.255371 C229.372559,119.897947 229.259034,119.606446 229.031982,119.380859 C228.804931,119.155272 228.508303,119.04248 228.14209,119.04248 C227.775877,119.04248 227.482179,119.153807 227.260986,119.376465 C227.039794,119.599122 226.929199,119.892088 226.929199,120.255371 C226.929199,120.618654 227.036864,120.904296 227.252197,121.112305 C227.46753,121.320314 227.767088,121.424316 228.150879,121.424316 C228.53174,121.424316 228.830565,121.319581 229.047363,121.110107 C229.264161,120.900634 229.372559,120.615724 229.372559,120.255371 Z M228.150879,116.181641 C227.831541,116.181641 227.572999,116.280517 227.375244,116.478271 C227.177489,116.676026 227.078613,116.944823 227.078613,117.284668 C227.078613,117.609865 227.176024,117.872802 227.37085,118.073486 C227.565675,118.274171 227.825682,118.374512 228.150879,118.374512 C228.476076,118.374512 228.736083,118.274171 228.930908,118.073486 C229.125733,117.872802 229.223145,117.609865 229.223145,117.284668 C229.223145,116.959471 229.122071,116.694337 228.919922,116.489258 C228.717772,116.284179 228.461427,116.181641 228.150879,116.181641 Z M234.641602,119.851074 L235.529297,119.851074 L235.529297,120.514648 L234.641602,120.514648 L234.641602,122 L233.824219,122 L233.824219,120.514648 L230.910645,120.514648 L230.910645,120.035645 L233.775879,115.601562 L234.641602,115.601562 L234.641602,119.851074 Z M231.833496,119.851074 L233.824219,119.851074 L233.824219,116.713379 L233.727539,116.88916 L231.833496,119.851074 Z M237.445312,118.405273 L238.056152,118.405273 C238.439943,118.399414 238.741698,118.298341 238.961426,118.102051 C239.181153,117.905761 239.291016,117.640627 239.291016,117.306641 C239.291016,116.556637 238.917484,116.181641 238.17041,116.181641 C237.818846,116.181641 237.538331,116.281981 237.328857,116.482666 C237.119384,116.683351 237.014648,116.949217 237.014648,117.280273 L236.20166,117.280273 C236.20166,116.773435 236.386961,116.352297 236.757568,116.016846 C237.128176,115.681395 237.599118,115.513672 238.17041,115.513672 C238.773929,115.513672 239.247069,115.673338 239.589844,115.992676 C239.932619,116.312013 240.104004,116.755857 240.104004,117.324219 C240.104004,117.60254 240.013917,117.872069 239.83374,118.132812 C239.653564,118.393556 239.408205,118.588378 239.097656,118.717285 C239.449221,118.828614 239.720946,119.013182 239.912842,119.270996 C240.104737,119.52881 240.200684,119.843748 240.200684,120.21582 C240.200684,120.790042 240.013185,121.245604 239.638184,121.58252 C239.263182,121.919435 238.775394,122.087891 238.174805,122.087891 C237.574216,122.087891 237.085695,121.925295 236.709229,121.600098 C236.332762,121.274901 236.144531,120.845706 236.144531,120.3125 L236.961914,120.3125 C236.961914,120.649416 237.071776,120.918944 237.291504,121.121094 C237.511232,121.323243 237.805662,121.424316 238.174805,121.424316 C238.567385,121.424316 238.867675,121.321778 239.075684,121.116699 C239.283692,120.91162 239.387695,120.617189 239.387695,120.233398 C239.387695,119.861326 239.273439,119.575685 239.044922,119.376465 C238.816405,119.177245 238.486819,119.074707 238.056152,119.068848 L237.445312,119.068848 L237.445312,118.405273 Z M245.447754,116.058594 L242.797852,122 L241.945312,122 L244.586426,116.269531 L241.123535,116.269531 L241.123535,115.601562 L245.447754,115.601562 L245.447754,116.058594 Z M249.561035,115.597168 L249.561035,116.287109 L249.411621,116.287109 C248.778805,116.298828 248.274904,116.486326 247.899902,116.849609 C247.5249,117.212892 247.308106,117.724118 247.249512,118.383301 C247.586427,117.99658 248.046384,117.803223 248.629395,117.803223 C249.186038,117.803223 249.630614,117.99951 249.963135,118.39209 C250.295656,118.78467 250.461914,119.291501 250.461914,119.912598 C250.461914,120.571781 250.282472,121.099119 249.923584,121.494629 C249.564695,121.890139 249.083499,122.087891 248.47998,122.087891 C247.867673,122.087891 247.371096,121.852786 246.990234,121.382568 C246.609373,120.912351 246.418945,120.306644 246.418945,119.56543 L246.418945,119.253418 C246.418945,118.075678 246.670164,117.17554 247.172607,116.552979 C247.675051,115.930417 248.422847,115.611816 249.416016,115.597168 L249.561035,115.597168 Z M248.493164,118.47998 C248.214842,118.47998 247.958497,118.563476 247.724121,118.730469 C247.489745,118.897462 247.327149,119.106932 247.236328,119.358887 L247.236328,119.657715 C247.236328,120.185061 247.354979,120.609862 247.592285,120.932129 C247.829591,121.254396 248.125487,121.415527 248.47998,121.415527 C248.846193,121.415527 249.134032,121.280763 249.343506,121.01123 C249.55298,120.741698 249.657715,120.388674 249.657715,119.952148 C249.657715,119.512693 249.551515,119.157472 249.339111,118.886475 C249.126708,118.615477 248.844728,118.47998 248.493164,118.47998 Z M255.555176,116.058594 L252.905273,122 L252.052734,122 L254.693848,116.269531 L251.230957,116.269531 L251.230957,115.601562 L255.555176,115.601562 L255.555176,116.058594 Z M259.149902,122 L258.33252,122 L258.33252,116.581543 L256.693359,117.183594 L256.693359,116.445312 L259.022461,115.570801 L259.149902,115.570801 L259.149902,122 Z" id="Member-ID:-8437671" fill="#000000"></path>
                <path d="M128.443359,137.411621 L126.94043,137.411621 L126.94043,140 L126.092285,140 L126.092285,133.601562 L128.210449,133.601562 C128.931156,133.601562 129.485594,133.765623 129.873779,134.09375 C130.261965,134.421877 130.456055,134.899411 130.456055,135.526367 C130.456055,135.924807 130.34839,136.271971 130.133057,136.567871 C129.917724,136.863771 129.618166,137.08496 129.234375,137.231445 L130.737305,139.947266 L130.737305,140 L129.832031,140 L128.443359,137.411621 Z M126.94043,136.72168 L128.236816,136.72168 C128.655764,136.72168 128.989012,136.613282 129.236572,136.396484 C129.484132,136.179686 129.60791,135.88965 129.60791,135.526367 C129.60791,135.130857 129.489991,134.827638 129.25415,134.616699 C129.018309,134.405761 128.677737,134.298828 128.232422,134.295898 L126.94043,134.295898 L126.94043,136.72168 Z M133.483887,140.087891 C132.839352,140.087891 132.314943,139.876223 131.910645,139.452881 C131.506346,139.029539 131.304199,138.463382 131.304199,137.754395 L131.304199,137.60498 C131.304199,137.133298 131.394286,136.71216 131.574463,136.341553 C131.75464,135.970945 132.00659,135.680909 132.330322,135.471436 C132.654054,135.261962 133.004881,135.157227 133.382812,135.157227 C134.00098,135.157227 134.481444,135.360838 134.824219,135.768066 C135.166994,136.175295 135.338379,136.758297 135.338379,137.51709 L135.338379,137.855469 L132.117188,137.855469 C132.128906,138.324221 132.265868,138.702879 132.528076,138.991455 C132.790285,139.280031 133.123533,139.424316 133.527832,139.424316 C133.814943,139.424316 134.058104,139.365723 134.257324,139.248535 C134.456544,139.131347 134.630859,138.976075 134.780273,138.782715 L135.276855,139.169434 C134.878416,139.781741 134.280766,140.087891 133.483887,140.087891 Z M133.382812,135.825195 C133.054686,135.825195 132.779298,135.944579 132.556641,136.18335 C132.333983,136.42212 132.196289,136.756834 132.143555,137.1875 L134.525391,137.1875 L134.525391,137.125977 C134.501953,136.712889 134.390626,136.392823 134.191406,136.165771 C133.992187,135.93872 133.722658,135.825195 133.382812,135.825195 Z M137.047852,135.245117 L137.074219,135.842773 C137.437502,135.38574 137.912106,135.157227 138.498047,135.157227 C139.502935,135.157227 140.009766,135.724115 140.018555,136.85791 L140.018555,140 L139.205566,140 L139.205566,136.853516 C139.202637,136.51074 139.124268,136.257325 138.970459,136.093262 C138.81665,135.929198 138.57715,135.847168 138.251953,135.847168 C137.98828,135.847168 137.756837,135.91748 137.557617,136.058105 C137.358397,136.198731 137.203126,136.3833 137.091797,136.611816 L137.091797,140 L136.278809,140 L136.278809,135.245117 L137.047852,135.245117 Z M143.217773,140.087891 C142.573239,140.087891 142.04883,139.876223 141.644531,139.452881 C141.240232,139.029539 141.038086,138.463382 141.038086,137.754395 L141.038086,137.60498 C141.038086,137.133298 141.128173,136.71216 141.30835,136.341553 C141.488526,135.970945 141.740477,135.680909 142.064209,135.471436 C142.387941,135.261962 142.738768,135.157227 143.116699,135.157227 C143.734866,135.157227 144.21533,135.360838 144.558105,135.768066 C144.900881,136.175295 145.072266,136.758297 145.072266,137.51709 L145.072266,137.855469 L141.851074,137.855469 C141.862793,138.324221 141.999755,138.702879 142.261963,138.991455 C142.524171,139.280031 142.85742,139.424316 143.261719,139.424316 C143.54883,139.424316 143.791991,139.365723 143.991211,139.248535 C144.190431,139.131347 144.364745,138.976075 144.51416,138.782715 L145.010742,139.169434 C144.612303,139.781741 144.014652,140.087891 143.217773,140.087891 Z M143.116699,135.825195 C142.788573,135.825195 142.513185,135.944579 142.290527,136.18335 C142.06787,136.42212 141.930176,136.756834 141.877441,137.1875 L144.259277,137.1875 L144.259277,137.125977 C144.23584,136.712889 144.124513,136.392823 143.925293,136.165771 C143.726073,135.93872 143.456545,135.825195 143.116699,135.825195 Z M150.222656,138.879395 L151.136719,135.245117 L151.949707,135.245117 L150.56543,140 L149.90625,140 L148.750488,136.396484 L147.625488,140 L146.966309,140 L145.586426,135.245117 L146.39502,135.245117 L147.331055,138.804688 L148.438477,135.245117 L149.093262,135.245117 L150.222656,138.879395 Z M155.711426,140 C155.664551,139.90625 155.626465,139.739259 155.597168,139.499023 C155.219236,139.891604 154.768069,140.087891 154.243652,140.087891 C153.7749,140.087891 153.390382,139.955324 153.090088,139.690186 C152.789793,139.425048 152.639648,139.088869 152.639648,138.681641 C152.639648,138.186521 152.827879,137.802003 153.204346,137.528076 C153.580812,137.254149 154.110348,137.117188 154.792969,137.117188 L155.583984,137.117188 L155.583984,136.743652 C155.583984,136.459471 155.499024,136.233155 155.329102,136.064697 C155.159179,135.896239 154.908693,135.812012 154.577637,135.812012 C154.287596,135.812012 154.044435,135.885253 153.848145,136.031738 C153.651854,136.178223 153.553711,136.355468 153.553711,136.563477 L152.736328,136.563477 C152.736328,136.326171 152.820556,136.096925 152.989014,135.875732 C153.157472,135.65454 153.385985,135.479493 153.674561,135.350586 C153.963136,135.221679 154.280272,135.157227 154.625977,135.157227 C155.173831,135.157227 155.603026,135.294188 155.913574,135.568115 C156.224123,135.842042 156.385254,136.219236 156.396973,136.699707 L156.396973,138.888184 C156.396973,139.324709 156.452636,139.671874 156.563965,139.929688 L156.563965,140 L155.711426,140 Z M154.362305,139.380371 C154.617189,139.380371 154.858886,139.314454 155.087402,139.182617 C155.315919,139.050781 155.481445,138.879396 155.583984,138.668457 L155.583984,137.692871 L154.946777,137.692871 C153.950679,137.692871 153.452637,137.984372 153.452637,138.567383 C153.452637,138.822267 153.537597,139.021484 153.70752,139.165039 C153.877442,139.308594 154.095702,139.380371 154.362305,139.380371 Z M158.554688,140 L157.741699,140 L157.741699,133.25 L158.554688,133.25 L158.554688,140 Z M161.885742,137.583008 C161.885742,136.853512 162.058592,136.266848 162.404297,135.822998 C162.750002,135.379148 163.202634,135.157227 163.762207,135.157227 C164.31885,135.157227 164.759764,135.347654 165.084961,135.728516 L165.084961,133.25 L165.897949,133.25 L165.897949,140 L165.150879,140 L165.111328,139.490234 C164.786131,139.888674 164.333499,140.087891 163.753418,140.087891 C163.202634,140.087891 162.753664,139.862307 162.406494,139.411133 C162.059324,138.959959 161.885742,138.371097 161.885742,137.644531 L161.885742,137.583008 Z M162.69873,137.675293 C162.69873,138.214358 162.810057,138.636229 163.032715,138.940918 C163.255372,139.245607 163.562986,139.397949 163.955566,139.397949 C164.471194,139.397949 164.847655,139.166506 165.084961,138.703613 L165.084961,136.519531 C164.841796,136.071287 164.468264,135.847168 163.964355,135.847168 C163.565916,135.847168 163.255372,136.000975 163.032715,136.308594 C162.810057,136.616212 162.69873,137.071774 162.69873,137.675293 Z M170.094727,140 C170.047851,139.90625 170.009766,139.739259 169.980469,139.499023 C169.602537,139.891604 169.15137,140.087891 168.626953,140.087891 C168.158201,140.087891 167.773683,139.955324 167.473389,139.690186 C167.173094,139.425048 167.022949,139.088869 167.022949,138.681641 C167.022949,138.186521 167.21118,137.802003 167.587646,137.528076 C167.964113,137.254149 168.493649,137.117188 169.17627,137.117188 L169.967285,137.117188 L169.967285,136.743652 C169.967285,136.459471 169.882325,136.233155 169.712402,136.064697 C169.54248,135.896239 169.291994,135.812012 168.960938,135.812012 C168.670897,135.812012 168.427735,135.885253 168.231445,136.031738 C168.035155,136.178223 167.937012,136.355468 167.937012,136.563477 L167.119629,136.563477 C167.119629,136.326171 167.203857,136.096925 167.372314,135.875732 C167.540772,135.65454 167.769286,135.479493 168.057861,135.350586 C168.346437,135.221679 168.663572,135.157227 169.009277,135.157227 C169.557132,135.157227 169.986327,135.294188 170.296875,135.568115 C170.607423,135.842042 170.768555,136.219236 170.780273,136.699707 L170.780273,138.888184 C170.780273,139.324709 170.835937,139.671874 170.947266,139.929688 L170.947266,140 L170.094727,140 Z M168.745605,139.380371 C169.00049,139.380371 169.242186,139.314454 169.470703,139.182617 C169.69922,139.050781 169.864746,138.879396 169.967285,138.668457 L169.967285,137.692871 L169.330078,137.692871 C168.333979,137.692871 167.835938,137.984372 167.835938,138.567383 C167.835938,138.822267 167.920898,139.021484 168.09082,139.165039 C168.260743,139.308594 168.479003,139.380371 168.745605,139.380371 Z M173.157715,134.09375 L173.157715,135.245117 L174.04541,135.245117 L174.04541,135.873535 L173.157715,135.873535 L173.157715,138.822266 C173.157715,139.012696 173.197265,139.155517 173.276367,139.250732 C173.355469,139.345948 173.490233,139.393555 173.680664,139.393555 C173.774415,139.393555 173.903319,139.375977 174.067383,139.34082 L174.067383,140 C173.853515,140.058594 173.645509,140.087891 173.443359,140.087891 C173.080076,140.087891 172.806153,139.978028 172.621582,139.758301 C172.437011,139.538573 172.344727,139.226565 172.344727,138.822266 L172.344727,135.873535 L171.479004,135.873535 L171.479004,135.245117 L172.344727,135.245117 L172.344727,134.09375 L173.157715,134.09375 Z M176.967773,140.087891 C176.323239,140.087891 175.79883,139.876223 175.394531,139.452881 C174.990232,139.029539 174.788086,138.463382 174.788086,137.754395 L174.788086,137.60498 C174.788086,137.133298 174.878173,136.71216 175.05835,136.341553 C175.238526,135.970945 175.490477,135.680909 175.814209,135.471436 C176.137941,135.261962 176.488768,135.157227 176.866699,135.157227 C177.484866,135.157227 177.96533,135.360838 178.308105,135.768066 C178.650881,136.175295 178.822266,136.758297 178.822266,137.51709 L178.822266,137.855469 L175.601074,137.855469 C175.612793,138.324221 175.749755,138.702879 176.011963,138.991455 C176.274171,139.280031 176.60742,139.424316 177.011719,139.424316 C177.29883,139.424316 177.541991,139.365723 177.741211,139.248535 C177.940431,139.131347 178.114745,138.976075 178.26416,138.782715 L178.760742,139.169434 C178.362303,139.781741 177.764652,140.087891 176.967773,140.087891 Z M176.866699,135.825195 C176.538573,135.825195 176.263185,135.944579 176.040527,136.18335 C175.81787,136.42212 175.680176,136.756834 175.627441,137.1875 L178.009277,137.1875 L178.009277,137.125977 C177.98584,136.712889 177.874513,136.392823 177.675293,136.165771 C177.476073,135.93872 177.206545,135.825195 176.866699,135.825195 Z M179.736328,139.57373 C179.736328,139.433105 179.778076,139.315918 179.861572,139.222168 C179.945069,139.128418 180.070312,139.081543 180.237305,139.081543 C180.404298,139.081543 180.531005,139.128418 180.617432,139.222168 C180.703858,139.315918 180.74707,139.433105 180.74707,139.57373 C180.74707,139.708497 180.703858,139.821289 180.617432,139.912109 C180.531005,140.00293 180.404298,140.04834 180.237305,140.04834 C180.070312,140.04834 179.945069,140.00293 179.861572,139.912109 C179.778076,139.821289 179.736328,139.708497 179.736328,139.57373 Z M179.740723,135.693359 C179.740723,135.552734 179.78247,135.435547 179.865967,135.341797 C179.949463,135.248046 180.074706,135.201172 180.241699,135.201172 C180.408692,135.201172 180.5354,135.248046 180.621826,135.341797 C180.708252,135.435547 180.751465,135.552734 180.751465,135.693359 C180.751465,135.828126 180.708252,135.940918 180.621826,136.031738 C180.5354,136.122559 180.408692,136.167969 180.241699,136.167969 C180.074706,136.167969 179.949463,136.122559 179.865967,136.031738 C179.78247,135.940918 179.740723,135.828126 179.740723,135.693359 Z M184.297852,140 L184.297852,133.601562 L186.104004,133.601562 C186.660647,133.601562 187.15283,133.724608 187.580566,133.970703 C188.008303,134.216798 188.338622,134.566892 188.571533,135.020996 C188.804445,135.4751 188.922363,135.996579 188.925293,136.585449 L188.925293,136.994141 C188.925293,137.597659 188.808839,138.126463 188.575928,138.580566 C188.343016,139.03467 188.0105,139.3833 187.578369,139.626465 C187.146238,139.86963 186.643069,139.994141 186.068848,140 L184.297852,140 Z M185.141602,134.295898 L185.141602,139.310059 L186.029297,139.310059 C186.679691,139.310059 187.185789,139.107912 187.547607,138.703613 C187.909426,138.299314 188.090332,137.723637 188.090332,136.976562 L188.090332,136.603027 C188.090332,135.876461 187.919679,135.31177 187.578369,134.908936 C187.237059,134.506102 186.752933,134.301758 186.125977,134.295898 L185.141602,134.295898 Z M192.04541,140.087891 C191.400876,140.087891 190.876467,139.876223 190.472168,139.452881 C190.067869,139.029539 189.865723,138.463382 189.865723,137.754395 L189.865723,137.60498 C189.865723,137.133298 189.95581,136.71216 190.135986,136.341553 C190.316163,135.970945 190.568114,135.680909 190.891846,135.471436 C191.215578,135.261962 191.566404,135.157227 191.944336,135.157227 C192.562503,135.157227 193.042967,135.360838 193.385742,135.768066 C193.728517,136.175295 193.899902,136.758297 193.899902,137.51709 L193.899902,137.855469 L190.678711,137.855469 C190.69043,138.324221 190.827391,138.702879 191.0896,138.991455 C191.351808,139.280031 191.685057,139.424316 192.089355,139.424316 C192.376466,139.424316 192.619628,139.365723 192.818848,139.248535 C193.018067,139.131347 193.192382,138.976075 193.341797,138.782715 L193.838379,139.169434 C193.439939,139.781741 192.842289,140.087891 192.04541,140.087891 Z M191.944336,135.825195 C191.616209,135.825195 191.340821,135.944579 191.118164,136.18335 C190.895507,136.42212 190.757813,136.756834 190.705078,137.1875 L193.086914,137.1875 L193.086914,137.125977 C193.063476,136.712889 192.952149,136.392823 192.75293,136.165771 C192.55371,135.93872 192.284181,135.825195 191.944336,135.825195 Z M196.747559,139.424316 C197.037599,139.424316 197.291015,139.336427 197.507812,139.160645 C197.72461,138.984862 197.844726,138.765138 197.868164,138.501465 L198.637207,138.501465 C198.622559,138.773927 198.528809,139.033202 198.355957,139.279297 C198.183105,139.525392 197.952394,139.721679 197.663818,139.868164 C197.375243,140.014649 197.069826,140.087891 196.747559,140.087891 C196.100094,140.087891 195.585207,139.871828 195.202881,139.439697 C194.820555,139.007566 194.629395,138.416508 194.629395,137.666504 L194.629395,137.530273 C194.629395,137.06738 194.714355,136.655764 194.884277,136.29541 C195.0542,135.935057 195.298094,135.655274 195.615967,135.456055 C195.933839,135.256835 196.309568,135.157227 196.743164,135.157227 C197.27637,135.157227 197.719481,135.316893 198.07251,135.63623 C198.425539,135.955568 198.613769,136.370115 198.637207,136.879883 L197.868164,136.879883 C197.844726,136.572264 197.728273,136.319581 197.518799,136.121826 C197.309325,135.924071 197.050783,135.825195 196.743164,135.825195 C196.330076,135.825195 196.010011,135.973875 195.782959,136.27124 C195.555907,136.568605 195.442383,136.998532 195.442383,137.561035 L195.442383,137.714844 C195.442383,138.262698 195.555175,138.684569 195.780762,138.980469 C196.006349,139.276369 196.328611,139.424316 196.747559,139.424316 Z M201.524414,140.087891 C200.87988,140.087891 200.355471,139.876223 199.951172,139.452881 C199.546873,139.029539 199.344727,138.463382 199.344727,137.754395 L199.344727,137.60498 C199.344727,137.133298 199.434814,136.71216 199.61499,136.341553 C199.795167,135.970945 200.047118,135.680909 200.37085,135.471436 C200.694582,135.261962 201.045408,135.157227 201.42334,135.157227 C202.041507,135.157227 202.521971,135.360838 202.864746,135.768066 C203.207521,136.175295 203.378906,136.758297 203.378906,137.51709 L203.378906,137.855469 L200.157715,137.855469 C200.169434,138.324221 200.306395,138.702879 200.568604,138.991455 C200.830812,139.280031 201.16406,139.424316 201.568359,139.424316 C201.85547,139.424316 202.098632,139.365723 202.297852,139.248535 C202.497071,139.131347 202.671386,138.976075 202.820801,138.782715 L203.317383,139.169434 C202.918943,139.781741 202.321293,140.087891 201.524414,140.087891 Z M201.42334,135.825195 C201.095213,135.825195 200.819825,135.944579 200.597168,136.18335 C200.374511,136.42212 200.236817,136.756834 200.184082,137.1875 L202.565918,137.1875 L202.565918,137.125977 C202.54248,136.712889 202.431153,136.392823 202.231934,136.165771 C202.032714,135.93872 201.763185,135.825195 201.42334,135.825195 Z M205.083984,135.245117 L205.105957,135.772461 C205.454592,135.362303 205.924802,135.157227 206.516602,135.157227 C207.181644,135.157227 207.634276,135.412107 207.874512,135.921875 C208.032716,135.693358 208.238524,135.50879 208.491943,135.368164 C208.745363,135.227538 209.04492,135.157227 209.390625,135.157227 C210.433599,135.157227 210.963867,135.709467 210.981445,136.813965 L210.981445,140 L210.168457,140 L210.168457,136.862305 C210.168457,136.522459 210.090821,136.268311 209.935547,136.099854 C209.780273,135.931396 209.519533,135.847168 209.15332,135.847168 C208.851561,135.847168 208.601075,135.937255 208.401855,136.117432 C208.202636,136.297608 208.086914,136.540038 208.054688,136.844727 L208.054688,140 L207.237305,140 L207.237305,136.884277 C207.237305,136.192868 206.898929,135.847168 206.222168,135.847168 C205.688962,135.847168 205.32422,136.074216 205.12793,136.52832 L205.12793,140 L204.314941,140 L204.314941,135.245117 L205.083984,135.245117 Z M216.23291,137.675293 C216.23291,138.401859 216.06592,138.985593 215.731934,139.426514 C215.397948,139.867434 214.94971,140.087891 214.387207,140.087891 C213.786618,140.087891 213.322267,139.87549 212.994141,139.450684 L212.95459,140 L212.20752,140 L212.20752,133.25 L213.020508,133.25 L213.020508,135.768066 C213.348634,135.360838 213.801267,135.157227 214.378418,135.157227 C214.955569,135.157227 215.408934,135.375486 215.738525,135.812012 C216.068117,136.248537 216.23291,136.846188 216.23291,137.60498 L216.23291,137.675293 Z M215.419922,137.583008 C215.419922,137.029294 215.312989,136.601564 215.099121,136.299805 C214.885253,135.998045 214.577639,135.847168 214.17627,135.847168 C213.640134,135.847168 213.254884,136.096189 213.020508,136.594238 L213.020508,138.650879 C213.269532,139.148928 213.657712,139.397949 214.185059,139.397949 C214.574709,139.397949 214.877929,139.247072 215.094727,138.945312 C215.311525,138.643553 215.419922,138.189456 215.419922,137.583008 Z M219.22998,140.087891 C218.585446,140.087891 218.061037,139.876223 217.656738,139.452881 C217.252439,139.029539 217.050293,138.463382 217.050293,137.754395 L217.050293,137.60498 C217.050293,137.133298 217.14038,136.71216 217.320557,136.341553 C217.500733,135.970945 217.752684,135.680909 218.076416,135.471436 C218.400148,135.261962 218.750975,135.157227 219.128906,135.157227 C219.747073,135.157227 220.227537,135.360838 220.570312,135.768066 C220.913088,136.175295 221.084473,136.758297 221.084473,137.51709 L221.084473,137.855469 L217.863281,137.855469 C217.875,138.324221 218.011962,138.702879 218.27417,138.991455 C218.536378,139.280031 218.869627,139.424316 219.273926,139.424316 C219.561037,139.424316 219.804198,139.365723 220.003418,139.248535 C220.202638,139.131347 220.376952,138.976075 220.526367,138.782715 L221.022949,139.169434 C220.62451,139.781741 220.026859,140.087891 219.22998,140.087891 Z M219.128906,135.825195 C218.80078,135.825195 218.525392,135.944579 218.302734,136.18335 C218.080077,136.42212 217.942383,136.756834 217.889648,137.1875 L220.271484,137.1875 L220.271484,137.125977 C220.248047,136.712889 220.13672,136.392823 219.9375,136.165771 C219.73828,135.93872 219.468752,135.825195 219.128906,135.825195 Z M224.323242,135.974609 C224.200195,135.954101 224.066895,135.943848 223.92334,135.943848 C223.390134,135.943848 223.028321,136.170896 222.837891,136.625 L222.837891,140 L222.024902,140 L222.024902,135.245117 L222.815918,135.245117 L222.829102,135.794434 C223.095704,135.369627 223.47363,135.157227 223.962891,135.157227 C224.121095,135.157227 224.241211,135.177734 224.323242,135.21875 L224.323242,135.974609 Z M229.886719,140 L229.069336,140 L229.069336,134.581543 L227.430176,135.183594 L227.430176,134.445312 L229.759277,133.570801 L229.886719,133.570801 L229.886719,140 Z M232.64209,136.791992 L232.967285,133.601562 L236.245605,133.601562 L236.245605,134.353027 L233.657227,134.353027 L233.463867,136.097656 C233.777345,135.913085 234.133299,135.820801 234.531738,135.820801 C235.114749,135.820801 235.577635,136.013426 235.92041,136.398682 C236.263185,136.783937 236.43457,137.304684 236.43457,137.960938 C236.43457,138.62012 236.256594,139.139402 235.900635,139.518799 C235.544676,139.898195 235.047366,140.087891 234.408691,140.087891 C233.843259,140.087891 233.381838,139.931154 233.024414,139.617676 C232.66699,139.304198 232.463379,138.870608 232.413574,138.316895 L233.182617,138.316895 C233.232422,138.683107 233.362792,138.959228 233.57373,139.145264 C233.784669,139.3313 234.062987,139.424316 234.408691,139.424316 C234.786623,139.424316 235.083251,139.295411 235.298584,139.037598 C235.513917,138.779784 235.621582,138.42383 235.621582,137.969727 C235.621582,137.54199 235.505128,137.198488 235.272217,136.939209 C235.039305,136.67993 234.729494,136.550293 234.342773,136.550293 C233.988279,136.550293 233.709962,136.627929 233.507812,136.783203 L233.29248,136.958984 L232.64209,136.791992 Z M237.379395,141.274414 L236.917969,140.958008 C237.193361,140.574217 237.336914,140.178713 237.348633,139.771484 L237.348633,139.037598 L238.144043,139.037598 L238.144043,139.674805 C238.144043,139.970705 238.071534,140.2666 237.926514,140.5625 C237.781493,140.8584 237.599122,141.095702 237.379395,141.274414 Z M245.509277,140 L241.316895,140 L241.316895,139.415527 L243.531738,136.95459 C243.859865,136.582518 244.086181,136.28003 244.210693,136.047119 C244.335206,135.814208 244.397461,135.573243 244.397461,135.324219 C244.397461,134.990233 244.296388,134.71631 244.094238,134.502441 C243.892089,134.288573 243.62256,134.181641 243.285645,134.181641 C242.881346,134.181641 242.56714,134.29663 242.343018,134.526611 C242.118895,134.756593 242.006836,135.076658 242.006836,135.486816 L241.193848,135.486816 C241.193848,134.897946 241.383543,134.421877 241.762939,134.058594 C242.142336,133.695311 242.649899,133.513672 243.285645,133.513672 C243.880374,133.513672 244.350584,133.669676 244.696289,133.981689 C245.041994,134.293703 245.214844,134.708982 245.214844,135.227539 C245.214844,135.857425 244.813481,136.607418 244.010742,137.477539 L242.296875,139.336426 L245.509277,139.336426 L245.509277,140 Z M250.382812,137.270996 C250.382812,138.223149 250.220216,138.930662 249.89502,139.393555 C249.569823,139.856448 249.061527,140.087891 248.370117,140.087891 C247.687497,140.087891 247.182131,139.861575 246.854004,139.408936 C246.525877,138.956297 246.355957,138.280278 246.344238,137.380859 L246.344238,136.29541 C246.344238,135.354976 246.506834,134.656252 246.832031,134.199219 C247.157228,133.742185 247.666989,133.513672 248.361328,133.513672 C249.049808,133.513672 249.556639,133.734129 249.881836,134.175049 C250.207033,134.615969 250.374023,135.296382 250.382812,136.216309 L250.382812,137.270996 Z M249.569824,136.15918 C249.569824,135.4707 249.473145,134.968996 249.279785,134.654053 C249.086425,134.33911 248.780276,134.181641 248.361328,134.181641 C247.94531,134.181641 247.642091,134.338377 247.45166,134.651855 C247.26123,134.965334 247.163086,135.447262 247.157227,136.097656 L247.157227,137.398438 C247.157227,138.089847 247.257567,138.60034 247.458252,138.929932 C247.658937,139.259523 247.962889,139.424316 248.370117,139.424316 C248.771486,139.424316 249.069579,139.269045 249.264404,138.958496 C249.459229,138.647948 249.561035,138.158695 249.569824,137.490723 L249.569824,136.15918 Z M252.606445,136.405273 L253.217285,136.405273 C253.601076,136.399414 253.902831,136.298341 254.122559,136.102051 C254.342286,135.905761 254.452148,135.640627 254.452148,135.306641 C254.452148,134.556637 254.078617,134.181641 253.331543,134.181641 C252.979979,134.181641 252.699464,134.281981 252.48999,134.482666 C252.280517,134.683351 252.175781,134.949217 252.175781,135.280273 L251.362793,135.280273 C251.362793,134.773435 251.548094,134.352297 251.918701,134.016846 C252.289308,133.681395 252.760251,133.513672 253.331543,133.513672 C253.935062,133.513672 254.408201,133.673338 254.750977,133.992676 C255.093752,134.312013 255.265137,134.755857 255.265137,135.324219 C255.265137,135.60254 255.17505,135.872069 254.994873,136.132812 C254.814696,136.393556 254.569337,136.588378 254.258789,136.717285 C254.610353,136.828614 254.882079,137.013182 255.073975,137.270996 C255.26587,137.52881 255.361816,137.843748 255.361816,138.21582 C255.361816,138.790042 255.174318,139.245604 254.799316,139.58252 C254.424315,139.919435 253.936526,140.087891 253.335938,140.087891 C252.735349,140.087891 252.246828,139.925295 251.870361,139.600098 C251.493895,139.274901 251.305664,138.845706 251.305664,138.3125 L252.123047,138.3125 C252.123047,138.649416 252.232909,138.918944 252.452637,139.121094 C252.672364,139.323243 252.966795,139.424316 253.335938,139.424316 C253.728518,139.424316 254.028808,139.321778 254.236816,139.116699 C254.444825,138.91162 254.548828,138.617189 254.548828,138.233398 C254.548828,137.861326 254.434571,137.575685 254.206055,137.376465 C253.977538,137.177245 253.647951,137.074707 253.217285,137.068848 L252.606445,137.068848 L252.606445,136.405273 Z M260.67041,140 L256.478027,140 L256.478027,139.415527 L258.692871,136.95459 C259.020998,136.582518 259.247314,136.28003 259.371826,136.047119 C259.496339,135.814208 259.558594,135.573243 259.558594,135.324219 C259.558594,134.990233 259.457521,134.71631 259.255371,134.502441 C259.053222,134.288573 258.783693,134.181641 258.446777,134.181641 C258.042478,134.181641 257.728273,134.29663 257.50415,134.526611 C257.280028,134.756593 257.167969,135.076658 257.167969,135.486816 L256.35498,135.486816 C256.35498,134.897946 256.544676,134.421877 256.924072,134.058594 C257.303469,133.695311 257.811032,133.513672 258.446777,133.513672 C259.041507,133.513672 259.511717,133.669676 259.857422,133.981689 C260.203127,134.293703 260.375977,134.708982 260.375977,135.227539 C260.375977,135.857425 259.974613,136.607418 259.171875,137.477539 L257.458008,139.336426 L260.67041,139.336426 L260.67041,140 Z" id="Renewal-date:-Decemb-Copy" fill="#000000"></path>
                <g id="Page-1" transform="translate(22.000000, 20.000000)" fill="#FF8516">
                    <path d="M18.6220588,37.4411765 C31.825,28.0808824 46.1117647,19.8044118 61.7779412,12.5132353 C46.1117647,15.9617647 30.15,20.6911765 14.7794118,26.8 C9.36029412,28.9676471 4.53235294,31.2338235 0,33.5 L0,53.4029412 C5.61617647,47.6882353 11.8235294,42.2691176 18.6220588,37.4411765" id="Fill-1"></path>
                    <path d="M67,8.27647059 L67,0 L0,0 L0,20.6911765 C8.17794118,18.1294118 16.4544118,15.6661765 23.7455882,13.9911765 C40.6926471,10.2470588 57.8367647,8.76911765 67,8.27647059" id="Fill-3"></path>
                    <path d="M67,15.3705882 C55.4720588,21.775 44.6338235,29.1647059 34.8794118,37.3426471 C23.1544118,47.3926471 16.0602941,59.2161765 12.3161765,67 L67,67 L67,15.3705882 Z" id="Fill-5"></path>
                </g>
            </g>
        </g>
    </g>
</svg>