<?xml version="1.0" encoding="UTF-8"?>
<svg width="280px" height="160px" viewBox="0 0 280 160" version="1.1" xmlns="http://www.w3.org/2000/svg" xmlns:xlink="http://www.w3.org/1999/xlink">
    <!-- Generator: Sketch 44.1 (41455) - http://www.bohemiancoding.com/sketch -->
    <title>Thumb_280x160_3sketch</title>
    <desc>Created with Sketch.</desc>
    <defs>
        <polygon id="path-1" points="6.43425803e-16 18.236 6.43425803e-16 0.281333333 28.4621333 0.281333333 28.4621333 18.236 0 18.236"></polygon>
    </defs>
    <g id="Thumbnails" stroke="none" stroke-width="1" fill="none" fill-rule="evenodd">
        <g id="Thumbnails_export_svg" transform="translate(-744.000000, -59.000000)">
            <g id="Thumb_280x160_3sketch" transform="translate(744.000000, 59.000000)">
                <rect id="Mask" fill="#FFFFFF" x="0" y="0" width="280" height="159.006211"></rect>
                <path d="M72.5961914,23.6081543 L67.6743164,23.6081543 L67.6743164,26.9406738 L73.4506836,26.9406738 L73.4506836,29 L65.1108398,29 L65.1108398,16.5585938 L73.4335938,16.5585938 L73.4335938,18.6350098 L67.6743164,18.6350098 L67.6743164,21.6000977 L72.5961914,21.6000977 L72.5961914,23.6081543 Z M78.6374512,27.1799316 C79.0931826,27.1799316 79.4634589,27.0546074 79.748291,26.8039551 C80.0331232,26.5533028 80.1812337,26.2200542 80.192627,25.8041992 L82.5083008,25.8041992 C82.5026041,26.43083 82.3317074,27.0047581 81.9956055,27.526001 C81.6595035,28.0472438 81.1995065,28.4516994 80.6156006,28.7393799 C80.0316947,29.0270604 79.3865595,29.1708984 78.6801758,29.1708984 C77.3585546,29.1708984 76.3160845,28.7507773 75.5527344,27.9105225 C74.7893842,27.0702676 74.4077148,25.909594 74.4077148,24.4284668 L74.4077148,24.2661133 C74.4077148,22.8419525 74.7865359,21.7054893 75.5441895,20.8566895 C76.301843,20.0078896 77.3414647,19.5834961 78.6630859,19.5834961 C79.8195045,19.5834961 80.7466192,19.9124723 81.444458,20.5704346 C82.1422968,21.2283968 82.4969075,22.1042426 82.5083008,23.197998 L80.192627,23.197998 C80.1812337,22.71948 80.0331232,22.33069 79.748291,22.0316162 C79.4634589,21.7325424 79.0874861,21.5830078 78.6203613,21.5830078 C78.0450004,21.5830078 77.6106379,21.7923563 77.3172607,22.2110596 C77.0238836,22.6297628 76.8771973,23.3090773 76.8771973,24.2490234 L76.8771973,24.5053711 C76.8771973,25.4567105 77.0224595,26.1402974 77.3129883,26.5561523 C77.6035171,26.9720073 78.0450003,27.1799316 78.6374512,27.1799316 Z M83.5336914,24.291748 C83.5336914,23.3745885 83.7102847,22.5571325 84.0634766,21.8393555 C84.4166684,21.1215784 84.9250862,20.5661641 85.5887451,20.1730957 C86.252404,19.7800273 87.0228635,19.5834961 87.9001465,19.5834961 C89.1477113,19.5834961 90.165971,19.9651655 90.9549561,20.7285156 C91.7439411,21.4918658 92.1840002,22.5286393 92.2751465,23.8388672 L92.2922363,24.4711914 C92.2922363,25.8896555 91.8963256,27.0275429 91.1044922,27.8848877 C90.3126588,28.7422325 89.2502508,29.1708984 87.9172363,29.1708984 C86.5842219,29.1708984 85.5203897,28.7436566 84.725708,27.8891602 C83.9310263,27.0346637 83.5336914,25.8725659 83.5336914,24.402832 L83.5336914,24.291748 Z M86.0031738,24.4711914 C86.0031738,25.3484744 86.168374,26.0192441 86.4987793,26.4835205 C86.8291846,26.9477969 87.3019989,27.1799316 87.9172363,27.1799316 C88.5153839,27.1799316 88.9825016,26.9506452 89.3186035,26.4920654 C89.6547055,26.0334857 89.8227539,25.3000539 89.8227539,24.291748 C89.8227539,23.4315549 89.6547055,22.7650577 89.3186035,22.2922363 C88.9825016,21.819415 88.5096873,21.5830078 87.9001465,21.5830078 C87.2963023,21.5830078 86.8291846,21.8179908 86.4987793,22.2879639 C86.168374,22.7579369 86.0031738,23.4856722 86.0031738,24.4711914 Z M100.896973,24.6164551 L100.896973,29 L98.3334961,29 L98.3334961,16.5585938 L103.187012,16.5585938 C104.121261,16.5585938 104.94299,16.7294905 105.652222,17.0712891 C106.361454,17.4130876 106.906899,17.8987192 107.288574,18.5281982 C107.670249,19.1576773 107.861084,19.8740194 107.861084,20.6772461 C107.861084,21.8963277 107.443811,22.8576218 106.609253,23.5611572 C105.774695,24.2646926 104.619718,24.6164551 103.144287,24.6164551 L100.896973,24.6164551 Z M100.896973,22.5400391 L103.187012,22.5400391 C103.864912,22.5400391 104.381875,22.3805354 104.737915,22.0615234 C105.093955,21.7425114 105.271973,21.2867868 105.271973,20.6943359 C105.271973,20.0847951 105.092531,19.5920429 104.733643,19.2160645 C104.374754,18.840086 103.879154,18.6464031 103.246826,18.6350098 L100.896973,18.6350098 L100.896973,22.5400391 Z M114.654297,22.0700684 C114.318195,22.0244952 114.021974,22.001709 113.765625,22.001709 C112.831376,22.001709 112.218996,22.3178679 111.928467,22.9501953 L111.928467,29 L109.458984,29 L109.458984,19.7543945 L111.791748,19.7543945 L111.860107,20.8566895 C112.355715,20.0078896 113.042151,19.5834961 113.919434,19.5834961 C114.192872,19.5834961 114.449218,19.6205237 114.688477,19.6945801 L114.654297,22.0700684 Z M115.45752,24.291748 C115.45752,23.3745885 115.634113,22.5571325 115.987305,21.8393555 C116.340497,21.1215784 116.848914,20.5661641 117.512573,20.1730957 C118.176232,19.7800273 118.946692,19.5834961 119.823975,19.5834961 C121.071539,19.5834961 122.089799,19.9651655 122.878784,20.7285156 C123.667769,21.4918658 124.107828,22.5286393 124.198975,23.8388672 L124.216064,24.4711914 C124.216064,25.8896555 123.820154,27.0275429 123.02832,27.8848877 C122.236487,28.7422325 121.174079,29.1708984 119.841064,29.1708984 C118.50805,29.1708984 117.444218,28.7436566 116.649536,27.8891602 C115.854854,27.0346637 115.45752,25.8725659 115.45752,24.402832 L115.45752,24.291748 Z M117.927002,24.4711914 C117.927002,25.3484744 118.092202,26.0192441 118.422607,26.4835205 C118.753013,26.9477969 119.225827,27.1799316 119.841064,27.1799316 C120.439212,27.1799316 120.90633,26.9506452 121.242432,26.4920654 C121.578534,26.0334857 121.746582,25.3000539 121.746582,24.291748 C121.746582,23.4315549 121.578534,22.7650577 121.242432,22.2922363 C120.90633,21.819415 120.433515,21.5830078 119.823975,21.5830078 C119.22013,21.5830078 118.753013,21.8179908 118.422607,22.2879639 C118.092202,22.7579369 117.927002,23.4856722 117.927002,24.4711914 Z M125.378174,24.3088379 C125.378174,22.8903738 125.715695,21.748214 126.390747,20.8823242 C127.065799,20.0164345 127.975824,19.5834961 129.12085,19.5834961 C130.134852,19.5834961 130.923825,19.9309861 131.487793,20.6259766 L131.590332,19.7543945 L133.829102,19.7543945 L133.829102,28.6923828 C133.829102,29.5013061 133.645388,30.204831 133.277954,30.8029785 C132.910521,31.401126 132.393558,31.8568506 131.727051,32.170166 C131.060544,32.4834814 130.280115,32.6401367 129.385742,32.6401367 C128.707842,32.6401367 128.047041,32.5048435 127.40332,32.2342529 C126.7596,31.9636624 126.272544,31.6147482 125.942139,31.1875 L127.035889,29.6835938 C127.651126,30.3728876 128.397375,30.7175293 129.274658,30.7175293 C129.929772,30.7175293 130.439614,30.5423602 130.804199,30.1920166 C131.168784,29.8416731 131.351074,29.3446484 131.351074,28.7009277 L131.351074,28.2053223 C130.78141,28.8490429 130.032313,29.1708984 129.10376,29.1708984 C127.992914,29.1708984 127.094282,28.7365359 126.407837,27.8677979 C125.721391,26.9990598 125.378174,25.846931 125.378174,24.411377 L125.378174,24.3088379 Z M127.847656,24.4882812 C127.847656,25.3256878 128.015705,25.982216 128.351807,26.4578857 C128.687909,26.9335554 129.14933,27.1713867 129.736084,27.1713867 C130.488041,27.1713867 131.026366,26.8894071 131.351074,26.3254395 L131.351074,22.4375 C131.020669,21.8735323 130.488041,21.5915527 129.753174,21.5915527 C129.160723,21.5915527 128.695029,21.8336564 128.356079,22.3178711 C128.017129,22.8020858 127.847656,23.5255486 127.847656,24.4882812 Z M139.981445,29.1708984 C138.625644,29.1708984 137.521936,28.7550497 136.670288,27.9233398 C135.81864,27.09163 135.392822,25.9836495 135.392822,24.5993652 L135.392822,24.3601074 C135.392822,23.4315546 135.572264,22.6012813 135.931152,21.8692627 C136.290041,21.1372441 136.798459,20.5732849 137.456421,20.1773682 C138.114383,19.7814515 138.864905,19.5834961 139.708008,19.5834961 C140.972663,19.5834961 141.968136,19.9822551 142.694458,20.7797852 C143.42078,21.5773152 143.783936,22.7080819 143.783936,24.1721191 L143.783936,25.1804199 L137.896484,25.1804199 C137.976237,25.7842641 138.216917,26.2684715 138.61853,26.6330566 C139.020144,26.9976418 139.528561,27.1799316 140.143799,27.1799316 C141.095138,27.1799316 141.838539,26.8352899 142.374023,26.1459961 L143.587402,27.5046387 C143.217121,28.0287298 142.715823,28.4374578 142.083496,28.730835 C141.451169,29.0242121 140.750492,29.1708984 139.981445,29.1708984 Z M139.699463,21.5830078 C139.209552,21.5830078 138.812217,21.748208 138.507446,22.0786133 C138.202676,22.4090186 138.007569,22.8818329 137.922119,23.4970703 L141.357178,23.4970703 L141.357178,23.3005371 C141.345784,22.7536594 141.197674,22.33069 140.912842,22.0316162 C140.62801,21.7325424 140.223554,21.5830078 139.699463,21.5830078 Z M149.030518,27.1799316 C149.486249,27.1799316 149.856525,27.0546074 150.141357,26.8039551 C150.42619,26.5533028 150.5743,26.2200542 150.585693,25.8041992 L152.901367,25.8041992 C152.895671,26.43083 152.724774,27.0047581 152.388672,27.526001 C152.05257,28.0472438 151.592573,28.4516994 151.008667,28.7393799 C150.424761,29.0270604 149.779626,29.1708984 149.073242,29.1708984 C147.751621,29.1708984 146.709151,28.7507773 145.945801,27.9105225 C145.182451,27.0702676 144.800781,25.909594 144.800781,24.4284668 L144.800781,24.2661133 C144.800781,22.8419525 145.179602,21.7054893 145.937256,20.8566895 C146.694909,20.0078896 147.734531,19.5834961 149.056152,19.5834961 C150.212571,19.5834961 151.139686,19.9124723 151.837524,20.5704346 C152.535363,21.2283968 152.889974,22.1042426 152.901367,23.197998 L150.585693,23.197998 C150.5743,22.71948 150.42619,22.33069 150.141357,22.0316162 C149.856525,21.7325424 149.480552,21.5830078 149.013428,21.5830078 C148.438067,21.5830078 148.003704,21.7923563 147.710327,22.2110596 C147.41695,22.6297628 147.270264,23.3090773 147.270264,24.2490234 L147.270264,24.5053711 C147.270264,25.4567105 147.415526,26.1402974 147.706055,26.5561523 C147.996583,26.9720073 148.438067,27.1799316 149.030518,27.1799316 Z M157.267822,17.4814453 L157.267822,19.7543945 L158.848633,19.7543945 L158.848633,21.565918 L157.267822,21.565918 L157.267822,26.1801758 C157.267822,26.5219744 157.333333,26.7669263 157.464355,26.9150391 C157.595378,27.0631518 157.846027,27.137207 158.216309,27.137207 C158.489747,27.137207 158.731851,27.1172691 158.942627,27.0773926 L158.942627,28.9487305 C158.458412,29.0968432 157.959964,29.1708984 157.447266,29.1708984 C155.715486,29.1708984 154.83252,28.2964768 154.79834,26.5476074 L154.79834,21.565918 L153.448242,21.565918 L153.448242,19.7543945 L154.79834,19.7543945 L154.79834,17.4814453 L157.267822,17.4814453 Z M168.094238,16.5585938 L171.290039,25.5820312 L174.46875,16.5585938 L177.835449,16.5585938 L177.835449,29 L175.263428,29 L175.263428,25.5991211 L175.519775,19.7287598 L172.161621,29 L170.401367,29 L167.051758,19.7373047 L167.308105,25.5991211 L167.308105,29 L164.744629,29 L164.744629,16.5585938 L168.094238,16.5585938 Z M184.167236,29.1708984 C182.811435,29.1708984 181.707727,28.7550497 180.856079,27.9233398 C180.004431,27.09163 179.578613,25.9836495 179.578613,24.5993652 L179.578613,24.3601074 C179.578613,23.4315546 179.758055,22.6012813 180.116943,21.8692627 C180.475832,21.1372441 180.98425,20.5732849 181.642212,20.1773682 C182.300174,19.7814515 183.050696,19.5834961 183.893799,19.5834961 C185.158454,19.5834961 186.153927,19.9822551 186.880249,20.7797852 C187.606571,21.5773152 187.969727,22.7080819 187.969727,24.1721191 L187.969727,25.1804199 L182.082275,25.1804199 C182.162028,25.7842641 182.402708,26.2684715 182.804321,26.6330566 C183.205935,26.9976418 183.714352,27.1799316 184.32959,27.1799316 C185.280929,27.1799316 186.02433,26.8352899 186.559814,26.1459961 L187.773193,27.5046387 C187.402912,28.0287298 186.901614,28.4374578 186.269287,28.730835 C185.63696,29.0242121 184.936283,29.1708984 184.167236,29.1708984 Z M183.885254,21.5830078 C183.395343,21.5830078 182.998008,21.748208 182.693237,22.0786133 C182.388467,22.4090186 182.19336,22.8818329 182.10791,23.4970703 L185.542969,23.4970703 L185.542969,23.3005371 C185.531575,22.7536594 185.383465,22.33069 185.098633,22.0316162 C184.813801,21.7325424 184.409345,21.5830078 183.885254,21.5830078 Z M192.327637,17.4814453 L192.327637,19.7543945 L193.908447,19.7543945 L193.908447,21.565918 L192.327637,21.565918 L192.327637,26.1801758 C192.327637,26.5219744 192.393147,26.7669263 192.52417,26.9150391 C192.655193,27.0631518 192.905841,27.137207 193.276123,27.137207 C193.549562,27.137207 193.791666,27.1172691 194.002441,27.0773926 L194.002441,28.9487305 C193.518227,29.0968432 193.019778,29.1708984 192.50708,29.1708984 C190.775301,29.1708984 189.892334,28.2964768 189.858154,26.5476074 L189.858154,21.565918 L188.508057,21.565918 L188.508057,19.7543945 L189.858154,19.7543945 L189.858154,17.4814453 L192.327637,17.4814453 Z M200.479492,22.0700684 C200.14339,22.0244952 199.847169,22.001709 199.59082,22.001709 C198.656571,22.001709 198.044191,22.3178679 197.753662,22.9501953 L197.753662,29 L195.28418,29 L195.28418,19.7543945 L197.616943,19.7543945 L197.685303,20.8566895 C198.180911,20.0078896 198.867346,19.5834961 199.744629,19.5834961 C200.018068,19.5834961 200.274413,19.6205237 200.513672,19.6945801 L200.479492,22.0700684 Z M201.282715,24.291748 C201.282715,23.3745885 201.459308,22.5571325 201.8125,21.8393555 C202.165692,21.1215784 202.67411,20.5661641 203.337769,20.1730957 C204.001427,19.7800273 204.771887,19.5834961 205.64917,19.5834961 C206.896735,19.5834961 207.914994,19.9651655 208.703979,20.7285156 C209.492965,21.4918658 209.933024,22.5286393 210.02417,23.8388672 L210.04126,24.4711914 C210.04126,25.8896555 209.645349,27.0275429 208.853516,27.8848877 C208.061682,28.7422325 206.999274,29.1708984 205.66626,29.1708984 C204.333245,29.1708984 203.269413,28.7436566 202.474731,27.8891602 C201.68005,27.0346637 201.282715,25.8725659 201.282715,24.402832 L201.282715,24.291748 Z M203.752197,24.4711914 C203.752197,25.3484744 203.917397,26.0192441 204.247803,26.4835205 C204.578208,26.9477969 205.051022,27.1799316 205.66626,27.1799316 C206.264407,27.1799316 206.731525,26.9506452 207.067627,26.4920654 C207.403729,26.0334857 207.571777,25.3000539 207.571777,24.291748 C207.571777,23.4315549 207.403729,22.7650577 207.067627,22.2922363 C206.731525,21.819415 206.258711,21.5830078 205.64917,21.5830078 C205.045326,21.5830078 204.578208,21.8179908 204.247803,22.2879639 C203.917397,22.7579369 203.752197,23.4856722 203.752197,24.4711914 Z M219.88501,24.4626465 C219.88501,25.8868073 219.56173,27.0275429 218.915161,27.8848877 C218.268592,28.7422325 217.395595,29.1708984 216.296143,29.1708984 C215.361893,29.1708984 214.607099,28.8461947 214.031738,28.1967773 L214.031738,32.5546875 L211.562256,32.5546875 L211.562256,19.7543945 L213.852295,19.7543945 L213.937744,20.6601562 C214.535892,19.9423792 215.31632,19.5834961 216.279053,19.5834961 C217.418381,19.5834961 218.304196,20.0050414 218.936523,20.8481445 C219.568851,21.6912477 219.88501,22.8533455 219.88501,24.3344727 L219.88501,24.4626465 Z M217.415527,24.2832031 C217.415527,23.42301 217.263144,22.7593611 216.958374,22.2922363 C216.653604,21.8251116 216.210696,21.5915527 215.629639,21.5915527 C214.854895,21.5915527 214.322267,21.8877737 214.031738,22.4802246 L214.031738,26.265625 C214.33366,26.8751658 214.871985,27.1799316 215.646729,27.1799316 C216.825934,27.1799316 217.415527,26.2143651 217.415527,24.2832031 Z M221.030029,24.291748 C221.030029,23.3745885 221.206623,22.5571325 221.559814,21.8393555 C221.913006,21.1215784 222.421424,20.5661641 223.085083,20.1730957 C223.748742,19.7800273 224.519201,19.5834961 225.396484,19.5834961 C226.644049,19.5834961 227.662309,19.9651655 228.451294,20.7285156 C229.240279,21.4918658 229.680338,22.5286393 229.771484,23.8388672 L229.788574,24.4711914 C229.788574,25.8896555 229.392663,27.0275429 228.60083,27.8848877 C227.808997,28.7422325 226.746589,29.1708984 225.413574,29.1708984 C224.08056,29.1708984 223.016728,28.7436566 222.222046,27.8891602 C221.427364,27.0346637 221.030029,25.8725659 221.030029,24.402832 L221.030029,24.291748 Z M223.499512,24.4711914 C223.499512,25.3484744 223.664712,26.0192441 223.995117,26.4835205 C224.325522,26.9477969 224.798337,27.1799316 225.413574,27.1799316 C226.011722,27.1799316 226.478839,26.9506452 226.814941,26.4920654 C227.151043,26.0334857 227.319092,25.3000539 227.319092,24.291748 C227.319092,23.4315549 227.151043,22.7650577 226.814941,22.2922363 C226.478839,21.819415 226.006025,21.5830078 225.396484,21.5830078 C224.79264,21.5830078 224.325522,21.8179908 223.995117,22.2879639 C223.664712,22.7579369 223.499512,23.4856722 223.499512,24.4711914 Z M233.915771,29 L231.437744,29 L231.437744,15.875 L233.915771,15.875 L233.915771,29 Z M238.555664,29 L236.077637,29 L236.077637,19.7543945 L238.555664,19.7543945 L238.555664,29 Z M235.932373,17.3618164 C235.932373,16.9915346 236.056273,16.6867688 236.304077,16.4475098 C236.551881,16.2082508 236.889402,16.088623 237.31665,16.088623 C237.738202,16.088623 238.074299,16.2082508 238.324951,16.4475098 C238.575603,16.6867688 238.700928,16.9915346 238.700928,17.3618164 C238.700928,17.7377948 238.574179,18.045409 238.320679,18.284668 C238.067178,18.523927 237.732505,18.6435547 237.31665,18.6435547 C236.900795,18.6435547 236.566123,18.523927 236.312622,18.284668 C236.059121,18.045409 235.932373,17.7377948 235.932373,17.3618164 Z M243.545898,17.4814453 L243.545898,19.7543945 L245.126709,19.7543945 L245.126709,21.565918 L243.545898,21.565918 L243.545898,26.1801758 C243.545898,26.5219744 243.611409,26.7669263 243.742432,26.9150391 C243.873454,27.0631518 244.124103,27.137207 244.494385,27.137207 C244.767824,27.137207 245.009927,27.1172691 245.220703,27.0773926 L245.220703,28.9487305 C244.736488,29.0968432 244.23804,29.1708984 243.725342,29.1708984 C241.993562,29.1708984 241.110596,28.2964768 241.076416,26.5476074 L241.076416,21.565918 L239.726318,21.565918 L239.726318,19.7543945 L241.076416,19.7543945 L241.076416,17.4814453 L243.545898,17.4814453 Z M251.860107,29 C251.746175,28.7778309 251.663574,28.5015479 251.612305,28.1711426 C251.014157,28.8376498 250.236577,29.1708984 249.279541,29.1708984 C248.373775,29.1708984 247.623253,28.9088568 247.027954,28.3847656 C246.432655,27.8606745 246.13501,27.1998738 246.13501,26.4023438 C246.13501,25.4225211 246.498165,24.6705755 247.224487,24.1464844 C247.950809,23.6223932 249.0004,23.3575033 250.373291,23.3518066 L251.509766,23.3518066 L251.509766,22.8220215 C251.509766,22.3947733 251.400107,22.0529798 251.180786,21.7966309 C250.961465,21.5402819 250.615399,21.4121094 250.142578,21.4121094 C249.726723,21.4121094 249.400595,21.5117991 249.164185,21.7111816 C248.927774,21.9105641 248.80957,22.1839989 248.80957,22.5314941 L246.340088,22.5314941 C246.340088,21.9960097 246.505288,21.5004092 246.835693,21.0446777 C247.166099,20.5889463 247.633216,20.2314873 248.237061,19.97229 C248.840905,19.7130928 249.518795,19.5834961 250.270752,19.5834961 C251.410081,19.5834961 252.314409,19.8697481 252.983765,20.4422607 C253.65312,21.0147734 253.987793,21.8194121 253.987793,22.8562012 L253.987793,26.8637695 C253.99349,27.7410526 254.115966,28.4047015 254.355225,28.8547363 L254.355225,29 L251.860107,29 Z M249.817871,27.2824707 C250.182456,27.2824707 250.518553,27.2012948 250.826172,27.0389404 C251.133791,26.8765861 251.361653,26.6586928 251.509766,26.3852539 L251.509766,24.7958984 L250.586914,24.7958984 C249.350743,24.7958984 248.69279,25.2231403 248.613037,26.0776367 L248.604492,26.2229004 C248.604492,26.5305191 248.712727,26.7840159 248.929199,26.9833984 C249.145672,27.1827809 249.441893,27.2824707 249.817871,27.2824707 Z M258.157715,19.7543945 L258.234619,20.8225098 C258.89543,19.9964965 259.781244,19.5834961 260.89209,19.5834961 C261.871912,19.5834961 262.601072,19.8711723 263.07959,20.4465332 C263.558108,21.0218942 263.80306,21.8820744 263.814453,23.0270996 L263.814453,29 L261.344971,29 L261.344971,23.0869141 C261.344971,22.5628229 261.23104,22.1825777 261.003174,21.946167 C260.775308,21.7097563 260.396487,21.5915527 259.866699,21.5915527 C259.171709,21.5915527 258.650474,21.8877737 258.302979,22.4802246 L258.302979,29 L255.833496,29 L255.833496,19.7543945 L258.157715,19.7543945 Z M65.1108398,49 L65.1108398,36.5585938 L68.9389648,36.5585938 C70.0327203,36.5585938 71.0111041,36.8049699 71.8741455,37.2977295 C72.7371869,37.7904891 73.4108049,38.4911657 73.8950195,39.3997803 C74.3792342,40.3083948 74.6213379,41.3408959 74.6213379,42.4973145 L74.6213379,43.0698242 C74.6213379,44.2262428 74.3835066,45.2544714 73.9078369,46.154541 C73.4321672,47.0546106 72.7613976,47.7524389 71.8955078,48.2480469 C71.0296181,48.7436548 70.0526584,48.9943034 68.9645996,49 L65.1108398,49 Z M67.6743164,38.6350098 L67.6743164,46.9406738 L68.9133301,46.9406738 C69.9159393,46.9406738 70.6821263,46.6131218 71.2119141,45.9580078 C71.7417019,45.3028939 72.0122884,44.3658101 72.0236816,43.1467285 L72.0236816,42.4887695 C72.0236816,41.2241148 71.76164,40.265669 71.2375488,39.6134033 C70.7134577,38.9611377 69.9472707,38.6350098 68.9389648,38.6350098 L67.6743164,38.6350098 Z M81.6794434,49 C81.5655105,48.7778309 81.4829104,48.5015479 81.4316406,48.1711426 C80.8334931,48.8376498 80.055913,49.1708984 79.098877,49.1708984 C78.1931107,49.1708984 77.4425892,48.9088568 76.84729,48.3847656 C76.2519908,47.8606745 75.9543457,47.1998738 75.9543457,46.4023438 C75.9543457,45.4225211 76.3175013,44.6705755 77.0438232,44.1464844 C77.7701452,43.6223932 78.819736,43.3575033 80.192627,43.3518066 L81.3291016,43.3518066 L81.3291016,42.8220215 C81.3291016,42.3947733 81.2194428,42.0529798 81.0001221,41.7966309 C80.7808013,41.5402819 80.4347354,41.4121094 79.9619141,41.4121094 C79.5460591,41.4121094 79.2199312,41.5117991 78.9835205,41.7111816 C78.7471098,41.9105641 78.6289062,42.1839989 78.6289062,42.5314941 L76.1594238,42.5314941 C76.1594238,41.9960097 76.324624,41.5004092 76.6550293,41.0446777 C76.9854346,40.5889463 77.4525523,40.2314873 78.0563965,39.97229 C78.6602406,39.7130928 79.338131,39.5834961 80.0900879,39.5834961 C81.2294165,39.5834961 82.133745,39.8697481 82.8031006,40.4422607 C83.4724561,41.0147734 83.8071289,41.8194121 83.8071289,42.8562012 L83.8071289,46.8637695 C83.8128255,47.7410526 83.9353015,48.4047015 84.1745605,48.8547363 L84.1745605,49 L81.6794434,49 Z M79.637207,47.2824707 C80.0017922,47.2824707 80.3378891,47.2012948 80.6455078,47.0389404 C80.9531265,46.8765861 81.1809888,46.6586928 81.3291016,46.3852539 L81.3291016,44.7958984 L80.40625,44.7958984 C79.1700785,44.7958984 78.512126,45.2231403 78.432373,46.0776367 L78.4238281,46.2229004 C78.4238281,46.5305191 78.5320627,46.7840159 78.7485352,46.9833984 C78.9650076,47.1827809 79.2612286,47.2824707 79.637207,47.2824707 Z M88.3103027,49 L85.8322754,49 L85.8322754,35.875 L88.3103027,35.875 L88.3103027,49 Z M93.3005371,37.4814453 L93.3005371,39.7543945 L94.8813477,39.7543945 L94.8813477,41.565918 L93.3005371,41.565918 L93.3005371,46.1801758 C93.3005371,46.5219744 93.3660475,46.7669263 93.4970703,46.9150391 C93.6280931,47.0631518 93.8787416,47.137207 94.2490234,47.137207 C94.5224623,47.137207 94.764566,47.1172691 94.9753418,47.0773926 L94.9753418,48.9487305 C94.4911271,49.0968432 93.9926783,49.1708984 93.4799805,49.1708984 C91.748201,49.1708984 90.8652345,48.2964768 90.8310547,46.5476074 L90.8310547,41.565918 L89.480957,41.565918 L89.480957,39.7543945 L90.8310547,39.7543945 L90.8310547,37.4814453 L93.3005371,37.4814453 Z M99.213623,37.4814453 L99.213623,39.7543945 L100.794434,39.7543945 L100.794434,41.565918 L99.213623,41.565918 L99.213623,46.1801758 C99.213623,46.5219744 99.2791335,46.7669263 99.4101562,46.9150391 C99.541179,47.0631518 99.7918276,47.137207 100.162109,47.137207 C100.435548,47.137207 100.677652,47.1172691 100.888428,47.0773926 L100.888428,48.9487305 C100.404213,49.0968432 99.9057643,49.1708984 99.3930664,49.1708984 C97.6612869,49.1708984 96.7783205,48.2964768 96.7441406,46.5476074 L96.7441406,41.565918 L95.394043,41.565918 L95.394043,39.7543945 L96.7441406,39.7543945 L96.7441406,37.4814453 L99.213623,37.4814453 Z M101.785645,44.291748 C101.785645,43.3745885 101.962238,42.5571325 102.31543,41.8393555 C102.668622,41.1215784 103.177039,40.5661641 103.840698,40.1730957 C104.504357,39.7800273 105.274817,39.5834961 106.1521,39.5834961 C107.399664,39.5834961 108.417924,39.9651655 109.206909,40.7285156 C109.995894,41.4918658 110.435953,42.5286393 110.5271,43.8388672 L110.544189,44.4711914 C110.544189,45.8896555 110.148279,47.0275429 109.356445,47.8848877 C108.564612,48.7422325 107.502204,49.1708984 106.169189,49.1708984 C104.836175,49.1708984 103.772343,48.7436566 102.977661,47.8891602 C102.182979,47.0346637 101.785645,45.8725659 101.785645,44.402832 L101.785645,44.291748 Z M104.255127,44.4711914 C104.255127,45.3484744 104.420327,46.0192441 104.750732,46.4835205 C105.081138,46.9477969 105.553952,47.1799316 106.169189,47.1799316 C106.767337,47.1799316 107.234455,46.9506452 107.570557,46.4920654 C107.906659,46.0334857 108.074707,45.3000539 108.074707,44.291748 C108.074707,43.4315549 107.906659,42.7650577 107.570557,42.2922363 C107.234455,41.819415 106.76164,41.5830078 106.1521,41.5830078 C105.548255,41.5830078 105.081138,41.8179908 104.750732,42.2879639 C104.420327,42.7579369 104.255127,43.4856722 104.255127,44.4711914 Z M114.380859,39.7543945 L114.457764,40.7883301 C115.112878,39.9851034 115.998692,39.5834961 117.115234,39.5834961 C118.305833,39.5834961 119.123289,40.0534621 119.567627,40.9934082 C120.217044,40.0534621 121.142735,39.5834961 122.344727,39.5834961 C123.347336,39.5834961 124.093585,39.8754447 124.583496,40.4593506 C125.073407,41.0432565 125.318359,41.9219505 125.318359,43.095459 L125.318359,49 L122.840332,49 L122.840332,43.1040039 C122.840332,42.5799127 122.737794,42.1968192 122.532715,41.9547119 C122.327636,41.7126046 121.965904,41.5915527 121.44751,41.5915527 C120.706946,41.5915527 120.194256,41.9447393 119.909424,42.651123 L119.917969,49 L117.448486,49 L117.448486,43.1125488 C117.448486,42.5770644 117.3431,42.1896985 117.132324,41.9504395 C116.921548,41.7111804 116.562665,41.5915527 116.055664,41.5915527 C115.354977,41.5915527 114.847983,41.8820772 114.534668,42.4631348 L114.534668,49 L112.065186,49 L112.065186,39.7543945 L114.380859,39.7543945 Z M134.299072,44.6164551 L134.299072,49 L131.735596,49 L131.735596,36.5585938 L136.589111,36.5585938 C137.523361,36.5585938 138.345089,36.7294905 139.054321,37.0712891 C139.763553,37.4130876 140.308999,37.8987192 140.690674,38.5281982 C141.072349,39.1576773 141.263184,39.8740194 141.263184,40.6772461 C141.263184,41.8963277 140.845911,42.8576218 140.011353,43.5611572 C139.176794,44.2646926 138.021817,44.6164551 136.546387,44.6164551 L134.299072,44.6164551 Z M134.299072,42.5400391 L136.589111,42.5400391 C137.267012,42.5400391 137.783974,42.3805354 138.140015,42.0615234 C138.496055,41.7425114 138.674072,41.2867868 138.674072,40.6943359 C138.674072,40.0847951 138.494631,39.5920429 138.135742,39.2160645 C137.776854,38.840086 137.281253,38.6464031 136.648926,38.6350098 L134.299072,38.6350098 L134.299072,42.5400391 Z M145.467285,49 L142.989258,49 L142.989258,35.875 L145.467285,35.875 L145.467285,49 Z M153.038086,48.0600586 C152.428545,48.8006222 151.585455,49.1708984 150.508789,49.1708984 C149.517573,49.1708984 148.761355,48.8860706 148.240112,48.3164062 C147.718869,47.7467419 147.452555,46.9121963 147.441162,45.8127441 L147.441162,39.7543945 L149.910645,39.7543945 L149.910645,45.7272949 C149.910645,46.6900276 150.349279,47.1713867 151.226562,47.1713867 C152.063969,47.1713867 152.639321,46.8808623 152.952637,46.2998047 L152.952637,39.7543945 L155.430664,39.7543945 L155.430664,49 L153.106445,49 L153.038086,48.0600586 Z M162.300781,46.4450684 C162.300781,46.1431463 162.151247,45.905315 161.852173,45.7315674 C161.553099,45.5578198 161.073164,45.4025886 160.412354,45.2658691 C158.213449,44.8044411 157.114014,43.8702056 157.114014,42.4631348 C157.114014,41.6428182 157.454383,40.9578071 158.135132,40.4080811 C158.815881,39.858355 159.705968,39.5834961 160.80542,39.5834961 C161.978928,39.5834961 162.917436,39.8597791 163.620972,40.4123535 C164.324507,40.9649279 164.67627,41.6826942 164.67627,42.5656738 L162.206787,42.5656738 C162.206787,42.212482 162.092856,41.9205334 161.86499,41.6898193 C161.637125,41.4591053 161.28109,41.34375 160.796875,41.34375 C160.38102,41.34375 160.059165,41.4377432 159.831299,41.6257324 C159.603433,41.8137216 159.489502,42.0529771 159.489502,42.3435059 C159.489502,42.6169447 159.619099,42.8376863 159.878296,43.0057373 C160.137493,43.1737883 160.574704,43.3190505 161.189941,43.4415283 C161.805179,43.5640061 162.323566,43.7021477 162.745117,43.855957 C164.049648,44.334475 164.701904,45.1633242 164.701904,46.3425293 C164.701904,47.1856325 164.340173,47.8677952 163.616699,48.3890381 C162.893226,48.9102809 161.95899,49.1708984 160.813965,49.1708984 C160.039221,49.1708984 159.351362,49.0327569 158.750366,48.7564697 C158.14937,48.4801825 157.67798,48.1013615 157.336182,47.6199951 C156.994383,47.1386288 156.823486,46.6188179 156.823486,46.0605469 L159.164795,46.0605469 C159.187581,46.4991884 159.349933,46.8352853 159.651855,47.0688477 C159.953778,47.30241 160.358233,47.4191895 160.865234,47.4191895 C161.338056,47.4191895 161.695515,47.3294687 161.937622,47.1500244 C162.179729,46.9705802 162.300781,46.7355972 162.300781,46.4450684 Z" id="Eco-Progect-Metropol" fill="#773919"></path>
                <path d="M70.7695312,99.2021484 C70.7695312,98.7871073 70.6230483,98.468507 70.3300781,98.2463379 C70.0371079,98.0241688 69.5097694,97.7897962 68.7480469,97.5432129 C67.9863243,97.2966296 67.383303,97.0537121 66.9389648,96.8144531 C65.7280213,96.160153 65.1225586,95.2788141 65.1225586,94.1704102 C65.1225586,93.5942354 65.2849105,93.0803245 65.6096191,92.6286621 C65.9343278,92.1769997 66.4006317,91.82422 67.0085449,91.5703125 C67.6164581,91.316405 68.2988243,91.1894531 69.0556641,91.1894531 C69.8173866,91.1894531 70.4960908,91.3273912 71.0917969,91.6032715 C71.687503,91.8791518 72.1501448,92.2685522 72.4797363,92.7714844 C72.8093278,93.2744166 72.9741211,93.8456999 72.9741211,94.4853516 L70.7768555,94.4853516 C70.7768555,93.9970679 70.6230484,93.617433 70.3154297,93.3464355 C70.007811,93.0754381 69.5756864,92.9399414 69.019043,92.9399414 C68.4819309,92.9399414 68.0644546,93.0534657 67.7666016,93.2805176 C67.4687485,93.5075695 67.3198242,93.8066388 67.3198242,94.1777344 C67.3198242,94.5244158 67.494383,94.8149402 67.8435059,95.0493164 C68.1926287,95.2836926 68.7065396,95.5034169 69.3852539,95.7084961 C70.6352602,96.0844745 71.5458956,96.5507785 72.1171875,97.1074219 C72.6884794,97.6640653 72.9741211,98.3574177 72.9741211,99.1875 C72.9741211,100.110356 72.6250035,100.834226 71.9267578,101.359131 C71.2285121,101.884036 70.2885801,102.146484 69.1069336,102.146484 C68.286617,102.146484 67.5395542,101.996339 66.8657227,101.696045 C66.1918912,101.39575 65.6779803,100.984378 65.3239746,100.461914 C64.9699689,99.9394505 64.7929688,99.3339878 64.7929688,98.6455078 L66.9975586,98.6455078 C66.9975586,99.8222715 67.7006766,100.410645 69.1069336,100.410645 C69.6293971,100.410645 70.0371079,100.304444 70.3300781,100.092041 C70.6230483,99.8796376 70.7695312,99.5830097 70.7695312,99.2021484 Z M76.855957,92.1269531 L76.855957,94.0751953 L78.2109375,94.0751953 L78.2109375,95.6279297 L76.855957,95.6279297 L76.855957,99.5830078 C76.855957,99.875978 76.9121088,100.085937 77.0244141,100.212891 C77.1367193,100.339844 77.3515609,100.40332 77.6689453,100.40332 C77.9033215,100.40332 78.1108389,100.386231 78.2915039,100.352051 L78.2915039,101.956055 C77.8764628,102.083008 77.4492209,102.146484 77.0097656,102.146484 C75.5253832,102.146484 74.7685548,101.39698 74.7392578,99.8979492 L74.7392578,95.6279297 L73.5820312,95.6279297 L73.5820312,94.0751953 L74.7392578,94.0751953 L74.7392578,92.1269531 L76.855957,92.1269531 Z M84.1362305,101.194336 C83.6137669,101.829105 82.8911179,102.146484 81.9682617,102.146484 C81.1186481,102.146484 80.4704612,101.902346 80.0236816,101.414062 C79.5769021,100.925779 79.3486329,100.210454 79.3388672,99.2680664 L79.3388672,94.0751953 L81.4555664,94.0751953 L81.4555664,99.1948242 C81.4555664,100.020024 81.8315392,100.432617 82.5834961,100.432617 C83.3012731,100.432617 83.7944323,100.183596 84.0629883,99.6855469 L84.0629883,94.0751953 L86.1870117,94.0751953 L86.1870117,102 L84.1948242,102 L84.1362305,101.194336 Z M87.4541016,97.9790039 C87.4541016,96.7436462 87.7311984,95.7597693 88.2854004,95.0273438 C88.8396024,94.2949182 89.5976514,93.9287109 90.5595703,93.9287109 C91.3310585,93.9287109 91.9682592,94.216794 92.4711914,94.7929688 L92.4711914,90.75 L94.5952148,90.75 L94.5952148,102 L92.6835938,102 L92.5810547,101.157715 C92.0537083,101.816898 91.3750042,102.146484 90.5449219,102.146484 C89.6123,102.146484 88.8640165,101.779056 88.3000488,101.044189 C87.7360812,100.309322 87.4541016,99.2876042 87.4541016,97.9790039 Z M89.5708008,98.1328125 C89.5708008,98.8750037 89.700194,99.4438457 89.9589844,99.8393555 C90.2177747,100.234865 90.5937475,100.432617 91.0869141,100.432617 C91.7412142,100.432617 92.2026354,100.156741 92.4711914,99.6049805 L92.4711914,96.4775391 C92.2075182,95.9257785 91.7509798,95.6499023 91.1015625,95.6499023 C90.0810496,95.6499023 89.5708008,96.4775308 89.5708008,98.1328125 Z M99.8833008,102.146484 C98.7211856,102.146484 97.7751501,101.790043 97.045166,101.077148 C96.3151819,100.364254 95.9501953,99.4145567 95.9501953,98.2280273 L95.9501953,98.0229492 C95.9501953,97.2270468 96.1040024,96.515384 96.4116211,95.8879395 C96.7192398,95.2604949 97.1550265,94.7771013 97.7189941,94.4377441 C98.2829618,94.098387 98.9262659,93.9287109 99.6489258,93.9287109 C100.732916,93.9287109 101.586179,94.2705044 102.20874,94.9541016 C102.831302,95.6376987 103.142578,96.6069273 103.142578,97.8618164 L103.142578,98.7260742 L98.0961914,98.7260742 C98.1645511,99.2436549 98.3708479,99.6586898 98.7150879,99.9711914 C99.0593279,100.283693 99.4951146,100.439941 100.022461,100.439941 C100.837895,100.439941 101.475095,100.144534 101.934082,99.5537109 L102.974121,100.718262 C102.656737,101.167483 102.227053,101.517821 101.685059,101.769287 C101.143064,102.020753 100.542484,102.146484 99.8833008,102.146484 Z M99.6416016,95.6425781 C99.2216776,95.6425781 98.8811048,95.7841783 98.619873,96.0673828 C98.3586413,96.3505874 98.1914066,96.7558567 98.1181641,97.2832031 L101.0625,97.2832031 L101.0625,97.1147461 C101.052734,96.6459938 100.925782,96.2834485 100.681641,96.0270996 C100.437499,95.7707507 100.090823,95.6425781 99.6416016,95.6425781 Z M106.291992,94.0751953 L106.35791,94.9907227 C106.924319,94.2827113 107.683589,93.9287109 108.635742,93.9287109 C109.47559,93.9287109 110.100584,94.1752905 110.510742,94.668457 C110.9209,95.1616236 111.130859,95.8989209 111.140625,96.8803711 L111.140625,102 L109.023926,102 L109.023926,96.9316406 C109.023926,96.4824196 108.926271,96.1564952 108.730957,95.9538574 C108.535644,95.7512197 108.21094,95.6499023 107.756836,95.6499023 C107.16113,95.6499023 106.714357,95.9038061 106.416504,96.4116211 L106.416504,102 L104.299805,102 L104.299805,94.0751953 L106.291992,94.0751953 Z M115.278809,92.1269531 L115.278809,94.0751953 L116.633789,94.0751953 L116.633789,95.6279297 L115.278809,95.6279297 L115.278809,99.5830078 C115.278809,99.875978 115.33496,100.085937 115.447266,100.212891 C115.559571,100.339844 115.774412,100.40332 116.091797,100.40332 C116.326173,100.40332 116.533691,100.386231 116.714355,100.352051 L116.714355,101.956055 C116.299314,102.083008 115.872073,102.146484 115.432617,102.146484 C113.948235,102.146484 113.191406,101.39698 113.162109,99.8979492 L113.162109,95.6279297 L112.004883,95.6279297 L112.004883,94.0751953 L113.162109,94.0751953 L113.162109,92.1269531 L115.278809,92.1269531 Z" id="Student" fill="#9B9B9B"></path>
                <path d="M65.8325195,115.601562 L67.9243164,120.822266 L70.0161133,115.601562 L71.1103516,115.601562 L71.1103516,122 L70.2666016,122 L70.2666016,119.508301 L70.3457031,116.818848 L68.2451172,122 L67.5991211,122 L65.5029297,116.832031 L65.5864258,119.508301 L65.5864258,122 L64.7426758,122 L64.7426758,115.601562 L65.8325195,115.601562 Z M74.4458008,122.087891 C73.8012663,122.087891 73.2768575,121.876223 72.8725586,121.452881 C72.4682597,121.029539 72.2661133,120.463382 72.2661133,119.754395 L72.2661133,119.60498 C72.2661133,119.133298 72.3562003,118.71216 72.536377,118.341553 C72.7165536,117.970945 72.9685042,117.680909 73.2922363,117.471436 C73.6159684,117.261962 73.966795,117.157227 74.3447266,117.157227 C74.9628937,117.157227 75.4433577,117.360838 75.7861328,117.768066 C76.128908,118.175295 76.300293,118.758297 76.300293,119.51709 L76.300293,119.855469 L73.0791016,119.855469 C73.0908204,120.324221 73.2277819,120.702879 73.4899902,120.991455 C73.7521986,121.280031 74.0854472,121.424316 74.4897461,121.424316 C74.7768569,121.424316 75.0200185,121.365723 75.2192383,121.248535 C75.418458,121.131347 75.5927727,120.976075 75.7421875,120.782715 L76.2387695,121.169434 C75.84033,121.781741 75.2426798,122.087891 74.4458008,122.087891 Z M74.3447266,117.825195 C74.0165999,117.825195 73.7412121,117.944579 73.5185547,118.18335 C73.2958973,118.42212 73.1582034,118.756834 73.1054688,119.1875 L75.4873047,119.1875 L75.4873047,119.125977 C75.4638671,118.712889 75.3525401,118.392823 75.1533203,118.165771 C74.9541006,117.93872 74.684572,117.825195 74.3447266,117.825195 Z M78.0053711,117.245117 L78.0273438,117.772461 C78.3759783,117.362303 78.8461884,117.157227 79.4379883,117.157227 C80.1030307,117.157227 80.5556629,117.412107 80.7958984,117.921875 C80.9541024,117.693358 81.1599108,117.50879 81.4133301,117.368164 C81.6667493,117.227538 81.9663069,117.157227 82.3120117,117.157227 C83.3549857,117.157227 83.8852538,117.709467 83.902832,118.813965 L83.902832,122 L83.0898438,122 L83.0898438,118.862305 C83.0898438,118.522459 83.0122078,118.268311 82.8569336,118.099854 C82.7016594,117.931396 82.4409198,117.847168 82.074707,117.847168 C81.7729477,117.847168 81.5224619,117.937255 81.3232422,118.117432 C81.1240224,118.297608 81.0083009,118.540038 80.9760742,118.844727 L80.9760742,122 L80.1586914,122 L80.1586914,118.884277 C80.1586914,118.192868 79.8203159,117.847168 79.1435547,117.847168 C78.6103489,117.847168 78.2456065,118.074216 78.0493164,118.52832 L78.0493164,122 L77.2363281,122 L77.2363281,117.245117 L78.0053711,117.245117 Z M89.1542969,119.675293 C89.1542969,120.401859 88.9873064,120.985593 88.6533203,121.426514 C88.3193343,121.867434 87.8710966,122.087891 87.3085938,122.087891 C86.7080048,122.087891 86.243654,121.87549 85.9155273,121.450684 L85.8759766,122 L85.1289062,122 L85.1289062,115.25 L85.9418945,115.25 L85.9418945,117.768066 C86.2700212,117.360838 86.7226534,117.157227 87.2998047,117.157227 C87.876956,117.157227 88.3303206,117.375486 88.6599121,117.812012 C88.9895036,118.248537 89.1542969,118.846188 89.1542969,119.60498 L89.1542969,119.675293 Z M88.3413086,119.583008 C88.3413086,119.029294 88.2343761,118.601564 88.0205078,118.299805 C87.8066396,117.998045 87.4990254,117.847168 87.0976562,117.847168 C86.5615208,117.847168 86.1762707,118.096189 85.9418945,118.594238 L85.9418945,120.650879 C86.1909192,121.148928 86.5790989,121.397949 87.1064453,121.397949 C87.4960957,121.397949 87.7993153,121.247072 88.0161133,120.945312 C88.2329112,120.643553 88.3413086,120.189456 88.3413086,119.583008 Z M92.1513672,122.087891 C91.5068327,122.087891 90.9824239,121.876223 90.578125,121.452881 C90.1738261,121.029539 89.9716797,120.463382 89.9716797,119.754395 L89.9716797,119.60498 C89.9716797,119.133298 90.0617667,118.71216 90.2419434,118.341553 C90.42212,117.970945 90.6740706,117.680909 90.9978027,117.471436 C91.3215348,117.261962 91.6723614,117.157227 92.050293,117.157227 C92.6684601,117.157227 93.1489241,117.360838 93.4916992,117.768066 C93.8344744,118.175295 94.0058594,118.758297 94.0058594,119.51709 L94.0058594,119.855469 L90.784668,119.855469 C90.7963868,120.324221 90.9333483,120.702879 91.1955566,120.991455 C91.457765,121.280031 91.7910136,121.424316 92.1953125,121.424316 C92.4824233,121.424316 92.7255849,121.365723 92.9248047,121.248535 C93.1240244,121.131347 93.2983391,120.976075 93.4477539,120.782715 L93.9443359,121.169434 C93.5458964,121.781741 92.9482462,122.087891 92.1513672,122.087891 Z M92.050293,117.825195 C91.7221663,117.825195 91.4467785,117.944579 91.2241211,118.18335 C91.0014637,118.42212 90.8637698,118.756834 90.8110352,119.1875 L93.1928711,119.1875 L93.1928711,119.125977 C93.1694335,118.712889 93.0581065,118.392823 92.8588867,118.165771 C92.659667,117.93872 92.3901384,117.825195 92.050293,117.825195 Z M97.2446289,117.974609 C97.1215814,117.954101 96.988282,117.943848 96.8447266,117.943848 C96.3115208,117.943848 95.949708,118.170896 95.7592773,118.625 L95.7592773,122 L94.9462891,122 L94.9462891,117.245117 L95.7373047,117.245117 L95.7504883,117.794434 C96.0170912,117.369627 96.3950171,117.157227 96.8842773,117.157227 C97.0424813,117.157227 97.1625972,117.177734 97.2446289,117.21875 L97.2446289,117.974609 Z M101.252441,122 L100.408691,122 L100.408691,115.601562 L101.252441,115.601562 L101.252441,122 Z M102.794922,122 L102.794922,115.601562 L104.601074,115.601562 C105.157718,115.601562 105.6499,115.724608 106.077637,115.970703 C106.505373,116.216798 106.835692,116.566892 107.068604,117.020996 C107.301515,117.4751 107.419434,117.996579 107.422363,118.585449 L107.422363,118.994141 C107.422363,119.597659 107.305909,120.126463 107.072998,120.580566 C106.840087,121.03467 106.507571,121.3833 106.075439,121.626465 C105.643308,121.86963 105.14014,121.994141 104.565918,122 L102.794922,122 Z M103.638672,116.295898 L103.638672,121.310059 L104.526367,121.310059 C105.176761,121.310059 105.68286,121.107912 106.044678,120.703613 C106.406496,120.299314 106.587402,119.723637 106.587402,118.976562 L106.587402,118.603027 C106.587402,117.876461 106.41675,117.31177 106.075439,116.908936 C105.734129,116.506102 105.250003,116.301758 104.623047,116.295898 L103.638672,116.295898 Z M108.542969,121.57373 C108.542969,121.433105 108.584716,121.315918 108.668213,121.222168 C108.751709,121.128417 108.876952,121.081543 109.043945,121.081543 C109.210938,121.081543 109.337646,121.128417 109.424072,121.222168 C109.510498,121.315918 109.553711,121.433105 109.553711,121.57373 C109.553711,121.708497 109.510498,121.821289 109.424072,121.912109 C109.337646,122.00293 109.210938,122.04834 109.043945,122.04834 C108.876952,122.04834 108.751709,122.00293 108.668213,121.912109 C108.584716,121.821289 108.542969,121.708497 108.542969,121.57373 Z M108.547363,117.693359 C108.547363,117.552734 108.589111,117.435547 108.672607,117.341797 C108.756104,117.248046 108.881347,117.201172 109.04834,117.201172 C109.215333,117.201172 109.342041,117.248046 109.428467,117.341797 C109.514893,117.435547 109.558105,117.552734 109.558105,117.693359 C109.558105,117.828126 109.514893,117.940918 109.428467,118.031738 C109.342041,118.122559 109.215333,118.167969 109.04834,118.167969 C108.881347,118.167969 108.756104,118.122559 108.672607,118.031738 C108.589111,117.940918 108.547363,117.828126 108.547363,117.693359 Z M116.773926,117.271484 C116.773926,117.590822 116.689698,117.874999 116.52124,118.124023 C116.352782,118.373048 116.125001,118.56787 115.837891,118.708496 C116.171877,118.852051 116.436278,119.061522 116.631104,119.336914 C116.825929,119.612306 116.92334,119.924315 116.92334,120.272949 C116.92334,120.826663 116.736574,121.267576 116.363037,121.595703 C115.9895,121.92383 115.49805,122.087891 114.888672,122.087891 C114.273434,122.087891 113.780519,121.923097 113.409912,121.593506 C113.039305,121.263914 112.854004,120.823733 112.854004,120.272949 C112.854004,119.927244 112.948485,119.615236 113.137451,119.336914 C113.326417,119.058592 113.587889,118.847657 113.921875,118.704102 C113.637694,118.563476 113.413575,118.368654 113.249512,118.119629 C113.085448,117.870604 113.003418,117.587892 113.003418,117.271484 C113.003418,116.732419 113.176268,116.304689 113.521973,115.988281 C113.867678,115.671873 114.323239,115.513672 114.888672,115.513672 C115.451175,115.513672 115.906004,115.671873 116.253174,115.988281 C116.600344,116.304689 116.773926,116.732419 116.773926,117.271484 Z M116.110352,120.255371 C116.110352,119.897947 115.996827,119.606446 115.769775,119.380859 C115.542723,119.155272 115.246096,119.04248 114.879883,119.04248 C114.51367,119.04248 114.219972,119.153807 113.998779,119.376465 C113.777587,119.599122 113.666992,119.892088 113.666992,120.255371 C113.666992,120.618654 113.774657,120.904296 113.98999,121.112305 C114.205323,121.320314 114.504881,121.424316 114.888672,121.424316 C115.269533,121.424316 115.568358,121.319581 115.785156,121.110107 C116.001954,120.900634 116.110352,120.615724 116.110352,120.255371 Z M114.888672,116.181641 C114.569334,116.181641 114.310792,116.280517 114.113037,116.478271 C113.915282,116.676026 113.816406,116.944823 113.816406,117.284668 C113.816406,117.609865 113.913817,117.872802 114.108643,118.073486 C114.303468,118.274171 114.563475,118.374512 114.888672,118.374512 C115.213869,118.374512 115.473876,118.274171 115.668701,118.073486 C115.863526,117.872802 115.960938,117.609865 115.960938,117.284668 C115.960938,116.959471 115.859864,116.694337 115.657715,116.489258 C115.455565,116.284179 115.19922,116.181641 114.888672,116.181641 Z M121.379395,119.851074 L122.26709,119.851074 L122.26709,120.514648 L121.379395,120.514648 L121.379395,122 L120.562012,122 L120.562012,120.514648 L117.648438,120.514648 L117.648438,120.035645 L120.513672,115.601562 L121.379395,115.601562 L121.379395,119.851074 Z M118.571289,119.851074 L120.562012,119.851074 L120.562012,116.713379 L120.465332,116.88916 L118.571289,119.851074 Z M124.183105,118.405273 L124.793945,118.405273 C125.177736,118.399414 125.479491,118.298341 125.699219,118.102051 C125.918946,117.905761 126.028809,117.640627 126.028809,117.306641 C126.028809,116.556637 125.655277,116.181641 124.908203,116.181641 C124.556639,116.181641 124.276124,116.281981 124.06665,116.482666 C123.857177,116.683351 123.752441,116.949217 123.752441,117.280273 L122.939453,117.280273 C122.939453,116.773435 123.124754,116.352297 123.495361,116.016846 C123.865969,115.681395 124.336911,115.513672 124.908203,115.513672 C125.511722,115.513672 125.984862,115.673338 126.327637,115.992676 C126.670412,116.312013 126.841797,116.755857 126.841797,117.324219 C126.841797,117.60254 126.75171,117.872069 126.571533,118.132812 C126.391357,118.393556 126.145998,118.588378 125.835449,118.717285 C126.187013,118.828614 126.458739,119.013182 126.650635,119.270996 C126.84253,119.52881 126.938477,119.843748 126.938477,120.21582 C126.938477,120.790042 126.750978,121.245604 126.375977,121.58252 C126.000975,121.919435 125.513187,122.087891 124.912598,122.087891 C124.312009,122.087891 123.823488,121.925295 123.447021,121.600098 C123.070555,121.274901 122.882324,120.845706 122.882324,120.3125 L123.699707,120.3125 C123.699707,120.649416 123.809569,120.918944 124.029297,121.121094 C124.249025,121.323243 124.543455,121.424316 124.912598,121.424316 C125.305178,121.424316 125.605468,121.321778 125.813477,121.116699 C126.021485,120.91162 126.125488,120.617189 126.125488,120.233398 C126.125488,119.861326 126.011232,119.575685 125.782715,119.376465 C125.554198,119.177245 125.224612,119.074707 124.793945,119.068848 L124.183105,119.068848 L124.183105,118.405273 Z M132.185547,116.058594 L129.535645,122 L128.683105,122 L131.324219,116.269531 L127.861328,116.269531 L127.861328,115.601562 L132.185547,115.601562 L132.185547,116.058594 Z M136.298828,115.597168 L136.298828,116.287109 L136.149414,116.287109 C135.516598,116.298828 135.012697,116.486326 134.637695,116.849609 C134.262693,117.212892 134.045899,117.724118 133.987305,118.383301 C134.32422,117.99658 134.784177,117.803223 135.367188,117.803223 C135.923831,117.803223 136.368407,117.99951 136.700928,118.39209 C137.033449,118.78467 137.199707,119.291501 137.199707,119.912598 C137.199707,120.571781 137.020265,121.099119 136.661377,121.494629 C136.302488,121.890139 135.821292,122.087891 135.217773,122.087891 C134.605466,122.087891 134.108889,121.852786 133.728027,121.382568 C133.347166,120.912351 133.156738,120.306644 133.156738,119.56543 L133.156738,119.253418 C133.156738,118.075678 133.407956,117.17554 133.9104,116.552979 C134.412844,115.930417 135.16064,115.611816 136.153809,115.597168 L136.298828,115.597168 Z M135.230957,118.47998 C134.952635,118.47998 134.69629,118.563476 134.461914,118.730469 C134.227538,118.897462 134.064942,119.106932 133.974121,119.358887 L133.974121,119.657715 C133.974121,120.185061 134.092772,120.609862 134.330078,120.932129 C134.567384,121.254396 134.863279,121.415527 135.217773,121.415527 C135.583986,121.415527 135.871825,121.280763 136.081299,121.01123 C136.290773,120.741698 136.395508,120.388674 136.395508,119.952148 C136.395508,119.512693 136.289308,119.157472 136.076904,118.886475 C135.864501,118.615477 135.582521,118.47998 135.230957,118.47998 Z M142.292969,116.058594 L139.643066,122 L138.790527,122 L141.431641,116.269531 L137.96875,116.269531 L137.96875,115.601562 L142.292969,115.601562 L142.292969,116.058594 Z M145.887695,122 L145.070312,122 L145.070312,116.581543 L143.431152,117.183594 L143.431152,116.445312 L145.760254,115.570801 L145.887695,115.570801 L145.887695,122 Z" id="Member-ID:-8437671" fill="#000000"></path>
                <path d="M67.0893555,138.411621 L65.5864258,138.411621 L65.5864258,141 L64.7382812,141 L64.7382812,134.601562 L66.8564453,134.601562 C67.577152,134.601562 68.1315899,134.765623 68.5197754,135.09375 C68.9079609,135.421877 69.1020508,135.899411 69.1020508,136.526367 C69.1020508,136.924807 68.9943858,137.271971 68.7790527,137.567871 C68.5637196,137.863771 68.2641621,138.08496 67.8803711,138.231445 L69.3833008,140.947266 L69.3833008,141 L68.4780273,141 L67.0893555,138.411621 Z M65.5864258,137.72168 L66.8828125,137.72168 C67.3017599,137.72168 67.6350085,137.613282 67.8825684,137.396484 C68.1301282,137.179686 68.2539062,136.88965 68.2539062,136.526367 C68.2539062,136.130857 68.1359875,135.827638 67.9001465,135.616699 C67.6643055,135.405761 67.3237327,135.298828 66.878418,135.295898 L65.5864258,135.295898 L65.5864258,137.72168 Z M72.1298828,141.087891 C71.4853483,141.087891 70.9609395,140.876223 70.5566406,140.452881 C70.1523417,140.029539 69.9501953,139.463382 69.9501953,138.754395 L69.9501953,138.60498 C69.9501953,138.133298 70.0402823,137.71216 70.220459,137.341553 C70.4006357,136.970945 70.6525863,136.680909 70.9763184,136.471436 C71.3000504,136.261962 71.650877,136.157227 72.0288086,136.157227 C72.6469757,136.157227 73.1274397,136.360838 73.4702148,136.768066 C73.81299,137.175295 73.984375,137.758297 73.984375,138.51709 L73.984375,138.855469 L70.7631836,138.855469 C70.7749024,139.324221 70.9118639,139.702879 71.1740723,139.991455 C71.4362806,140.280031 71.7695292,140.424316 72.1738281,140.424316 C72.4609389,140.424316 72.7041006,140.365723 72.9033203,140.248535 C73.1025401,140.131347 73.2768547,139.976075 73.4262695,139.782715 L73.9228516,140.169434 C73.5244121,140.781741 72.9267618,141.087891 72.1298828,141.087891 Z M72.0288086,136.825195 C71.700682,136.825195 71.4252941,136.944579 71.2026367,137.18335 C70.9799794,137.42212 70.8422854,137.756834 70.7895508,138.1875 L73.1713867,138.1875 L73.1713867,138.125977 C73.1479491,137.712889 73.0366221,137.392823 72.8374023,137.165771 C72.6381826,136.93872 72.368654,136.825195 72.0288086,136.825195 Z M75.6938477,136.245117 L75.7202148,136.842773 C76.0834979,136.38574 76.5581025,136.157227 77.144043,136.157227 C78.1489308,136.157227 78.6557617,136.724115 78.6645508,137.85791 L78.6645508,141 L77.8515625,141 L77.8515625,137.853516 C77.8486328,137.51074 77.7702644,137.257325 77.6164551,137.093262 C77.4626457,136.929198 77.2231462,136.847168 76.8979492,136.847168 C76.634276,136.847168 76.402833,136.91748 76.2036133,137.058105 C76.0043935,137.198731 75.8491217,137.3833 75.737793,137.611816 L75.737793,141 L74.9248047,141 L74.9248047,136.245117 L75.6938477,136.245117 Z M81.8637695,141.087891 C81.2192351,141.087891 80.6948262,140.876223 80.2905273,140.452881 C79.8862284,140.029539 79.684082,139.463382 79.684082,138.754395 L79.684082,138.60498 C79.684082,138.133298 79.774169,137.71216 79.9543457,137.341553 C80.1345224,136.970945 80.386473,136.680909 80.7102051,136.471436 C81.0339372,136.261962 81.3847637,136.157227 81.7626953,136.157227 C82.3808625,136.157227 82.8613264,136.360838 83.2041016,136.768066 C83.5468767,137.175295 83.7182617,137.758297 83.7182617,138.51709 L83.7182617,138.855469 L80.4970703,138.855469 C80.5087891,139.324221 80.6457506,139.702879 80.907959,139.991455 C81.1701673,140.280031 81.5034159,140.424316 81.9077148,140.424316 C82.1948257,140.424316 82.4379873,140.365723 82.637207,140.248535 C82.8364268,140.131347 83.0107414,139.976075 83.1601562,139.782715 L83.6567383,140.169434 C83.2582988,140.781741 82.6606485,141.087891 81.8637695,141.087891 Z M81.7626953,136.825195 C81.4345687,136.825195 81.1591808,136.944579 80.9365234,137.18335 C80.7138661,137.42212 80.5761721,137.756834 80.5234375,138.1875 L82.9052734,138.1875 L82.9052734,138.125977 C82.8818358,137.712889 82.7705088,137.392823 82.5712891,137.165771 C82.3720693,136.93872 82.1025408,136.825195 81.7626953,136.825195 Z M88.8686523,139.879395 L89.7827148,136.245117 L90.5957031,136.245117 L89.2114258,141 L88.5522461,141 L87.3964844,137.396484 L86.2714844,141 L85.6123047,141 L84.2324219,136.245117 L85.0410156,136.245117 L85.9770508,139.804688 L87.0844727,136.245117 L87.7392578,136.245117 L88.8686523,139.879395 Z M94.3574219,141 C94.3105466,140.90625 94.2724611,140.739259 94.2431641,140.499023 C93.8652325,140.891604 93.4140651,141.087891 92.8896484,141.087891 C92.4208961,141.087891 92.0363785,140.955324 91.736084,140.690186 C91.4357895,140.425048 91.2856445,140.088869 91.2856445,139.681641 C91.2856445,139.186521 91.4738751,138.802003 91.8503418,138.528076 C92.2268085,138.254149 92.7563442,138.117188 93.4389648,138.117188 L94.2299805,138.117188 L94.2299805,137.743652 C94.2299805,137.459471 94.1450204,137.233155 93.9750977,137.064697 C93.8051749,136.896239 93.5546892,136.812012 93.2236328,136.812012 C92.9335923,136.812012 92.6904307,136.885253 92.4941406,137.031738 C92.2978506,137.178223 92.199707,137.355468 92.199707,137.563477 L91.3823242,137.563477 C91.3823242,137.326171 91.4665519,137.096925 91.6350098,136.875732 C91.8034676,136.65454 92.031981,136.479493 92.3205566,136.350586 C92.6091323,136.221679 92.9262678,136.157227 93.2719727,136.157227 C93.819827,136.157227 94.2490219,136.294188 94.5595703,136.568115 C94.8701187,136.842042 95.0312499,137.219236 95.0429688,137.699707 L95.0429688,139.888184 C95.0429688,140.324709 95.0986323,140.671874 95.2099609,140.929688 L95.2099609,141 L94.3574219,141 Z M93.0083008,140.380371 C93.2631849,140.380371 93.5048817,140.314454 93.7333984,140.182617 C93.9619152,140.050781 94.1274409,139.879396 94.2299805,139.668457 L94.2299805,138.692871 L93.5927734,138.692871 C92.5966747,138.692871 92.0986328,138.984372 92.0986328,139.567383 C92.0986328,139.822267 92.1835929,140.021484 92.3535156,140.165039 C92.5234383,140.308594 92.7416979,140.380371 93.0083008,140.380371 Z M97.2006836,141 L96.3876953,141 L96.3876953,134.25 L97.2006836,134.25 L97.2006836,141 Z M100.531738,138.583008 C100.531738,137.853512 100.704588,137.266848 101.050293,136.822998 C101.395998,136.379148 101.84863,136.157227 102.408203,136.157227 C102.964847,136.157227 103.40576,136.347654 103.730957,136.728516 L103.730957,134.25 L104.543945,134.25 L104.543945,141 L103.796875,141 L103.757324,140.490234 C103.432127,140.888674 102.979495,141.087891 102.399414,141.087891 C101.84863,141.087891 101.39966,140.862307 101.05249,140.411133 C100.705321,139.959959 100.531738,139.371097 100.531738,138.644531 L100.531738,138.583008 Z M101.344727,138.675293 C101.344727,139.214358 101.456054,139.636229 101.678711,139.940918 C101.901368,140.245607 102.208982,140.397949 102.601562,140.397949 C103.11719,140.397949 103.493651,140.166506 103.730957,139.703613 L103.730957,137.519531 C103.487792,137.071287 103.11426,136.847168 102.610352,136.847168 C102.211912,136.847168 101.901368,137.000975 101.678711,137.308594 C101.456054,137.616212 101.344727,138.071774 101.344727,138.675293 Z M108.740723,141 C108.693847,140.90625 108.655762,140.739259 108.626465,140.499023 C108.248533,140.891604 107.797366,141.087891 107.272949,141.087891 C106.804197,141.087891 106.419679,140.955324 106.119385,140.690186 C105.81909,140.425048 105.668945,140.088869 105.668945,139.681641 C105.668945,139.186521 105.857176,138.802003 106.233643,138.528076 C106.610109,138.254149 107.139645,138.117188 107.822266,138.117188 L108.613281,138.117188 L108.613281,137.743652 C108.613281,137.459471 108.528321,137.233155 108.358398,137.064697 C108.188476,136.896239 107.93799,136.812012 107.606934,136.812012 C107.316893,136.812012 107.073731,136.885253 106.877441,137.031738 C106.681151,137.178223 106.583008,137.355468 106.583008,137.563477 L105.765625,137.563477 C105.765625,137.326171 105.849853,137.096925 106.018311,136.875732 C106.186768,136.65454 106.415282,136.479493 106.703857,136.350586 C106.992433,136.221679 107.309569,136.157227 107.655273,136.157227 C108.203128,136.157227 108.632323,136.294188 108.942871,136.568115 C109.25342,136.842042 109.414551,137.219236 109.42627,137.699707 L109.42627,139.888184 C109.42627,140.324709 109.481933,140.671874 109.593262,140.929688 L109.593262,141 L108.740723,141 Z M107.391602,140.380371 C107.646486,140.380371 107.888182,140.314454 108.116699,140.182617 C108.345216,140.050781 108.510742,139.879396 108.613281,139.668457 L108.613281,138.692871 L107.976074,138.692871 C106.979975,138.692871 106.481934,138.984372 106.481934,139.567383 C106.481934,139.822267 106.566894,140.021484 106.736816,140.165039 C106.906739,140.308594 107.124999,140.380371 107.391602,140.380371 Z M111.803711,135.09375 L111.803711,136.245117 L112.691406,136.245117 L112.691406,136.873535 L111.803711,136.873535 L111.803711,139.822266 C111.803711,140.012696 111.843261,140.155517 111.922363,140.250732 C112.001465,140.345948 112.13623,140.393555 112.32666,140.393555 C112.420411,140.393555 112.549316,140.375977 112.713379,140.34082 L112.713379,141 C112.499511,141.058594 112.291505,141.087891 112.089355,141.087891 C111.726072,141.087891 111.452149,140.978028 111.267578,140.758301 C111.083007,140.538573 110.990723,140.226565 110.990723,139.822266 L110.990723,136.873535 L110.125,136.873535 L110.125,136.245117 L110.990723,136.245117 L110.990723,135.09375 L111.803711,135.09375 Z M115.61377,141.087891 C114.969235,141.087891 114.444826,140.876223 114.040527,140.452881 C113.636228,140.029539 113.434082,139.463382 113.434082,138.754395 L113.434082,138.60498 C113.434082,138.133298 113.524169,137.71216 113.704346,137.341553 C113.884522,136.970945 114.136473,136.680909 114.460205,136.471436 C114.783937,136.261962 115.134764,136.157227 115.512695,136.157227 C116.130862,136.157227 116.611326,136.360838 116.954102,136.768066 C117.296877,137.175295 117.468262,137.758297 117.468262,138.51709 L117.468262,138.855469 L114.24707,138.855469 C114.258789,139.324221 114.395751,139.702879 114.657959,139.991455 C114.920167,140.280031 115.253416,140.424316 115.657715,140.424316 C115.944826,140.424316 116.187987,140.365723 116.387207,140.248535 C116.586427,140.131347 116.760741,139.976075 116.910156,139.782715 L117.406738,140.169434 C117.008299,140.781741 116.410649,141.087891 115.61377,141.087891 Z M115.512695,136.825195 C115.184569,136.825195 114.909181,136.944579 114.686523,137.18335 C114.463866,137.42212 114.326172,137.756834 114.273438,138.1875 L116.655273,138.1875 L116.655273,138.125977 C116.631836,137.712889 116.520509,137.392823 116.321289,137.165771 C116.122069,136.93872 115.852541,136.825195 115.512695,136.825195 Z M118.382324,140.57373 C118.382324,140.433105 118.424072,140.315918 118.507568,140.222168 C118.591065,140.128418 118.716308,140.081543 118.883301,140.081543 C119.050294,140.081543 119.177002,140.128418 119.263428,140.222168 C119.349854,140.315918 119.393066,140.433105 119.393066,140.57373 C119.393066,140.708497 119.349854,140.821289 119.263428,140.912109 C119.177002,141.00293 119.050294,141.04834 118.883301,141.04834 C118.716308,141.04834 118.591065,141.00293 118.507568,140.912109 C118.424072,140.821289 118.382324,140.708497 118.382324,140.57373 Z M118.386719,136.693359 C118.386719,136.552734 118.428466,136.435547 118.511963,136.341797 C118.595459,136.248046 118.720702,136.201172 118.887695,136.201172 C119.054688,136.201172 119.181396,136.248046 119.267822,136.341797 C119.354248,136.435547 119.397461,136.552734 119.397461,136.693359 C119.397461,136.828126 119.354248,136.940918 119.267822,137.031738 C119.181396,137.122559 119.054688,137.167969 118.887695,137.167969 C118.720702,137.167969 118.595459,137.122559 118.511963,137.031738 C118.428466,136.940918 118.386719,136.828126 118.386719,136.693359 Z M122.943848,141 L122.943848,134.601562 L124.75,134.601562 C125.306643,134.601562 125.798826,134.724608 126.226562,134.970703 C126.654299,135.216798 126.984618,135.566892 127.217529,136.020996 C127.450441,136.4751 127.568359,136.996579 127.571289,137.585449 L127.571289,137.994141 C127.571289,138.597659 127.454835,139.126463 127.221924,139.580566 C126.989013,140.03467 126.656496,140.3833 126.224365,140.626465 C125.792234,140.86963 125.289065,140.994141 124.714844,141 L122.943848,141 Z M123.787598,135.295898 L123.787598,140.310059 L124.675293,140.310059 C125.325687,140.310059 125.831785,140.107912 126.193604,139.703613 C126.555422,139.299314 126.736328,138.723637 126.736328,137.976562 L126.736328,137.603027 C126.736328,136.876461 126.565676,136.31177 126.224365,135.908936 C125.883055,135.506102 125.398929,135.301758 124.771973,135.295898 L123.787598,135.295898 Z M130.691406,141.087891 C130.046872,141.087891 129.522463,140.876223 129.118164,140.452881 C128.713865,140.029539 128.511719,139.463382 128.511719,138.754395 L128.511719,138.60498 C128.511719,138.133298 128.601806,137.71216 128.781982,137.341553 C128.962159,136.970945 129.21411,136.680909 129.537842,136.471436 C129.861574,136.261962 130.2124,136.157227 130.590332,136.157227 C131.208499,136.157227 131.688963,136.360838 132.031738,136.768066 C132.374513,137.175295 132.545898,137.758297 132.545898,138.51709 L132.545898,138.855469 L129.324707,138.855469 C129.336426,139.324221 129.473387,139.702879 129.735596,139.991455 C129.997804,140.280031 130.331053,140.424316 130.735352,140.424316 C131.022462,140.424316 131.265624,140.365723 131.464844,140.248535 C131.664063,140.131347 131.838378,139.976075 131.987793,139.782715 L132.484375,140.169434 C132.085936,140.781741 131.488285,141.087891 130.691406,141.087891 Z M130.590332,136.825195 C130.262205,136.825195 129.986818,136.944579 129.76416,137.18335 C129.541503,137.42212 129.403809,137.756834 129.351074,138.1875 L131.73291,138.1875 L131.73291,138.125977 C131.709473,137.712889 131.598146,137.392823 131.398926,137.165771 C131.199706,136.93872 130.930177,136.825195 130.590332,136.825195 Z M135.393555,140.424316 C135.683595,140.424316 135.937011,140.336427 136.153809,140.160645 C136.370607,139.984862 136.490723,139.765138 136.51416,139.501465 L137.283203,139.501465 C137.268555,139.773927 137.174806,140.033202 137.001953,140.279297 C136.829101,140.525392 136.59839,140.721679 136.309814,140.868164 C136.021239,141.014649 135.715822,141.087891 135.393555,141.087891 C134.746091,141.087891 134.231203,140.871828 133.848877,140.439697 C133.466551,140.007566 133.275391,139.416508 133.275391,138.666504 L133.275391,138.530273 C133.275391,138.06738 133.360351,137.655764 133.530273,137.29541 C133.700196,136.935057 133.94409,136.655274 134.261963,136.456055 C134.579836,136.256835 134.955564,136.157227 135.38916,136.157227 C135.922366,136.157227 136.365477,136.316893 136.718506,136.63623 C137.071535,136.955568 137.259766,137.370115 137.283203,137.879883 L136.51416,137.879883 C136.490723,137.572264 136.374269,137.319581 136.164795,137.121826 C135.955321,136.924071 135.696779,136.825195 135.38916,136.825195 C134.976072,136.825195 134.656007,136.973875 134.428955,137.27124 C134.201903,137.568605 134.088379,137.998532 134.088379,138.561035 L134.088379,138.714844 C134.088379,139.262698 134.201171,139.684569 134.426758,139.980469 C134.652345,140.276369 134.974607,140.424316 135.393555,140.424316 Z M140.17041,141.087891 C139.525876,141.087891 139.001467,140.876223 138.597168,140.452881 C138.192869,140.029539 137.990723,139.463382 137.990723,138.754395 L137.990723,138.60498 C137.990723,138.133298 138.08081,137.71216 138.260986,137.341553 C138.441163,136.970945 138.693114,136.680909 139.016846,136.471436 C139.340578,136.261962 139.691404,136.157227 140.069336,136.157227 C140.687503,136.157227 141.167967,136.360838 141.510742,136.768066 C141.853517,137.175295 142.024902,137.758297 142.024902,138.51709 L142.024902,138.855469 L138.803711,138.855469 C138.81543,139.324221 138.952391,139.702879 139.2146,139.991455 C139.476808,140.280031 139.810057,140.424316 140.214355,140.424316 C140.501466,140.424316 140.744628,140.365723 140.943848,140.248535 C141.143067,140.131347 141.317382,139.976075 141.466797,139.782715 L141.963379,140.169434 C141.564939,140.781741 140.967289,141.087891 140.17041,141.087891 Z M140.069336,136.825195 C139.741209,136.825195 139.465821,136.944579 139.243164,137.18335 C139.020507,137.42212 138.882813,137.756834 138.830078,138.1875 L141.211914,138.1875 L141.211914,138.125977 C141.188476,137.712889 141.077149,137.392823 140.87793,137.165771 C140.67871,136.93872 140.409181,136.825195 140.069336,136.825195 Z M143.72998,136.245117 L143.751953,136.772461 C144.100588,136.362303 144.570798,136.157227 145.162598,136.157227 C145.82764,136.157227 146.280272,136.412107 146.520508,136.921875 C146.678712,136.693358 146.88452,136.50879 147.137939,136.368164 C147.391359,136.227538 147.690916,136.157227 148.036621,136.157227 C149.079595,136.157227 149.609863,136.709467 149.627441,137.813965 L149.627441,141 L148.814453,141 L148.814453,137.862305 C148.814453,137.522459 148.736817,137.268311 148.581543,137.099854 C148.426269,136.931396 148.165529,136.847168 147.799316,136.847168 C147.497557,136.847168 147.247071,136.937255 147.047852,137.117432 C146.848632,137.297608 146.73291,137.540038 146.700684,137.844727 L146.700684,141 L145.883301,141 L145.883301,137.884277 C145.883301,137.192868 145.544925,136.847168 144.868164,136.847168 C144.334958,136.847168 143.970216,137.074216 143.773926,137.52832 L143.773926,141 L142.960938,141 L142.960938,136.245117 L143.72998,136.245117 Z M154.878906,138.675293 C154.878906,139.401859 154.711916,139.985593 154.37793,140.426514 C154.043944,140.867434 153.595706,141.087891 153.033203,141.087891 C152.432614,141.087891 151.968263,140.87549 151.640137,140.450684 L151.600586,141 L150.853516,141 L150.853516,134.25 L151.666504,134.25 L151.666504,136.768066 C151.994631,136.360838 152.447263,136.157227 153.024414,136.157227 C153.601565,136.157227 154.05493,136.375486 154.384521,136.812012 C154.714113,137.248537 154.878906,137.846188 154.878906,138.60498 L154.878906,138.675293 Z M154.065918,138.583008 C154.065918,138.029294 153.958985,137.601564 153.745117,137.299805 C153.531249,136.998045 153.223635,136.847168 152.822266,136.847168 C152.28613,136.847168 151.90088,137.096189 151.666504,137.594238 L151.666504,139.650879 C151.915529,140.148928 152.303708,140.397949 152.831055,140.397949 C153.220705,140.397949 153.523925,140.247072 153.740723,139.945312 C153.957521,139.643553 154.065918,139.189456 154.065918,138.583008 Z M157.875977,141.087891 C157.231442,141.087891 156.707033,140.876223 156.302734,140.452881 C155.898435,140.029539 155.696289,139.463382 155.696289,138.754395 L155.696289,138.60498 C155.696289,138.133298 155.786376,137.71216 155.966553,137.341553 C156.146729,136.970945 156.39868,136.680909 156.722412,136.471436 C157.046144,136.261962 157.396971,136.157227 157.774902,136.157227 C158.393069,136.157227 158.873533,136.360838 159.216309,136.768066 C159.559084,137.175295 159.730469,137.758297 159.730469,138.51709 L159.730469,138.855469 L156.509277,138.855469 C156.520996,139.324221 156.657958,139.702879 156.920166,139.991455 C157.182374,140.280031 157.515623,140.424316 157.919922,140.424316 C158.207033,140.424316 158.450194,140.365723 158.649414,140.248535 C158.848634,140.131347 159.022948,139.976075 159.172363,139.782715 L159.668945,140.169434 C159.270506,140.781741 158.672856,141.087891 157.875977,141.087891 Z M157.774902,136.825195 C157.446776,136.825195 157.171388,136.944579 156.94873,137.18335 C156.726073,137.42212 156.588379,137.756834 156.535645,138.1875 L158.91748,138.1875 L158.91748,138.125977 C158.894043,137.712889 158.782716,137.392823 158.583496,137.165771 C158.384276,136.93872 158.114748,136.825195 157.774902,136.825195 Z M162.969238,136.974609 C162.846191,136.954101 162.712891,136.943848 162.569336,136.943848 C162.03613,136.943848 161.674317,137.170896 161.483887,137.625 L161.483887,141 L160.670898,141 L160.670898,136.245117 L161.461914,136.245117 L161.475098,136.794434 C161.741701,136.369627 162.119626,136.157227 162.608887,136.157227 C162.767091,136.157227 162.887207,136.177734 162.969238,136.21875 L162.969238,136.974609 Z M168.532715,141 L167.715332,141 L167.715332,135.581543 L166.076172,136.183594 L166.076172,135.445312 L168.405273,134.570801 L168.532715,134.570801 L168.532715,141 Z M171.288086,137.791992 L171.613281,134.601562 L174.891602,134.601562 L174.891602,135.353027 L172.303223,135.353027 L172.109863,137.097656 C172.423341,136.913085 172.779295,136.820801 173.177734,136.820801 C173.760745,136.820801 174.223631,137.013426 174.566406,137.398682 C174.909181,137.783937 175.080566,138.304684 175.080566,138.960938 C175.080566,139.62012 174.90259,140.139402 174.546631,140.518799 C174.190672,140.898195 173.693363,141.087891 173.054688,141.087891 C172.489255,141.087891 172.027834,140.931154 171.67041,140.617676 C171.312986,140.304198 171.109375,139.870608 171.05957,139.316895 L171.828613,139.316895 C171.878418,139.683107 172.008788,139.959228 172.219727,140.145264 C172.430665,140.3313 172.708983,140.424316 173.054688,140.424316 C173.432619,140.424316 173.729247,140.295411 173.94458,140.037598 C174.159913,139.779784 174.267578,139.42383 174.267578,138.969727 C174.267578,138.54199 174.151124,138.198488 173.918213,137.939209 C173.685302,137.67993 173.37549,137.550293 172.98877,137.550293 C172.634276,137.550293 172.355958,137.627929 172.153809,137.783203 L171.938477,137.958984 L171.288086,137.791992 Z M176.025391,142.274414 L175.563965,141.958008 C175.839357,141.574217 175.98291,141.178713 175.994629,140.771484 L175.994629,140.037598 L176.790039,140.037598 L176.790039,140.674805 C176.790039,140.970705 176.71753,141.2666 176.57251,141.5625 C176.42749,141.8584 176.245118,142.095702 176.025391,142.274414 Z M184.155273,141 L179.962891,141 L179.962891,140.415527 L182.177734,137.95459 C182.505861,137.582518 182.732177,137.28003 182.856689,137.047119 C182.981202,136.814208 183.043457,136.573243 183.043457,136.324219 C183.043457,135.990233 182.942384,135.71631 182.740234,135.502441 C182.538085,135.288573 182.268556,135.181641 181.931641,135.181641 C181.527342,135.181641 181.213136,135.29663 180.989014,135.526611 C180.764891,135.756593 180.652832,136.076658 180.652832,136.486816 L179.839844,136.486816 C179.839844,135.897946 180.029539,135.421877 180.408936,135.058594 C180.788332,134.695311 181.295895,134.513672 181.931641,134.513672 C182.52637,134.513672 182.99658,134.669676 183.342285,134.981689 C183.68799,135.293703 183.86084,135.708982 183.86084,136.227539 C183.86084,136.857425 183.459477,137.607418 182.656738,138.477539 L180.942871,140.336426 L184.155273,140.336426 L184.155273,141 Z M189.028809,138.270996 C189.028809,139.223149 188.866213,139.930662 188.541016,140.393555 C188.215819,140.856448 187.707523,141.087891 187.016113,141.087891 C186.333493,141.087891 185.828127,140.861575 185.5,140.408936 C185.171873,139.956297 185.001953,139.280278 184.990234,138.380859 L184.990234,137.29541 C184.990234,136.354976 185.15283,135.656252 185.478027,135.199219 C185.803224,134.742185 186.312985,134.513672 187.007324,134.513672 C187.695804,134.513672 188.202635,134.734129 188.527832,135.175049 C188.853029,135.615969 189.020019,136.296382 189.028809,137.216309 L189.028809,138.270996 Z M188.21582,137.15918 C188.21582,136.4707 188.119142,135.968996 187.925781,135.654053 C187.732421,135.33911 187.426272,135.181641 187.007324,135.181641 C186.591307,135.181641 186.288087,135.338377 186.097656,135.651855 C185.907226,135.965334 185.809082,136.447262 185.803223,137.097656 L185.803223,138.398438 C185.803223,139.089847 185.903563,139.60034 186.104248,139.929932 C186.304933,140.259523 186.608885,140.424316 187.016113,140.424316 C187.417482,140.424316 187.715575,140.269045 187.9104,139.958496 C188.105226,139.647948 188.207031,139.158695 188.21582,138.490723 L188.21582,137.15918 Z M191.252441,137.405273 L191.863281,137.405273 C192.247072,137.399414 192.548827,137.298341 192.768555,137.102051 C192.988282,136.905761 193.098145,136.640627 193.098145,136.306641 C193.098145,135.556637 192.724613,135.181641 191.977539,135.181641 C191.625975,135.181641 191.34546,135.281981 191.135986,135.482666 C190.926513,135.683351 190.821777,135.949217 190.821777,136.280273 L190.008789,136.280273 C190.008789,135.773435 190.19409,135.352297 190.564697,135.016846 C190.935305,134.681395 191.406247,134.513672 191.977539,134.513672 C192.581058,134.513672 193.054198,134.673338 193.396973,134.992676 C193.739748,135.312013 193.911133,135.755857 193.911133,136.324219 C193.911133,136.60254 193.821046,136.872069 193.640869,137.132812 C193.460692,137.393556 193.215334,137.588378 192.904785,137.717285 C193.256349,137.828614 193.528075,138.013182 193.719971,138.270996 C193.911866,138.52881 194.007812,138.843748 194.007812,139.21582 C194.007812,139.790042 193.820314,140.245604 193.445312,140.58252 C193.070311,140.919435 192.582523,141.087891 191.981934,141.087891 C191.381345,141.087891 190.892824,140.925295 190.516357,140.600098 C190.139891,140.274901 189.95166,139.845706 189.95166,139.3125 L190.769043,139.3125 C190.769043,139.649416 190.878905,139.918944 191.098633,140.121094 C191.31836,140.323243 191.612791,140.424316 191.981934,140.424316 C192.374514,140.424316 192.674804,140.321778 192.882812,140.116699 C193.090821,139.91162 193.194824,139.617189 193.194824,139.233398 C193.194824,138.861326 193.080568,138.575685 192.852051,138.376465 C192.623534,138.177245 192.293947,138.074707 191.863281,138.068848 L191.252441,138.068848 L191.252441,137.405273 Z M199.316406,141 L195.124023,141 L195.124023,140.415527 L197.338867,137.95459 C197.666994,137.582518 197.89331,137.28003 198.017822,137.047119 C198.142335,136.814208 198.20459,136.573243 198.20459,136.324219 C198.20459,135.990233 198.103517,135.71631 197.901367,135.502441 C197.699218,135.288573 197.429689,135.181641 197.092773,135.181641 C196.688475,135.181641 196.374269,135.29663 196.150146,135.526611 C195.926024,135.756593 195.813965,136.076658 195.813965,136.486816 L195.000977,136.486816 C195.000977,135.897946 195.190672,135.421877 195.570068,135.058594 C195.949465,134.695311 196.457028,134.513672 197.092773,134.513672 C197.687503,134.513672 198.157713,134.669676 198.503418,134.981689 C198.849123,135.293703 199.021973,135.708982 199.021973,136.227539 C199.021973,136.857425 198.620609,137.607418 197.817871,138.477539 L196.104004,140.336426 L199.316406,140.336426 L199.316406,141 Z" id="Renewal-date:-Decemb-Copy" fill="#000000"></path>
                <path d="M67.359375,73.9921875 L67.359375,78 L65.015625,78 L65.015625,66.625 L69.453125,66.625 C70.3072959,66.625 71.0585905,66.7812484 71.7070312,67.09375 C72.355472,67.4062516 72.8541649,67.8502575 73.203125,68.4257812 C73.5520851,69.001305 73.7265625,69.6562463 73.7265625,70.390625 C73.7265625,71.5052139 73.3450559,72.3841114 72.5820312,73.0273438 C71.8190066,73.6705761 70.7630276,73.9921875 69.4140625,73.9921875 L67.359375,73.9921875 Z M67.359375,72.09375 L69.453125,72.09375 C70.0729198,72.09375 70.5455713,71.9479181 70.8710938,71.65625 C71.1966162,71.3645819 71.359375,70.9479194 71.359375,70.40625 C71.359375,69.8489555 71.1953141,69.3984392 70.8671875,69.0546875 C70.5390609,68.7109358 70.0859404,68.5338542 69.5078125,68.5234375 L67.359375,68.5234375 L67.359375,72.09375 Z M77.390625,70.46875 C77.9895863,69.7499964 78.742183,69.390625 79.6484375,69.390625 C81.48178,69.390625 82.4114582,70.4557185 82.4375,72.5859375 L82.4375,78 L80.1796875,78 L80.1796875,72.6484375 C80.1796875,72.1640601 80.0755219,71.8059907 79.8671875,71.5742188 C79.6588531,71.3424468 79.3125024,71.2265625 78.828125,71.2265625 C78.1666634,71.2265625 77.6875015,71.4817683 77.390625,71.9921875 L77.390625,78 L75.1328125,78 L75.1328125,66 L77.390625,66 L77.390625,70.46875 Z M87.296875,74.8046875 L88.859375,69.546875 L91.28125,69.546875 L87.8828125,79.3125 L87.6953125,79.7578125 C87.1901016,80.8619847 86.3567766,81.4140625 85.1953125,81.4140625 C84.8671859,81.4140625 84.5338559,81.3645838 84.1953125,81.265625 L84.1953125,79.5546875 L84.5390625,79.5625 C84.966148,79.5625 85.2851552,79.4973965 85.4960938,79.3671875 C85.7070323,79.2369785 85.8723952,79.0208348 85.9921875,78.71875 L86.2578125,78.0234375 L83.296875,69.546875 L85.7265625,69.546875 L87.296875,74.8046875 Z M94.5546875,78 L92.2890625,78 L92.2890625,66 L94.5546875,66 L94.5546875,78 Z M98.796875,78 L96.53125,78 L96.53125,66 L98.796875,66 L98.796875,78 Z M103.039062,78 L100.773438,78 L100.773438,69.546875 L103.039062,69.546875 L103.039062,78 Z M100.640625,67.359375 C100.640625,67.0208316 100.753905,66.7421886 100.980469,66.5234375 C101.207032,66.3046864 101.515623,66.1953125 101.90625,66.1953125 C102.291669,66.1953125 102.598957,66.3046864 102.828125,66.5234375 C103.057293,66.7421886 103.171875,67.0208316 103.171875,67.359375 C103.171875,67.7031267 103.055991,67.9843739 102.824219,68.203125 C102.592447,68.4218761 102.28646,68.53125 101.90625,68.53125 C101.52604,68.53125 101.220053,68.4218761 100.988281,68.203125 C100.756509,67.9843739 100.640625,67.7031267 100.640625,67.359375 Z M109.476562,75.6640625 C109.476562,75.3880195 109.339845,75.1705737 109.066406,75.0117188 C108.792967,74.8528638 108.35417,74.7109381 107.75,74.5859375 C105.739573,74.1640604 104.734375,73.3099023 104.734375,72.0234375 C104.734375,71.2734337 105.04557,70.6471379 105.667969,70.1445312 C106.290368,69.6419246 107.104162,69.390625 108.109375,69.390625 C109.182297,69.390625 110.040361,69.6432266 110.683594,70.1484375 C111.326826,70.6536484 111.648438,71.3098918 111.648438,72.1171875 L109.390625,72.1171875 C109.390625,71.7942692 109.286459,71.5273448 109.078125,71.3164062 C108.869791,71.1054677 108.544273,71 108.101562,71 C107.721352,71 107.427084,71.0859366 107.21875,71.2578125 C107.010416,71.4296884 106.90625,71.6484362 106.90625,71.9140625 C106.90625,72.1640637 107.024738,72.3658846 107.261719,72.5195312 C107.498699,72.6731779 107.898435,72.805989 108.460938,72.9179688 C109.02344,73.0299485 109.497394,73.1562493 109.882812,73.296875 C111.075527,73.7343772 111.671875,74.4921821 111.671875,75.5703125 C111.671875,76.3411497 111.341149,76.9648414 110.679688,77.4414062 C110.018226,77.9179711 109.164068,78.15625 108.117188,78.15625 C107.408851,78.15625 106.779951,78.0299492 106.230469,77.7773438 C105.680987,77.5247383 105.250002,77.1783876 104.9375,76.7382812 C104.624998,76.2981749 104.46875,75.8229192 104.46875,75.3125 L106.609375,75.3125 C106.630208,75.7135437 106.778644,76.0208323 107.054688,76.234375 C107.330731,76.4479177 107.700519,76.5546875 108.164062,76.5546875 C108.596356,76.5546875 108.923176,76.4726571 109.144531,76.3085938 C109.365887,76.1445304 109.476562,75.9296888 109.476562,75.6640625 Z M119.601562,73.9921875 L119.601562,78 L117.257812,78 L117.257812,66.625 L121.695312,66.625 C122.549483,66.625 123.300778,66.7812484 123.949219,67.09375 C124.597659,67.4062516 125.096352,67.8502575 125.445312,68.4257812 C125.794273,69.001305 125.96875,69.6562463 125.96875,70.390625 C125.96875,71.5052139 125.587243,72.3841114 124.824219,73.0273438 C124.061194,73.6705761 123.005215,73.9921875 121.65625,73.9921875 L119.601562,73.9921875 Z M119.601562,72.09375 L121.695312,72.09375 C122.315107,72.09375 122.787759,71.9479181 123.113281,71.65625 C123.438804,71.3645819 123.601562,70.9479194 123.601562,70.40625 C123.601562,69.8489555 123.437502,69.3984392 123.109375,69.0546875 C122.781248,68.7109358 122.328128,68.5338542 121.75,68.5234375 L119.601562,68.5234375 L119.601562,72.09375 Z M131.320312,78.15625 C130.080723,78.15625 129.071618,77.7760455 128.292969,77.015625 C127.514319,76.2552045 127.125,75.2421938 127.125,73.9765625 L127.125,73.7578125 C127.125,72.9088499 127.289061,72.1497429 127.617188,71.4804688 C127.945314,70.8111946 128.410153,70.2955747 129.011719,69.9335938 C129.613284,69.5716128 130.299475,69.390625 131.070312,69.390625 C132.226568,69.390625 133.136715,69.7552047 133.800781,70.484375 C134.464847,71.2135453 134.796875,72.2473891 134.796875,73.5859375 L134.796875,74.5078125 L129.414062,74.5078125 C129.48698,75.0598986 129.707029,75.5026025 130.074219,75.8359375 C130.441408,76.1692725 130.906247,76.3359375 131.46875,76.3359375 C132.338546,76.3359375 133.018227,76.0208365 133.507812,75.390625 L134.617188,76.6328125 C134.278644,77.1119816 133.820315,77.4856757 133.242188,77.7539062 C132.66406,78.0221368 132.023441,78.15625 131.320312,78.15625 Z M131.0625,71.21875 C130.614581,71.21875 130.251303,71.3697902 129.972656,71.671875 C129.694009,71.9739598 129.515625,72.4062472 129.4375,72.96875 L132.578125,72.96875 L132.578125,72.7890625 C132.567708,72.28906 132.432293,71.9023451 132.171875,71.6289062 C131.911457,71.3554674 131.541669,71.21875 131.0625,71.21875 Z M138.78125,67.46875 L138.78125,69.546875 L140.226562,69.546875 L140.226562,71.203125 L138.78125,71.203125 L138.78125,75.421875 C138.78125,75.7343766 138.841145,75.9583327 138.960938,76.09375 C139.08073,76.2291673 139.309894,76.296875 139.648438,76.296875 C139.898439,76.296875 140.119791,76.278646 140.3125,76.2421875 L140.3125,77.953125 C139.869789,78.0885423 139.414065,78.15625 138.945312,78.15625 C137.361971,78.15625 136.554688,77.3567788 136.523438,75.7578125 L136.523438,71.203125 L135.289062,71.203125 L135.289062,69.546875 L136.523438,69.546875 L136.523438,67.46875 L138.78125,67.46875 Z M145.375,78.15625 C144.13541,78.15625 143.126306,77.7760455 142.347656,77.015625 C141.569007,76.2552045 141.179688,75.2421938 141.179688,73.9765625 L141.179688,73.7578125 C141.179688,72.9088499 141.343748,72.1497429 141.671875,71.4804688 C142.000002,70.8111946 142.464841,70.2955747 143.066406,69.9335938 C143.667972,69.5716128 144.354163,69.390625 145.125,69.390625 C146.281256,69.390625 147.191403,69.7552047 147.855469,70.484375 C148.519535,71.2135453 148.851562,72.2473891 148.851562,73.5859375 L148.851562,74.5078125 L143.46875,74.5078125 C143.541667,75.0598986 143.761717,75.5026025 144.128906,75.8359375 C144.496096,76.1692725 144.960935,76.3359375 145.523438,76.3359375 C146.393234,76.3359375 147.072914,76.0208365 147.5625,75.390625 L148.671875,76.6328125 C148.333332,77.1119816 147.875003,77.4856757 147.296875,77.7539062 C146.718747,78.0221368 146.078129,78.15625 145.375,78.15625 Z M145.117188,71.21875 C144.669269,71.21875 144.305991,71.3697902 144.027344,71.671875 C143.748697,71.9739598 143.570313,72.4062472 143.492188,72.96875 L146.632812,72.96875 L146.632812,72.7890625 C146.622396,72.28906 146.48698,71.9023451 146.226562,71.6289062 C145.966145,71.3554674 145.596357,71.21875 145.117188,71.21875 Z M154.882812,71.6640625 C154.575519,71.6223956 154.304689,71.6015625 154.070312,71.6015625 C153.216142,71.6015625 152.656251,71.8906221 152.390625,72.46875 L152.390625,78 L150.132812,78 L150.132812,69.546875 L152.265625,69.546875 L152.328125,70.5546875 C152.781252,69.778642 153.40885,69.390625 154.210938,69.390625 C154.460939,69.390625 154.695311,69.4244788 154.914062,69.4921875 L154.882812,71.6640625 Z M160.546875,75.6640625 C160.546875,75.3880195 160.410158,75.1705737 160.136719,75.0117188 C159.86328,74.8528638 159.424482,74.7109381 158.820312,74.5859375 C156.809886,74.1640604 155.804688,73.3099023 155.804688,72.0234375 C155.804688,71.2734337 156.115882,70.6471379 156.738281,70.1445312 C157.36068,69.6419246 158.174474,69.390625 159.179688,69.390625 C160.25261,69.390625 161.110674,69.6432266 161.753906,70.1484375 C162.397139,70.6536484 162.71875,71.3098918 162.71875,72.1171875 L160.460938,72.1171875 C160.460938,71.7942692 160.356772,71.5273448 160.148438,71.3164062 C159.940103,71.1054677 159.614586,71 159.171875,71 C158.791665,71 158.497397,71.0859366 158.289062,71.2578125 C158.080728,71.4296884 157.976562,71.6484362 157.976562,71.9140625 C157.976562,72.1640637 158.095051,72.3658846 158.332031,72.5195312 C158.569012,72.6731779 158.968747,72.805989 159.53125,72.9179688 C160.093753,73.0299485 160.567706,73.1562493 160.953125,73.296875 C162.145839,73.7343772 162.742188,74.4921821 162.742188,75.5703125 C162.742188,76.3411497 162.411462,76.9648414 161.75,77.4414062 C161.088538,77.9179711 160.23438,78.15625 159.1875,78.15625 C158.479163,78.15625 157.850263,78.0299492 157.300781,77.7773438 C156.751299,77.5247383 156.320314,77.1783876 156.007812,76.7382812 C155.695311,76.2981749 155.539062,75.8229192 155.539062,75.3125 L157.679688,75.3125 C157.700521,75.7135437 157.848957,76.0208323 158.125,76.234375 C158.401043,76.4479177 158.770831,76.5546875 159.234375,76.5546875 C159.666669,76.5546875 159.993488,76.4726571 160.214844,76.3085938 C160.436199,76.1445304 160.546875,75.9296888 160.546875,75.6640625 Z M163.84375,73.6953125 C163.84375,72.8567666 164.005207,72.1093783 164.328125,71.453125 C164.651043,70.7968717 165.115882,70.2890643 165.722656,69.9296875 C166.32943,69.5703107 167.03385,69.390625 167.835938,69.390625 C168.976568,69.390625 169.907548,69.7395798 170.628906,70.4375 C171.350264,71.1354202 171.752604,72.0833273 171.835938,73.28125 L171.851562,73.859375 C171.851562,75.1562565 171.489587,76.1966107 170.765625,76.9804688 C170.041663,77.7643268 169.070319,78.15625 167.851562,78.15625 C166.632806,78.15625 165.66016,77.7656289 164.933594,76.984375 C164.207028,76.2031211 163.84375,75.1406317 163.84375,73.796875 L163.84375,73.6953125 Z M166.101562,73.859375 C166.101562,74.6614623 166.252603,75.2747375 166.554688,75.6992188 C166.856772,76.1237 167.28906,76.3359375 167.851562,76.3359375 C168.39844,76.3359375 168.825519,76.1263042 169.132812,75.7070312 C169.440106,75.2877583 169.59375,74.6171921 169.59375,73.6953125 C169.59375,72.9088502 169.440106,72.2994813 169.132812,71.8671875 C168.825519,71.4348937 168.393232,71.21875 167.835938,71.21875 C167.283851,71.21875 166.856772,71.4335916 166.554688,71.8632812 C166.252603,72.2929709 166.101562,72.9583288 166.101562,73.859375 Z M175.320312,69.546875 L175.390625,70.5234375 C175.994795,69.7682254 176.804682,69.390625 177.820312,69.390625 C178.71615,69.390625 179.38281,69.6536432 179.820312,70.1796875 C180.257815,70.7057318 180.481771,71.4921823 180.492188,72.5390625 L180.492188,78 L178.234375,78 L178.234375,72.59375 C178.234375,72.1145809 178.130209,71.7669282 177.921875,71.5507812 C177.713541,71.3346343 177.36719,71.2265625 176.882812,71.2265625 C176.247393,71.2265625 175.770835,71.4973931 175.453125,72.0390625 L175.453125,78 L173.195312,78 L173.195312,69.546875 L175.320312,69.546875 Z" id="Phyllis-Peterson" fill="#000000"></path>
                <path d="M42.2144889,20.6871111 C39.4429333,18.3857778 35.8838222,17 32.0002667,17 C25.7478222,17 20.3469333,20.5946667 17.7149333,25.8222222 C21.3362667,24.6897778 24.9940444,23.648 28.2109333,22.9217778 C33.1309333,21.8124444 38.0927111,21.1191111 42.2144889,20.6871111" id="Fill-1" fill="#FF8516"></path>
                <g id="Group-5" transform="translate(16.000000, 22.333156)">
                    <mask id="mask-2" fill="white">
                        <use xlink:href="#path-1"></use>
                    </mask>
                    <g id="Clip-4"></g>
                    <path d="M28.4621333,0.644 C28.3625778,0.520444444 28.2603556,0.401333333 28.1572444,0.281333333 C21.3616889,1.90444444 14.4550222,3.97377778 7.76702222,6.63333333 C4.94835556,7.83333333 2.36702222,9.036 0.0239111111,10.196 C0.0194666667,10.3533333 -8.88888889e-05,10.508 -8.88888889e-05,10.6671111 C-8.88888889e-05,13.4057778 0.690577778,15.9817778 1.90302222,18.236 C4.2968,15.9355556 6.8808,13.7444444 9.63368889,11.7 C15.4336889,7.53377778 21.6914667,3.89733333 28.4621333,0.644" id="Fill-3" fill="#FF8516" mask="url(#mask-2)"></path>
                </g>
                <path d="M33.4555556,34.0331556 C28.6555556,38.3993778 25.444,42.9318222 23.5,46.5380444 C25.9648889,48.0891556 28.8724444,48.9993778 31.9995556,48.9993778 C40.8368889,48.9993778 47.9995556,41.8367111 47.9995556,32.9993778 C47.9995556,30.1647111 47.2555556,27.5069333 45.9622222,25.1976 C41.5266667,27.8722667 37.1631111,30.6607111 33.4555556,34.0331556" id="Fill-6" fill="#FF8516"></path>
            </g>
        </g>
    </g>
</svg>