<?xml version="1.0" encoding="UTF-8"?>
<svg width="280px" height="160px" viewBox="0 0 280 160" version="1.1" xmlns="http://www.w3.org/2000/svg" xmlns:xlink="http://www.w3.org/1999/xlink">
    <!-- Generator: Sketch 44.1 (41455) - http://www.bohemiancoding.com/sketch -->
    <title>Thumb_280x160_1sketch</title>
    <desc>Created with Sketch.</desc>
    <defs>
        <polygon id="path-1" points="1.36727983e-15 38.7515 1.36727983e-15 0.597833333 60.4820333 0.597833333 60.4820333 38.7515 0 38.7515"></polygon>
    </defs>
    <g id="Thumbnails" stroke="none" stroke-width="1" fill="none" fill-rule="evenodd">
        <g id="Thumbnails_export_svg" transform="translate(0.000000, -57.000000)">
            <g id="Thumb_280x160_1sketch" transform="translate(0.000000, 57.000000)">
                <rect id="Mask" fill="#FFFFFF" x="0" y="0" width="280" height="160" rx="10"></rect>
                <path d="M117.976562,20.015625 L122.724609,33.421875 L127.447266,20.015625 L132.449219,20.015625 L132.449219,38.5 L128.62793,38.5 L128.62793,33.4472656 L129.008789,24.7255859 L124.019531,38.5 L121.404297,38.5 L116.427734,24.7382812 L116.808594,33.4472656 L116.808594,38.5 L113,38.5 L113,20.015625 L117.976562,20.015625 Z M141.856445,38.7539062 C139.842112,38.7539062 138.202318,38.1360739 136.937012,36.9003906 C135.671706,35.6647074 135.039062,34.018565 135.039062,31.9619141 L135.039062,31.6064453 C135.039062,30.2268811 135.305661,28.9933323 135.838867,27.9057617 C136.372073,26.8181912 137.127437,25.9803089 138.10498,25.3920898 C139.082524,24.8038708 140.197585,24.5097656 141.450195,24.5097656 C143.329111,24.5097656 144.8081,25.1022076 145.887207,26.2871094 C146.966314,27.4720111 147.505859,29.1520074 147.505859,31.3271484 L147.505859,32.8251953 L138.758789,32.8251953 C138.877279,33.7223352 139.23486,34.4417291 139.831543,34.9833984 C140.428226,35.5250678 141.183589,35.7958984 142.097656,35.7958984 C143.511075,35.7958984 144.615556,35.2838593 145.411133,34.2597656 L147.213867,36.2783203 C146.663734,37.05697 145.91895,37.6642231 144.979492,38.1000977 C144.040034,38.5359722 142.999029,38.7539062 141.856445,38.7539062 Z M141.4375,27.4804688 C140.709632,27.4804688 140.119306,27.725909 139.666504,28.2167969 C139.213702,28.7076847 138.923829,29.4101517 138.796875,30.3242188 L143.900391,30.3242188 L143.900391,30.0322266 C143.883463,29.2197225 143.663414,28.5913108 143.240234,28.1469727 C142.817055,27.7026345 142.21615,27.4804688 141.4375,27.4804688 Z M153.980469,21.3867188 L153.980469,24.7636719 L156.329102,24.7636719 L156.329102,27.4550781 L153.980469,27.4550781 L153.980469,34.3105469 C153.980469,34.8183619 154.077799,35.1822906 154.272461,35.4023438 C154.467123,35.6223969 154.839515,35.7324219 155.389648,35.7324219 C155.7959,35.7324219 156.155597,35.7027998 156.46875,35.6435547 L156.46875,38.4238281 C155.749345,38.6438813 155.008793,38.7539062 154.24707,38.7539062 C151.674141,38.7539062 150.362305,37.4547656 150.311523,34.8564453 L150.311523,27.4550781 L148.305664,27.4550781 L148.305664,24.7636719 L150.311523,24.7636719 L150.311523,21.3867188 L153.980469,21.3867188 Z M166.091797,28.2041016 C165.592445,28.1363929 165.152346,28.1025391 164.771484,28.1025391 C163.383457,28.1025391 162.473635,28.5722609 162.041992,29.5117188 L162.041992,38.5 L158.373047,38.5 L158.373047,24.7636719 L161.838867,24.7636719 L161.94043,26.4013672 C162.676761,25.1402932 163.696608,24.5097656 165,24.5097656 C165.406252,24.5097656 165.787108,24.5647781 166.142578,24.6748047 L166.091797,28.2041016 Z M167.285156,31.5048828 C167.285156,30.1422458 167.547523,28.9277397 168.072266,27.8613281 C168.597008,26.7949165 169.352371,25.9697295 170.338379,25.3857422 C171.324386,24.8017549 172.469069,24.5097656 173.772461,24.5097656 C175.625986,24.5097656 177.138829,25.0768172 178.311035,26.2109375 C179.483242,27.3450578 180.137044,28.8854069 180.272461,30.8320312 L180.297852,31.7714844 C180.297852,33.8789168 179.709641,35.5694923 178.533203,36.8432617 C177.356765,38.1170311 175.77833,38.7539062 173.797852,38.7539062 C171.817373,38.7539062 170.236822,38.119147 169.056152,36.8496094 C167.875482,35.5800718 167.285156,33.8535265 167.285156,31.6699219 L167.285156,31.5048828 Z M170.954102,31.7714844 C170.954102,33.0748763 171.199542,34.0714484 171.69043,34.7612305 C172.181318,35.4510126 172.883784,35.7958984 173.797852,35.7958984 C174.686528,35.7958984 175.380531,35.4552443 175.879883,34.7739258 C176.379234,34.0926073 176.628906,33.0029372 176.628906,31.5048828 C176.628906,30.2268816 176.379234,29.2366572 175.879883,28.5341797 C175.380531,27.8317022 174.678064,27.4804688 173.772461,27.4804688 C172.875321,27.4804688 172.181318,27.8295864 171.69043,28.527832 C171.199542,29.2260777 170.954102,30.3072843 170.954102,31.7714844 Z M194.922852,31.7587891 C194.922852,33.8746851 194.44255,35.5694923 193.481934,36.8432617 C192.521317,38.1170311 191.224292,38.7539062 189.59082,38.7539062 C188.202793,38.7539062 187.081384,38.2714892 186.226562,37.3066406 L186.226562,43.78125 L182.557617,43.78125 L182.557617,24.7636719 L185.959961,24.7636719 L186.086914,26.109375 C186.97559,25.0429634 188.135084,24.5097656 189.56543,24.5097656 C191.258146,24.5097656 192.574214,25.1360614 193.513672,26.3886719 C194.45313,27.6412823 194.922852,29.3678275 194.922852,31.5683594 L194.922852,31.7587891 Z M191.253906,31.4921875 C191.253906,30.2141863 191.027509,29.2281936 190.574707,28.5341797 C190.121905,27.8401658 189.463872,27.4931641 188.600586,27.4931641 C187.449539,27.4931641 186.658205,27.9332638 186.226562,28.8134766 L186.226562,34.4375 C186.675132,35.3431035 187.474929,35.7958984 188.625977,35.7958984 C190.377938,35.7958984 191.253906,34.3613425 191.253906,31.4921875 Z M196.624023,31.5048828 C196.624023,30.1422458 196.886391,28.9277397 197.411133,27.8613281 C197.935875,26.7949165 198.691239,25.9697295 199.677246,25.3857422 C200.663254,24.8017549 201.807936,24.5097656 203.111328,24.5097656 C204.964853,24.5097656 206.477696,25.0768172 207.649902,26.2109375 C208.822109,27.3450578 209.475911,28.8854069 209.611328,30.8320312 L209.636719,31.7714844 C209.636719,33.8789168 209.048508,35.5694923 207.87207,36.8432617 C206.695632,38.1170311 205.117197,38.7539062 203.136719,38.7539062 C201.15624,38.7539062 199.575689,38.119147 198.39502,36.8496094 C197.21435,35.5800718 196.624023,33.8535265 196.624023,31.6699219 L196.624023,31.5048828 Z M200.292969,31.7714844 C200.292969,33.0748763 200.538409,34.0714484 201.029297,34.7612305 C201.520185,35.4510126 202.222652,35.7958984 203.136719,35.7958984 C204.025395,35.7958984 204.719399,35.4552443 205.21875,34.7739258 C205.718101,34.0926073 205.967773,33.0029372 205.967773,31.5048828 C205.967773,30.2268816 205.718101,29.2366572 205.21875,28.5341797 C204.719399,27.8317022 204.016932,27.4804688 203.111328,27.4804688 C202.214188,27.4804688 201.520185,27.8295864 201.029297,28.527832 C200.538409,29.2260777 200.292969,30.3072843 200.292969,31.7714844 Z M215.768555,38.5 L212.086914,38.5 L212.086914,19 L215.768555,19 L215.768555,38.5 Z M222.662109,38.5 L218.980469,38.5 L218.980469,24.7636719 L222.662109,24.7636719 L222.662109,38.5 Z M218.764648,21.2089844 C218.764648,20.6588514 218.948729,20.2060565 219.316895,19.8505859 C219.68506,19.4951154 220.18652,19.3173828 220.821289,19.3173828 C221.447594,19.3173828 221.946938,19.4951154 222.319336,19.8505859 C222.691734,20.2060565 222.87793,20.6588514 222.87793,21.2089844 C222.87793,21.7675809 222.689618,22.2246076 222.312988,22.5800781 C221.936359,22.9355487 221.439131,23.1132812 220.821289,23.1132812 C220.203447,23.1132812 219.706219,22.9355487 219.32959,22.5800781 C218.95296,22.2246076 218.764648,21.7675809 218.764648,21.2089844 Z M230.076172,21.3867188 L230.076172,24.7636719 L232.424805,24.7636719 L232.424805,27.4550781 L230.076172,27.4550781 L230.076172,34.3105469 C230.076172,34.8183619 230.173502,35.1822906 230.368164,35.4023438 C230.562826,35.6223969 230.935219,35.7324219 231.485352,35.7324219 C231.891604,35.7324219 232.251301,35.7027998 232.564453,35.6435547 L232.564453,38.4238281 C231.845048,38.6438813 231.104496,38.7539062 230.342773,38.7539062 C227.769844,38.7539062 226.458008,37.4547656 226.407227,34.8564453 L226.407227,27.4550781 L224.401367,27.4550781 L224.401367,24.7636719 L226.407227,24.7636719 L226.407227,21.3867188 L230.076172,21.3867188 Z M242.428711,38.5 C242.259439,38.1699202 242.136719,37.7594426 242.060547,37.2685547 C241.171871,38.258794 240.016609,38.7539062 238.594727,38.7539062 C237.249017,38.7539062 236.133956,38.3645872 235.249512,37.5859375 C234.365067,36.8072878 233.922852,35.8255268 233.922852,34.640625 C233.922852,33.1848886 234.462397,32.0677122 235.541504,31.2890625 C236.620611,30.5104128 238.180003,30.116862 240.219727,30.1083984 L241.908203,30.1083984 L241.908203,29.3212891 C241.908203,28.6865203 241.745282,28.1787128 241.419434,27.7978516 C241.093586,27.4169903 240.579431,27.2265625 239.876953,27.2265625 C239.259111,27.2265625 238.774579,27.374673 238.42334,27.6708984 C238.072101,27.9671239 237.896484,28.3733698 237.896484,28.8896484 L234.227539,28.8896484 C234.227539,28.0940715 234.472979,27.3577508 234.963867,26.6806641 C235.454755,26.0035773 236.148759,25.4724954 237.045898,25.0874023 C237.943038,24.7023093 238.95019,24.5097656 240.067383,24.5097656 C241.7601,24.5097656 243.103673,24.9350543 244.098145,25.7856445 C245.092616,26.6362347 245.589844,27.831698 245.589844,29.3720703 L245.589844,35.3261719 C245.598307,36.6295638 245.780272,37.6155566 246.135742,38.2841797 L246.135742,38.5 L242.428711,38.5 Z M239.394531,35.9482422 C239.936201,35.9482422 240.435545,35.8276379 240.892578,35.5864258 C241.349612,35.3452136 241.68815,35.0214864 241.908203,34.6152344 L241.908203,32.2539062 L240.537109,32.2539062 C238.700512,32.2539062 237.722982,32.8886655 237.604492,34.1582031 L237.591797,34.3740234 C237.591797,34.831057 237.752603,35.2076808 238.074219,35.5039062 C238.395835,35.8001317 238.835935,35.9482422 239.394531,35.9482422 Z M251.785156,24.7636719 L251.899414,26.3505859 C252.88119,25.1233663 254.197257,24.5097656 255.847656,24.5097656 C257.303393,24.5097656 258.386715,24.9371702 259.097656,25.7919922 C259.808597,26.6468142 260.172526,27.9247962 260.189453,29.6259766 L260.189453,38.5 L256.520508,38.5 L256.520508,29.7148438 C256.520508,28.936194 256.351239,28.3712583 256.012695,28.0200195 C255.674152,27.6687808 255.111332,27.4931641 254.324219,27.4931641 C253.291662,27.4931641 252.517255,27.9332638 252.000977,28.8134766 L252.000977,38.5 L248.332031,38.5 L248.332031,24.7636719 L251.785156,24.7636719 Z M170.700195,65.5 L170.700195,47.015625 L176.387695,47.015625 C178.012703,47.015625 179.466302,47.3816695 180.748535,48.1137695 C182.030768,48.8458695 183.031572,49.8868748 183.750977,51.2368164 C184.470381,52.5867581 184.830078,54.1207596 184.830078,55.8388672 L184.830078,56.6894531 C184.830078,58.4075607 184.476729,59.9352147 183.77002,61.2724609 C183.06331,62.6097072 182.066738,63.6464807 180.780273,64.3828125 C179.493809,65.1191443 178.042326,65.4915364 176.425781,65.5 L170.700195,65.5 Z M174.508789,50.1005859 L174.508789,62.4404297 L176.349609,62.4404297 C177.8392,62.4404297 178.977535,61.9537809 179.764648,60.9804688 C180.551762,60.0071566 180.953776,58.6149179 180.970703,56.8037109 L180.970703,55.8261719 C180.970703,53.9472562 180.581384,52.5232796 179.802734,51.5541992 C179.024085,50.5851189 177.88575,50.1005859 176.387695,50.1005859 L174.508789,50.1005859 Z M195.316406,65.5 C195.147135,65.1699202 195.024414,64.7594426 194.948242,64.2685547 C194.059566,65.258794 192.904304,65.7539062 191.482422,65.7539062 C190.136712,65.7539062 189.021652,65.3645872 188.137207,64.5859375 C187.252763,63.8072878 186.810547,62.8255268 186.810547,61.640625 C186.810547,60.1848886 187.350092,59.0677122 188.429199,58.2890625 C189.508306,57.5104128 191.067698,57.116862 193.107422,57.1083984 L194.795898,57.1083984 L194.795898,56.3212891 C194.795898,55.6865203 194.632977,55.1787128 194.307129,54.7978516 C193.981281,54.4169903 193.467126,54.2265625 192.764648,54.2265625 C192.146807,54.2265625 191.662274,54.374673 191.311035,54.6708984 C190.959796,54.9671239 190.78418,55.3733698 190.78418,55.8896484 L187.115234,55.8896484 C187.115234,55.0940715 187.360675,54.3577508 187.851562,53.6806641 C188.34245,53.0035773 189.036454,52.4724954 189.933594,52.0874023 C190.830734,51.7023093 191.837885,51.5097656 192.955078,51.5097656 C194.647795,51.5097656 195.991369,51.9350543 196.98584,52.7856445 C197.980311,53.6362347 198.477539,54.831698 198.477539,56.3720703 L198.477539,62.3261719 C198.486003,63.6295638 198.667967,64.6155566 199.023438,65.2841797 L199.023438,65.5 L195.316406,65.5 Z M192.282227,62.9482422 C192.823896,62.9482422 193.32324,62.8276379 193.780273,62.5864258 C194.237307,62.3452136 194.575845,62.0214864 194.795898,61.6152344 L194.795898,59.2539062 L193.424805,59.2539062 C191.588207,59.2539062 190.610678,59.8886655 190.492188,61.1582031 L190.479492,61.3740234 C190.479492,61.831057 190.640298,62.2076808 190.961914,62.5039062 C191.28353,62.8001317 191.72363,62.9482422 192.282227,62.9482422 Z M205.167969,65.5 L201.486328,65.5 L201.486328,46 L205.167969,46 L205.167969,65.5 Z M212.582031,48.3867188 L212.582031,51.7636719 L214.930664,51.7636719 L214.930664,54.4550781 L212.582031,54.4550781 L212.582031,61.3105469 C212.582031,61.8183619 212.679361,62.1822906 212.874023,62.4023438 C213.068686,62.6223969 213.441078,62.7324219 213.991211,62.7324219 C214.397463,62.7324219 214.75716,62.7027998 215.070312,62.6435547 L215.070312,65.4238281 C214.350908,65.6438813 213.610355,65.7539062 212.848633,65.7539062 C210.275703,65.7539062 208.963867,64.4547656 208.913086,61.8564453 L208.913086,54.4550781 L206.907227,54.4550781 L206.907227,51.7636719 L208.913086,51.7636719 L208.913086,48.3867188 L212.582031,48.3867188 Z M221.367188,48.3867188 L221.367188,51.7636719 L223.71582,51.7636719 L223.71582,54.4550781 L221.367188,54.4550781 L221.367188,61.3105469 C221.367188,61.8183619 221.464517,62.1822906 221.65918,62.4023438 C221.853842,62.6223969 222.226234,62.7324219 222.776367,62.7324219 C223.182619,62.7324219 223.542316,62.7027998 223.855469,62.6435547 L223.855469,65.4238281 C223.136064,65.6438813 222.395512,65.7539062 221.633789,65.7539062 C219.06086,65.7539062 217.749024,64.4547656 217.698242,61.8564453 L217.698242,54.4550781 L215.692383,54.4550781 L215.692383,51.7636719 L217.698242,51.7636719 L217.698242,48.3867188 L221.367188,48.3867188 Z M225.188477,58.5048828 C225.188477,57.1422458 225.450844,55.9277397 225.975586,54.8613281 C226.500328,53.7949165 227.255692,52.9697295 228.241699,52.3857422 C229.227707,51.8017549 230.372389,51.5097656 231.675781,51.5097656 C233.529306,51.5097656 235.042149,52.0768172 236.214355,53.2109375 C237.386562,54.3450578 238.040364,55.8854069 238.175781,57.8320312 L238.201172,58.7714844 C238.201172,60.8789168 237.612962,62.5694923 236.436523,63.8432617 C235.260085,65.1170311 233.681651,65.7539062 231.701172,65.7539062 C229.720693,65.7539062 228.140143,65.119147 226.959473,63.8496094 C225.778803,62.5800718 225.188477,60.8535265 225.188477,58.6699219 L225.188477,58.5048828 Z M228.857422,58.7714844 C228.857422,60.0748763 229.102862,61.0714484 229.59375,61.7612305 C230.084638,62.4510126 230.787105,62.7958984 231.701172,62.7958984 C232.589848,62.7958984 233.283852,62.4552443 233.783203,61.7739258 C234.282555,61.0926073 234.532227,60.0029372 234.532227,58.5048828 C234.532227,57.2268816 234.282555,56.2366572 233.783203,55.5341797 C233.283852,54.8317022 232.581385,54.4804688 231.675781,54.4804688 C230.778641,54.4804688 230.084638,54.8295864 229.59375,55.527832 C229.102862,56.2260777 228.857422,57.3072843 228.857422,58.7714844 Z M243.901367,51.7636719 L244.015625,53.2998047 C244.988937,52.1064393 246.305005,51.5097656 247.963867,51.5097656 C249.732756,51.5097656 250.947262,52.2080008 251.607422,53.6044922 C252.57227,52.2080008 253.947582,51.5097656 255.733398,51.5097656 C257.222989,51.5097656 258.331702,51.9435178 259.05957,52.8110352 C259.787439,53.6785525 260.151367,54.9840408 260.151367,56.7275391 L260.151367,65.5 L256.469727,65.5 L256.469727,56.7402344 C256.469727,55.9615846 256.317384,55.3924172 256.012695,55.0327148 C255.708006,54.6730125 255.170577,54.4931641 254.400391,54.4931641 C253.300125,54.4931641 252.538414,55.0178984 252.115234,56.0673828 L252.12793,65.5 L248.458984,65.5 L248.458984,56.7529297 C248.458984,55.9573528 248.30241,55.3818377 247.989258,55.0263672 C247.676105,54.6708967 247.142907,54.4931641 246.389648,54.4931641 C245.348628,54.4931641 244.59538,54.9248004 244.129883,55.7880859 L244.129883,65.5 L240.460938,65.5 L240.460938,51.7636719 L243.901367,51.7636719 Z" id="Metropolitan-Dalttom" fill="#773919"></path>
                <path d="M134.223633,86.7451172 L134.223633,91.5 L132,91.5 L132,78.703125 L136.895508,78.703125 C138.325202,78.703125 139.460445,79.0751916 140.30127,79.8193359 C141.142094,80.5634803 141.5625,81.5478454 141.5625,82.7724609 C141.5625,84.0263735 141.150883,85.0019496 140.327637,85.6992188 C139.50439,86.3964879 138.35157,86.7451172 136.869141,86.7451172 L134.223633,86.7451172 Z M134.223633,84.9609375 L136.895508,84.9609375 C137.686527,84.9609375 138.290037,84.7749042 138.706055,84.402832 C139.122072,84.0307599 139.330078,83.4931676 139.330078,82.7900391 C139.330078,82.0986294 139.119143,81.5463888 138.697266,81.1333008 C138.275389,80.7202128 137.695316,80.5078126 136.957031,80.4960938 L134.223633,80.4960938 L134.223633,84.9609375 Z M145.40332,83.0273438 C146.100589,82.218746 146.982417,81.8144531 148.048828,81.8144531 C150.076182,81.8144531 151.104492,82.9716681 151.133789,85.2861328 L151.133789,91.5 L148.998047,91.5 L148.998047,85.3652344 C148.998047,84.7089811 148.855958,84.2446303 148.571777,83.972168 C148.287596,83.6997057 147.87012,83.5634766 147.319336,83.5634766 C146.463863,83.5634766 145.825197,83.9443321 145.40332,84.7060547 L145.40332,91.5 L143.267578,91.5 L143.267578,78 L145.40332,78 L145.40332,83.0273438 Z M156.618164,88.4414062 L158.551758,81.9902344 L160.828125,81.9902344 L157.048828,92.9414062 C156.468747,94.5410236 155.484382,95.3408203 154.095703,95.3408203 C153.785155,95.3408203 153.442385,95.2880865 153.067383,95.1826172 L153.067383,93.5302734 L153.47168,93.5566406 C154.010745,93.5566406 154.416503,93.4584971 154.688965,93.262207 C154.961427,93.065917 155.176757,92.7363304 155.334961,92.2734375 L155.642578,91.4560547 L152.302734,81.9902344 L154.605469,81.9902344 L156.618164,88.4414062 Z M164.326172,91.5 L162.19043,91.5 L162.19043,78 L164.326172,78 L164.326172,91.5 Z M168.922852,91.5 L166.787109,91.5 L166.787109,78 L168.922852,78 L168.922852,91.5 Z M173.519531,91.5 L171.383789,91.5 L171.383789,81.9902344 L173.519531,81.9902344 L173.519531,91.5 Z M171.251953,79.5205078 C171.251953,79.1923812 171.355956,78.919923 171.563965,78.703125 C171.771974,78.486327 172.069334,78.3779297 172.456055,78.3779297 C172.842775,78.3779297 173.141601,78.486327 173.352539,78.703125 C173.563478,78.919923 173.668945,79.1923812 173.668945,79.5205078 C173.668945,79.842775 173.563478,80.1108388 173.352539,80.324707 C173.141601,80.5385753 172.842775,80.6455078 172.456055,80.6455078 C172.069334,80.6455078 171.771974,80.5385753 171.563965,80.324707 C171.355956,80.1108388 171.251953,79.842775 171.251953,79.5205078 Z M181.174805,88.9160156 C181.174805,88.5351543 181.018068,88.2451182 180.70459,88.0458984 C180.391112,87.8466787 179.871097,87.6708992 179.144531,87.5185547 C178.417965,87.3662102 177.811526,87.1728527 177.325195,86.9384766 C176.258784,86.422849 175.725586,85.6757861 175.725586,84.6972656 C175.725586,83.876949 176.071286,83.191409 176.762695,82.640625 C177.454105,82.089841 178.333002,81.8144531 179.399414,81.8144531 C180.536138,81.8144531 181.454586,82.0957003 182.154785,82.6582031 C182.854984,83.2207059 183.205078,83.9501908 183.205078,84.8466797 L181.069336,84.8466797 C181.069336,84.4365214 180.916994,84.0952162 180.612305,83.8227539 C180.307616,83.5502916 179.903323,83.4140625 179.399414,83.4140625 C178.930662,83.4140625 178.548341,83.5224599 178.252441,83.7392578 C177.956541,83.9560558 177.808594,84.2460919 177.808594,84.609375 C177.808594,84.9375016 177.946288,85.1923819 178.22168,85.3740234 C178.497072,85.555665 179.053707,85.7387686 179.891602,85.9233398 C180.729496,86.1079111 181.387205,86.3276354 181.864746,86.5825195 C182.342288,86.8374036 182.696776,87.1435529 182.928223,87.5009766 C183.159669,87.8584002 183.275391,88.2919896 183.275391,88.8017578 C183.275391,89.6572308 182.920902,90.350095 182.211914,90.8803711 C181.502926,91.4106472 180.574224,91.6757812 179.425781,91.6757812 C178.64648,91.6757812 177.952151,91.5351577 177.342773,91.2539062 C176.733395,90.9726548 176.258791,90.58594 175.918945,90.09375 C175.5791,89.60156 175.40918,89.0712919 175.40918,88.5029297 L177.483398,88.5029297 C177.512695,89.0068385 177.703123,89.3950182 178.054688,89.6674805 C178.406252,89.9399428 178.872067,90.0761719 179.452148,90.0761719 C180.014651,90.0761719 180.442381,89.9692394 180.735352,89.7553711 C181.028322,89.5415028 181.174805,89.2617205 181.174805,88.9160156 Z M192.046875,86.7451172 L192.046875,91.5 L189.823242,91.5 L189.823242,78.703125 L194.71875,78.703125 C196.148445,78.703125 197.283687,79.0751916 198.124512,79.8193359 C198.965336,80.5634803 199.385742,81.5478454 199.385742,82.7724609 C199.385742,84.0263735 198.974125,85.0019496 198.150879,85.6992188 C197.327633,86.3964879 196.174812,86.7451172 194.692383,86.7451172 L192.046875,86.7451172 Z M192.046875,84.9609375 L194.71875,84.9609375 C195.50977,84.9609375 196.113279,84.7749042 196.529297,84.402832 C196.945315,84.0307599 197.15332,83.4931676 197.15332,82.7900391 C197.15332,82.0986294 196.942385,81.5463888 196.520508,81.1333008 C196.098631,80.7202128 195.518558,80.5078126 194.780273,80.4960938 L192.046875,80.4960938 L192.046875,84.9609375 Z M205.30957,91.6757812 C203.956048,91.6757812 202.858891,91.249516 202.018066,90.3969727 C201.177242,89.5444293 200.756836,88.4091868 200.756836,86.9912109 L200.756836,86.7275391 C200.756836,85.7783156 200.93994,84.9301795 201.306152,84.1831055 C201.672365,83.4360314 202.18652,82.8544943 202.848633,82.4384766 C203.510745,82.0224589 204.249019,81.8144531 205.063477,81.8144531 C206.358405,81.8144531 207.358883,82.2275349 208.064941,83.0537109 C208.771,83.8798869 209.124023,85.0488206 209.124023,86.5605469 L209.124023,87.421875 L202.910156,87.421875 C202.97461,88.2070352 203.236814,88.8281227 203.696777,89.2851562 C204.156741,89.7421898 204.735348,89.9707031 205.432617,89.9707031 C206.411138,89.9707031 207.208005,89.5751993 207.823242,88.7841797 L208.974609,89.8828125 C208.593748,90.4511747 208.085452,90.8920883 207.449707,91.2055664 C206.813962,91.5190445 206.10059,91.6757812 205.30957,91.6757812 Z M205.054688,83.5283203 C204.468747,83.5283203 203.995607,83.7333964 203.635254,84.1435547 C203.274901,84.553713 203.044922,85.1249963 202.945312,85.8574219 L207.014648,85.8574219 L207.014648,85.6992188 C206.967773,84.9843714 206.777345,84.4438495 206.443359,84.0776367 C206.109373,83.711424 205.646487,83.5283203 205.054688,83.5283203 Z M213.457031,79.6787109 L213.457031,81.9902344 L215.135742,81.9902344 L215.135742,83.5722656 L213.457031,83.5722656 L213.457031,88.8808594 C213.457031,89.2441424 213.528808,89.5063469 213.672363,89.6674805 C213.815919,89.8286141 214.072264,89.9091797 214.441406,89.9091797 C214.687501,89.9091797 214.936522,89.8798831 215.188477,89.8212891 L215.188477,91.4736328 C214.702146,91.6083991 214.233401,91.6757812 213.782227,91.6757812 C212.141593,91.6757812 211.321289,90.7705169 211.321289,88.9599609 L211.321289,83.5722656 L209.756836,83.5722656 L209.756836,81.9902344 L211.321289,81.9902344 L211.321289,79.6787109 L213.457031,79.6787109 Z M220.954102,91.6757812 C219.600579,91.6757812 218.503422,91.249516 217.662598,90.3969727 C216.821773,89.5444293 216.401367,88.4091868 216.401367,86.9912109 L216.401367,86.7275391 C216.401367,85.7783156 216.584471,84.9301795 216.950684,84.1831055 C217.316896,83.4360314 217.831051,82.8544943 218.493164,82.4384766 C219.155277,82.0224589 219.893551,81.8144531 220.708008,81.8144531 C222.002936,81.8144531 223.003414,82.2275349 223.709473,83.0537109 C224.415531,83.8798869 224.768555,85.0488206 224.768555,86.5605469 L224.768555,87.421875 L218.554688,87.421875 C218.619141,88.2070352 218.881345,88.8281227 219.341309,89.2851562 C219.801272,89.7421898 220.379879,89.9707031 221.077148,89.9707031 C222.055669,89.9707031 222.852536,89.5751993 223.467773,88.7841797 L224.619141,89.8828125 C224.238279,90.4511747 223.729984,90.8920883 223.094238,91.2055664 C222.458493,91.5190445 221.745121,91.6757812 220.954102,91.6757812 Z M220.699219,83.5283203 C220.113278,83.5283203 219.640139,83.7333964 219.279785,84.1435547 C218.919432,84.553713 218.689454,85.1249963 218.589844,85.8574219 L222.65918,85.8574219 L222.65918,85.6992188 C222.612304,84.9843714 222.421877,84.4438495 222.087891,84.0776367 C221.753905,83.711424 221.291019,83.5283203 220.699219,83.5283203 Z M231.404297,83.9414062 C231.123045,83.894531 230.833009,83.8710938 230.53418,83.8710938 C229.555659,83.8710938 228.896486,84.24609 228.556641,84.9960938 L228.556641,91.5 L226.420898,91.5 L226.420898,81.9902344 L228.459961,81.9902344 L228.512695,83.0537109 C229.028323,82.2275349 229.743159,81.8144531 230.657227,81.8144531 C230.961916,81.8144531 231.213866,81.8554683 231.413086,81.9375 L231.404297,83.9414062 Z M238.083984,88.9160156 C238.083984,88.5351543 237.927248,88.2451182 237.61377,88.0458984 C237.300291,87.8466787 236.780277,87.6708992 236.053711,87.5185547 C235.327145,87.3662102 234.720706,87.1728527 234.234375,86.9384766 C233.167963,86.422849 232.634766,85.6757861 232.634766,84.6972656 C232.634766,83.876949 232.980465,83.191409 233.671875,82.640625 C234.363285,82.089841 235.242182,81.8144531 236.308594,81.8144531 C237.445318,81.8144531 238.363766,82.0957003 239.063965,82.6582031 C239.764164,83.2207059 240.114258,83.9501908 240.114258,84.8466797 L237.978516,84.8466797 C237.978516,84.4365214 237.826173,84.0952162 237.521484,83.8227539 C237.216795,83.5502916 236.812503,83.4140625 236.308594,83.4140625 C235.839841,83.4140625 235.457521,83.5224599 235.161621,83.7392578 C234.865721,83.9560558 234.717773,84.2460919 234.717773,84.609375 C234.717773,84.9375016 234.855467,85.1923819 235.130859,85.3740234 C235.406251,85.555665 235.962886,85.7387686 236.800781,85.9233398 C237.638676,86.1079111 238.296384,86.3276354 238.773926,86.5825195 C239.251467,86.8374036 239.605956,87.1435529 239.837402,87.5009766 C240.068849,87.8584002 240.18457,88.2919896 240.18457,88.8017578 C240.18457,89.6572308 239.830082,90.350095 239.121094,90.8803711 C238.412106,91.4106472 237.483404,91.6757812 236.334961,91.6757812 C235.55566,91.6757812 234.861331,91.5351577 234.251953,91.2539062 C233.642575,90.9726548 233.16797,90.58594 232.828125,90.09375 C232.48828,89.60156 232.318359,89.0712919 232.318359,88.5029297 L234.392578,88.5029297 C234.421875,89.0068385 234.612303,89.3950182 234.963867,89.6674805 C235.315431,89.9399428 235.781247,90.0761719 236.361328,90.0761719 C236.923831,90.0761719 237.351561,89.9692394 237.644531,89.7553711 C237.937501,89.5415028 238.083984,89.2617205 238.083984,88.9160156 Z M241.643555,86.6572266 C241.643555,85.7255813 241.828123,84.8862342 242.197266,84.1391602 C242.566408,83.3920861 243.084958,82.8178731 243.75293,82.4165039 C244.420902,82.0151347 245.188472,81.8144531 246.055664,81.8144531 C247.338874,81.8144531 248.380367,82.2275349 249.180176,83.0537109 C249.979984,83.8798869 250.412109,84.9755791 250.476562,86.3408203 L250.485352,86.8417969 C250.485352,87.7793016 250.305178,88.6171838 249.944824,89.3554688 C249.584471,90.0937537 249.068851,90.665037 248.397949,91.0693359 C247.727047,91.4736348 246.952153,91.6757812 246.073242,91.6757812 C244.731439,91.6757812 243.657719,91.2290084 242.852051,90.3354492 C242.046383,89.4418901 241.643555,88.250984 241.643555,86.7626953 L241.643555,86.6572266 Z M243.779297,86.8417969 C243.779297,87.8203174 243.981443,88.586423 244.385742,89.1401367 C244.790041,89.6938504 245.352535,89.9707031 246.073242,89.9707031 C246.793949,89.9707031 247.354978,89.6894559 247.756348,89.1269531 C248.157717,88.5644503 248.358398,87.7412164 248.358398,86.6572266 C248.358398,85.6962843 248.151858,84.9345731 247.73877,84.3720703 C247.325682,83.8095675 246.764652,83.5283203 246.055664,83.5283203 C245.358395,83.5283203 244.80469,83.805173 244.394531,84.3588867 C243.984373,84.9126004 243.779297,85.7402289 243.779297,86.8417969 Z M254.273438,81.9902344 L254.334961,83.0888672 C255.038089,82.2392536 255.960932,81.8144531 257.103516,81.8144531 C259.083994,81.8144531 260.091797,82.9482308 260.126953,85.2158203 L260.126953,91.5 L257.991211,91.5 L257.991211,85.3388672 C257.991211,84.7353485 257.860841,84.2885757 257.600098,83.9985352 C257.339354,83.7084946 256.913089,83.5634766 256.321289,83.5634766 C255.459957,83.5634766 254.818361,83.9531211 254.396484,84.7324219 L254.396484,91.5 L252.260742,91.5 L252.260742,81.9902344 L254.273438,81.9902344 Z" id="Phyllis-Peterson" fill="#000000"></path>
                <path d="M232.669434,104.602051 C232.669434,104.320799 232.570558,104.104005 232.372803,103.95166 C232.175048,103.799316 231.818362,103.645509 231.302734,103.490234 C230.787107,103.33496 230.376955,103.16211 230.072266,102.97168 C229.489255,102.605467 229.197754,102.127933 229.197754,101.539062 C229.197754,101.023435 229.407957,100.598634 229.828369,100.264648 C230.248781,99.9306624 230.79443,99.7636719 231.465332,99.7636719 C231.910647,99.7636719 232.307615,99.8457023 232.65625,100.009766 C233.004885,100.173829 233.278808,100.407469 233.478027,100.710693 C233.677247,101.013918 233.776855,101.350096 233.776855,101.719238 L232.669434,101.719238 C232.669434,101.385252 232.564698,101.12378 232.355225,100.934814 C232.145751,100.745849 231.846193,100.651367 231.456543,100.651367 C231.09326,100.651367 230.81128,100.729003 230.610596,100.884277 C230.409911,101.039552 230.30957,101.256346 230.30957,101.534668 C230.30957,101.769044 230.417968,101.964599 230.634766,102.121338 C230.851564,102.278077 231.208982,102.430419 231.707031,102.578369 C232.205081,102.726319 232.604979,102.894774 232.906738,103.08374 C233.208498,103.272706 233.429687,103.489501 233.570312,103.734131 C233.710938,103.978761 233.78125,104.265135 233.78125,104.593262 C233.78125,105.126468 233.576906,105.550536 233.168213,105.865479 C232.759519,106.180421 232.205082,106.337891 231.504883,106.337891 C231.04199,106.337891 230.616457,106.252198 230.228271,106.080811 C229.840086,105.909423 229.538331,105.672853 229.322998,105.371094 C229.107665,105.069334 229,104.717775 229,104.316406 L230.111816,104.316406 C230.111816,104.679689 230.231932,104.960937 230.472168,105.160156 C230.712404,105.359376 231.056638,105.458984 231.504883,105.458984 C231.891603,105.458984 232.182372,105.380616 232.377197,105.223877 C232.572022,105.067138 232.669434,104.859865 232.669434,104.602051 Z M235.991699,100.339355 L235.991699,101.495117 L236.831055,101.495117 L236.831055,102.286133 L235.991699,102.286133 L235.991699,104.94043 C235.991699,105.122071 236.027588,105.253173 236.099365,105.33374 C236.171143,105.414307 236.299315,105.45459 236.483887,105.45459 C236.606934,105.45459 236.731445,105.439942 236.857422,105.410645 L236.857422,106.236816 C236.614257,106.3042 236.379884,106.337891 236.154297,106.337891 C235.33398,106.337891 234.923828,105.885258 234.923828,104.97998 L234.923828,102.286133 L234.141602,102.286133 L234.141602,101.495117 L234.923828,101.495117 L234.923828,100.339355 L235.991699,100.339355 Z M240.526855,105.78418 C240.213377,106.153322 239.768069,106.337891 239.190918,106.337891 C238.67529,106.337891 238.284913,106.187013 238.019775,105.885254 C237.754637,105.583495 237.62207,105.146976 237.62207,104.575684 L237.62207,101.495117 L238.689941,101.495117 L238.689941,104.5625 C238.689941,105.166019 238.940427,105.467773 239.441406,105.467773 C239.959964,105.467773 240.310058,105.28174 240.491699,104.909668 L240.491699,101.495117 L241.55957,101.495117 L241.55957,106.25 L240.553223,106.25 L240.526855,105.78418 Z M242.447266,103.837402 C242.447266,103.104977 242.617186,102.516848 242.957031,102.072998 C243.296877,101.629148 243.752439,101.407227 244.32373,101.407227 C244.827639,101.407227 245.234862,101.583006 245.54541,101.93457 L245.54541,99.5 L246.613281,99.5 L246.613281,106.25 L245.646484,106.25 L245.59375,105.757812 C245.274412,106.144533 244.848147,106.337891 244.314941,106.337891 C243.758298,106.337891 243.307863,106.113772 242.963623,105.665527 C242.619383,105.217283 242.447266,104.607914 242.447266,103.837402 Z M243.515137,103.929688 C243.515137,104.413088 243.608153,104.790282 243.794189,105.061279 C243.980226,105.332277 244.244627,105.467773 244.587402,105.467773 C245.023928,105.467773 245.343261,105.272951 245.54541,104.883301 L245.54541,102.853027 C245.34912,102.472166 245.032717,102.281738 244.596191,102.281738 C244.250487,102.281738 243.983888,102.4187 243.796387,102.692627 C243.608886,102.966554 243.515137,103.378903 243.515137,103.929688 Z M249.821289,106.337891 C249.144528,106.337891 248.595949,106.124758 248.175537,105.698486 C247.755125,105.272215 247.544922,104.704593 247.544922,103.995605 L247.544922,103.86377 C247.544922,103.389158 247.636474,102.96509 247.81958,102.591553 C248.002686,102.218016 248.259764,101.927247 248.59082,101.719238 C248.921877,101.511229 249.291014,101.407227 249.698242,101.407227 C250.345706,101.407227 250.845946,101.613767 251.198975,102.026855 C251.552004,102.439943 251.728516,103.02441 251.728516,103.780273 L251.728516,104.210938 L248.621582,104.210938 C248.653809,104.603518 248.784911,104.914061 249.014893,105.142578 C249.244874,105.371095 249.534178,105.485352 249.882812,105.485352 C250.372073,105.485352 250.770506,105.2876 251.078125,104.89209 L251.653809,105.441406 C251.463378,105.725587 251.20923,105.946044 250.891357,106.102783 C250.573485,106.259522 250.216799,106.337891 249.821289,106.337891 Z M249.693848,102.26416 C249.400877,102.26416 249.164308,102.366698 248.984131,102.571777 C248.803954,102.776856 248.688965,103.062498 248.63916,103.428711 L250.673828,103.428711 L250.673828,103.349609 C250.650391,102.992186 250.555177,102.721925 250.388184,102.538818 C250.221191,102.355712 249.989748,102.26416 249.693848,102.26416 Z M253.547852,101.495117 L253.578613,102.044434 C253.930178,101.619627 254.391599,101.407227 254.962891,101.407227 C255.95313,101.407227 256.457031,101.974115 256.474609,103.10791 L256.474609,106.25 L255.406738,106.25 L255.406738,103.169434 C255.406738,102.867674 255.341553,102.644288 255.211182,102.499268 C255.08081,102.354247 254.867677,102.281738 254.571777,102.281738 C254.141111,102.281738 253.820314,102.476561 253.609375,102.866211 L253.609375,106.25 L252.541504,106.25 L252.541504,101.495117 L253.547852,101.495117 Z M258.900391,100.339355 L258.900391,101.495117 L259.739746,101.495117 L259.739746,102.286133 L258.900391,102.286133 L258.900391,104.94043 C258.900391,105.122071 258.936279,105.253173 259.008057,105.33374 C259.079834,105.414307 259.208007,105.45459 259.392578,105.45459 C259.515626,105.45459 259.640136,105.439942 259.766113,105.410645 L259.766113,106.236816 C259.522948,106.3042 259.288575,106.337891 259.062988,106.337891 C258.242672,106.337891 257.83252,105.885258 257.83252,104.97998 L257.83252,102.286133 L257.050293,102.286133 L257.050293,101.495117 L257.83252,101.495117 L257.83252,100.339355 L258.900391,100.339355 Z" id="Student" fill="#000000"></path>
                <path d="M141.089844,117.808594 L139.988281,117.808594 L139.988281,120 L139,120 L139,114.3125 L141,114.3125 C141.656253,114.3125 142.162759,114.459634 142.519531,114.753906 C142.876304,115.048179 143.054688,115.473956 143.054688,116.03125 C143.054688,116.41146 142.962892,116.729816 142.779297,116.986328 C142.595702,117.24284 142.339845,117.440103 142.011719,117.578125 L143.289062,119.949219 L143.289062,120 L142.230469,120 L141.089844,117.808594 Z M139.988281,117.015625 L141.003906,117.015625 C141.337241,117.015625 141.597655,116.931641 141.785156,116.763672 C141.972657,116.595702 142.066406,116.365887 142.066406,116.074219 C142.066406,115.76953 141.979819,115.533855 141.806641,115.367188 C141.633463,115.20052 141.375002,115.114583 141.03125,115.109375 L139.988281,115.109375 L139.988281,117.015625 Z M145.761719,120.078125 C145.160153,120.078125 144.672528,119.888674 144.298828,119.509766 C143.925128,119.130857 143.738281,118.626305 143.738281,117.996094 L143.738281,117.878906 C143.738281,117.457029 143.819661,117.08008 143.982422,116.748047 C144.145183,116.416014 144.373696,116.157553 144.667969,115.972656 C144.962241,115.787759 145.290363,115.695312 145.652344,115.695312 C146.227867,115.695312 146.672524,115.878904 146.986328,116.246094 C147.300132,116.613283 147.457031,117.132809 147.457031,117.804688 L147.457031,118.1875 L144.695312,118.1875 C144.723958,118.53646 144.840494,118.812499 145.044922,119.015625 C145.24935,119.218751 145.506509,119.320312 145.816406,119.320312 C146.251304,119.320312 146.605467,119.144533 146.878906,118.792969 L147.390625,119.28125 C147.221353,119.533855 146.995444,119.729817 146.712891,119.869141 C146.430337,120.008464 146.113283,120.078125 145.761719,120.078125 Z M145.648438,116.457031 C145.38802,116.457031 145.177735,116.548176 145.017578,116.730469 C144.857421,116.912761 144.755209,117.166665 144.710938,117.492188 L146.519531,117.492188 L146.519531,117.421875 C146.498698,117.104165 146.414063,116.863933 146.265625,116.701172 C146.117187,116.538411 145.91146,116.457031 145.648438,116.457031 Z M149.074219,115.773438 L149.101562,116.261719 C149.414064,115.884113 149.824216,115.695312 150.332031,115.695312 C151.212244,115.695312 151.660156,116.199214 151.675781,117.207031 L151.675781,120 L150.726562,120 L150.726562,117.261719 C150.726562,116.993488 150.66862,116.794923 150.552734,116.666016 C150.436848,116.537109 150.247397,116.472656 149.984375,116.472656 C149.601561,116.472656 149.316407,116.645832 149.128906,116.992188 L149.128906,120 L148.179688,120 L148.179688,115.773438 L149.074219,115.773438 Z M154.503906,120.078125 C153.902341,120.078125 153.414715,119.888674 153.041016,119.509766 C152.667316,119.130857 152.480469,118.626305 152.480469,117.996094 L152.480469,117.878906 C152.480469,117.457029 152.561848,117.08008 152.724609,116.748047 C152.887371,116.416014 153.115884,116.157553 153.410156,115.972656 C153.704429,115.787759 154.03255,115.695312 154.394531,115.695312 C154.970055,115.695312 155.414712,115.878904 155.728516,116.246094 C156.042319,116.613283 156.199219,117.132809 156.199219,117.804688 L156.199219,118.1875 L153.4375,118.1875 C153.466146,118.53646 153.582681,118.812499 153.787109,119.015625 C153.991537,119.218751 154.248696,119.320312 154.558594,119.320312 C154.993492,119.320312 155.347655,119.144533 155.621094,118.792969 L156.132812,119.28125 C155.963541,119.533855 155.737632,119.729817 155.455078,119.869141 C155.172525,120.008464 154.855471,120.078125 154.503906,120.078125 Z M154.390625,116.457031 C154.130207,116.457031 153.919923,116.548176 153.759766,116.730469 C153.599609,116.912761 153.497396,117.166665 153.453125,117.492188 L155.261719,117.492188 L155.261719,117.421875 C155.240885,117.104165 155.156251,116.863933 155.007812,116.701172 C154.859374,116.538411 154.653647,116.457031 154.390625,116.457031 Z M160.648438,118.691406 L161.320312,115.773438 L162.246094,115.773438 L161.09375,120 L160.3125,120 L159.40625,117.097656 L158.515625,120 L157.734375,120 L156.578125,115.773438 L157.503906,115.773438 L158.1875,118.660156 L159.054688,115.773438 L159.769531,115.773438 L160.648438,118.691406 Z M165.40625,120 C165.364583,119.91927 165.328125,119.787761 165.296875,119.605469 C164.99479,119.920574 164.625002,120.078125 164.1875,120.078125 C163.763019,120.078125 163.416668,119.957032 163.148438,119.714844 C162.880207,119.472655 162.746094,119.173179 162.746094,118.816406 C162.746094,118.365883 162.91341,118.020183 163.248047,117.779297 C163.582684,117.53841 164.061195,117.417969 164.683594,117.417969 L165.265625,117.417969 L165.265625,117.140625 C165.265625,116.921874 165.204428,116.746745 165.082031,116.615234 C164.959635,116.483723 164.773439,116.417969 164.523438,116.417969 C164.307291,116.417969 164.130209,116.472005 163.992188,116.580078 C163.854166,116.688152 163.785156,116.82552 163.785156,116.992188 L162.835938,116.992188 C162.835938,116.760416 162.91276,116.543621 163.066406,116.341797 C163.220053,116.139973 163.429035,115.981771 163.693359,115.867188 C163.957684,115.752604 164.252603,115.695312 164.578125,115.695312 C165.072919,115.695312 165.467446,115.81966 165.761719,116.068359 C166.055991,116.317059 166.207031,116.666664 166.214844,117.117188 L166.214844,119.023438 C166.214844,119.403648 166.268229,119.70703 166.375,119.933594 L166.375,120 L165.40625,120 Z M164.363281,119.316406 C164.550782,119.316406 164.727213,119.270834 164.892578,119.179688 C165.057944,119.088541 165.182291,118.966147 165.265625,118.8125 L165.265625,118.015625 L164.753906,118.015625 C164.402342,118.015625 164.138022,118.076822 163.960938,118.199219 C163.783853,118.321615 163.695312,118.494791 163.695312,118.71875 C163.695312,118.901043 163.755859,119.046223 163.876953,119.154297 C163.998047,119.26237 164.160155,119.316406 164.363281,119.316406 Z M168.21875,120 L167.269531,120 L167.269531,114 L168.21875,114 L168.21875,120 Z M171.066406,117.855469 C171.066406,117.204424 171.217446,116.681643 171.519531,116.287109 C171.821616,115.892576 172.22656,115.695312 172.734375,115.695312 C173.182294,115.695312 173.544269,115.851561 173.820312,116.164062 L173.820312,114 L174.769531,114 L174.769531,120 L173.910156,120 L173.863281,119.5625 C173.579426,119.906252 173.200523,120.078125 172.726562,120.078125 C172.231768,120.078125 171.831382,119.878908 171.525391,119.480469 C171.2194,119.082029 171.066406,118.540368 171.066406,117.855469 Z M172.015625,117.9375 C172.015625,118.36719 172.098306,118.702473 172.263672,118.943359 C172.429037,119.184246 172.664061,119.304688 172.96875,119.304688 C173.356773,119.304688 173.640624,119.131512 173.820312,118.785156 L173.820312,116.980469 C173.645832,116.641925 173.364585,116.472656 172.976562,116.472656 C172.669269,116.472656 172.432293,116.5944 172.265625,116.837891 C172.098957,117.081381 172.015625,117.447914 172.015625,117.9375 Z M178.285156,120 C178.243489,119.91927 178.207031,119.787761 178.175781,119.605469 C177.873696,119.920574 177.503908,120.078125 177.066406,120.078125 C176.641925,120.078125 176.295574,119.957032 176.027344,119.714844 C175.759113,119.472655 175.625,119.173179 175.625,118.816406 C175.625,118.365883 175.792316,118.020183 176.126953,117.779297 C176.46159,117.53841 176.940101,117.417969 177.5625,117.417969 L178.144531,117.417969 L178.144531,117.140625 C178.144531,116.921874 178.083334,116.746745 177.960938,116.615234 C177.838541,116.483723 177.652345,116.417969 177.402344,116.417969 C177.186197,116.417969 177.009115,116.472005 176.871094,116.580078 C176.733072,116.688152 176.664062,116.82552 176.664062,116.992188 L175.714844,116.992188 C175.714844,116.760416 175.791666,116.543621 175.945312,116.341797 C176.098959,116.139973 176.307941,115.981771 176.572266,115.867188 C176.83659,115.752604 177.131509,115.695312 177.457031,115.695312 C177.951825,115.695312 178.346353,115.81966 178.640625,116.068359 C178.934897,116.317059 179.085937,116.666664 179.09375,117.117188 L179.09375,119.023438 C179.09375,119.403648 179.147135,119.70703 179.253906,119.933594 L179.253906,120 L178.285156,120 Z M177.242188,119.316406 C177.429688,119.316406 177.606119,119.270834 177.771484,119.179688 C177.93685,119.088541 178.061197,118.966147 178.144531,118.8125 L178.144531,118.015625 L177.632812,118.015625 C177.281248,118.015625 177.016928,118.076822 176.839844,118.199219 C176.66276,118.321615 176.574219,118.494791 176.574219,118.71875 C176.574219,118.901043 176.634765,119.046223 176.755859,119.154297 C176.876954,119.26237 177.039061,119.316406 177.242188,119.316406 Z M181.277344,114.746094 L181.277344,115.773438 L182.023438,115.773438 L182.023438,116.476562 L181.277344,116.476562 L181.277344,118.835938 C181.277344,118.997397 181.309244,119.113932 181.373047,119.185547 C181.436849,119.257162 181.55078,119.292969 181.714844,119.292969 C181.824219,119.292969 181.934895,119.279948 182.046875,119.253906 L182.046875,119.988281 C181.830728,120.048177 181.622397,120.078125 181.421875,120.078125 C180.692705,120.078125 180.328125,119.675785 180.328125,118.871094 L180.328125,116.476562 L179.632812,116.476562 L179.632812,115.773438 L180.328125,115.773438 L180.328125,114.746094 L181.277344,114.746094 Z M184.609375,120.078125 C184.007809,120.078125 183.520184,119.888674 183.146484,119.509766 C182.772785,119.130857 182.585938,118.626305 182.585938,117.996094 L182.585938,117.878906 C182.585938,117.457029 182.667317,117.08008 182.830078,116.748047 C182.992839,116.416014 183.221353,116.157553 183.515625,115.972656 C183.809897,115.787759 184.138019,115.695312 184.5,115.695312 C185.075524,115.695312 185.520181,115.878904 185.833984,116.246094 C186.147788,116.613283 186.304688,117.132809 186.304688,117.804688 L186.304688,118.1875 L183.542969,118.1875 C183.571615,118.53646 183.68815,118.812499 183.892578,119.015625 C184.097006,119.218751 184.354165,119.320312 184.664062,119.320312 C185.098961,119.320312 185.453124,119.144533 185.726562,118.792969 L186.238281,119.28125 C186.06901,119.533855 185.8431,119.729817 185.560547,119.869141 C185.277993,120.008464 184.960939,120.078125 184.609375,120.078125 Z M184.496094,116.457031 C184.235676,116.457031 184.025391,116.548176 183.865234,116.730469 C183.705077,116.912761 183.602865,117.166665 183.558594,117.492188 L185.367188,117.492188 L185.367188,117.421875 C185.346354,117.104165 185.261719,116.863933 185.113281,116.701172 C184.964843,116.538411 184.759116,116.457031 184.496094,116.457031 Z M187.613281,119 C187.790365,119 187.927083,119.05013 188.023438,119.150391 C188.119792,119.250652 188.167969,119.376301 188.167969,119.527344 C188.167969,119.675782 188.119792,119.798828 188.023438,119.896484 C187.927083,119.994141 187.790365,120.042969 187.613281,120.042969 C187.44401,120.042969 187.309896,119.994792 187.210938,119.898438 C187.111979,119.802083 187.0625,119.678386 187.0625,119.527344 C187.0625,119.376301 187.110677,119.250652 187.207031,119.150391 C187.303386,119.05013 187.438801,119 187.613281,119 Z M187.613281,115.683594 C187.790365,115.683594 187.927083,115.733723 188.023438,115.833984 C188.119792,115.934245 188.167969,116.059895 188.167969,116.210938 C188.167969,116.359376 188.119792,116.482421 188.023438,116.580078 C187.927083,116.677735 187.790365,116.726562 187.613281,116.726562 C187.44401,116.726562 187.309896,116.678386 187.210938,116.582031 C187.111979,116.485677 187.0625,116.36198 187.0625,116.210938 C187.0625,116.059895 187.110677,115.934245 187.207031,115.833984 C187.303386,115.733723 187.438801,115.683594 187.613281,115.683594 Z M191.246094,120 L191.246094,114.3125 L192.925781,114.3125 C193.428388,114.3125 193.874347,114.424478 194.263672,114.648438 C194.652997,114.872397 194.954426,115.190102 195.167969,115.601562 C195.381511,116.013023 195.488281,116.484372 195.488281,117.015625 L195.488281,117.300781 C195.488281,117.839846 195.38086,118.3138 195.166016,118.722656 C194.951171,119.131512 194.645184,119.446613 194.248047,119.667969 C193.850909,119.889324 193.395836,120 192.882812,120 L191.246094,120 Z M192.234375,115.109375 L192.234375,119.210938 L192.878906,119.210938 C193.397138,119.210938 193.79492,119.04883 194.072266,118.724609 C194.349611,118.400389 194.490885,117.934899 194.496094,117.328125 L194.496094,117.011719 C194.496094,116.394528 194.361981,115.923179 194.09375,115.597656 C193.825519,115.272134 193.4362,115.109375 192.925781,115.109375 L192.234375,115.109375 Z M198.242188,120.078125 C197.640622,120.078125 197.152997,119.888674 196.779297,119.509766 C196.405597,119.130857 196.21875,118.626305 196.21875,117.996094 L196.21875,117.878906 C196.21875,117.457029 196.300129,117.08008 196.462891,116.748047 C196.625652,116.416014 196.854165,116.157553 197.148438,115.972656 C197.44271,115.787759 197.770832,115.695312 198.132812,115.695312 C198.708336,115.695312 199.152993,115.878904 199.466797,116.246094 C199.780601,116.613283 199.9375,117.132809 199.9375,117.804688 L199.9375,118.1875 L197.175781,118.1875 C197.204427,118.53646 197.320963,118.812499 197.525391,119.015625 C197.729819,119.218751 197.986978,119.320312 198.296875,119.320312 C198.731773,119.320312 199.085936,119.144533 199.359375,118.792969 L199.871094,119.28125 C199.701822,119.533855 199.475913,119.729817 199.193359,119.869141 C198.910806,120.008464 198.593752,120.078125 198.242188,120.078125 Z M198.128906,116.457031 C197.868488,116.457031 197.658204,116.548176 197.498047,116.730469 C197.33789,116.912761 197.235677,117.166665 197.191406,117.492188 L199,117.492188 L199,117.421875 C198.979167,117.104165 198.894532,116.863933 198.746094,116.701172 C198.597656,116.538411 198.391928,116.457031 198.128906,116.457031 Z M202.410156,119.320312 C202.647137,119.320312 202.843749,119.251303 203,119.113281 C203.156251,118.97526 203.239583,118.804689 203.25,118.601562 L204.144531,118.601562 C204.134115,118.864585 204.052084,119.110025 203.898438,119.337891 C203.744791,119.565756 203.53646,119.746093 203.273438,119.878906 C203.010415,120.011719 202.726564,120.078125 202.421875,120.078125 C201.830726,120.078125 201.361981,119.886721 201.015625,119.503906 C200.669269,119.121092 200.496094,118.592451 200.496094,117.917969 L200.496094,117.820312 C200.496094,117.17708 200.667967,116.662111 201.011719,116.275391 C201.35547,115.88867 201.824216,115.695312 202.417969,115.695312 C202.920575,115.695312 203.330077,115.841795 203.646484,116.134766 C203.962892,116.427736 204.128906,116.812498 204.144531,117.289062 L203.25,117.289062 C203.239583,117.046874 203.156902,116.847657 203.001953,116.691406 C202.847004,116.535155 202.649741,116.457031 202.410156,116.457031 C202.102863,116.457031 201.865886,116.568358 201.699219,116.791016 C201.532551,117.013673 201.447917,117.35156 201.445312,117.804688 L201.445312,117.957031 C201.445312,118.415367 201.527994,118.75716 201.693359,118.982422 C201.858725,119.207683 202.097655,119.320312 202.410156,119.320312 Z M206.722656,120.078125 C206.121091,120.078125 205.633465,119.888674 205.259766,119.509766 C204.886066,119.130857 204.699219,118.626305 204.699219,117.996094 L204.699219,117.878906 C204.699219,117.457029 204.780598,117.08008 204.943359,116.748047 C205.106121,116.416014 205.334634,116.157553 205.628906,115.972656 C205.923179,115.787759 206.2513,115.695312 206.613281,115.695312 C207.188805,115.695312 207.633462,115.878904 207.947266,116.246094 C208.261069,116.613283 208.417969,117.132809 208.417969,117.804688 L208.417969,118.1875 L205.65625,118.1875 C205.684896,118.53646 205.801431,118.812499 206.005859,119.015625 C206.210287,119.218751 206.467446,119.320312 206.777344,119.320312 C207.212242,119.320312 207.566405,119.144533 207.839844,118.792969 L208.351562,119.28125 C208.182291,119.533855 207.956382,119.729817 207.673828,119.869141 C207.391275,120.008464 207.074221,120.078125 206.722656,120.078125 Z M206.609375,116.457031 C206.348957,116.457031 206.138673,116.548176 205.978516,116.730469 C205.818359,116.912761 205.716146,117.166665 205.671875,117.492188 L207.480469,117.492188 L207.480469,117.421875 C207.459635,117.104165 207.375001,116.863933 207.226562,116.701172 C207.078124,116.538411 206.872397,116.457031 206.609375,116.457031 Z M210.046875,115.773438 L210.074219,116.214844 C210.371095,115.868488 210.777341,115.695312 211.292969,115.695312 C211.858076,115.695312 212.244791,115.911456 212.453125,116.34375 C212.760418,115.911456 213.192706,115.695312 213.75,115.695312 C214.216148,115.695312 214.56315,115.824217 214.791016,116.082031 C215.018881,116.339845 215.135417,116.72005 215.140625,117.222656 L215.140625,120 L214.191406,120 L214.191406,117.25 C214.191406,116.981769 214.132813,116.785157 214.015625,116.660156 C213.898437,116.535156 213.704428,116.472656 213.433594,116.472656 C213.217447,116.472656 213.041016,116.530598 212.904297,116.646484 C212.767577,116.76237 212.671875,116.914062 212.617188,117.101562 L212.621094,120 L211.671875,120 L211.671875,117.21875 C211.658854,116.721352 211.40495,116.472656 210.910156,116.472656 C210.529946,116.472656 210.260417,116.627603 210.101562,116.9375 L210.101562,120 L209.152344,120 L209.152344,115.773438 L210.046875,115.773438 Z M219.824219,117.929688 C219.824219,118.585941 219.677736,119.108071 219.384766,119.496094 C219.091795,119.884117 218.688805,120.078125 218.175781,120.078125 C217.680987,120.078125 217.295574,119.899741 217.019531,119.542969 L216.972656,120 L216.113281,120 L216.113281,114 L217.0625,114 L217.0625,116.179688 C217.335939,115.856769 217.704425,115.695312 218.167969,115.695312 C218.683596,115.695312 219.08854,115.886717 219.382812,116.269531 C219.677085,116.652346 219.824219,117.187497 219.824219,117.875 L219.824219,117.929688 Z M218.875,117.847656 C218.875,117.389321 218.794272,117.045574 218.632812,116.816406 C218.471353,116.587238 218.236981,116.472656 217.929688,116.472656 C217.518227,116.472656 217.229168,116.652342 217.0625,117.011719 L217.0625,118.753906 C217.231772,119.121096 217.523435,119.304688 217.9375,119.304688 C218.234376,119.304688 218.463541,119.194012 218.625,118.972656 C218.786459,118.751301 218.869792,118.416669 218.875,117.96875 L218.875,117.847656 Z M222.480469,120.078125 C221.878903,120.078125 221.391278,119.888674 221.017578,119.509766 C220.643878,119.130857 220.457031,118.626305 220.457031,117.996094 L220.457031,117.878906 C220.457031,117.457029 220.538411,117.08008 220.701172,116.748047 C220.863933,116.416014 221.092446,116.157553 221.386719,115.972656 C221.680991,115.787759 222.009113,115.695312 222.371094,115.695312 C222.946617,115.695312 223.391274,115.878904 223.705078,116.246094 C224.018882,116.613283 224.175781,117.132809 224.175781,117.804688 L224.175781,118.1875 L221.414062,118.1875 C221.442708,118.53646 221.559244,118.812499 221.763672,119.015625 C221.9681,119.218751 222.225259,119.320312 222.535156,119.320312 C222.970054,119.320312 223.324217,119.144533 223.597656,118.792969 L224.109375,119.28125 C223.940103,119.533855 223.714194,119.729817 223.431641,119.869141 C223.149087,120.008464 222.832033,120.078125 222.480469,120.078125 Z M222.367188,116.457031 C222.10677,116.457031 221.896485,116.548176 221.736328,116.730469 C221.576171,116.912761 221.473959,117.166665 221.429688,117.492188 L223.238281,117.492188 L223.238281,117.421875 C223.217448,117.104165 223.132813,116.863933 222.984375,116.701172 C222.835937,116.538411 222.63021,116.457031 222.367188,116.457031 Z M227.125,116.640625 C226.999999,116.619792 226.871094,116.609375 226.738281,116.609375 C226.303383,116.609375 226.010417,116.77604 225.859375,117.109375 L225.859375,120 L224.910156,120 L224.910156,115.773438 L225.816406,115.773438 L225.839844,116.246094 C226.069012,115.878904 226.386717,115.695312 226.792969,115.695312 C226.928386,115.695312 227.040364,115.713541 227.128906,115.75 L227.125,116.640625 Z M232.226562,120 L231.28125,120 L231.28125,115.433594 L229.886719,115.910156 L229.886719,115.109375 L232.105469,114.292969 L232.226562,114.292969 L232.226562,120 Z M234.457031,117.179688 L234.765625,114.3125 L237.820312,114.3125 L237.820312,115.132812 L235.554688,115.132812 L235.398438,116.492188 C235.66146,116.341145 235.958332,116.265625 236.289062,116.265625 C236.830732,116.265625 237.251952,116.4388 237.552734,116.785156 C237.853517,117.131512 238.003906,117.597653 238.003906,118.183594 C238.003906,118.761722 237.837241,119.222003 237.503906,119.564453 C237.170571,119.906903 236.713545,120.078125 236.132812,120.078125 C235.611977,120.078125 235.18034,119.93034 234.837891,119.634766 C234.495441,119.339191 234.309896,118.949221 234.28125,118.464844 L235.199219,118.464844 C235.235677,118.740887 235.334635,118.952473 235.496094,119.099609 C235.657553,119.246746 235.868488,119.320312 236.128906,119.320312 C236.420574,119.320312 236.647786,119.216147 236.810547,119.007812 C236.973308,118.799478 237.054688,118.515627 237.054688,118.15625 C237.054688,117.809894 236.964845,117.535808 236.785156,117.333984 C236.605468,117.13216 236.358074,117.03125 236.042969,117.03125 C235.871093,117.03125 235.725261,117.054036 235.605469,117.099609 C235.485676,117.145183 235.355469,117.234374 235.214844,117.367188 L234.457031,117.179688 Z M238.945312,121.28125 L238.433594,120.976562 C238.584636,120.739582 238.688151,120.533204 238.744141,120.357422 C238.80013,120.18164 238.829427,120.002605 238.832031,119.820312 L238.832031,119.082031 L239.6875,119.082031 L239.683594,119.765625 C239.68099,120.041668 239.611329,120.318358 239.474609,120.595703 C239.33789,120.873048 239.161459,121.101562 238.945312,121.28125 Z M246.324219,120 L242.5,120 L242.5,119.347656 L244.394531,117.28125 C244.66797,116.976561 244.86263,116.722006 244.978516,116.517578 C245.094402,116.31315 245.152344,116.108074 245.152344,115.902344 C245.152344,115.631509 245.076173,115.412761 244.923828,115.246094 C244.771484,115.079426 244.566408,114.996094 244.308594,114.996094 C244.001301,114.996094 243.763022,115.089843 243.59375,115.277344 C243.424478,115.464845 243.339844,115.721353 243.339844,116.046875 L242.390625,116.046875 C242.390625,115.700519 242.4694,115.388673 242.626953,115.111328 C242.784506,114.833983 243.009764,114.61849 243.302734,114.464844 C243.595705,114.311197 243.933592,114.234375 244.316406,114.234375 C244.868492,114.234375 245.304035,114.373045 245.623047,114.650391 C245.942059,114.927736 246.101562,115.311195 246.101562,115.800781 C246.101562,116.084637 246.021485,116.38216 245.861328,116.693359 C245.701171,117.004559 245.438804,117.358071 245.074219,117.753906 L243.683594,119.242188 L246.324219,119.242188 L246.324219,120 Z M250.753906,117.605469 C250.753906,118.423181 250.600913,119.039711 250.294922,119.455078 C249.988931,119.870445 249.523441,120.078125 248.898438,120.078125 C248.283851,120.078125 247.820965,119.875653 247.509766,119.470703 C247.198566,119.065753 247.039063,118.46615 247.03125,117.671875 L247.03125,116.6875 C247.03125,115.869788 247.184243,115.256512 247.490234,114.847656 C247.796225,114.4388 248.263018,114.234375 248.890625,114.234375 C249.513024,114.234375 249.977212,114.433592 250.283203,114.832031 C250.589194,115.230471 250.746094,115.826819 250.753906,116.621094 L250.753906,117.605469 Z M249.804688,116.542969 C249.804688,116.009112 249.731772,115.61784 249.585938,115.369141 C249.440103,115.120441 249.208335,114.996094 248.890625,114.996094 C248.580728,114.996094 248.352865,115.113931 248.207031,115.349609 C248.061197,115.585288 247.984375,115.953123 247.976562,116.453125 L247.976562,117.742188 C247.976562,118.27344 248.050781,118.66927 248.199219,118.929688 C248.347657,119.190105 248.580728,119.320312 248.898438,119.320312 C249.203127,119.320312 249.428385,119.199871 249.574219,118.958984 C249.720053,118.718098 249.796875,118.341148 249.804688,117.828125 L249.804688,116.542969 Z M252.691406,116.722656 L253.269531,116.722656 C253.561199,116.720052 253.792317,116.644532 253.962891,116.496094 C254.133464,116.347656 254.21875,116.132814 254.21875,115.851562 C254.21875,115.580728 254.147787,115.370443 254.005859,115.220703 C253.863932,115.070963 253.647137,114.996094 253.355469,114.996094 C253.100259,114.996094 252.890626,115.069661 252.726562,115.216797 C252.562499,115.363933 252.480469,115.555988 252.480469,115.792969 L251.53125,115.792969 C251.53125,115.501301 251.608723,115.235678 251.763672,114.996094 C251.918621,114.756509 252.134764,114.569662 252.412109,114.435547 C252.689455,114.301432 252.999998,114.234375 253.34375,114.234375 C253.911461,114.234375 254.35742,114.376952 254.681641,114.662109 C255.005861,114.947267 255.167969,115.343747 255.167969,115.851562 C255.167969,116.106772 255.086589,116.347004 254.923828,116.572266 C254.761067,116.797527 254.550783,116.967447 254.292969,117.082031 C254.60547,117.188803 254.843098,117.35677 255.005859,117.585938 C255.168621,117.815105 255.25,118.08854 255.25,118.40625 C255.25,118.916669 255.074872,119.322915 254.724609,119.625 C254.374347,119.927085 253.914065,120.078125 253.34375,120.078125 C252.796872,120.078125 252.34896,119.932293 252,119.640625 C251.65104,119.348957 251.476562,118.96094 251.476562,118.476562 L252.425781,118.476562 C252.425781,118.726564 252.509765,118.929687 252.677734,119.085938 C252.845704,119.242188 253.071613,119.320312 253.355469,119.320312 C253.649741,119.320312 253.88151,119.242188 254.050781,119.085938 C254.220053,118.929687 254.304688,118.703126 254.304688,118.40625 C254.304688,118.106769 254.216147,117.876303 254.039062,117.714844 C253.861978,117.553385 253.59896,117.472656 253.25,117.472656 L252.691406,117.472656 L252.691406,116.722656 Z M259.964844,120 L256.140625,120 L256.140625,119.347656 L258.035156,117.28125 C258.308595,116.976561 258.503255,116.722006 258.619141,116.517578 C258.735027,116.31315 258.792969,116.108074 258.792969,115.902344 C258.792969,115.631509 258.716798,115.412761 258.564453,115.246094 C258.412109,115.079426 258.207033,114.996094 257.949219,114.996094 C257.641926,114.996094 257.403647,115.089843 257.234375,115.277344 C257.065103,115.464845 256.980469,115.721353 256.980469,116.046875 L256.03125,116.046875 C256.03125,115.700519 256.110025,115.388673 256.267578,115.111328 C256.425131,114.833983 256.650389,114.61849 256.943359,114.464844 C257.23633,114.311197 257.574217,114.234375 257.957031,114.234375 C258.509117,114.234375 258.94466,114.373045 259.263672,114.650391 C259.582684,114.927736 259.742188,115.311195 259.742188,115.800781 C259.742188,116.084637 259.66211,116.38216 259.501953,116.693359 C259.341796,117.004559 259.079429,117.358071 258.714844,117.753906 L257.324219,119.242188 L259.964844,119.242188 L259.964844,120 Z" id="Renewal-date:-Decemb" fill="#000000"></path>
                <path d="M73.0981445,138.923828 L74.5336914,131.335938 L76.7236328,131.335938 L74.3579102,142 L72.1459961,142 L70.4101562,134.866211 L68.6743164,142 L66.4624023,142 L64.0966797,131.335938 L66.2866211,131.335938 L67.7294922,138.90918 L69.4873047,131.335938 L71.3476562,131.335938 L73.0981445,138.923828 Z M82.2241211,136.060059 C81.9360337,136.020996 81.68213,136.001465 81.4624023,136.001465 C80.6616171,136.001465 80.13672,136.272458 79.8876953,136.814453 L79.8876953,142 L77.7709961,142 L77.7709961,134.075195 L79.7705078,134.075195 L79.8291016,135.02002 C80.2539084,134.292477 80.8422814,133.928711 81.5942383,133.928711 C81.8286145,133.928711 82.0483388,133.960449 82.253418,134.023926 L82.2241211,136.060059 Z M85.4760742,142 L83.3520508,142 L83.3520508,134.075195 L85.4760742,134.075195 L85.4760742,142 Z M83.2275391,132.024414 C83.2275391,131.70703 83.3337392,131.445802 83.5461426,131.240723 C83.758546,131.035644 84.0478497,130.933105 84.4140625,130.933105 C84.7753924,130.933105 85.0634755,131.035644 85.2783203,131.240723 C85.4931651,131.445802 85.6005859,131.70703 85.6005859,132.024414 C85.6005859,132.346681 85.4919444,132.610351 85.2746582,132.81543 C85.057372,133.020509 84.7705096,133.123047 84.4140625,133.123047 C84.0576154,133.123047 83.770753,133.020509 83.5534668,132.81543 C83.3361806,132.610351 83.2275391,132.346681 83.2275391,132.024414 Z M89.753418,132.126953 L89.753418,134.075195 L91.1083984,134.075195 L91.1083984,135.62793 L89.753418,135.62793 L89.753418,139.583008 C89.753418,139.875978 89.8095698,140.085937 89.921875,140.212891 C90.0341802,140.339844 90.2490219,140.40332 90.5664062,140.40332 C90.8007824,140.40332 91.0082999,140.386231 91.1889648,140.352051 L91.1889648,141.956055 C90.7739237,142.083008 90.3466819,142.146484 89.9072266,142.146484 C88.4228441,142.146484 87.6660158,141.39698 87.6367188,139.897949 L87.6367188,135.62793 L86.4794922,135.62793 L86.4794922,134.075195 L87.6367188,134.075195 L87.6367188,132.126953 L89.753418,132.126953 Z M95.9350586,142.146484 C94.7729434,142.146484 93.8269079,141.790043 93.0969238,141.077148 C92.3669397,140.364254 92.0019531,139.414557 92.0019531,138.228027 L92.0019531,138.022949 C92.0019531,137.227047 92.1557602,136.515384 92.4633789,135.887939 C92.7709976,135.260495 93.2067843,134.777101 93.770752,134.437744 C94.3347196,134.098387 94.9780237,133.928711 95.7006836,133.928711 C96.7846734,133.928711 97.6379363,134.270504 98.260498,134.954102 C98.8830598,135.637699 99.1943359,136.606927 99.1943359,137.861816 L99.1943359,138.726074 L94.1479492,138.726074 C94.2163089,139.243655 94.4226057,139.65869 94.7668457,139.971191 C95.1110857,140.283693 95.5468724,140.439941 96.0742188,140.439941 C96.8896525,140.439941 97.5268532,140.144534 97.9858398,139.553711 L99.0258789,140.718262 C98.7084945,141.167483 98.2788113,141.517821 97.7368164,141.769287 C97.1948215,142.020753 96.5942416,142.146484 95.9350586,142.146484 Z M95.6933594,135.642578 C95.2734354,135.642578 94.9328626,135.784178 94.6716309,136.067383 C94.4103991,136.350587 94.2431644,136.755857 94.1699219,137.283203 L97.1142578,137.283203 L97.1142578,137.114746 C97.1044921,136.645994 96.9775403,136.283449 96.7333984,136.0271 C96.4892566,135.770751 96.1425804,135.642578 95.6933594,135.642578 Z M107.089844,139.004395 L108.554688,134.075195 L110.825195,134.075195 L107.63916,143.230469 L107.463379,143.647949 C106.989744,144.683111 106.208502,145.200684 105.119629,145.200684 C104.81201,145.200684 104.499513,145.154297 104.182129,145.061523 L104.182129,143.45752 L104.504395,143.464844 C104.904787,143.464844 105.203856,143.403809 105.401611,143.281738 C105.599366,143.159667 105.754394,142.957033 105.866699,142.673828 L106.115723,142.021973 L103.339844,134.075195 L105.617676,134.075195 L107.089844,139.004395 Z M111.330566,137.964355 C111.330566,137.178219 111.481932,136.477542 111.784668,135.862305 C112.087404,135.247067 112.523191,134.770998 113.092041,134.434082 C113.660892,134.097166 114.321285,133.928711 115.073242,133.928711 C116.142583,133.928711 117.015377,134.255856 117.69165,134.910156 C118.367923,135.564456 118.745117,136.453119 118.823242,137.576172 L118.837891,138.118164 C118.837891,139.33399 118.498539,140.309322 117.819824,141.044189 C117.14111,141.779056 116.230474,142.146484 115.087891,142.146484 C113.945307,142.146484 113.033451,141.780277 112.352295,141.047852 C111.671139,140.315426 111.330566,139.319342 111.330566,138.05957 L111.330566,137.964355 Z M113.447266,138.118164 C113.447266,138.870121 113.588866,139.445066 113.87207,139.843018 C114.155275,140.240969 114.560544,140.439941 115.087891,140.439941 C115.600589,140.439941 116.000975,140.24341 116.289062,139.850342 C116.57715,139.457273 116.721191,138.828618 116.721191,137.964355 C116.721191,137.227047 116.57715,136.655764 116.289062,136.250488 C116.000975,135.845213 115.595706,135.642578 115.073242,135.642578 C114.555661,135.642578 114.155275,135.843992 113.87207,136.246826 C113.588866,136.64966 113.447266,137.273433 113.447266,138.118164 Z M124.887695,141.194336 C124.365232,141.829105 123.642583,142.146484 122.719727,142.146484 C121.870113,142.146484 121.221926,141.902346 120.775146,141.414062 C120.328367,140.925779 120.100098,140.210454 120.090332,139.268066 L120.090332,134.075195 L122.207031,134.075195 L122.207031,139.194824 C122.207031,140.020024 122.583004,140.432617 123.334961,140.432617 C124.052738,140.432617 124.545897,140.183596 124.814453,139.685547 L124.814453,134.075195 L126.938477,134.075195 L126.938477,142 L124.946289,142 L124.887695,141.194336 Z M132.988281,136.060059 C132.700194,136.020996 132.44629,136.001465 132.226562,136.001465 C131.425777,136.001465 130.90088,136.272458 130.651855,136.814453 L130.651855,142 L128.535156,142 L128.535156,134.075195 L130.534668,134.075195 L130.593262,135.02002 C131.018069,134.292477 131.606442,133.928711 132.358398,133.928711 C132.592775,133.928711 132.812499,133.960449 133.017578,134.023926 L132.988281,136.060059 Z M142.033691,139.810059 C142.033691,139.551268 141.905519,139.347413 141.64917,139.198486 C141.392821,139.04956 140.981448,138.916504 140.415039,138.799316 C138.530264,138.403807 137.587891,137.603033 137.587891,136.396973 C137.587891,135.693844 137.879636,135.106692 138.463135,134.635498 C139.046634,134.164304 139.809566,133.928711 140.751953,133.928711 C141.757818,133.928711 142.562253,134.165525 143.165283,134.63916 C143.768314,135.112795 144.069824,135.728024 144.069824,136.484863 L141.953125,136.484863 C141.953125,136.182127 141.85547,135.931886 141.660156,135.734131 C141.464843,135.536376 141.15967,135.4375 140.744629,135.4375 C140.388182,135.4375 140.112306,135.518066 139.916992,135.679199 C139.721679,135.840333 139.624023,136.045409 139.624023,136.294434 C139.624023,136.52881 139.735106,136.718017 139.957275,136.862061 C140.179444,137.006104 140.554197,137.130615 141.081543,137.235596 C141.608889,137.340577 142.053221,137.458984 142.414551,137.59082 C143.53272,138.000979 144.091797,138.711421 144.091797,139.722168 C144.091797,140.444828 143.781741,141.029539 143.161621,141.476318 C142.541501,141.923098 141.740728,142.146484 140.759277,142.146484 C140.095212,142.146484 139.505618,142.028077 138.990479,141.79126 C138.475339,141.554442 138.071291,141.229738 137.77832,140.817139 C137.48535,140.404539 137.338867,139.958987 137.338867,139.480469 L139.345703,139.480469 C139.365234,139.856447 139.504393,140.14453 139.763184,140.344727 C140.021974,140.544923 140.36865,140.64502 140.803223,140.64502 C141.208498,140.64502 141.514892,140.568116 141.722412,140.414307 C141.929933,140.260497 142.033691,140.059083 142.033691,139.810059 Z M147.687988,142 L145.563965,142 L145.563965,130.75 L147.687988,130.75 L147.687988,142 Z M149.101562,137.964355 C149.101562,137.178219 149.252928,136.477542 149.555664,135.862305 C149.8584,135.247067 150.294187,134.770998 150.863037,134.434082 C151.431888,134.097166 152.092281,133.928711 152.844238,133.928711 C153.91358,133.928711 154.786374,134.255856 155.462646,134.910156 C156.138919,135.564456 156.516113,136.453119 156.594238,137.576172 L156.608887,138.118164 C156.608887,139.33399 156.269535,140.309322 155.59082,141.044189 C154.912106,141.779056 154.001471,142.146484 152.858887,142.146484 C151.716303,142.146484 150.804447,141.780277 150.123291,141.047852 C149.442135,140.315426 149.101562,139.319342 149.101562,138.05957 L149.101562,137.964355 Z M151.218262,138.118164 C151.218262,138.870121 151.359862,139.445066 151.643066,139.843018 C151.926271,140.240969 152.33154,140.439941 152.858887,140.439941 C153.371585,140.439941 153.771971,140.24341 154.060059,139.850342 C154.348146,139.457273 154.492188,138.828618 154.492188,137.964355 C154.492188,137.227047 154.348146,136.655764 154.060059,136.250488 C153.771971,135.845213 153.366702,135.642578 152.844238,135.642578 C152.326658,135.642578 151.926271,135.843992 151.643066,136.246826 C151.359862,136.64966 151.218262,137.273433 151.218262,138.118164 Z M157.60498,137.979004 C157.60498,136.763178 157.894284,135.784183 158.4729,135.041992 C159.051517,134.299801 159.831538,133.928711 160.812988,133.928711 C161.682133,133.928711 162.358396,134.22656 162.841797,134.822266 L162.929688,134.075195 L164.848633,134.075195 L164.848633,141.736328 C164.848633,142.429691 164.691164,143.032712 164.376221,143.54541 C164.061278,144.058108 163.618167,144.448729 163.046875,144.717285 C162.475583,144.985841 161.806644,145.120117 161.040039,145.120117 C160.458981,145.120117 159.892581,145.004152 159.34082,144.772217 C158.78906,144.540282 158.371583,144.241213 158.088379,143.875 L159.025879,142.585938 C159.553225,143.176761 160.192867,143.472168 160.944824,143.472168 C161.50635,143.472168 161.943358,143.322023 162.255859,143.021729 C162.568361,142.721434 162.724609,142.295413 162.724609,141.743652 L162.724609,141.318848 C162.236326,141.870608 161.594242,142.146484 160.79834,142.146484 C159.846187,142.146484 159.075931,141.774174 158.487549,141.029541 C157.899167,140.284908 157.60498,139.297369 157.60498,138.066895 L157.60498,137.979004 Z M159.72168,138.132812 C159.72168,138.85059 159.865721,139.413328 160.153809,139.821045 C160.441896,140.228762 160.8374,140.432617 161.340332,140.432617 C161.984867,140.432617 162.446288,140.19092 162.724609,139.70752 L162.724609,136.375 C162.441405,135.891599 161.984866,135.649902 161.35498,135.649902 C160.847165,135.649902 160.447999,135.85742 160.157471,136.272461 C159.866942,136.687502 159.72168,137.307613 159.72168,138.132812 Z M171.066895,142 C170.969238,141.809569 170.898438,141.572755 170.854492,141.289551 C170.341794,141.860843 169.675297,142.146484 168.85498,142.146484 C168.078609,142.146484 167.435305,141.921877 166.925049,141.472656 C166.414792,141.023435 166.159668,140.457035 166.159668,139.773438 C166.159668,138.93359 166.470944,138.289065 167.093506,137.839844 C167.716068,137.390623 168.615717,137.163574 169.79248,137.158691 L170.766602,137.158691 L170.766602,136.70459 C170.766602,136.338377 170.672608,136.045411 170.484619,135.825684 C170.29663,135.605956 170.000002,135.496094 169.594727,135.496094 C169.238279,135.496094 168.958741,135.581542 168.756104,135.752441 C168.553466,135.923341 168.452148,136.157713 168.452148,136.455566 L166.335449,136.455566 C166.335449,135.99658 166.477049,135.571779 166.760254,135.181152 C167.043458,134.790525 167.443845,134.484132 167.961426,134.261963 C168.479006,134.039794 169.060055,133.928711 169.70459,133.928711 C170.681157,133.928711 171.456296,134.17407 172.030029,134.664795 C172.603763,135.15552 172.890625,135.84521 172.890625,136.733887 L172.890625,140.168945 C172.895508,140.920902 173.000487,141.489744 173.205566,141.875488 L173.205566,142 L171.066895,142 Z M169.316406,140.527832 C169.628908,140.527832 169.916991,140.458253 170.180664,140.319092 C170.444337,140.179931 170.639648,139.993165 170.766602,139.758789 L170.766602,138.396484 L169.975586,138.396484 C168.91601,138.396484 168.352051,138.762692 168.283691,139.495117 L168.276367,139.619629 C168.276367,139.883302 168.36914,140.100585 168.554688,140.271484 C168.740235,140.442384 168.994139,140.527832 169.316406,140.527832 Z M176.464844,134.075195 L176.530762,134.990723 C177.097171,134.282711 177.856441,133.928711 178.808594,133.928711 C179.648442,133.928711 180.273435,134.175291 180.683594,134.668457 C181.093752,135.161624 181.303711,135.898921 181.313477,136.880371 L181.313477,142 L179.196777,142 L179.196777,136.931641 C179.196777,136.48242 179.099122,136.156495 178.903809,135.953857 C178.708495,135.75122 178.383791,135.649902 177.929688,135.649902 C177.333981,135.649902 176.887209,135.903806 176.589355,136.411621 L176.589355,142 L174.472656,142 L174.472656,134.075195 L176.464844,134.075195 Z M188.718262,134.939453 C189.279788,134.265622 189.985347,133.928711 190.834961,133.928711 C192.55372,133.928711 193.425293,134.927236 193.449707,136.924316 L193.449707,142 L191.333008,142 L191.333008,136.98291 C191.333008,136.528806 191.235353,136.193116 191.040039,135.97583 C190.844726,135.758544 190.520022,135.649902 190.065918,135.649902 C189.445798,135.649902 188.996583,135.889158 188.718262,136.367676 L188.718262,142 L186.601562,142 L186.601562,130.75 L188.718262,130.75 L188.718262,134.939453 Z M198.693848,142.146484 C197.531732,142.146484 196.585697,141.790043 195.855713,141.077148 C195.125729,140.364254 194.760742,139.414557 194.760742,138.228027 L194.760742,138.022949 C194.760742,137.227047 194.914549,136.515384 195.222168,135.887939 C195.529787,135.260495 195.965573,134.777101 196.529541,134.437744 C197.093509,134.098387 197.736813,133.928711 198.459473,133.928711 C199.543462,133.928711 200.396725,134.270504 201.019287,134.954102 C201.641849,135.637699 201.953125,136.606927 201.953125,137.861816 L201.953125,138.726074 L196.906738,138.726074 C196.975098,139.243655 197.181395,139.65869 197.525635,139.971191 C197.869875,140.283693 198.305661,140.439941 198.833008,140.439941 C199.648442,140.439941 200.285642,140.144534 200.744629,139.553711 L201.784668,140.718262 C201.467284,141.167483 201.0376,141.517821 200.495605,141.769287 C199.953611,142.020753 199.353031,142.146484 198.693848,142.146484 Z M198.452148,135.642578 C198.032224,135.642578 197.691652,135.784178 197.43042,136.067383 C197.169188,136.350587 197.001953,136.755857 196.928711,137.283203 L199.873047,137.283203 L199.873047,137.114746 C199.863281,136.645994 199.736329,136.283449 199.492188,136.0271 C199.248046,135.770751 198.901369,135.642578 198.452148,135.642578 Z M207.607422,136.060059 C207.319334,136.020996 207.065431,136.001465 206.845703,136.001465 C206.044918,136.001465 205.520021,136.272458 205.270996,136.814453 L205.270996,142 L203.154297,142 L203.154297,134.075195 L205.153809,134.075195 L205.212402,135.02002 C205.637209,134.292477 206.225582,133.928711 206.977539,133.928711 C207.211915,133.928711 207.43164,133.960449 207.636719,134.023926 L207.607422,136.060059 Z M212.272949,142.146484 C211.110834,142.146484 210.164799,141.790043 209.434814,141.077148 C208.70483,140.364254 208.339844,139.414557 208.339844,138.228027 L208.339844,138.022949 C208.339844,137.227047 208.493651,136.515384 208.80127,135.887939 C209.108888,135.260495 209.544675,134.777101 210.108643,134.437744 C210.67261,134.098387 211.315914,133.928711 212.038574,133.928711 C213.122564,133.928711 213.975827,134.270504 214.598389,134.954102 C215.22095,135.637699 215.532227,136.606927 215.532227,137.861816 L215.532227,138.726074 L210.48584,138.726074 C210.5542,139.243655 210.760496,139.65869 211.104736,139.971191 C211.448976,140.283693 211.884763,140.439941 212.412109,140.439941 C213.227543,140.439941 213.864744,140.144534 214.32373,139.553711 L215.36377,140.718262 C215.046385,141.167483 214.616702,141.517821 214.074707,141.769287 C213.532712,142.020753 212.932132,142.146484 212.272949,142.146484 Z M212.03125,135.642578 C211.611326,135.642578 211.270753,135.784178 211.009521,136.067383 C210.74829,136.350587 210.581055,136.755857 210.507812,137.283203 L213.452148,137.283203 L213.452148,137.114746 C213.442383,136.645994 213.315431,136.283449 213.071289,136.0271 C212.827147,135.770751 212.480471,135.642578 212.03125,135.642578 Z M218.886719,138.726074 L217.128906,138.726074 L216.879883,131.335938 L219.135742,131.335938 L218.886719,138.726074 Z M218.007812,139.883301 C218.36426,139.883301 218.651122,139.98828 218.868408,140.198242 C219.085694,140.408204 219.194336,140.676756 219.194336,141.003906 C219.194336,141.326173 219.085694,141.592284 218.868408,141.802246 C218.651122,142.012208 218.36426,142.117188 218.007812,142.117188 C217.656248,142.117188 217.371827,142.012208 217.154541,141.802246 C216.937255,141.592284 216.828613,141.326173 216.828613,141.003906 C216.828613,140.681639 216.937255,140.414308 217.154541,140.201904 C217.371827,139.989501 217.656248,139.883301 218.007812,139.883301 Z" id="Write-your-slogan-he" fill="#9B9B9B"></path>
                <path d="M74.7057889,26.8354889 C68.8162333,21.9451556 61.2531222,19.0003778 53.0005667,19.0003778 C39.7141222,19.0003778 28.2372333,26.6390444 22.6442333,37.7476 C30.3395667,35.3411556 38.1123444,33.1273778 44.9482333,31.5841556 C55.4032333,29.2268222 65.9470111,27.7534889 74.7057889,26.8354889" id="Fill-1" fill="#FF8516"></path>
                <g id="Group-5" transform="translate(19.000000, 30.333333)">
                    <mask id="mask-2" fill="white">
                        <use xlink:href="#path-1"></use>
                    </mask>
                    <g id="Clip-4"></g>
                    <path d="M60.4820333,1.3685 C60.2704778,1.10594444 60.0532556,0.852833333 59.8341444,0.597833333 C45.3935889,4.04694444 30.7169222,8.44427778 16.5049222,14.0958333 C10.5152556,16.6458333 5.02992222,19.2015 0.0508111111,21.6665 C0.0413666667,22.0008333 -0.000188888889,22.3295 -0.000188888889,22.6676111 C-0.000188888889,28.4872778 1.46747778,33.9612778 4.04392222,38.7515 C9.1307,33.8630556 14.6217,29.2069444 20.4715889,24.8625 C32.7965889,16.0092778 46.0943667,8.28183333 60.4820333,1.3685" id="Fill-3" fill="#FF8516" mask="url(#mask-2)"></path>
                </g>
                <path d="M56.0930556,55.1958333 C45.8930556,64.4740556 39.0685,74.1055 34.9375,81.7687222 C40.1753889,85.0648333 46.3539444,86.9990556 52.9990556,86.9990556 C71.7783889,86.9990556 86.9990556,71.7783889 86.9990556,52.9990556 C86.9990556,46.9753889 85.4180556,41.3276111 82.6697222,36.4202778 C73.2441667,42.1039444 63.9716111,48.0293889 56.0930556,55.1958333" id="Fill-6" fill="#FF8516"></path>
            </g>
        </g>
    </g>
</svg>