<?xml version="1.0" encoding="utf-8"?>
<!-- Generator: Adobe Illustrator 21.0.2, SVG Export Plug-In . SVG Version: 6.00 Build 0)  -->
<svg version="1.1" id="Layer_1" xmlns="http://www.w3.org/2000/svg" xmlns:xlink="http://www.w3.org/1999/xlink" x="0px" y="0px"
	 viewBox="0 0 1311 805" style="enable-background:new 0 0 1311 805;" xml:space="preserve">
<style type="text/css">
	.st0{fill:none;stroke:#000000;stroke-width:3;stroke-linecap:square;}
</style>
<title>Croop&amp;knife</title>
<desc>Created with Sketch.</desc>
<g id="Usability-Test-5.4">
	<g id="pdf_toPrintMemberCard_2480x3300" transform="translate(-612.000000, -1131.000000)">
		<g id="Croop_x26_knife" transform="translate(614.000000, 1133.000000)">
			<path id="Line" class="st0" d="M102,0v50"/>
			<path id="Line-Copy-8" class="st0" d="M102,751v50"/>
			<path id="Line-Copy-6" class="st0" d="M0,659h50"/>
			<path id="Line-Copy-10" class="st0" d="M0,104h50"/>
			<path id="Line-Copy-5" class="st0" d="M1203,103h50"/>
			<path id="Line-Copy-7" class="st0" d="M1203,659h50"/>
			<path id="Line-Copy-3" class="st0" d="M1150,0v50"/>
			<path id="Line-Copy-9" class="st0" d="M1150,751v50"/>
			<g id="noun_928491_cc" transform="translate(1230.000000, 5.000000)">
				<g id="Group">
					<path id="Shape" d="M19.2,68.7l-15,15V64.8l5.6-5.6c0.8-0.8,0.8-2.1,0-2.9c-0.8-0.8-2.1-0.8-2.9,0l-6.2,6.2
						C0.2,62.9,0,63.4,0,64v24.8c0,0.8,0.5,1.6,1.3,1.9c0.3,0.1,0.5,0.2,0.8,0.2c0.5,0,1.1-0.2,1.5-0.6l18.6-18.6
						c0.8-0.8,0.8-2.1,0-2.9C21.3,67.9,20,67.9,19.2,68.7z"/>
					<path id="Shape_1_" d="M51,27.4c-0.8-0.8-2.1-0.8-2.9,0L35.7,39.8c-0.8-0.4-1.7-0.6-2.7-0.6c-3.4,0-6.2,2.8-6.2,6.2
						c0,1,0.2,1.8,0.6,2.7l-2.1,2.1c-0.8,0.8-0.8,2.1,0,2.9c0.4,0.4,0.9,0.6,1.5,0.6c0.5,0,1.1-0.2,1.5-0.6l2.1-2.1
						c0.8,0.4,1.7,0.6,2.7,0.6c3.4,0,6.2-2.8,6.2-6.2c0-1-0.2-1.8-0.6-2.7L51,30.3C51.8,29.5,51.8,28.2,51,27.4z M33,47.5
						c-1.1,0-2.1-0.9-2.1-2.1s0.9-2.1,2.1-2.1c1.1,0,2.1,0.9,2.1,2.1S34.2,47.5,33,47.5z"/>
					<path id="Shape_2_" d="M63.2,0c-4.1,0-7.9,1.6-10.7,4.5L11.8,45.1c-2.4,2.4-2.4,6.3,0,8.8l12.7,12.7c1.2,1.2,2.7,1.8,4.4,1.8
						s3.2-0.6,4.4-1.8l34.2-34.2c0.8-0.8,0.8-2.1,0-2.9c-0.8-0.8-2.1-0.8-2.9,0L30.3,63.7c-0.8,0.8-2.1,0.8-2.9,0L14.7,51
						c-0.8-0.8-0.8-2.1,0-2.9L55.4,7.4c2.1-2.1,4.9-3.2,7.8-3.2c6.1,0,11.1,5,11.1,11.1c0,2.4-0.8,4.7-2.2,6.6L61.3,10.9
						c-0.8-0.8-2.1-0.8-2.9,0c-0.8,0.8-0.8,2.1,0,2.9l12.4,12.4c0.8,0.8,2.1,0.8,2.9,0l0.3-0.3c2.9-2.9,4.5-6.7,4.5-10.7
						C78.4,6.8,71.6,0,63.2,0z"/>
				</g>
			</g>
		</g>
	</g>
</g>
</svg>
