<?xml version="1.0" encoding="utf-8"?>
<!-- Generator: Adobe Illustrator 21.0.2, SVG Export Plug-In . SVG Version: 6.00 Build 0)  -->
<svg version="1.1" id="Layer_1" xmlns="http://www.w3.org/2000/svg" xmlns:xlink="http://www.w3.org/1999/xlink" x="0px" y="0px"
	 viewBox="0 0 606 359.8" style="enable-background:new 0 0 606 359.8;" xml:space="preserve">
<style type="text/css">
	.st0{fill:none;stroke:#000000;stroke-width:1.3849;stroke-linecap:square;}
</style>
<title>Croop&amp;knife</title>
<desc>Created with Sketch.</desc>
<g id="Usability-Test-5.4">
	<g id="pdf_toPrintMemberCard_2480x3300" transform="translate(-612.000000, -1131.000000)">
		<g id="Croop_x26_knife" transform="translate(614.000000, 1133.000000)">
			<path id="Line" class="st0" d="M47.1,0v23.1"/>
			<path id="Line-Copy-6" class="st0" d="M0,304.2h23.1"/>
			<path id="Line-Copy-10" class="st0" d="M0,48h23.1"/>
			<path id="Line-Copy-5" class="st0" d="M555.3,47.5h23.1"/>
			<path id="Line-Copy-7" class="st0" d="M555.3,304.2h23.1"/>
			<path id="Line-Copy-3" class="st0" d="M530.9,0v23.1"/>
			<g>
				<path id="Line-Copy-8" class="st0" d="M47.1,334.7v23.1"/>
				<path id="Line-Copy-9" class="st0" d="M530.9,334.7v23.1"/>
			</g>
			<g id="noun_928491_cc" transform="translate(1230.000000, 5.000000)">
				<g id="Group">
					<path id="Shape" d="M-653.3,29l-6.9,6.9v-8.7l2.6-2.6c0.4-0.4,0.4-1,0-1.3s-1-0.4-1.3,0l-2.9,2.9c-0.2,0.2-0.3,0.4-0.3,0.7
						v11.4c0,0.4,0.2,0.7,0.6,0.9c0.1,0,0.2,0.1,0.4,0.1c0.2,0,0.5-0.1,0.7-0.3l8.6-8.6c0.4-0.4,0.4-1,0-1.3
						C-652.4,28.6-653,28.6-653.3,29z"/>
					<path id="Shape_1_" d="M-638.7,10c-0.4-0.4-1-0.4-1.3,0l-5.7,5.7c-0.4-0.2-0.8-0.3-1.2-0.3c-1.6,0-2.9,1.3-2.9,2.9
						c0,0.4,0.1,0.9,0.3,1.2l-1,1c-0.4,0.4-0.4,1,0,1.3c0.2,0.2,0.4,0.3,0.7,0.3s0.5-0.1,0.7-0.3l1-1c0.4,0.2,0.8,0.3,1.2,0.3
						c1.6,0,2.9-1.3,2.9-2.9c0-0.4-0.1-0.9-0.3-1.2l5.7-5.7C-638.3,10.9-638.3,10.3-638.7,10z M-647,19.2c-0.5,0-1-0.4-1-1
						c0-0.5,0.4-1,1-1c0.5,0,1,0.4,1,1C-646,18.8-646.4,19.2-647,19.2z"/>
					<path id="Shape_2_" d="M-633-2.7c-1.9,0-3.6,0.7-5,2.1l-18.8,18.8c-1.1,1.1-1.1,2.9,0,4l5.9,5.9c0.5,0.5,1.3,0.8,2,0.8
						s1.5-0.3,2-0.8l15.8-15.8c0.4-0.4,0.4-1,0-1.3c-0.4-0.4-1-0.4-1.3,0l-15.8,15.8c-0.4,0.4-1,0.4-1.3,0l-5.9-5.9
						c-0.4-0.4-0.4-1,0-1.3l18.8-18.8c1-1,2.3-1.5,3.6-1.5c2.8,0,5.1,2.3,5.1,5.1c0,1.1-0.4,2.2-1,3l-5-5c-0.4-0.4-1-0.4-1.3,0
						s-0.4,1,0,1.3l5.7,5.7c0.4,0.4,1,0.4,1.3,0l0.1-0.1c1.3-1.3,2.1-3.1,2.1-5C-626,0.5-629.1-2.7-633-2.7z"/>
				</g>
			</g>
		</g>
	</g>
</g>
</svg>
