<?xml version="1.0" encoding="utf-8"?>
<!-- Generator: Adobe Illustrator 21.0.2, SVG Export Plug-In . SVG Version: 6.00 Build 0)  -->
<svg version="1.1" id="Layer_1" xmlns="http://www.w3.org/2000/svg" xmlns:xlink="http://www.w3.org/1999/xlink" x="0px" y="0px"
	 viewBox="0 0 92 71" style="enable-background:new 0 0 92 71;" xml:space="preserve">
<title>Scizors</title>
<desc>Created with Sketch.</desc>
<g id="Usability-Test-5.4">
	<g id="pdf_toPrintMemberCard_2480x3300" transform="translate(-1817.000000, -2259.000000)">
		<g id="Scizors" transform="translate(1817.000000, 2259.000000)">
			<g id="Group">
				<path id="Shape" d="M59.2,21.5c-0.5-1.5-0.7-3.1-0.7-4.8C58.5,7.5,66,0,75.2,0s16.7,7.5,16.7,16.7s-7.5,16.7-16.7,16.7
					c-6.1,0-11.4-3.2-14.3-8.1l-7.4,3.6l-0.1,0.2c0,0-0.1,0-0.1-0.1l-47,22.8c0,0,1.1,0.5,2.4,1.1c2.7,1.2,5.3,2.1,7.7,2.4
					c1.8,0.2,3.3,0.2,4.7-0.2c3-0.8,7.2-2.6,12.1-5.3c1.6-0.8,3.2-1.7,4.8-2.7c3.3-1.9,6.5-3.9,9.7-5.9c1.1-0.7,2.1-1.4,3-2
					c0.5-0.4,0.9-0.6,1.1-0.7c1-0.7,2.4-0.8,3.5-0.3l8.3,3.9c3-2.9,7.1-4.6,11.5-4.6c9.2,0,16.7,7.5,16.7,16.7S84.4,71,75.2,71
					s-16.7-7.5-16.7-16.7c0-3.2,0.9-6.2,2.5-8.7l-7.4-3.5c0.2,0.1,0.4,0.1,0.6-0.1c-0.2,0.1-0.6,0.4-1.1,0.8c-0.9,0.6-1.9,1.3-3,2
					c-3.2,2.1-6.5,4.1-9.8,6c-1.7,1-3.4,1.9-5,2.8c-5.2,2.8-9.6,4.8-13,5.6c-1.9,0.5-4.1,0.6-6.3,0.3c-2.9-0.4-5.9-1.4-8.9-2.8
					c-1.4-0.6-2.7-1.3-3.9-2c-0.7-0.4-1.2-0.7-1.5-0.9c-1.9-1.1-1.7-3.6,0.2-4.5l32.9-16l-33-15.3c-1.9-0.9-2.2-3.3-0.4-4.5
					c0.3-0.2,0.8-0.5,1.6-1c1.2-0.7,2.5-1.4,3.9-2.1c3-1.4,6.1-2.5,8.9-2.9c2.2-0.3,4.2-0.3,6.1,0.2c3.6,0.9,8.4,3,14.3,6.1
					c1.6,0.8,3.2,1.7,4.8,2.6c3.5,2,7,4.1,10.3,6.2c0.8,0.5,1.6,1,2.3,1.5L59.2,21.5z M49.1,26.4C49.1,26.4,49,26.4,49.1,26.4
					c-3.4-2.1-6.9-4.2-10.3-6.2c-1.6-0.9-3.2-1.8-4.7-2.6c-5.6-3-10.1-5-13.3-5.7c-1.3-0.3-2.8-0.4-4.5-0.1
					c-2.4,0.4-5.1,1.3-7.8,2.5c-0.8,0.4-2.4,1.2-2.4,1.2L39.5,31L49.1,26.4L49.1,26.4z M75.2,29.2c6.9,0,12.5-5.6,12.5-12.5
					S82.1,4.2,75.2,4.2c-6.9,0-12.5,5.6-12.5,12.5S68.3,29.2,75.2,29.2z M75.2,66.8c6.9,0,12.5-5.6,12.5-12.5s-5.6-12.5-12.5-12.5
					c-6.9,0-12.5,5.6-12.5,12.5S68.3,66.8,75.2,66.8z"/>
			</g>
		</g>
	</g>
</g>
</svg>
