<?xml version="1.0" encoding="UTF-8"?>
<svg width="11px" height="11px" viewBox="0 0 11 11" version="1.1" xmlns="http://www.w3.org/2000/svg" xmlns:xlink="http://www.w3.org/1999/xlink">
    <!-- Generator: Sketch 44.1 (41455) - http://www.bohemiancoding.com/sketch -->
    <title>Atoms/Icon/RecycleBin/12</title>
    <desc>Created with Sketch.</desc>
    <defs>
        <polygon id="path-1" points="0 10 11 10 11 0 0 0"></polygon>
    </defs>
    <g id="Page-1-v.2" stroke="none" stroke-width="1" fill="none" fill-rule="evenodd">
        <g id="icons" transform="translate(-186.000000, -183.000000)">
            <g id="Atoms/Icon/RecycleBin/12" transform="translate(185.000000, 183.000000)">
                <g id="container">
                    <rect x="0" y="0" width="12" height="12"></rect>
                </g>
                <g id="Page-1" transform="translate(1.000000, 0.000000)">
                    <path d="M9,3 L10,3 L10,9.5 C10,10.329 9.329,11 8.5,11 L2.5,11 C1.671,11 1,10.329 1,9.5 L1,3 L2,3 L2,9.5 C2,9.775 2.224,10 2.5,10 L8.5,10 C8.776,10 9,9.775 9,9.5 L9,3 Z" id="Fill-1" fill="#2C2D30"></path>
                    <mask id="mask-2" fill="white">
                        <use xlink:href="#path-1"></use>
                    </mask>
                    <g id="Clip-4"></g>
                    <polygon id="Fill-3" fill="#2C2D30" mask="url(#mask-2)" points="0 2 11 2 11 1 0 1"></polygon>
                    <path d="M3,8.5 L3,3.5 C3,3.224 3.224,3 3.5,3 C3.776,3 4,3.224 4,3.5 L4,8.5 C4,8.776 3.776,9 3.5,9 C3.224,9 3,8.776 3,8.5 Z" id="Fill-5" fill="#2C2D30" mask="url(#mask-2)"></path>
                    <path d="M5,8.5 L5,3.5 C5,3.224 5.224,3 5.5,3 C5.776,3 6,3.224 6,3.5 L6,8.5 C6,8.776 5.776,9 5.5,9 C5.224,9 5,8.776 5,8.5 Z" id="Fill-6" fill="#2C2D30" mask="url(#mask-2)"></path>
                    <path d="M7,8.5 L7,3.5 C7,3.224 7.224,3 7.5,3 C7.776,3 8,3.224 8,3.5 L8,8.5 C8,8.776 7.776,9 7.5,9 C7.224,9 7,8.776 7,8.5 Z" id="Fill-7" fill="#2C2D30" mask="url(#mask-2)"></path>
                    <polygon id="Fill-8" fill="#2C2D30" mask="url(#mask-2)" points="3 1 8 1 8 0 3 0"></polygon>
                </g>
            </g>
        </g>
    </g>
</svg>