<?xml version="1.0" encoding="UTF-8"?>
<svg width="20px" height="20px" viewBox="0 0 20 20" version="1.1" xmlns="http://www.w3.org/2000/svg" xmlns:xlink="http://www.w3.org/1999/xlink">
    <!-- Generator: Sketch 44.1 (41455) - http://www.bohemiancoding.com/sketch -->
    <title>Atoms/Icon/RecycleBin/24</title>
    <desc>Created with Sketch.</desc>
    <defs>
        <polygon id="path-1" points="0 14 16 14 16 0.0313 0 0.0313"></polygon>
    </defs>
    <g id="Page-1-v.2" stroke="none" stroke-width="1" fill="none" fill-rule="evenodd">
        <g id="icons" transform="translate(-131.000000, -182.000000)">
            <g id="Atoms/Icon/RecycleBin/24" transform="translate(129.000000, 180.000000)">
                <g id="ic_Recycle-bin--Copy">
                    <g>
                        <rect id="container" x="0" y="0" width="24" height="24"></rect>
                    </g>
                </g>
                <g id="Page-1" transform="translate(2.000000, 2.000000)">
                    <g id="Group-3" transform="translate(2.000000, 6.000000)">
                        <mask id="mask-2" fill="white">
                            <use xlink:href="#path-1"></use>
                        </mask>
                        <g id="Clip-2"></g>
                        <path d="M14,0.0313 L16,0.0313 L16,11.0003 C16,12.6573 14.657,14.0003 13,14.0003 L3,14.0003 C1.343,14.0003 0,12.6573 0,11.0003 L0,0.0313 L2,0.0313 L2,11.0003 C2,11.5513 2.448,12.0003 3,12.0003 L13,12.0003 C13.552,12.0003 14,11.5513 14,11.0003 L14,0.0313 Z" id="Fill-1" fill="#2C2D30" mask="url(#mask-2)"></path>
                    </g>
                    <polygon id="Fill-4" fill="#2C2D30" points="20 5 0 5 0 3 20 3"></polygon>
                    <path d="M7,16.1139 L7,16.1139 C6.45,16.1139 6,15.6639 6,15.1139 L6,7.9999 C6,7.4499 6.45,6.9999 7,6.9999 L7,6.9999 C7.55,6.9999 8,7.4499 8,7.9999 L8,15.1139 C8,15.6639 7.55,16.1139 7,16.1139" id="Fill-6" fill="#2C2D30"></path>
                    <path d="M10,16.1139 L10,16.1139 C9.45,16.1139 9,15.6639 9,15.1139 L9,7.9999 C9,7.4499 9.45,6.9999 10,6.9999 L10,6.9999 C10.55,6.9999 11,7.4499 11,7.9999 L11,15.1139 C11,15.6639 10.55,16.1139 10,16.1139" id="Fill-8" fill="#2C2D30"></path>
                    <path d="M13,16.1139 L13,16.1139 C12.45,16.1139 12,15.6639 12,15.1139 L12,7.9999 C12,7.4499 12.45,6.9999 13,6.9999 L13,6.9999 C13.55,6.9999 14,7.4499 14,7.9999 L14,15.1139 C14,15.6639 13.55,16.1139 13,16.1139" id="Fill-10" fill="#2C2D30"></path>
                    <path d="M14,0 L6,0 C5.45,0 5,0.45 5,1 L5,4 C5,4.55 5.45,5 6,5 L14,5 C14.55,5 15,4.55 15,4 L15,1 C15,0.45 14.55,0 14,0 L14,0 Z M7,3 L13,3 L13,2 L7,2 L7,3 Z" id="Fill-12" fill="#2C2D30"></path>
                </g>
            </g>
        </g>
    </g>
</svg>