<svg id="Layer_1" data-name="Layer 1" xmlns="http://www.w3.org/2000/svg" xmlns:xlink="http://www.w3.org/1999/xlink" viewBox="0 0 280 160"><defs><style>.cls-1{fill:#fff;}.cls-2{fill:url(#radial-gradient);}.cls-3{fill:#d1d1d1;}.cls-4{mask:url(#mask);}.cls-5{isolation:isolate;}.cls-6{fill:#773919;}.cls-7{fill:#2d2d2d;}.cls-8{fill:#9b9b9b;}</style><radialGradient id="radial-gradient" cx="-229.78" cy="737.81" r="0.49" gradientTransform="matrix(65.59, 0, 0, -65.27, 15117.9, 48212.79)" gradientUnits="userSpaceOnUse"><stop offset="0" stop-color="#ffa335"/><stop offset="0.68" stop-color="#f38326"/><stop offset="1" stop-color="#f35b31"/></radialGradient><mask id="mask" x="12.27" y="20.47" width="67.19" height="65.27" maskUnits="userSpaceOnUse"><g id="mask-5"><ellipse id="path-4" class="cls-1" cx="45.78" cy="53.11" rx="32.8" ry="32.64"/></g></mask></defs><title>Artboard 1</title><rect class="cls-1" width="280" height="160"/><g id="Templates_1" data-name="Templates#1"><g id="Template_Small_Monitor_992_2x" data-name="Template_Small_Monitor_992@2x"><g id="Group-3"><g id="Group-2"><g id="Mask-2" data-name="Mask"><g id="path-4-2" data-name="path-4"><path class="cls-2" d="M45.78,86.24a33.14,33.14,0,1,1,33.3-33.14A33.25,33.25,0,0,1,45.78,86.24Z"/><path class="cls-3" d="M45.78,20.47A32.64,32.64,0,1,1,13,53.11a32.72,32.72,0,0,1,32.8-32.64m0-1a33.64,33.64,0,1,0,33.8,33.64,33.76,33.76,0,0,0-33.8-33.64Z"/></g></g><g class="cls-4"><path class="cls-1" d="M12.27,52.25l2.54-15.39S35.53,36.18,50.27,39s28.89,9.75,28.89,9.75l.31,2.7A93.76,93.76,0,0,0,51.6,60.76c-13.93,7.4-22.11,22.52-22.11,22.52L17.36,72.62a77.55,77.55,0,0,1,25-16.55,119.94,119.94,0,0,1,28.89-7.24,120.52,120.52,0,0,0-28.89-2.34C23.32,47.48,12.27,52.25,12.27,52.25Z"/></g><g id="Metropolitan-Dalttom" class="cls-5"><g class="cls-5"><path class="cls-6" d="M105.33,29.24V11.35h5.41L114,23.56l3.21-12.21h5.42v17.9h-3.36V15.16l-3.55,14.09h-3.48l-3.54-14.09V29.24Z"/><path class="cls-6" d="M133.69,25.12l3.42.57A5.61,5.61,0,0,1,135,28.55a6.11,6.11,0,0,1-3.56,1,5.8,5.8,0,0,1-5-2.21,7.43,7.43,0,0,1-1.28-4.47,7.16,7.16,0,0,1,1.68-5A5.55,5.55,0,0,1,131.12,16a5.76,5.76,0,0,1,4.57,1.91q1.67,1.91,1.6,5.85h-8.59a3.47,3.47,0,0,0,.83,2.37,2.59,2.59,0,0,0,2,.85,2.1,2.1,0,0,0,1.35-.44A2.71,2.71,0,0,0,133.69,25.12Zm.2-3.47a3.3,3.3,0,0,0-.77-2.26,2.47,2.47,0,0,0-3.64,0,3.16,3.16,0,0,0-.72,2.22Z"/><path class="cls-6" d="M146,16.28V19h-2.34v5.22a13,13,0,0,0,.07,1.85.75.75,0,0,0,.3.43,1,1,0,0,0,.58.17,4.44,4.44,0,0,0,1.38-.33l.29,2.66a6.82,6.82,0,0,1-2.71.51,4.28,4.28,0,0,1-1.67-.31,2.43,2.43,0,0,1-1.09-.81,3.18,3.18,0,0,1-.48-1.34,16.65,16.65,0,0,1-.11-2.42V19h-1.57V16.28h1.57V13.7l3.44-2v4.58Z"/><path class="cls-6" d="M151.69,29.24h-3.43v-13h3.19v1.84a5.53,5.53,0,0,1,1.47-1.72A2.71,2.71,0,0,1,154.4,16a4.35,4.35,0,0,1,2.26.65l-1.06,3a3,3,0,0,0-1.61-.56,1.91,1.91,0,0,0-1.22.4,2.71,2.71,0,0,0-.79,1.43,20.36,20.36,0,0,0-.29,4.35Z"/><path class="cls-6" d="M157.34,22.58a7,7,0,0,1,.84-3.31,5.77,5.77,0,0,1,2.39-2.44A7.07,7.07,0,0,1,164,16a6.48,6.48,0,0,1,4.82,1.91,6.6,6.6,0,0,1,1.88,4.83,6.68,6.68,0,0,1-1.9,4.88A6.41,6.41,0,0,1,164,29.54a7.53,7.53,0,0,1-3.4-.81,5.52,5.52,0,0,1-2.46-2.36A7.86,7.86,0,0,1,157.34,22.58Zm3.52.18a4.3,4.3,0,0,0,.92,3,3,3,0,0,0,4.51,0,4.35,4.35,0,0,0,.91-3,4.27,4.27,0,0,0-.91-2.93,3,3,0,0,0-4.51,0A4.3,4.3,0,0,0,160.86,22.76Z"/><path class="cls-6" d="M173.31,16.28h3.2v1.9a4.79,4.79,0,0,1,1.68-1.59,4.64,4.64,0,0,1,2.36-.61,4.94,4.94,0,0,1,3.83,1.77A7.16,7.16,0,0,1,186,22.69a7.38,7.38,0,0,1-1.59,5,4.94,4.94,0,0,1-3.85,1.8,4.37,4.37,0,0,1-1.95-.43,6.54,6.54,0,0,1-1.84-1.46v6.53h-3.43Zm3.39,6.26a5,5,0,0,0,.87,3.23,2.65,2.65,0,0,0,2.11,1,2.48,2.48,0,0,0,2-1,4.94,4.94,0,0,0,.79-3.14,4.69,4.69,0,0,0-.82-3,2.53,2.53,0,0,0-2-1,2.63,2.63,0,0,0-2.09,1A4.32,4.32,0,0,0,176.71,22.54Z"/><path class="cls-6" d="M187.89,22.58a7,7,0,0,1,.84-3.31,5.78,5.78,0,0,1,2.39-2.44,7.07,7.07,0,0,1,3.45-.84,6.47,6.47,0,0,1,4.82,1.91,6.6,6.6,0,0,1,1.88,4.83,6.68,6.68,0,0,1-1.9,4.88,6.42,6.42,0,0,1-4.78,1.93,7.53,7.53,0,0,1-3.4-.81,5.53,5.53,0,0,1-2.46-2.36A7.88,7.88,0,0,1,187.89,22.58Zm3.52.18a4.29,4.29,0,0,0,.92,3,3,3,0,0,0,4.51,0,4.35,4.35,0,0,0,.91-3,4.27,4.27,0,0,0-.91-2.93,3,3,0,0,0-4.51,0A4.29,4.29,0,0,0,191.4,22.76Z"/><path class="cls-6" d="M204,29.24V11.35h3.43v17.9Z"/><path class="cls-6" d="M210.9,14.52V11.35h3.43v3.17Zm0,14.72v-13h3.43v13Z"/><path class="cls-6" d="M223.79,16.28V19h-2.34v5.22a12.88,12.88,0,0,0,.07,1.85.75.75,0,0,0,.3.43,1,1,0,0,0,.58.17,4.45,4.45,0,0,0,1.38-.33l.29,2.66a6.82,6.82,0,0,1-2.71.51,4.29,4.29,0,0,1-1.67-.31,2.44,2.44,0,0,1-1.09-.81,3.18,3.18,0,0,1-.48-1.34,16.67,16.67,0,0,1-.11-2.42V19h-1.58V16.28H218V13.7l3.44-2v4.58Z"/><path class="cls-6" d="M228.73,20.23l-3.11-.56a4.84,4.84,0,0,1,1.81-2.78,6.6,6.6,0,0,1,3.81-.9,8.23,8.23,0,0,1,3.42.54,3.41,3.41,0,0,1,1.58,1.38,7.08,7.08,0,0,1,.46,3.07l0,4a14,14,0,0,0,.16,2.52,7.31,7.31,0,0,0,.62,1.74H234q-.13-.34-.33-1c-.06-.2-.1-.34-.12-.4a6.18,6.18,0,0,1-1.88,1.28,5.38,5.38,0,0,1-2.14.43,4.42,4.42,0,0,1-3.16-1.09,3.61,3.61,0,0,1-1.15-2.75,3.69,3.69,0,0,1,.52-2,3.43,3.43,0,0,1,1.47-1.32,11.47,11.47,0,0,1,2.73-.8,18.72,18.72,0,0,0,3.33-.84v-.34a1.78,1.78,0,0,0-.49-1.41,2.92,2.92,0,0,0-1.84-.42,2.46,2.46,0,0,0-1.43.36A2.5,2.5,0,0,0,228.73,20.23ZM233.32,23a21.43,21.43,0,0,1-2.09.52,6.3,6.3,0,0,0-1.87.6,1.43,1.43,0,0,0-.67,1.21,1.68,1.68,0,0,0,.54,1.25,1.87,1.87,0,0,0,1.37.52,3,3,0,0,0,1.77-.61,2.15,2.15,0,0,0,.82-1.13,6.82,6.82,0,0,0,.13-1.67Z"/><path class="cls-6" d="M251.86,29.24h-3.43V22.63a10.23,10.23,0,0,0-.22-2.72,1.91,1.91,0,0,0-.71-1,2,2,0,0,0-1.19-.34,2.75,2.75,0,0,0-1.6.49,2.46,2.46,0,0,0-1,1.29,11.14,11.14,0,0,0-.26,3v5.87H240v-13h3.19v1.9a5.31,5.31,0,0,1,6.35-1.79,3.48,3.48,0,0,1,1.42,1,3.79,3.79,0,0,1,.67,1.44,10.73,10.73,0,0,1,.19,2.31Z"/></g><g class="cls-5"><path class="cls-6" d="M162.3,38.35h6.6a12.91,12.91,0,0,1,3.41.34,6,6,0,0,1,2.7,1.65,7.83,7.83,0,0,1,1.71,2.9,13.21,13.21,0,0,1,.59,4.23,11.76,11.76,0,0,1-.55,3.81,7.88,7.88,0,0,1-1.92,3.16,6.36,6.36,0,0,1-2.54,1.43,10.92,10.92,0,0,1-3.2.38h-6.8Zm3.61,3V53.23h2.7a9.9,9.9,0,0,0,2.19-.17,3.34,3.34,0,0,0,1.46-.75,3.79,3.79,0,0,0,.95-1.73,11.66,11.66,0,0,0,.37-3.28,10.68,10.68,0,0,0-.37-3.19,4.1,4.1,0,0,0-1-1.73,3.44,3.44,0,0,0-1.67-.84,16.36,16.36,0,0,0-3-.17Z"/><path class="cls-6" d="M182.91,47.23l-3.11-.56a4.85,4.85,0,0,1,1.81-2.78,6.61,6.61,0,0,1,3.81-.9,8.22,8.22,0,0,1,3.42.54,3.42,3.42,0,0,1,1.58,1.38,7.08,7.08,0,0,1,.46,3.07l0,4A13.74,13.74,0,0,0,191,54.5a7.34,7.34,0,0,0,.62,1.74h-3.39q-.13-.34-.33-1c-.06-.2-.1-.34-.12-.4a6.18,6.18,0,0,1-1.88,1.28,5.38,5.38,0,0,1-2.14.43,4.42,4.42,0,0,1-3.15-1.09,3.61,3.61,0,0,1-1.15-2.75,3.68,3.68,0,0,1,.53-2,3.42,3.42,0,0,1,1.47-1.32,11.44,11.44,0,0,1,2.73-.8,18.75,18.75,0,0,0,3.33-.84v-.34A1.78,1.78,0,0,0,187,46a2.92,2.92,0,0,0-1.84-.42,2.46,2.46,0,0,0-1.43.36A2.5,2.5,0,0,0,182.91,47.23ZM187.5,50a21.32,21.32,0,0,1-2.09.52,6.31,6.31,0,0,0-1.87.6,1.43,1.43,0,0,0-.67,1.21,1.69,1.69,0,0,0,.54,1.25,1.88,1.88,0,0,0,1.37.52,3,3,0,0,0,1.77-.61,2.15,2.15,0,0,0,.82-1.13,6.75,6.75,0,0,0,.13-1.67Z"/><path class="cls-6" d="M194.25,56.24V38.35h3.43v17.9Z"/><path class="cls-6" d="M207.14,43.28V46h-2.34v5.22a12.88,12.88,0,0,0,.07,1.85.75.75,0,0,0,.3.43,1,1,0,0,0,.58.17,4.45,4.45,0,0,0,1.38-.33l.29,2.66a6.82,6.82,0,0,1-2.71.51,4.29,4.29,0,0,1-1.67-.31,2.44,2.44,0,0,1-1.09-.81,3.18,3.18,0,0,1-.48-1.34,16.67,16.67,0,0,1-.11-2.42V46h-1.58V43.28h1.58V40.7l3.44-2v4.58Z"/><path class="cls-6" d="M215.46,43.28V46h-2.34v5.22a13,13,0,0,0,.07,1.85.75.75,0,0,0,.3.43,1,1,0,0,0,.58.17,4.44,4.44,0,0,0,1.38-.33l.29,2.66a6.82,6.82,0,0,1-2.71.51,4.28,4.28,0,0,1-1.67-.31,2.44,2.44,0,0,1-1.09-.81,3.19,3.19,0,0,1-.48-1.34,16.62,16.62,0,0,1-.11-2.42V46H208.1V43.28h1.57V40.7l3.44-2v4.58Z"/><path class="cls-6" d="M217,49.58a7,7,0,0,1,.84-3.31,5.77,5.77,0,0,1,2.39-2.44,7.08,7.08,0,0,1,3.45-.84,6.48,6.48,0,0,1,4.82,1.91,6.61,6.61,0,0,1,1.88,4.83,6.68,6.68,0,0,1-1.9,4.88,6.41,6.41,0,0,1-4.78,1.93,7.53,7.53,0,0,1-3.4-.81,5.53,5.53,0,0,1-2.46-2.36A7.87,7.87,0,0,1,217,49.58Zm3.52.18a4.3,4.3,0,0,0,.92,3,3,3,0,0,0,4.51,0,4.35,4.35,0,0,0,.91-3,4.27,4.27,0,0,0-.91-2.93,3,3,0,0,0-4.51,0A4.29,4.29,0,0,0,220.56,49.76Z"/><path class="cls-6" d="M232.86,43.28H236v1.77a5.08,5.08,0,0,1,4-2.06,4.36,4.36,0,0,1,2.16.51,3.94,3.94,0,0,1,1.5,1.55,6,6,0,0,1,1.84-1.55,4.53,4.53,0,0,1,2.11-.51,4.7,4.7,0,0,1,2.42.58,3.55,3.55,0,0,1,1.48,1.7,7.38,7.38,0,0,1,.35,2.69v8.29h-3.43V48.83a5.51,5.51,0,0,0-.35-2.49,1.62,1.62,0,0,0-1.46-.73,2.34,2.34,0,0,0-1.36.44,2.44,2.44,0,0,0-.92,1.29,9.26,9.26,0,0,0-.28,2.68v6.23h-3.43v-7.1a9.91,9.91,0,0,0-.18-2.44,1.56,1.56,0,0,0-.57-.82,1.79,1.79,0,0,0-1-.27,2.5,2.5,0,0,0-1.43.43,2.34,2.34,0,0,0-.91,1.23,9.14,9.14,0,0,0-.28,2.67v6.3h-3.43Z"/></g></g><g id="renewal:-30-Sept-203" class="cls-5"><g class="cls-5"><path class="cls-7" d="M189.27,114.5v-4.15h.63V111a1.72,1.72,0,0,1,.45-.58.78.78,0,0,1,.45-.14,1.37,1.37,0,0,1,.72.23l-.24.65a1,1,0,0,0-.52-.15.67.67,0,0,0-.41.14.75.75,0,0,0-.26.38,2.74,2.74,0,0,0-.12.82v2.17Z"/><path class="cls-7" d="M194.79,113.16l.73.09a1.78,1.78,0,0,1-.64,1,1.92,1.92,0,0,1-1.19.35,1.9,1.9,0,0,1-1.44-.56,2.19,2.19,0,0,1-.53-1.57,2.29,2.29,0,0,1,.54-1.62,1.82,1.82,0,0,1,1.4-.58,1.77,1.77,0,0,1,1.36.57,2.25,2.25,0,0,1,.53,1.59s0,.1,0,.19h-3.09a1.59,1.59,0,0,0,.39,1,1.15,1.15,0,0,0,.87.36,1.07,1.07,0,0,0,.66-.2A1.36,1.36,0,0,0,194.79,113.16ZM192.48,112h2.32a1.41,1.41,0,0,0-.27-.79,1.08,1.08,0,0,0-.87-.41,1.12,1.12,0,0,0-.81.32A1.28,1.28,0,0,0,192.48,112Z"/><path class="cls-7" d="M196.4,114.5v-4.15H197v.59a1.49,1.49,0,0,1,1.32-.68,1.73,1.73,0,0,1,.69.13,1.09,1.09,0,0,1,.47.35,1.37,1.37,0,0,1,.22.52,4.1,4.1,0,0,1,0,.68v2.55h-.7V112a1.89,1.89,0,0,0-.08-.64.68.68,0,0,0-.29-.34.92.92,0,0,0-.49-.13,1.14,1.14,0,0,0-.78.29,1.41,1.41,0,0,0-.33,1.08v2.27Z"/><path class="cls-7" d="M203.68,113.16l.73.09a1.78,1.78,0,0,1-.64,1,1.92,1.92,0,0,1-1.19.35,1.9,1.9,0,0,1-1.44-.56,2.19,2.19,0,0,1-.53-1.57,2.29,2.29,0,0,1,.54-1.62,1.82,1.82,0,0,1,1.4-.58,1.77,1.77,0,0,1,1.36.57,2.25,2.25,0,0,1,.53,1.59s0,.1,0,.19h-3.09a1.59,1.59,0,0,0,.39,1,1.15,1.15,0,0,0,.87.36,1.07,1.07,0,0,0,.66-.2A1.36,1.36,0,0,0,203.68,113.16ZM201.38,112h2.32a1.41,1.41,0,0,0-.27-.79,1.08,1.08,0,0,0-.87-.41,1.12,1.12,0,0,0-.81.32A1.28,1.28,0,0,0,201.38,112Z"/><path class="cls-7" d="M206.06,114.5l-1.27-4.15h.73l.66,2.39.25.89.21-.86.66-2.43H208l.62,2.41.21.79.24-.8.71-2.4h.68l-1.3,4.15h-.73l-.66-2.48-.16-.71-.84,3.19Z"/><path class="cls-7" d="M213.78,114a2.62,2.62,0,0,1-.75.47,2.18,2.18,0,0,1-.78.14,1.51,1.51,0,0,1-1.05-.33,1.1,1.1,0,0,1-.37-.85,1.16,1.16,0,0,1,.5-1,1.7,1.7,0,0,1,.51-.23,5.12,5.12,0,0,1,.63-.11,6.41,6.41,0,0,0,1.25-.24c0-.1,0-.16,0-.18a.78.78,0,0,0-.2-.61,1.18,1.18,0,0,0-.8-.24,1.24,1.24,0,0,0-.73.17,1.06,1.06,0,0,0-.35.62l-.69-.09a1.7,1.7,0,0,1,.31-.71,1.35,1.35,0,0,1,.62-.42,2.77,2.77,0,0,1,.94-.15,2.5,2.5,0,0,1,.86.13,1.14,1.14,0,0,1,.49.31,1.12,1.12,0,0,1,.22.48,4,4,0,0,1,0,.65v.94a9.88,9.88,0,0,0,0,1.24,1.55,1.55,0,0,0,.18.5h-.73A1.47,1.47,0,0,1,213.78,114Zm-.06-1.57a5.18,5.18,0,0,1-1.15.27,2.68,2.68,0,0,0-.61.14.61.61,0,0,0-.16,1,.92.92,0,0,0,.62.19,1.45,1.45,0,0,0,.72-.18,1.09,1.09,0,0,0,.46-.49,1.71,1.71,0,0,0,.11-.7Z"/><path class="cls-7" d="M215.5,114.5v-5.73h.7v5.73Z"/><path class="cls-7" d="M217.49,111.15v-.8h.8v.8Zm0,3.35v-.8h.8v.8Z"/></g><g class="cls-5"><path class="cls-7" d="M221.52,113l1.06-.13a1,1,0,0,0,.27.62.77.77,0,0,0,1.11,0,1,1,0,0,0,.23-.7.93.93,0,0,0-.22-.66.71.71,0,0,0-.54-.24,1.91,1.91,0,0,0-.5.08L223,111a1,1,0,0,0,.68-.19.69.69,0,0,0,.23-.54.59.59,0,0,0-.63-.63.66.66,0,0,0-.48.2.91.91,0,0,0-.24.57l-1-.17a2.25,2.25,0,0,1,.32-.83,1.43,1.43,0,0,1,.59-.49,2,2,0,0,1,.85-.18,1.7,1.7,0,0,1,1.3.52,1.31,1.31,0,0,1-.42,2.16,1.33,1.33,0,0,1,.79.47,1.37,1.37,0,0,1,.29.89,1.72,1.72,0,0,1-.55,1.29,2.06,2.06,0,0,1-2.66.08A1.75,1.75,0,0,1,221.52,113Z"/><path class="cls-7" d="M227.86,108.75a1.57,1.57,0,0,1,1.3.59,5.14,5.14,0,0,1,0,4.67,1.56,1.56,0,0,1-1.3.59,1.64,1.64,0,0,1-1.35-.64,5.24,5.24,0,0,1,.05-4.62A1.56,1.56,0,0,1,227.86,108.75Zm0,.91a.55.55,0,0,0-.36.13.85.85,0,0,0-.24.46,9.3,9.3,0,0,0,0,2.82,1,1,0,0,0,.26.5.56.56,0,0,0,.71,0,.86.86,0,0,0,.24-.46,9.28,9.28,0,0,0,0-2.81,1,1,0,0,0-.26-.5A.54.54,0,0,0,227.86,109.66Z"/><path class="cls-7" d="M232.63,112.64l1.13-.11a1.37,1.37,0,0,0,.41.83,1.25,1.25,0,0,0,.84.27,1.29,1.29,0,0,0,.84-.24.7.7,0,0,0,.28-.55.52.52,0,0,0-.12-.35,1,1,0,0,0-.42-.25q-.2-.07-.93-.25a3.14,3.14,0,0,1-1.3-.57,1.49,1.49,0,0,1-.53-1.15,1.47,1.47,0,0,1,.25-.82,1.55,1.55,0,0,1,.71-.58,2.86,2.86,0,0,1,1.13-.2,2.42,2.42,0,0,1,1.62.47,1.67,1.67,0,0,1,.57,1.26l-1.16.05a1,1,0,0,0-.32-.63,1.17,1.17,0,0,0-.73-.19,1.32,1.32,0,0,0-.79.21.42.42,0,0,0-.18.36.44.44,0,0,0,.17.35,3,3,0,0,0,1.06.38,5.62,5.62,0,0,1,1.25.41,1.61,1.61,0,0,1,.63.58,1.8,1.8,0,0,1,0,1.83,1.65,1.65,0,0,1-.77.64,3.24,3.24,0,0,1-1.25.21,2.48,2.48,0,0,1-1.67-.5A2.18,2.18,0,0,1,232.63,112.64Z"/><path class="cls-7" d="M240.65,113.18l1.09.18a1.8,1.8,0,0,1-.67.92,2,2,0,0,1-1.14.31,1.85,1.85,0,0,1-1.6-.71,2.38,2.38,0,0,1-.41-1.43,2.29,2.29,0,0,1,.54-1.62,1.77,1.77,0,0,1,1.36-.58,1.84,1.84,0,0,1,1.46.61,2.71,2.71,0,0,1,.51,1.87h-2.75a1.11,1.11,0,0,0,.27.76.83.83,0,0,0,.63.27.67.67,0,0,0,.43-.14A.87.87,0,0,0,240.65,113.18Zm.06-1.11a1.06,1.06,0,0,0-.25-.72.79.79,0,0,0-1.16,0,1,1,0,0,0-.23.71Z"/><path class="cls-7" d="M242.67,110.35h1V111a1.53,1.53,0,0,1,.54-.51,1.49,1.49,0,0,1,.75-.2,1.58,1.58,0,0,1,1.23.57,2.29,2.29,0,0,1,.5,1.58,2.37,2.37,0,0,1-.51,1.62,1.58,1.58,0,0,1-1.23.58,1.4,1.4,0,0,1-.62-.14,2.07,2.07,0,0,1-.59-.47v2.09h-1.1Zm1.09,2a1.59,1.59,0,0,0,.28,1,.85.85,0,0,0,.68.33.8.8,0,0,0,.64-.31,1.58,1.58,0,0,0,.25-1,1.5,1.5,0,0,0-.26-1,.81.81,0,0,0-.65-.32.84.84,0,0,0-.67.31A1.38,1.38,0,0,0,243.75,112.36Z"/><path class="cls-7" d="M249.49,110.35v.88h-.75v1.67a4.1,4.1,0,0,0,0,.59.24.24,0,0,0,.1.14.31.31,0,0,0,.19.05,1.42,1.42,0,0,0,.44-.11l.09.85a2.19,2.19,0,0,1-.87.16,1.37,1.37,0,0,1-.54-.1.78.78,0,0,1-.35-.26,1,1,0,0,1-.15-.43,5.33,5.33,0,0,1,0-.77v-1.81h-.5v-.87h.5v-.82l1.1-.64v1.46Z"/><path class="cls-7" d="M255.94,113.48v1h-3.85a2.63,2.63,0,0,1,.38-1.1A7.27,7.27,0,0,1,253.7,112a7.85,7.85,0,0,0,.91-.94,1.21,1.21,0,0,0,.23-.67.77.77,0,0,0-.2-.56.84.84,0,0,0-1.09,0,1.06,1.06,0,0,0-.23.69l-1.09-.11a1.79,1.79,0,0,1,.61-1.3,2.06,2.06,0,0,1,1.29-.39,1.86,1.86,0,0,1,1.33.46,1.5,1.5,0,0,1,.48,1.14,2,2,0,0,1-.14.74,3,3,0,0,1-.44.73,7.1,7.1,0,0,1-.72.73q-.52.48-.66.63a1.86,1.86,0,0,0-.22.3Z"/><path class="cls-7" d="M258.54,108.75a1.57,1.57,0,0,1,1.3.59,5.14,5.14,0,0,1,0,4.67,1.56,1.56,0,0,1-1.3.59,1.64,1.64,0,0,1-1.35-.64,5.24,5.24,0,0,1,.05-4.62A1.56,1.56,0,0,1,258.54,108.75Zm0,.91a.55.55,0,0,0-.36.13.85.85,0,0,0-.24.46,9.3,9.3,0,0,0,0,2.82,1,1,0,0,0,.26.5.56.56,0,0,0,.71,0,.86.86,0,0,0,.24-.46,9.28,9.28,0,0,0,0-2.81,1,1,0,0,0-.26-.5A.54.54,0,0,0,258.54,109.66Z"/><path class="cls-7" d="M261.09,113l1.06-.13a1,1,0,0,0,.27.62.77.77,0,0,0,1.11,0,1,1,0,0,0,.23-.7.93.93,0,0,0-.22-.66.71.71,0,0,0-.54-.24,1.91,1.91,0,0,0-.5.08l.12-.89a1,1,0,0,0,.68-.19.69.69,0,0,0,.23-.54.59.59,0,0,0-.63-.63.66.66,0,0,0-.48.2.91.91,0,0,0-.24.57l-1-.17a2.25,2.25,0,0,1,.32-.83,1.43,1.43,0,0,1,.59-.49,2,2,0,0,1,.85-.18,1.7,1.7,0,0,1,1.3.52,1.31,1.31,0,0,1-.42,2.16,1.33,1.33,0,0,1,.79.47,1.37,1.37,0,0,1,.29.89,1.72,1.72,0,0,1-.55,1.29,2.06,2.06,0,0,1-2.66.08A1.75,1.75,0,0,1,261.09,113Z"/><path class="cls-7" d="M269.29,113.48v1h-3.85a2.63,2.63,0,0,1,.38-1.1,7.27,7.27,0,0,1,1.23-1.37,7.85,7.85,0,0,0,.91-.94,1.21,1.21,0,0,0,.23-.67.77.77,0,0,0-.2-.56.84.84,0,0,0-1.09,0,1.06,1.06,0,0,0-.23.69l-1.09-.11a1.79,1.79,0,0,1,.61-1.3,2.06,2.06,0,0,1,1.29-.39,1.86,1.86,0,0,1,1.33.46,1.5,1.5,0,0,1,.48,1.14,2,2,0,0,1-.14.74,3,3,0,0,1-.44.73,7.1,7.1,0,0,1-.72.73q-.52.48-.66.63a1.86,1.86,0,0,0-.22.3Z"/></g></g><g id="Write-your-slogan-he" class="cls-5"><g class="cls-5"><path class="cls-8" d="M67.24,142.3l-2.35-9.84h2l1.48,6.76,1.8-6.76h2.36l1.73,6.88,1.51-6.87h2l-2.39,9.84H73.31l-2-7.36-2,7.36Z"/><path class="cls-8" d="M80.36,142.3H78.47v-7.13h1.75v1a3,3,0,0,1,.81-.95,1.49,1.49,0,0,1,.82-.23,2.39,2.39,0,0,1,1.24.36L82.51,137a1.66,1.66,0,0,0-.89-.31,1,1,0,0,0-.67.22,1.49,1.49,0,0,0-.43.79,11.21,11.21,0,0,0-.16,2.39Z"/><path class="cls-8" d="M83.91,134.2v-1.75h1.89v1.75Zm0,8.1v-7.13h1.89v7.13Z"/><path class="cls-8" d="M91,135.17v1.5H89.71v2.87a7.22,7.22,0,0,0,0,1,.41.41,0,0,0,.17.24.53.53,0,0,0,.32.09,2.46,2.46,0,0,0,.76-.18l.16,1.46a3.74,3.74,0,0,1-1.49.28,2.36,2.36,0,0,1-.92-.17,1.34,1.34,0,0,1-.6-.44,1.76,1.76,0,0,1-.27-.74,9.09,9.09,0,0,1-.06-1.33v-3.11h-.87v-1.5h.87v-1.42l1.89-1.1v2.52Z"/><path class="cls-8" d="M96.43,140l1.88.32a3.09,3.09,0,0,1-1.15,1.58,3.36,3.36,0,0,1-2,.54,3.19,3.19,0,0,1-2.75-1.21,4.08,4.08,0,0,1-.71-2.46,3.93,3.93,0,0,1,.93-2.78A3,3,0,0,1,95,135a3.16,3.16,0,0,1,2.51,1.05,4.65,4.65,0,0,1,.88,3.22H93.69a1.91,1.91,0,0,0,.46,1.31,1.43,1.43,0,0,0,1.09.47,1.15,1.15,0,0,0,.75-.24A1.49,1.49,0,0,0,96.43,140Zm.11-1.91a1.82,1.82,0,0,0-.42-1.25,1.36,1.36,0,0,0-2,0,1.74,1.74,0,0,0-.4,1.22Z"/><path class="cls-8" d="M102.88,135.17h2l1.71,5.06,1.67-5.06h2L107.69,142l-.45,1.24a5,5,0,0,1-.47,1,2.07,2.07,0,0,1-.52.53,2.28,2.28,0,0,1-.72.32,3.73,3.73,0,0,1-1,.11,5,5,0,0,1-1.07-.11l-.17-1.48a4.21,4.21,0,0,0,.8.09,1.19,1.19,0,0,0,1-.39,2.69,2.69,0,0,0,.48-1Z"/><path class="cls-8" d="M111,138.63a3.86,3.86,0,0,1,.46-1.82,3.18,3.18,0,0,1,1.31-1.34,3.9,3.9,0,0,1,1.9-.46,3.56,3.56,0,0,1,2.65,1.05,3.63,3.63,0,0,1,1,2.66,3.67,3.67,0,0,1-1,2.68,3.53,3.53,0,0,1-2.63,1.06,4.13,4.13,0,0,1-1.87-.44,3,3,0,0,1-1.35-1.3A4.33,4.33,0,0,1,111,138.63Zm1.93.1a2.36,2.36,0,0,0,.5,1.63,1.64,1.64,0,0,0,2.48,0,2.39,2.39,0,0,0,.5-1.64,2.35,2.35,0,0,0-.5-1.61,1.64,1.64,0,0,0-2.48,0A2.36,2.36,0,0,0,112.92,138.73Z"/><path class="cls-8" d="M124.51,142.3v-1.07a2.74,2.74,0,0,1-1,.9,2.87,2.87,0,0,1-1.34.33,2.63,2.63,0,0,1-1.29-.32,1.87,1.87,0,0,1-.83-.89,4,4,0,0,1-.25-1.58v-4.51h1.89v3.28a9,9,0,0,0,.1,1.84,1,1,0,0,0,.38.54,1.17,1.17,0,0,0,.7.2,1.48,1.48,0,0,0,.87-.27,1.35,1.35,0,0,0,.52-.66,7.64,7.64,0,0,0,.14-1.92v-3h1.89v7.13Z"/><path class="cls-8" d="M130,142.3h-1.89v-7.13h1.75v1a3,3,0,0,1,.81-.95,1.49,1.49,0,0,1,.82-.23,2.39,2.39,0,0,1,1.24.36l-.58,1.64a1.66,1.66,0,0,0-.89-.31,1,1,0,0,0-.67.22,1.49,1.49,0,0,0-.43.79,11.21,11.21,0,0,0-.16,2.39Z"/><path class="cls-8" d="M136.72,140.26l1.89-.29a1.39,1.39,0,0,0,.49.84,1.65,1.65,0,0,0,1,.29,1.86,1.86,0,0,0,1.1-.27.6.6,0,0,0,.25-.5.5.5,0,0,0-.13-.36,1.52,1.52,0,0,0-.63-.25,10.19,10.19,0,0,1-2.89-.92,1.84,1.84,0,0,1-.85-1.6,2,2,0,0,1,.73-1.56A3.42,3.42,0,0,1,140,135a4,4,0,0,1,2.18.48,2.44,2.44,0,0,1,1,1.41l-1.78.33a1.1,1.1,0,0,0-.43-.64,1.58,1.58,0,0,0-.91-.22,2,2,0,0,0-1.07.21.45.45,0,0,0-.21.38.42.42,0,0,0,.19.34,7.06,7.06,0,0,0,1.76.53,5.24,5.24,0,0,1,2.11.84,1.74,1.74,0,0,1,.59,1.4,2.15,2.15,0,0,1-.82,1.68,3.63,3.63,0,0,1-2.42.71,4,4,0,0,1-2.31-.59A2.72,2.72,0,0,1,136.72,140.26Z"/><path class="cls-8" d="M145,142.3v-9.84h1.89v9.84Z"/><path class="cls-8" d="M148.42,138.63a3.86,3.86,0,0,1,.46-1.82,3.19,3.19,0,0,1,1.31-1.34,3.9,3.9,0,0,1,1.9-.46,3.56,3.56,0,0,1,2.65,1.05,3.63,3.63,0,0,1,1,2.66,3.67,3.67,0,0,1-1,2.68,3.53,3.53,0,0,1-2.63,1.06,4.13,4.13,0,0,1-1.87-.44,3,3,0,0,1-1.35-1.3A4.33,4.33,0,0,1,148.42,138.63Zm1.93.1a2.36,2.36,0,0,0,.5,1.63,1.64,1.64,0,0,0,2.48,0,2.4,2.4,0,0,0,.5-1.64,2.35,2.35,0,0,0-.5-1.61,1.64,1.64,0,0,0-2.48,0A2.36,2.36,0,0,0,150.35,138.73Z"/><path class="cls-8" d="M157.08,142.77l2.16.26a.74.74,0,0,0,.25.52,1.42,1.42,0,0,0,.85.2,2.2,2.2,0,0,0,1.11-.22.91.91,0,0,0,.38-.48,2.85,2.85,0,0,0,.09-.87v-1a2.55,2.55,0,0,1-2.13,1.15,2.63,2.63,0,0,1-2.28-1.21,4.14,4.14,0,0,1-.66-2.39,3.93,3.93,0,0,1,.86-2.74,2.78,2.78,0,0,1,2.15-.95,2.61,2.61,0,0,1,2.18,1.16v-1h1.77v6.4a6.37,6.37,0,0,1-.21,1.89,2.33,2.33,0,0,1-.58,1,2.59,2.59,0,0,1-1,.56,5.3,5.3,0,0,1-1.59.2,4.11,4.11,0,0,1-2.57-.62,2,2,0,0,1-.76-1.57C157.07,142.93,157.08,142.86,157.08,142.77Zm1.69-4.18a2.57,2.57,0,0,0,.44,1.66,1.36,1.36,0,0,0,1.08.53,1.5,1.5,0,0,0,1.17-.54,2.36,2.36,0,0,0,.48-1.6,2.49,2.49,0,0,0-.46-1.64,1.45,1.45,0,0,0-1.15-.54,1.39,1.39,0,0,0-1.12.53A2.47,2.47,0,0,0,158.77,138.59Z"/><path class="cls-8" d="M167.06,137.34l-1.71-.31a2.67,2.67,0,0,1,1-1.53,3.64,3.64,0,0,1,2.09-.5,4.52,4.52,0,0,1,1.88.3,1.88,1.88,0,0,1,.87.76,3.89,3.89,0,0,1,.25,1.69l0,2.2a7.62,7.62,0,0,0,.09,1.39,4,4,0,0,0,.34,1H170c0-.12-.11-.31-.18-.56l-.07-.22a3.4,3.4,0,0,1-1,.71,3,3,0,0,1-1.17.24,2.43,2.43,0,0,1-1.74-.6,2,2,0,0,1-.63-1.51,2,2,0,0,1,.29-1.08,1.89,1.89,0,0,1,.81-.73,6.3,6.3,0,0,1,1.5-.44,10.37,10.37,0,0,0,1.83-.46v-.19a1,1,0,0,0-.27-.78,1.61,1.61,0,0,0-1-.23,1.35,1.35,0,0,0-.79.2A1.37,1.37,0,0,0,167.06,137.34Zm2.52,1.53a11.77,11.77,0,0,1-1.15.29,3.46,3.46,0,0,0-1,.33.79.79,0,0,0-.37.67.92.92,0,0,0,.29.68,1,1,0,0,0,.75.29,1.64,1.64,0,0,0,1-.34,1.18,1.18,0,0,0,.45-.62,3.76,3.76,0,0,0,.07-.92Z"/><path class="cls-8" d="M179.79,142.3H177.9v-3.64a5.6,5.6,0,0,0-.12-1.49,1,1,0,0,0-.39-.53,1.12,1.12,0,0,0-.65-.19,1.52,1.52,0,0,0-.88.27,1.35,1.35,0,0,0-.53.71,6.12,6.12,0,0,0-.14,1.64v3.23h-1.89v-7.13H175v1a2.92,2.92,0,0,1,3.49-1,1.92,1.92,0,0,1,.78.57,2.1,2.1,0,0,1,.37.79,5.91,5.91,0,0,1,.1,1.27Z"/><path class="cls-8" d="M187.4,132.46v3.62a2.83,2.83,0,0,1,3.36-.83,1.92,1.92,0,0,1,.79.62,2.25,2.25,0,0,1,.36.83,7.48,7.48,0,0,1,.1,1.42v4.18h-1.89v-3.77a5.59,5.59,0,0,0-.11-1.42.94.94,0,0,0-.38-.48,1.22,1.22,0,0,0-.68-.18,1.56,1.56,0,0,0-.84.23,1.31,1.31,0,0,0-.54.69,4.1,4.1,0,0,0-.17,1.36v3.57h-1.89v-9.84Z"/><path class="cls-8" d="M198,140l1.88.32a3.09,3.09,0,0,1-1.14,1.58,3.36,3.36,0,0,1-2,.54,3.19,3.19,0,0,1-2.75-1.21,4.09,4.09,0,0,1-.71-2.46,3.93,3.93,0,0,1,.93-2.78,3,3,0,0,1,2.34-1,3.16,3.16,0,0,1,2.51,1.05,4.64,4.64,0,0,1,.88,3.22H195.3a1.91,1.91,0,0,0,.46,1.31,1.43,1.43,0,0,0,1.09.47,1.15,1.15,0,0,0,.75-.24A1.49,1.49,0,0,0,198,140Zm.11-1.91a1.82,1.82,0,0,0-.42-1.25,1.36,1.36,0,0,0-2,0,1.75,1.75,0,0,0-.4,1.22Z"/><path class="cls-8" d="M203.37,142.3h-1.89v-7.13h1.75v1a3,3,0,0,1,.81-.95,1.49,1.49,0,0,1,.82-.23,2.39,2.39,0,0,1,1.24.36l-.58,1.64a1.66,1.66,0,0,0-.89-.31,1,1,0,0,0-.67.22,1.49,1.49,0,0,0-.43.79,11.17,11.17,0,0,0-.16,2.39Z"/><path class="cls-8" d="M211,140l1.88.32a3.09,3.09,0,0,1-1.14,1.58,3.36,3.36,0,0,1-2,.54,3.19,3.19,0,0,1-2.75-1.21,4.09,4.09,0,0,1-.71-2.46,3.93,3.93,0,0,1,.93-2.78,3,3,0,0,1,2.34-1,3.16,3.16,0,0,1,2.51,1.05,4.64,4.64,0,0,1,.88,3.22H208.3a1.91,1.91,0,0,0,.46,1.31,1.43,1.43,0,0,0,1.09.47,1.15,1.15,0,0,0,.75-.24A1.49,1.49,0,0,0,211,140Zm.11-1.91a1.82,1.82,0,0,0-.42-1.25,1.36,1.36,0,0,0-2,0,1.75,1.75,0,0,0-.4,1.22Z"/><path class="cls-8" d="M215.3,139.76l-.49-5v-2.31h2v2.31l-.48,5Zm-.41,2.54v-1.89h1.89v1.89Z"/></g></g><g id="Student" class="cls-5"><g class="cls-5"><path d="M236.54,96.4l1.27-.12a1.54,1.54,0,0,0,.46.94,1.4,1.4,0,0,0,.94.3,1.45,1.45,0,0,0,.95-.27.79.79,0,0,0,.32-.62.59.59,0,0,0-.13-.39,1.07,1.07,0,0,0-.47-.28q-.23-.08-1-.28a3.52,3.52,0,0,1-1.47-.64,1.69,1.69,0,0,1-.31-2.22,1.75,1.75,0,0,1,.8-.65,3.22,3.22,0,0,1,1.27-.22,2.72,2.72,0,0,1,1.83.53,1.88,1.88,0,0,1,.64,1.42l-1.3.06a1.1,1.1,0,0,0-.36-.71,1.3,1.3,0,0,0-.82-.22,1.49,1.49,0,0,0-.89.23.47.47,0,0,0-.21.4.5.5,0,0,0,.19.39,3.4,3.4,0,0,0,1.2.43,6.4,6.4,0,0,1,1.4.46,1.82,1.82,0,0,1,.71.66,1.92,1.92,0,0,1,.26,1,1.89,1.89,0,0,1-.31,1,1.84,1.84,0,0,1-.87.72,3.64,3.64,0,0,1-1.4.24,2.79,2.79,0,0,1-1.88-.56A2.46,2.46,0,0,1,236.54,96.4Z"/><path d="M245,93.83v1h-.84V96.7a4.59,4.59,0,0,0,0,.67.27.27,0,0,0,.11.16.34.34,0,0,0,.21.06,1.6,1.6,0,0,0,.5-.12l.11,1a2.45,2.45,0,0,1-1,.18,1.54,1.54,0,0,1-.6-.11.88.88,0,0,1-.39-.29,1.15,1.15,0,0,1-.17-.48,6,6,0,0,1,0-.87v-2h-.57v-1h.57v-.93l1.24-.72v1.65Z"/><path d="M248.93,98.5v-.7a1.8,1.8,0,0,1-.67.59,1.89,1.89,0,0,1-.88.21,1.71,1.71,0,0,1-.84-.21,1.21,1.21,0,0,1-.54-.58,2.58,2.58,0,0,1-.17-1v-3h1.23V96a5.89,5.89,0,0,0,.07,1.21.65.65,0,0,0,.25.35.76.76,0,0,0,.46.13,1,1,0,0,0,.57-.17.88.88,0,0,0,.34-.43,5,5,0,0,0,.09-1.26v-2h1.24V98.5Z"/><path d="M255.64,98.5h-1.15v-.69a1.86,1.86,0,0,1-.67.6,1.73,1.73,0,0,1-.78.2,1.78,1.78,0,0,1-1.38-.65,2.64,2.64,0,0,1-.57-1.81,2.61,2.61,0,0,1,.56-1.8,1.82,1.82,0,0,1,1.41-.62,1.75,1.75,0,0,1,1.35.65V92.06h1.23Zm-3.3-2.43a2.14,2.14,0,0,0,.21,1.08.93.93,0,0,0,.83.48.91.91,0,0,0,.72-.36,1.67,1.67,0,0,0,.3-1.08,1.83,1.83,0,0,0-.29-1.16.92.92,0,0,0-.74-.35.93.93,0,0,0-.74.35A1.58,1.58,0,0,0,252.34,96.07Z"/><path d="M259.56,97l1.23.21a2,2,0,0,1-.75,1,2.21,2.21,0,0,1-1.28.35,2.09,2.09,0,0,1-1.8-.79,2.67,2.67,0,0,1-.46-1.61,2.57,2.57,0,0,1,.61-1.82,2,2,0,0,1,1.53-.66,2.07,2.07,0,0,1,1.64.69,3,3,0,0,1,.58,2.11h-3.09a1.25,1.25,0,0,0,.3.85.93.93,0,0,0,.71.31.75.75,0,0,0,.49-.16A1,1,0,0,0,259.56,97Zm.07-1.25a1.19,1.19,0,0,0-.28-.82A.89.89,0,0,0,258,95a1.14,1.14,0,0,0-.26.8Z"/><path d="M266.11,98.5h-1.23V96.12a3.68,3.68,0,0,0-.08-1,.69.69,0,0,0-.26-.35.74.74,0,0,0-.43-.12,1,1,0,0,0-.58.18.89.89,0,0,0-.35.47,4,4,0,0,0-.09,1.07V98.5h-1.24V93.83H263v.69a1.87,1.87,0,0,1,1.54-.79,1.84,1.84,0,0,1,.75.15,1.26,1.26,0,0,1,.51.38,1.39,1.39,0,0,1,.24.52,3.89,3.89,0,0,1,.07.83Z"/><path d="M269.5,93.83v1h-.84V96.7a4.59,4.59,0,0,0,0,.67.27.27,0,0,0,.11.16.34.34,0,0,0,.21.06,1.6,1.6,0,0,0,.5-.12l.11,1a2.45,2.45,0,0,1-1,.18,1.54,1.54,0,0,1-.6-.11.88.88,0,0,1-.39-.29,1.15,1.15,0,0,1-.17-.48,6,6,0,0,1,0-.87v-2h-.57v-1h.57v-.93l1.24-.72v1.65Z"/></g></g><g id="Phyllis-Peterson" class="cls-5"><g class="cls-5"><path d="M138.59,85.5V73.33h3.94a14.28,14.28,0,0,1,2.92.18,3.19,3.19,0,0,1,1.75,1.19,3.77,3.77,0,0,1,.71,2.37,4,4,0,0,1-.41,1.88,3.33,3.33,0,0,1-1,1.2,3.55,3.55,0,0,1-1.27.58,14,14,0,0,1-2.55.17h-1.6V85.5Zm2.46-10.11v3.45h1.34a6.37,6.37,0,0,0,1.94-.19,1.62,1.62,0,0,0,.77-.6,1.64,1.64,0,0,0,.28-.95A1.57,1.57,0,0,0,145,76a1.71,1.71,0,0,0-1-.54,11.76,11.76,0,0,0-1.77-.08Z"/><path d="M152.24,73.33V77.8a3.5,3.5,0,0,1,4.15-1,2.38,2.38,0,0,1,1,.76,2.76,2.76,0,0,1,.45,1,9.21,9.21,0,0,1,.12,1.75V85.5H155.6V80.84a6.92,6.92,0,0,0-.13-1.76,1.15,1.15,0,0,0-.47-.59,1.51,1.51,0,0,0-.84-.22,1.93,1.93,0,0,0-1,.28,1.63,1.63,0,0,0-.67.85,5.09,5.09,0,0,0-.21,1.68V85.5h-2.33V73.33Z"/><path d="M159.2,76.68h2.48l2.11,6.26,2.06-6.26h2.42l-3.11,8.48-.56,1.54a6.21,6.21,0,0,1-.58,1.18,2.56,2.56,0,0,1-.64.66,2.77,2.77,0,0,1-.89.39,4.62,4.62,0,0,1-1.19.14,6.2,6.2,0,0,1-1.32-.14l-.21-1.83a5.14,5.14,0,0,0,1,.11,1.46,1.46,0,0,0,1.2-.48,3.29,3.29,0,0,0,.6-1.22Z"/><path d="M169.76,85.5V73.33h2.33V85.5Z"/><path d="M174.48,85.5V73.33h2.33V85.5Z"/><path d="M179.2,75.49V73.33h2.33v2.16Zm0,10V76.68h2.33V85.5Z"/><path d="M183.1,83l2.34-.36a1.71,1.71,0,0,0,.61,1,2,2,0,0,0,1.28.35,2.31,2.31,0,0,0,1.36-.33.74.74,0,0,0,.31-.62.61.61,0,0,0-.17-.44,1.86,1.86,0,0,0-.78-.31,12.59,12.59,0,0,1-3.58-1.14,2.27,2.27,0,0,1-1-2,2.45,2.45,0,0,1,.9-1.93,4.23,4.23,0,0,1,2.81-.78,4.89,4.89,0,0,1,2.69.59A3,3,0,0,1,191,78.82l-2.2.41a1.37,1.37,0,0,0-.54-.79,2,2,0,0,0-1.12-.27,2.53,2.53,0,0,0-1.32.26.55.55,0,0,0-.27.47.52.52,0,0,0,.23.42A8.8,8.8,0,0,0,188,80a6.47,6.47,0,0,1,2.6,1,2.15,2.15,0,0,1,.73,1.73,2.66,2.66,0,0,1-1,2.08,4.49,4.49,0,0,1-3,.87,4.92,4.92,0,0,1-2.85-.73A3.37,3.37,0,0,1,183.1,83Z"/><path d="M198.12,85.5V73.33h3.94a14.27,14.27,0,0,1,2.92.18,3.19,3.19,0,0,1,1.75,1.19,3.78,3.78,0,0,1,.71,2.37A4,4,0,0,1,207,79a3.34,3.34,0,0,1-1,1.2,3.54,3.54,0,0,1-1.27.58,14,14,0,0,1-2.55.17h-1.6V85.5Zm2.46-10.11v3.45h1.34a6.37,6.37,0,0,0,1.94-.19,1.6,1.6,0,0,0,1-1.54,1.57,1.57,0,0,0-.39-1.1,1.7,1.7,0,0,0-1-.54,11.77,11.77,0,0,0-1.77-.08Z"/><path d="M214.55,82.69l2.32.39A3.81,3.81,0,0,1,215.46,85a4.16,4.16,0,0,1-2.42.67,4,4,0,0,1-3.4-1.5,5,5,0,0,1-.87-3,4.87,4.87,0,0,1,1.15-3.43,3.77,3.77,0,0,1,2.9-1.24,3.91,3.91,0,0,1,3.1,1.3,5.75,5.75,0,0,1,1.09,4h-5.84a2.36,2.36,0,0,0,.56,1.61,1.76,1.76,0,0,0,1.34.58,1.43,1.43,0,0,0,.92-.3A1.84,1.84,0,0,0,214.55,82.69Zm.13-2.36a2.25,2.25,0,0,0-.52-1.54,1.68,1.68,0,0,0-2.47,0,2.16,2.16,0,0,0-.49,1.51Z"/><path d="M222.94,76.68v1.86h-1.59V82.1a8.69,8.69,0,0,0,0,1.26.51.51,0,0,0,.21.29.66.66,0,0,0,.39.12,3,3,0,0,0,.94-.22l.2,1.81a4.63,4.63,0,0,1-1.84.35,2.91,2.91,0,0,1-1.14-.21,1.65,1.65,0,0,1-.74-.55,2.18,2.18,0,0,1-.33-.91,11.34,11.34,0,0,1-.07-1.64V78.54h-1.07V76.68H219V74.93l2.34-1.36v3.11Z"/><path d="M229.66,82.69l2.32.39A3.81,3.81,0,0,1,230.57,85a4.16,4.16,0,0,1-2.42.67,3.94,3.94,0,0,1-3.4-1.5,5.05,5.05,0,0,1-.87-3A4.87,4.87,0,0,1,225,77.73a3.77,3.77,0,0,1,2.9-1.24,3.91,3.91,0,0,1,3.1,1.3,5.75,5.75,0,0,1,1.09,4h-5.84a2.36,2.36,0,0,0,.56,1.61,1.77,1.77,0,0,0,1.34.58,1.43,1.43,0,0,0,.92-.3A1.85,1.85,0,0,0,229.66,82.69Zm.13-2.36a2.25,2.25,0,0,0-.52-1.54,1.6,1.6,0,0,0-1.21-.53,1.62,1.62,0,0,0-1.26.56,2.15,2.15,0,0,0-.49,1.51Z"/><path d="M236.25,85.5h-2.33V76.68h2.17v1.25a3.78,3.78,0,0,1,1-1.17,1.84,1.84,0,0,1,1-.28,3,3,0,0,1,1.54.44l-.72,2a2,2,0,0,0-1.1-.38,1.3,1.3,0,0,0-.83.27,1.84,1.84,0,0,0-.54,1,13.86,13.86,0,0,0-.2,3Z"/><path d="M239.81,83l2.34-.36a1.72,1.72,0,0,0,.61,1A2,2,0,0,0,244,84a2.3,2.3,0,0,0,1.36-.33.74.74,0,0,0,.31-.62.62.62,0,0,0-.17-.44,1.86,1.86,0,0,0-.78-.31,12.6,12.6,0,0,1-3.58-1.14,2.27,2.27,0,0,1-1-2,2.44,2.44,0,0,1,.91-1.93,4.22,4.22,0,0,1,2.81-.78,4.9,4.9,0,0,1,2.69.59,3,3,0,0,1,1.21,1.74l-2.2.41a1.36,1.36,0,0,0-.54-.79,2,2,0,0,0-1.12-.27,2.53,2.53,0,0,0-1.32.26.55.55,0,0,0-.27.47.52.52,0,0,0,.23.42,8.78,8.78,0,0,0,2.18.66,6.48,6.48,0,0,1,2.6,1,2.16,2.16,0,0,1,.73,1.73,2.67,2.67,0,0,1-1,2.08,4.49,4.49,0,0,1-3,.87,4.91,4.91,0,0,1-2.85-.73A3.37,3.37,0,0,1,239.81,83Z"/><path d="M249.54,81a4.77,4.77,0,0,1,.57-2.25,3.93,3.93,0,0,1,1.62-1.66,4.81,4.81,0,0,1,2.35-.57,4.4,4.4,0,0,1,3.28,1.3,4.49,4.49,0,0,1,1.28,3.28,4.54,4.54,0,0,1-1.29,3.32,4.36,4.36,0,0,1-3.25,1.32,5.12,5.12,0,0,1-2.31-.55,3.76,3.76,0,0,1-1.67-1.61A5.35,5.35,0,0,1,249.54,81Zm2.39.12a2.92,2.92,0,0,0,.62,2,2,2,0,0,0,3.07,0,3,3,0,0,0,.62-2,2.9,2.9,0,0,0-.62-2,2,2,0,0,0-3.07,0A2.92,2.92,0,0,0,251.93,81.09Z"/><path d="M268.49,85.5h-2.33V81a7,7,0,0,0-.15-1.85,1.3,1.3,0,0,0-.49-.65,1.39,1.39,0,0,0-.81-.23,1.88,1.88,0,0,0-1.09.33,1.67,1.67,0,0,0-.66.88,7.59,7.59,0,0,0-.18,2v4h-2.33V76.68h2.17V78a3.61,3.61,0,0,1,4.32-1.22,2.37,2.37,0,0,1,1,.71,2.58,2.58,0,0,1,.46,1,7.34,7.34,0,0,1,.13,1.57Z"/></g></g></g></g></g></g></svg>