<?xml version="1.0" encoding="UTF-8"?>
<svg width="49px" height="56px" viewBox="0 0 49 56" version="1.1" xmlns="http://www.w3.org/2000/svg" xmlns:xlink="http://www.w3.org/1999/xlink">
    <!-- Generator: Sketch 42 (36781) - http://www.bohemiancoding.com/sketch -->
    <title>cloudberry</title>
    <desc>Created with Sketch.</desc>
    <defs></defs>
    <g id="Page-1" stroke="none" stroke-width="1" fill="none" fill-rule="evenodd">
        <g id="Typography-playground-Fruit-theme" transform="translate(-352.000000, -1496.000000)" fill="#FF9F00">
            <g id="cloudberry" transform="translate(352.000000, 1496.000000)">
                <path d="M41.8412719,33.4691347 L34.7388509,55.9913588 L29.8504561,55.9913588 C29.6020163,55.9913588 29.3791545,55.9112612 29.181864,55.7510635 C28.9845736,55.5908658 28.8347812,55.3214465 28.7324825,54.9427975 L25.0497456,42.7532717 C24.9036045,42.2872421 24.775733,41.8248603 24.6661272,41.3661124 C24.5565214,40.9073645 24.4578776,40.4449827 24.370193,39.9789531 C24.2678942,40.4449827 24.1619435,40.9146461 24.0523377,41.3879574 C23.9427319,41.8612687 23.8148604,42.3309322 23.6687193,42.7969618 L19.9421404,54.9427975 C19.7375428,55.6418419 19.2991262,55.9913588 18.6268772,55.9913588 L13.979614,55.9913588 L6.87719298,33.4691347 L11.6998246,33.4691347 C12.1382478,33.4691347 12.5072485,33.5710771 12.8068377,33.7749651 C13.1064269,33.978853 13.3073679,34.2409907 13.4096667,34.5613861 L16.1936404,45.7023505 C16.3690096,46.4159583 16.5224555,47.1077107 16.6539825,47.7776282 C16.7855094,48.4475458 16.9097275,49.1101716 17.0266404,49.7655258 C17.2020096,49.1101716 17.3883367,48.4475458 17.5856272,47.7776282 C17.7829177,47.1077107 17.9911656,46.4159583 18.2103772,45.7023505 L21.5204561,34.517696 C21.6227549,34.2118641 21.8200424,33.957008 22.1123246,33.7531201 C22.4046067,33.5492321 22.7480331,33.4472897 23.142614,33.4472897 L25.8169825,33.4472897 C26.2407916,33.4472897 26.6024853,33.5492321 26.9020746,33.7531201 C27.2016638,33.957008 27.4026048,34.2118641 27.5049035,34.517696 L30.7053772,45.7023505 C30.9099747,46.4013949 31.1072622,47.0895064 31.2972456,47.7667057 C31.487229,48.4439049 31.6625957,49.1247349 31.8233509,49.8092158 C31.9402637,49.1392983 32.0681353,48.46575 32.2069693,47.7885507 C32.3458033,47.1113515 32.5102096,46.4159583 32.700193,45.7023505 L35.615693,34.5613861 C35.7179917,34.2409907 35.9152792,33.978853 36.2075614,33.7749651 C36.4998436,33.5710771 36.84327,33.4691347 37.2378509,33.4691347 L41.8412719,33.4691347 Z" id="w" transform="translate(24.359232, 44.719324) scale(1, -1) translate(-24.359232, -44.719324) "></path>
                <path d="M17.5806842,19.6578809 C17.4053149,19.8908957 17.2299482,20.069295 17.0545789,20.1930841 C16.8792096,20.3168732 16.6307735,20.3787669 16.3092632,20.3787669 C16.016981,20.3787669 15.7356636,20.2950284 15.4653026,20.1275491 C15.1949416,19.9600697 14.8843965,19.7780296 14.5336579,19.5814233 C14.1829193,19.3848171 13.7664235,19.202777 13.2841579,19.0352976 C12.8018923,18.8678183 12.2027229,18.7840798 11.4866316,18.7840798 C10.5805569,18.7840798 9.79506034,18.9479159 9.13011842,19.2755929 C8.4651765,19.60327 7.91350219,20.0729334 7.47507895,20.6845973 C7.0366557,21.2962611 6.71149667,22.0389847 6.49959211,22.9127902 C6.28768754,23.7865957 6.18173684,24.7696121 6.18173684,25.861869 C6.18173684,28.1628901 6.64572782,29.9250381 7.57372368,31.1483658 C8.50171955,32.3716935 9.76947442,32.9833482 11.3770263,32.9833482 C11.9323624,32.9833482 12.4109673,32.9360178 12.8128553,32.8413555 C13.2147432,32.7466932 13.5654766,32.6265468 13.8650658,32.4809125 C14.164655,32.3352783 14.4240515,32.175083 14.6432632,32.0003219 C14.8624748,31.8255608 15.0707227,31.6653655 15.2680132,31.5197313 C15.4653036,31.374097 15.6625911,31.2539506 15.8598816,31.1592883 C16.057172,31.0646261 16.2800338,31.0172956 16.5284737,31.0172956 C16.9961251,31.0172956 17.3614724,31.1920541 17.6245263,31.5415763 L19.3562895,33.7260791 C18.7132687,34.4688138 18.0264159,35.0841093 17.2957105,35.571984 C16.5650051,36.0598588 15.8087364,36.4457837 15.0268816,36.7297705 C14.2450268,37.0137573 13.4522233,37.2103606 12.6484474,37.3195863 C11.8446714,37.428812 11.0482145,37.483424 10.2590526,37.483424 C8.87071236,37.483424 7.55546235,37.2249271 6.31326316,36.7079255 C5.07106396,36.1909239 3.98232924,35.437278 3.04702632,34.4469651 C2.11172339,33.4566522 1.37006853,32.2406244 0.822039474,30.7988454 C0.274010418,29.3570663 0,27.7114239 0,25.861869 C0,24.2162019 0.241129168,22.6870653 0.723394737,21.274413 C1.20566031,19.8617608 1.91443392,18.6384515 2.84973684,17.6044483 C3.78503976,16.5704451 4.94319046,15.7585463 6.32422368,15.1687276 C7.70525691,14.5789089 9.30182427,14.284004 11.1139737,14.284004 C12.8384384,14.284004 14.350976,14.5607049 15.6516316,15.1141151 C16.9522872,15.6675252 18.1213983,16.4685016 19.159,17.5170682 L17.5806842,19.6578809 Z" id="c"></path>
                <path d="M46.8087544,19.6578809 C46.6333851,19.8908957 46.4580184,20.069295 46.2826491,20.1930841 C46.1072798,20.3168732 45.8588437,20.3787669 45.5373333,20.3787669 C45.2450512,20.3787669 44.9637338,20.2950284 44.6933728,20.1275491 C44.4230118,19.9600697 44.1124667,19.7780296 43.7617281,19.5814233 C43.4109895,19.3848171 42.9944936,19.202777 42.5122281,19.0352976 C42.0299625,18.8678183 41.4307931,18.7840798 40.7147018,18.7840798 C39.808627,18.7840798 39.0231305,18.9479159 38.3581886,19.2755929 C37.6932467,19.60327 37.1415724,20.0729334 36.7031491,20.6845973 C36.2647259,21.2962611 35.9395668,22.0389847 35.7276623,22.9127902 C35.5157577,23.7865957 35.409807,24.7696121 35.409807,25.861869 C35.409807,28.1628901 35.873798,29.9250381 36.8017939,31.1483658 C37.7297897,32.3716935 38.9975446,32.9833482 40.6050965,32.9833482 C41.1604326,32.9833482 41.6390375,32.9360178 42.0409254,32.8413555 C42.4428134,32.7466932 42.7935467,32.6265468 43.093136,32.4809125 C43.3927252,32.3352783 43.6521217,32.175083 43.8713333,32.0003219 C44.090545,31.8255608 44.2987929,31.6653655 44.4960833,31.5197313 C44.6933738,31.374097 44.8906613,31.2539506 45.0879518,31.1592883 C45.2852422,31.0646261 45.508104,31.0172956 45.7565439,31.0172956 C46.2241953,31.0172956 46.5895425,31.1920541 46.8525965,31.5415763 L48.5843596,33.7260791 C47.9413389,34.4688138 47.2544861,35.0841093 46.5237807,35.571984 C45.7930753,36.0598588 45.0368065,36.4457837 44.2549518,36.7297705 C43.473097,37.0137573 42.6802935,37.2103606 41.8765175,37.3195863 C41.0727416,37.428812 40.2762846,37.483424 39.4871228,37.483424 C38.0987825,37.483424 36.7835325,37.2249271 35.5413333,36.7079255 C34.2991341,36.1909239 33.2103994,35.437278 32.2750965,34.4469651 C31.3397936,33.4566522 30.5981387,32.2406244 30.0501096,30.7988454 C29.5020806,29.3570663 29.2280702,27.7114239 29.2280702,25.861869 C29.2280702,24.2162019 29.4691993,22.6870653 29.9514649,21.274413 C30.4337305,19.8617608 31.1425041,18.6384515 32.077807,17.6044483 C33.0131099,16.5704451 34.1712606,15.7585463 35.5522939,15.1687276 C36.9333271,14.5789089 38.5298944,14.284004 40.3420439,14.284004 C42.0665086,14.284004 43.5790461,14.5607049 44.8797018,15.1141151 C46.1803574,15.6675252 47.3494685,16.4685016 48.3870702,17.5170682 L46.8087544,19.6578809 Z" id="c-copy" transform="translate(38.906215, 25.883714) scale(-1, 1) translate(-38.906215, -25.883714) "></path>
                <path d="M32.4373553,3.99606651 C32.261986,4.22908131 32.0866193,4.40748059 31.91125,4.5312697 C31.7358807,4.65505882 31.4874446,4.71695244 31.1659342,4.71695244 C30.873652,4.71695244 30.5923347,4.63321401 30.3219737,4.46573462 C30.0516127,4.29825523 29.7410675,4.11621515 29.3903289,3.91960891 C29.0395904,3.72300268 28.6230945,3.54096259 28.1408289,3.37348321 C27.6585634,3.20600382 27.0593939,3.12226538 26.3433026,3.12226538 C25.4372279,3.12226538 24.6517314,3.28610145 23.9867895,3.61377852 C23.3218476,3.94145558 22.7701732,4.41111899 22.33175,5.02278284 C21.8933268,5.63444669 21.5681677,6.37717022 21.3562632,7.25097572 C21.1443586,8.12478122 21.0384079,9.10779766 21.0384079,10.2000545 C21.0384079,12.5010757 21.5023989,14.2632237 22.4303947,15.4865514 C23.3583906,16.7098791 24.6261455,17.3215338 26.2336974,17.3215338 C26.7890335,17.3215338 27.2676383,17.2742033 27.6695263,17.1795411 C28.0714143,17.0848788 28.4221476,16.9647324 28.7217368,16.8190981 C29.0213261,16.6734639 29.2807226,16.5132686 29.4999342,16.3385075 C29.7191458,16.1637464 29.9273938,16.0035511 30.1246842,15.8579169 C30.3219747,15.7122826 30.5192622,15.5921362 30.7165526,15.4974739 C30.9138431,15.4028116 31.1367049,15.3554812 31.3851447,15.3554812 C31.8527962,15.3554812 32.2181434,15.5302397 32.4811974,15.8797619 L34.2129605,18.0642647 C33.5699398,18.8069994 32.883087,19.4222949 32.1523816,19.9101696 C31.4216762,20.3980443 30.6654074,20.7839693 29.8835526,21.0679561 C29.1016978,21.3519429 28.3088944,21.5485462 27.5051184,21.6577719 C26.7013425,21.7669976 25.9048855,21.8216096 25.1157237,21.8216096 C23.7273834,21.8216096 22.4121334,21.5631127 21.1699342,21.0461111 C19.927735,20.5291095 18.8390003,19.7754635 17.9036974,18.7851506 C16.9683944,17.7948377 16.2267396,16.57881 15.6787105,15.1370309 C15.1306815,13.6952519 14.8566711,12.0496095 14.8566711,10.2000545 C14.8566711,8.55438751 15.0978002,7.02525083 15.5800658,5.6125986 C16.0623314,4.19994638 16.771105,2.97663703 17.7064079,1.94263385 C18.6417108,0.90863068 19.7998615,0.0967319148 21.1808947,-0.493086797 C22.561928,-1.08290551 24.1584953,-1.37781044 25.9706447,-1.37781044 C27.6951095,-1.37781044 29.207647,-1.10110952 30.5083026,-0.547699368 C31.8089583,0.00571078167 32.9780694,0.806687142 34.0156711,1.85525374 L32.4373553,3.99606651 Z" id="c-copy-3" transform="translate(24.534816, 10.221900) scale(-1, 1) rotate(-270.000000) translate(-24.534816, -10.221900) "></path>
            </g>
        </g>
    </g>
</svg>