<?xml version="1.0" encoding="UTF-8"?>
<svg width="189px" height="148px" viewBox="0 0 189 148" version="1.1" xmlns="http://www.w3.org/2000/svg" xmlns:xlink="http://www.w3.org/1999/xlink">
    <!-- Generator: Sketch 42 (36781) - http://www.bohemiancoding.com/sketch -->
    <title>Elephant</title>
    <desc>Created with Sketch.</desc>
    <defs></defs>
    <g id="Page-1" stroke="none" stroke-width="1" fill="none" fill-rule="evenodd">
        <g id="Typography-playground-Fruit-theme" transform="translate(-1287.000000, -789.000000)">
            <g id="Elephant" transform="translate(1290.000000, 789.000000)">
                <path d="M114.554053,128.642075 C119.787519,128.642075 124.422805,128.194317 128.46005,127.298787 C132.497295,126.403256 136.310191,125.209234 139.898853,123.716684 L139.898853,98.9777845 L123.749954,98.9777845 C121.357513,98.9777845 119.488446,98.3434601 118.142697,97.0747923 C116.796949,95.8061245 116.124085,94.2016568 116.124085,92.2613413 L116.124085,71.4403674 L174.215264,71.4403674 L174.215264,140.28391 C170.028491,143.343639 165.673565,145.974219 161.150356,148.175731 C156.627146,150.377243 151.804954,152.186933 146.683634,153.604856 C141.562314,155.022779 136.104638,156.067548 130.310444,156.739196 C124.51625,157.410844 118.292257,157.746663 111.63828,157.746663 C99.6760723,157.746663 88.6111966,155.638467 78.4433204,151.422012 C68.2754442,147.205557 59.4721393,141.384698 52.0331416,133.95926 C44.5941439,126.533821 38.7626553,117.727906 34.5385009,107.54125 C30.3143464,97.3545932 28.2023009,86.2912293 28.2023009,74.3508261 C28.2023009,62.1865404 30.2208931,51.011237 34.2581381,40.8245805 C38.295383,30.6379241 44.0707996,21.8506654 51.5845611,14.462541 C59.0983225,7.07441651 68.1819874,1.32818368 78.8358283,-2.77632991 C89.4896692,-6.8808435 101.395625,-8.93306951 114.554053,-8.93306951 C121.357558,-8.93306951 127.749767,-8.3733715 133.730871,-7.25395871 C139.711974,-6.13454591 145.225722,-4.6047047 150.272278,-2.66438919 C155.318834,-0.724073674 159.935429,1.58934474 164.122202,4.27593545 C168.308974,6.96252616 172.047108,9.87295578 175.336715,13.0073116 L164.346492,29.6864789 C163.299799,31.2536568 162.047524,32.4849924 160.58963,33.3805226 C159.131736,34.2760529 157.543029,34.7238113 155.823462,34.7238113 C153.580548,34.7238113 151.262905,33.9775473 148.870464,32.4849969 C145.879912,30.6939364 143.057621,29.1454386 140.403506,27.839457 C137.749391,26.5334754 135.039245,25.4700492 132.272984,24.6491465 C129.506724,23.8282438 126.590979,23.2312326 123.525664,22.858095 C120.460348,22.4849574 117.021265,22.2983914 113.208312,22.2983914 C106.105751,22.2983914 99.7135423,23.5483836 94.0314938,26.0484055 C88.3494453,28.5484274 83.5085622,32.0745248 79.5086991,36.6268035 C75.5088361,41.1790822 72.4248757,46.6454661 70.2567257,53.026119 C68.0885756,59.4067719 67.0045168,66.5149366 67.0045168,74.3508261 C67.0045168,83.0076184 68.2007196,90.6941377 70.5931611,97.4106145 C72.9856025,104.127091 76.2938509,109.798698 80.5180053,114.425604 C84.7421598,119.05251 89.7512589,122.578608 95.5454531,125.004002 C101.339647,127.429396 107.675784,128.642075 114.554053,128.642075 Z" id="G" fill="#FF9F00" transform="translate(101.769508, 74.406797) rotate(-270.000000) translate(-101.769508, -74.406797) "></path>
                <ellipse id="Oval" fill="#FFFFFF" cx="136.543353" cy="27.8033039" rx="7.52601156" ry="7.51229351"></ellipse>
                <path d="M20.8099259,70.8438828 C20.8099259,70.8438828 11.3051849,83.5142047 0.470375723,71.4182044" id="Path-2" stroke="#FF9F00" stroke-width="5" stroke-linecap="round"></path>
            </g>
        </g>
    </g>
</svg>