<?xml version="1.0" encoding="UTF-8"?>
<svg width="143px" height="75px" viewBox="0 0 143 75" version="1.1" xmlns="http://www.w3.org/2000/svg" xmlns:xlink="http://www.w3.org/1999/xlink">
    <!-- Generator: Sketch 42 (36781) - http://www.bohemiancoding.com/sketch -->
    <title>Goldenberry</title>
    <desc>Created with Sketch.</desc>
    <defs></defs>
    <g id="Page-1" stroke="none" stroke-width="1" fill="none" fill-rule="evenodd">
        <g id="Typography-playground-Fruit-theme" transform="translate(-464.000000, -1342.000000)" fill="#FF9F00">
            <g id="Goldenberry" transform="translate(536.000000, 1389.500000) scale(1, -1) translate(-536.000000, -1389.500000) translate(464.000000, 1342.000000)">
                <path d="M54.5846274,55.5405442 L54.5846274,83.1708916 L41.5003397,83.1708916 L41.5003397,55.5405442 L15.8668096,12.079286 L27.3946021,12.079286 C28.5295522,12.079286 29.4293919,12.357881 30.0941484,12.9150794 C30.7589049,13.4722778 31.3182648,14.1769593 31.7722448,15.0291451 L44.6619706,38.7755113 C45.4077949,40.1848955 46.0563281,41.5205129 46.6075896,42.7824034 C47.158851,44.0442939 47.6614642,45.2815835 48.1154443,46.4943095 C48.5369972,45.2488071 49.0152904,43.9951295 49.5503383,42.733239 C50.0853862,41.4713485 50.7258127,40.1521192 51.471637,38.7755113 L64.2640818,15.0291451 C64.6207804,14.3080649 65.1558203,13.6361592 65.8692175,13.0134081 C66.5826147,12.3906569 67.4905611,12.079286 68.5930841,12.079286 L80.169517,12.079286 L54.5846274,55.5405442 Z" id="Y" transform="translate(48.018163, 47.625089) scale(1, -1) rotate(-51.000000) translate(-48.018163, -47.625089) "></path>
                <path d="M101.756428,55.5405442 L101.756428,83.1708916 L88.6721404,83.1708916 L88.6721404,55.5405442 L63.0386102,12.079286 L74.5664027,12.079286 C75.7013528,12.079286 76.6011926,12.357881 77.2659491,12.9150794 C77.9307055,13.4722778 78.4900654,14.1769593 78.9440454,15.0291451 L91.8337712,38.7755113 C92.5795955,40.1848955 93.2281287,41.5205129 93.7793902,42.7824034 C94.3306517,44.0442939 94.8332649,45.2815835 95.2872449,46.4943095 C95.7087978,45.2488071 96.187091,43.9951295 96.7221389,42.733239 C97.2571868,41.4713485 97.8976133,40.1521192 98.6434377,38.7755113 L111.435882,15.0291451 C111.792581,14.3080649 112.327621,13.6361592 113.041018,13.0134081 C113.754415,12.3906569 114.662362,12.079286 115.764885,12.079286 L127.341318,12.079286 L101.756428,55.5405442 Z" id="Y-Copy" transform="translate(95.189964, 47.625089) scale(-1, -1) rotate(-51.000000) translate(-95.189964, -47.625089) "></path>
                <path d="M85.9335008,49.587399 C85.6432421,49.9607977 85.3595844,50.254178 85.0825193,50.4675487 C84.8054542,50.6809194 84.4030561,50.7876032 83.875313,50.7876032 C83.3739571,50.7876032 82.885802,50.6342453 82.4108332,50.3275249 C81.9358644,50.0208045 81.3685491,49.6740823 80.7088702,49.2873479 C80.0491914,48.9006135 79.2641853,48.5538914 78.3538284,48.247171 C77.4434716,47.9404506 76.3154377,47.7870927 74.9696928,47.7870927 C73.2545277,47.7870927 71.7504824,48.1004762 70.4575118,48.7272526 C69.1645412,49.3540291 68.0892808,50.2541732 67.2316983,51.4277121 C66.3741157,52.6012509 65.7342368,54.0214783 65.3120423,55.6884369 C64.8898479,57.3553955 64.6787538,59.2423643 64.6787538,61.3493999 C64.6787538,63.5364496 64.9096379,65.483428 65.3714131,67.1903936 C65.8331884,68.8973592 66.499454,70.3309221 67.3702301,71.4911253 C68.2410063,72.6513284 69.2964766,73.5314694 70.5366729,74.1315745 C71.7768692,74.7316795 73.1753674,75.0317276 74.7322095,75.0317276 C76.2890517,75.0317276 77.5490194,74.8383633 78.5121506,74.4516289 C79.4752817,74.0648945 80.2866746,73.6381595 80.9463535,73.1714111 C81.6060323,72.7046627 82.1799443,72.2779277 82.6681067,71.8911933 C83.1562691,71.5044589 83.7037943,71.3110946 84.3106989,71.3110946 C85.1023135,71.3110946 85.6960156,71.6178104 86.0918229,72.2312512 L88.9020409,75.8318637 C87.8201675,77.1120879 86.6459567,78.1855931 85.3793733,79.0524116 C84.1127899,79.9192301 82.8000486,80.6126744 81.4411101,81.1327655 C80.0821717,81.6528566 78.6770767,82.019582 77.2257832,82.2329527 C75.7744897,82.4463234 74.3364113,82.5530071 72.911505,82.5530071 C70.4047252,82.5530071 68.0431103,82.079598 65.8265893,81.1327655 C63.6100683,80.185933 61.6772382,78.805712 60.028041,76.9920611 C58.3788438,75.1784101 57.0726992,72.9580546 56.1095681,70.3309279 C55.1464369,67.7038012 54.6648786,64.7099884 54.6648786,61.3493999 C54.6648786,58.3355388 55.0936634,55.5417581 55.9512459,52.9679741 C56.8088285,50.39419 58.0687962,48.1671668 59.731187,46.2868375 C61.3935777,44.4065082 63.451745,42.9329389 65.9057504,41.8660854 C68.3597558,40.7992319 71.183139,40.2658132 74.3759847,40.2658132 C77.4105076,40.2658132 80.0689735,40.7592255 82.3514624,41.746065 C84.6339513,42.7329045 86.6855218,44.1464642 88.5062355,45.9867864 L85.9335008,49.587399 Z" id="c-copy-2" transform="translate(71.783460, 61.409410) rotate(-90.000000) translate(-71.783460, -61.409410) "></path>
            </g>
        </g>
    </g>
</svg>