<?xml version="1.0" encoding="UTF-8"?>
<svg width="99px" height="113px" viewBox="0 0 99 113" version="1.1" xmlns="http://www.w3.org/2000/svg" xmlns:xlink="http://www.w3.org/1999/xlink">
    <!-- Generator: Sketch 42 (36781) - http://www.bohemiancoding.com/sketch -->
    <title>HolyApricot</title>
    <desc>Created with Sketch.</desc>
    <defs></defs>
    <g id="Page-1" stroke="none" stroke-width="1" fill="none" fill-rule="evenodd">
        <g id="Typography-playground-Fruit-theme" transform="translate(-689.000000, -1160.000000)" fill="#FF9F00">
            <g id="HolyApricot" transform="translate(689.000000, 1160.000000)">
                <path d="M68.2667191,80.7557725 C68.7109909,80.7557725 69.0946745,80.9278849 69.4177813,81.2721149 L72.6286389,84.7650194 C70.8515516,86.9721411 68.665565,88.6628924 66.0706137,89.8373241 C63.4756623,91.0117559 60.3607577,91.5989629 56.7258065,91.5989629 C53.4745445,91.5989629 50.5514816,91.0421286 47.9565303,89.9284434 C45.3615789,88.8147581 43.1453016,87.2657464 41.3076318,85.2813618 C39.469962,83.2969771 38.0614395,80.9279004 37.082022,78.1740605 C36.1026046,75.4202206 35.6129032,72.4133155 35.6129032,69.153255 C35.6129032,65.8526969 36.1581377,62.8306054 37.2486231,60.08689 C38.3391085,57.3431745 39.8738427,54.9791599 41.8528718,52.9947752 C43.8319008,51.0103906 46.1996322,49.466441 48.9561369,48.3628802 C51.7126416,47.2593193 54.7568677,46.7075472 58.0889064,46.7075472 C61.3401684,46.7075472 64.1824557,47.2289465 66.6158537,48.2717609 C69.0492516,49.3145753 71.1342688,50.6965367 72.8709677,52.4176867 L70.1447679,56.214322 C69.9832145,56.4573078 69.7762273,56.6699173 69.5238002,56.8521567 C69.271373,57.0343961 68.9230287,57.1255144 68.4787569,57.1255144 C68.0142909,57.1255144 67.5397349,56.9432778 67.0550747,56.5787989 C66.5704146,56.2143201 65.9545015,55.819474 65.2073171,55.3942487 C64.4601326,54.9690234 63.5160692,54.5741773 62.3750983,54.2096985 C61.2341275,53.8452197 59.7852173,53.662983 58.0283242,53.662983 C55.9685184,53.662983 54.075343,54.0223942 52.3487411,54.7412275 C50.6221393,55.4600607 49.1378898,56.487673 47.8959481,57.8240953 C46.6540064,59.1605176 45.6847006,60.7854613 44.9880016,62.698975 C44.2913026,64.6124888 43.9429583,66.7638939 43.9429583,69.153255 C43.9429583,71.6236114 44.2913026,73.8205757 44.9880016,75.7442139 C45.6847006,77.6678521 46.628764,79.2877336 47.8202203,80.6039071 C49.0116766,81.9200806 50.4151506,82.9274444 52.0306845,83.6260288 C53.6462184,84.3246132 55.3828913,84.6739001 57.2407553,84.6739001 C58.3514349,84.6739001 59.35608,84.6131546 60.2547207,84.4916616 C61.1533614,84.3701687 61.9813101,84.1778078 62.7385917,83.9145731 C63.4958732,83.6513384 64.2127556,83.3121757 64.8892604,82.8970748 C65.5657652,82.4819739 66.2372115,81.9706988 66.9036192,81.3632342 C67.1055609,81.1809947 67.3175966,81.034193 67.5397325,80.9228245 C67.7618684,80.8114559 68.0041949,80.7557725 68.2667191,80.7557725 Z" id="C-Copy-5" transform="translate(54.241935, 69.153255) scale(-1, 1) translate(-54.241935, -69.153255) "></path>
                <path d="M61.1153253,69.4826837 C61.1153253,71.0580156 60.8534825,72.5169097 60.3297891,73.8594095 C59.8060956,75.2019094 59.0699715,76.3635754 58.1213947,77.3444424 C57.172818,78.3253095 56.0315786,79.0906715 54.6976425,79.6405515 C53.3637064,80.1904316 51.8865178,80.4653674 50.2660325,80.4653674 C48.6455471,80.4653674 47.1658883,80.1904316 45.8270117,79.6405515 C44.4881351,79.0906715 43.3419553,78.3253095 42.388438,77.3444424 C41.4349207,76.3635754 40.6963264,75.2019094 40.172633,73.8594095 C39.6489396,72.5169097 39.3870968,71.0580156 39.3870968,69.4826837 C39.3870968,67.9073518 39.6489396,66.4484578 40.172633,65.1059579 C40.6963264,63.7634581 41.4349207,62.6017921 42.388438,61.620925 C43.3419553,60.640058 44.4881351,59.8746959 45.8270117,59.3248159 C47.1658883,58.7749359 48.6455471,58.5 50.2660325,58.5 C51.8865178,58.5 53.3637064,58.7774128 54.6976425,59.3322467 C56.0315786,59.8870806 57.172818,60.6524426 58.1213947,61.6283558 C59.0699715,62.604269 59.8060956,63.7634581 60.3297891,65.1059579 C60.8534825,66.4484578 61.1153253,67.9073518 61.1153253,69.4826837 Z M57.0246083,69.4826837 C57.0246083,68.3036617 56.8689848,67.2460255 56.557733,66.3097433 C56.2464813,65.3734611 55.7993723,64.5783763 55.2163928,63.9244649 C54.6334134,63.2705535 53.9244617,62.7702198 53.0895165,62.4234486 C52.2545713,62.0766774 51.3134193,61.9032944 50.2660325,61.9032944 C49.2186456,61.9032944 48.2750235,62.0766774 47.4351378,62.4234486 C46.5952521,62.7702198 45.8813599,63.2705535 45.2934399,63.9244649 C44.7055199,64.5783763 44.2534706,65.3734611 43.9372783,66.3097433 C43.6210861,67.2460255 43.4629923,68.3036617 43.4629923,69.4826837 C43.4629923,70.6617057 43.6210861,71.719342 43.9372783,72.6556241 C44.2534706,73.5919063 44.7055199,74.3845143 45.2934399,75.0334718 C45.8813599,75.6824293 46.5952521,76.1802861 47.4351378,76.5270573 C48.2750235,76.8738285 49.2186456,77.0472115 50.2660325,77.0472115 C51.3134193,77.0472115 52.2545713,76.8738285 53.0895165,76.5270573 C53.9244617,76.1802861 54.6334134,75.6824293 55.2163928,75.0334718 C55.7993723,74.3845143 56.2464813,73.5919063 56.557733,72.6556241 C56.8689848,71.719342 57.0246083,70.6617057 57.0246083,69.4826837 Z" id="O-Copy"></path>
                <path d="M94.1817002,47.5441762 C94.1817002,51.7045804 93.7534112,55.6826393 92.8968202,59.4784721 C92.0402293,63.2743049 90.8088984,66.8234625 89.2027904,70.1260514 C87.5966824,73.4286404 85.6372601,76.4631166 83.3244646,79.229571 C81.0116692,81.9960254 78.3776916,84.4300398 75.422453,86.5316873 L99,112.266018 L84.7378326,112.266018 C82.6820144,112.266018 80.8296643,111.987232 79.1807268,111.429652 C77.5317893,110.872072 76.0220704,109.84271 74.651525,108.341533 L61.0317975,93.2869492 C58.8474907,93.8874199 56.6096805,94.3377662 54.3182998,94.6380015 C52.0269191,94.9382369 49.6392077,95.0883523 47.1550941,95.0883523 C40.1310486,95.0883523 33.7174203,93.8981514 27.9140169,91.5177139 C22.1106134,89.1372764 17.1424606,85.8240145 13.0094095,81.5778287 C8.87635831,77.3316428 5.67489779,72.302776 3.40493186,66.4910772 C1.13496594,60.6793785 1.20792265e-13,54.3638079 1.20792265e-13,47.5441762 C1.20792265e-13,40.7245444 1.13496594,34.4089739 3.40493186,28.5972751 C5.67489779,22.7855763 8.87635831,17.7567095 13.0094095,13.5105237 C17.1424606,9.26433786 22.1106134,5.9510759 27.9140169,3.5706384 C33.7174203,1.1902009 40.1310486,2.84217094e-14 47.1550941,2.84217094e-14 C54.1791396,2.84217094e-14 60.5820606,1.20092343 66.3640493,3.60280631 C72.146038,6.0046892 77.0927763,9.31795116 81.2044127,13.5426916 C85.3160491,17.767432 88.5068024,22.7855763 90.7767683,28.5972751 C93.0467343,34.4089739 94.1817002,40.7245444 94.1817002,47.5441762 Z M76.4503569,47.5441762 C76.4503569,42.440175 75.7758017,37.8616545 74.426671,33.8084771 C73.0775403,29.7552997 71.1395324,26.3133674 68.6125892,23.4825769 C66.085646,20.6517863 63.0126722,18.4858351 59.3935756,16.9846583 C55.774479,15.4834815 51.6950259,14.7329044 47.1550941,14.7329044 C42.6151622,14.7329044 38.525002,15.4834815 34.8844906,16.9846583 C31.2439792,18.4858351 28.1495909,20.6517863 25.601233,23.4825769 C23.052875,26.3133674 21.0934527,29.7552997 19.7229072,33.8084771 C18.3523617,37.8616545 17.6670993,42.440175 17.6670993,47.5441762 C17.6670993,52.6481773 18.3523617,57.2266979 19.7229072,61.2798752 C21.0934527,65.3330526 23.052875,68.7642624 25.601233,71.5736076 C28.1495909,74.3829527 31.2439792,76.5381814 34.8844906,78.0393582 C38.525002,79.540535 42.6151622,80.2911121 47.1550941,80.2911121 C51.6950259,80.2911121 55.774479,79.540535 59.3935756,78.0393582 C63.0126722,76.5381814 66.085646,74.3829527 68.6125892,71.5736076 C71.1395324,68.7642624 73.0775403,65.3330526 74.426671,61.2798752 C75.7758017,57.2266979 76.4503569,52.6481773 76.4503569,47.5441762 Z" id="Q" transform="translate(49.500000, 56.133009) scale(1, -1) translate(-49.500000, -56.133009) "></path>
            </g>
        </g>
    </g>
</svg>