<?xml version="1.0" encoding="UTF-8"?>
<svg width="424px" height="289px" viewBox="0 0 424 289" version="1.1" xmlns="http://www.w3.org/2000/svg" xmlns:xlink="http://www.w3.org/1999/xlink">
    <!-- Generator: Sketch 42 (36781) - http://www.bohemiancoding.com/sketch -->
    <title>Group 6</title>
    <desc>Created with Sketch.</desc>
    <defs></defs>
    <g id="Page-1" stroke="none" stroke-width="1" fill="none" fill-rule="evenodd">
        <g id="Typography-playground-Fruit-theme" transform="translate(-1946.000000, -80.000000)" fill="#FF9F00">
            <g id="Group-6" transform="translate(1946.000000, 80.000000)">
                <g id="Group-5" transform="translate(96.707986, 150.032202)">
                    <path d="M0,0.0541254698 L13.4309757,0.0541254698 C14.6224392,0.0541254698 15.651415,0.324750113 16.5179339,0.866007517 C17.3844528,1.40726492 17.9079667,2.11088899 18.0884915,2.97690084 L23.7208362,28.1452443 C24.1540956,30.0576871 24.5512441,31.9159763 24.9122937,33.7201677 C25.2733432,35.524359 25.5982829,37.3104817 25.8871226,39.0785892 C26.3925919,37.3104817 26.925132,35.5333799 27.4847588,33.7472304 C28.0443856,31.961081 28.5949779,30.093771 29.1365522,28.1452443 L36.176983,2.92277537 C36.3936127,2.09284735 36.9171267,1.3982441 37.7475406,0.838944782 C38.5779546,0.279645464 39.5347215,0 40.6178701,0 L48.0915582,0 C49.2830217,0 50.3029714,0.279645464 51.1514378,0.838944782 C51.9999042,1.3982441 52.5324443,2.09284735 52.749074,2.92277537 L59.4645619,28.1452443 C59.9700312,30.0576871 60.4845191,31.9159763 61.0080409,33.7201677 C61.5315628,35.524359 62.0279985,37.346565 62.4973629,39.1868401 C62.7862025,37.3826488 63.1382205,35.5875053 63.5534275,33.8013559 C63.9686344,32.0152065 64.4109135,30.1298548 64.8802779,28.1452443 L70.8375655,2.97690084 C71.0180903,2.11088899 71.5325782,1.40726492 72.3810446,0.866007517 C73.229511,0.324750113 74.195304,0.0541254698 75.2784527,0.0541254698 L88.0595425,0.0541254698 L70.6209369,56.1822377 L56.9733325,56.1822377 C56.2512334,56.1822377 55.6374584,55.965738 55.1319891,55.532732 C54.6265197,55.0997261 54.2293712,54.3780604 53.9405315,53.3677132 L45.9252718,25.3848453 C45.5642223,24.1219114 45.2212304,22.877038 44.8962858,21.6501879 C44.5713412,20.4233378 44.2825059,19.1965061 44.0297712,17.969656 C43.7770366,19.2325899 43.4972274,20.4864841 43.1903352,21.7313761 C42.8834431,22.9762682 42.5314251,24.2301623 42.1342706,25.4930963 L34.0106966,53.3677132 C33.4691223,55.2440722 32.2776767,56.1822377 30.436324,56.1822377 L17.4386056,56.1822377 L0,0.0541254698 Z" id="w"></path>
                    <path d="M75.8862795,0.0541254698 L89.3172553,0.0541254698 C90.5087187,0.0541254698 91.5376945,0.324750113 92.4042134,0.866007517 C93.2707323,1.40726492 93.7942463,2.11088899 93.974771,2.97690084 L99.6071157,28.1452443 C100.040375,30.0576871 100.437524,31.9159763 100.798573,33.7201677 C101.159623,35.524359 101.484562,37.3104817 101.773402,39.0785892 C102.278871,37.3104817 102.811412,35.5333799 103.371038,33.7472304 C103.930665,31.961081 104.481257,30.093771 105.022832,28.1452443 L112.063263,2.92277537 C112.279892,2.09284735 112.803406,1.3982441 113.63382,0.838944782 C114.464234,0.279645464 115.421001,0 116.50415,0 L123.977838,0 C125.169301,0 126.189251,0.279645464 127.037717,0.838944782 C127.886184,1.3982441 128.418724,2.09284735 128.635354,2.92277537 L135.350841,28.1452443 C135.856311,30.0576871 136.370799,31.9159763 136.89432,33.7201677 C137.417842,35.524359 137.914278,37.346565 138.383642,39.1868401 C138.672482,37.3826488 139.0245,35.5875053 139.439707,33.8013559 C139.854914,32.0152065 140.297193,30.1298548 140.766557,28.1452443 L146.723845,2.97690084 C146.90437,2.11088899 147.418858,1.40726492 148.267324,0.866007517 C149.115791,0.324750113 150.081584,0.0541254698 151.164732,0.0541254698 L163.945822,0.0541254698 L146.507216,56.1822377 L132.859612,56.1822377 C132.137513,56.1822377 131.523738,55.965738 131.018269,55.532732 C130.512799,55.0997261 130.115651,54.3780604 129.826811,53.3677132 L121.811551,25.3848453 C121.450502,24.1219114 121.10751,22.877038 120.782565,21.6501879 C120.457621,20.4233378 120.168785,19.1965061 119.916051,17.969656 C119.663316,19.2325899 119.383507,20.4864841 119.076615,21.7313761 C118.769723,22.9762682 118.417705,24.2301623 118.02055,25.4930963 L109.896976,53.3677132 C109.355402,55.2440722 108.163956,56.1822377 106.322604,56.1822377 L93.3248851,56.1822377 L75.8862795,0.0541254698 Z" id="w-copy"></path>
                    <path d="M150.399836,0.0541254698 L163.830811,0.0541254698 C165.022275,0.0541254698 166.051251,0.324750113 166.917769,0.866007517 C167.784288,1.40726492 168.307802,2.11088899 168.488327,2.97690084 L174.120672,28.1452443 C174.553931,30.0576871 174.95108,31.9159763 175.312129,33.7201677 C175.673179,35.524359 175.998118,37.3104817 176.286958,39.0785892 C176.792427,37.3104817 177.324968,35.5333799 177.884594,33.7472304 C178.444221,31.961081 178.994813,30.093771 179.536388,28.1452443 L186.576819,2.92277537 C186.793448,2.09284735 187.316962,1.3982441 188.147376,0.838944782 C188.97779,0.279645464 189.934557,0 191.017706,0 L198.491394,0 C199.682857,0 200.702807,0.279645464 201.551273,0.838944782 C202.39974,1.3982441 202.93228,2.09284735 203.14891,2.92277537 L209.864397,28.1452443 C210.369867,30.0576871 210.884355,31.9159763 211.407876,33.7201677 C211.931398,35.524359 212.427834,37.346565 212.897198,39.1868401 C213.186038,37.3826488 213.538056,35.5875053 213.953263,33.8013559 C214.36847,32.0152065 214.810749,30.1298548 215.280113,28.1452443 L221.237401,2.97690084 C221.417926,2.11088899 221.932414,1.40726492 222.78088,0.866007517 C223.629347,0.324750113 224.59514,0.0541254698 225.678288,0.0541254698 L238.459378,0.0541254698 L221.020772,56.1822377 L207.373168,56.1822377 C206.651069,56.1822377 206.037294,55.965738 205.531825,55.532732 C205.026355,55.0997261 204.629207,54.3780604 204.340367,53.3677132 L196.325107,25.3848453 C195.964058,24.1219114 195.621066,22.877038 195.296121,21.6501879 C194.971177,20.4233378 194.682341,19.1965061 194.429607,17.969656 C194.176872,19.2325899 193.897063,20.4864841 193.590171,21.7313761 C193.283279,22.9762682 192.931261,24.2301623 192.534106,25.4930963 L184.410532,53.3677132 C183.868958,55.2440722 182.677512,56.1822377 180.83616,56.1822377 L167.838441,56.1822377 L150.399836,0.0541254698 Z" id="w-copy-2"></path>
                </g>
                <path d="M211.300424,219.194181 C214.175274,219.194181 216.658061,220.302199 218.748861,222.518268 L239.526083,245.004736 C228.026683,259.213648 213.881326,270.098293 197.089588,277.658999 C180.29785,285.219704 160.141533,289 136.620033,289 C115.581357,289 96.6664342,285.415237 79.8746963,278.245602 C63.0829584,271.075968 48.7415919,261.103808 36.8501666,248.328823 C24.9587413,235.553838 15.8442966,220.302299 9.50655894,202.573748 C3.16882129,184.845198 0,165.487475 0,144.5 C0,123.251811 3.52817216,103.796322 10.5846223,86.1329499 C17.6410725,68.4695779 27.5722238,53.2506277 40.3783741,40.4756428 C53.1845244,27.7006578 68.5059387,17.7610865 86.3430766,10.6566306 C104.180215,3.55217467 123.879176,0 145.440551,0 C166.479227,0 184.871458,3.35664212 200.617795,10.0700271 C216.364133,16.783412 229.856125,25.6801431 241.094175,36.7604871 L223.453138,61.2023004 C222.407738,62.7665843 221.068339,64.1353121 219.434902,65.308525 C217.801464,66.4817379 215.547354,67.0683356 212.672504,67.0683356 C209.666979,67.0683356 206.596163,65.8951403 203.459963,63.5487145 C200.323762,61.2022887 196.338235,58.6603655 191.50326,55.9228687 C186.668284,53.185372 180.55932,50.6434488 173.176182,48.297023 C165.793044,45.9505972 156.417253,44.7774019 145.048528,44.7774019 C131.719678,44.7774019 119.46908,47.0912037 108.296367,51.7188769 C97.1236546,56.34655 87.5191859,62.9620679 79.4826732,71.5656292 C71.4461605,80.1691905 65.1738545,90.630182 60.6655669,102.948917 C56.1572793,115.267653 53.9031693,129.117875 53.9031693,144.5 C53.9031693,160.403553 56.1572793,174.547074 60.6655669,186.930988 C65.1738545,199.314902 71.2828192,209.743304 78.9926444,218.216509 C86.7024696,226.689713 95.7842461,233.174876 106.238246,237.672192 C116.692247,242.169508 127.930128,244.418133 139.952229,244.418133 C147.139354,244.418133 153.640338,244.027068 159.455375,243.244926 C165.270413,242.462784 170.628008,241.224411 175.52832,239.52977 C180.428633,237.835129 185.067526,235.651682 189.445139,232.979364 C193.822751,230.307046 198.16763,227.015581 202.479905,223.104871 C203.786655,221.931659 205.158722,220.986585 206.596147,220.269621 C208.033572,219.552658 209.601648,219.194181 211.300424,219.194181 Z" id="C"></path>
                <path d="M183.694303,80.1605839 C188.168444,80.1605839 192.224288,80.8803386 195.861959,82.3198694 C199.49963,83.7594002 202.602302,85.8019471 205.17007,88.4475714 C207.737838,91.0931956 209.721992,94.322365 211.122592,98.1351764 C212.523193,101.947988 213.223483,106.208157 213.223483,110.915812 C213.223483,115.662373 212.523193,119.941995 211.122592,123.754807 C209.721992,127.567618 207.737838,130.81624 205.17007,133.500771 C202.602302,136.185301 199.49963,138.247301 195.861959,139.686832 C192.224288,141.126363 188.168444,141.846117 183.694303,141.846117 C179.220163,141.846117 175.154592,141.126363 171.497468,139.686832 C167.840345,138.247301 164.71822,136.185301 162.130999,133.500771 C159.543779,130.81624 157.540172,127.567618 156.120119,123.754807 C154.700066,119.941995 153.99005,115.662373 153.99005,110.915812 C153.99005,106.208157 154.700066,101.947988 156.120119,98.1351764 C157.540172,94.322365 159.543779,91.0931956 162.130999,88.4475714 C164.71822,85.8019471 167.840345,83.7594002 171.497468,82.3198694 C175.154592,80.8803386 179.220163,80.1605839 183.694303,80.1605839 Z M183.694303,130.757895 C188.674216,130.757895 192.360463,129.084951 194.753156,125.739015 C197.145848,122.393078 198.342177,117.490966 198.342177,111.03253 C198.342177,104.574094 197.145848,99.6525291 194.753156,96.2676863 C192.360463,92.8828435 188.674216,91.1904475 183.694303,91.1904475 C178.636579,91.1904475 174.901701,92.8925699 172.489555,96.2968658 C170.07741,99.7011617 168.871356,104.613001 168.871356,111.03253 C168.871356,117.45206 170.07741,122.344446 172.489555,125.709835 C174.901701,129.075225 178.636579,130.757895 183.694303,130.757895 Z" id="o"></path>
                <path d="M244.868433,80.1605839 C249.342573,80.1605839 253.398418,80.8803386 257.036089,82.3198694 C260.673759,83.7594002 263.776432,85.8019471 266.344199,88.4475714 C268.911967,91.0931956 270.896121,94.322365 272.296722,98.1351764 C273.697322,101.947988 274.397612,106.208157 274.397612,110.915812 C274.397612,115.662373 273.697322,119.941995 272.296722,123.754807 C270.896121,127.567618 268.911967,130.81624 266.344199,133.500771 C263.776432,136.185301 260.673759,138.247301 257.036089,139.686832 C253.398418,141.126363 249.342573,141.846117 244.868433,141.846117 C240.394292,141.846117 236.328721,141.126363 232.671598,139.686832 C229.014474,138.247301 225.892349,136.185301 223.305129,133.500771 C220.717908,130.81624 218.714302,127.567618 217.294248,123.754807 C215.874195,119.941995 215.164179,115.662373 215.164179,110.915812 C215.164179,106.208157 215.874195,101.947988 217.294248,98.1351764 C218.714302,94.322365 220.717908,91.0931956 223.305129,88.4475714 C225.892349,85.8019471 229.014474,83.7594002 232.671598,82.3198694 C236.328721,80.8803386 240.394292,80.1605839 244.868433,80.1605839 Z M244.868433,130.757895 C249.848345,130.757895 253.534593,129.084951 255.927285,125.739015 C258.319978,122.393078 259.516306,117.490966 259.516306,111.03253 C259.516306,104.574094 258.319978,99.6525291 255.927285,96.2676863 C253.534593,92.8828435 249.848345,91.1904475 244.868433,91.1904475 C239.810709,91.1904475 236.07583,92.8925699 233.663685,96.2968658 C231.251539,99.7011617 230.045485,104.613001 230.045485,111.03253 C230.045485,117.45206 231.251539,122.344446 233.663685,125.709835 C236.07583,129.075225 239.810709,130.757895 244.868433,130.757895 Z" id="o-copy"></path>
                <path d="M394.084876,219.194181 C396.959726,219.194181 399.442514,220.302199 401.533314,222.518268 L422.310535,245.004736 C410.811135,259.213648 396.665778,270.098293 379.87404,277.658999 C363.082302,285.219704 342.925986,289 319.404485,289 C298.365809,289 279.450886,285.415237 262.659149,278.245602 C245.867411,271.075968 231.526044,261.103808 219.634619,248.328823 C207.743194,235.553838 198.628749,220.302299 192.291011,202.573748 C185.953274,184.845198 182.784452,165.487475 182.784452,144.5 C182.784452,123.251811 186.312624,103.796322 193.369075,86.1329499 C200.425525,68.4695779 210.356676,53.2506277 223.162826,40.4756428 C235.968977,27.7006578 251.290391,17.7610865 269.127529,10.6566306 C286.964667,3.55217467 306.663628,0 328.225004,0 C349.263679,0 367.65591,3.35664212 383.402248,10.0700271 C399.148586,16.783412 412.640577,25.6801431 423.878628,36.7604871 L406.23759,61.2023004 C405.19219,62.7665843 403.852792,64.1353121 402.219354,65.308525 C400.585917,66.4817379 398.331807,67.0683356 395.456956,67.0683356 C392.451431,67.0683356 389.380615,65.8951403 386.244415,63.5487145 C383.108215,61.2022887 379.122687,58.6603655 374.287712,55.9228687 C369.452737,53.185372 363.343772,50.6434488 355.960634,48.297023 C348.577497,45.9505972 339.201706,44.7774019 327.832981,44.7774019 C314.50413,44.7774019 302.253532,47.0912037 291.08082,51.7188769 C279.908107,56.34655 270.303638,62.9620679 262.267126,71.5656292 C254.230613,80.1691905 247.958307,90.630182 243.450019,102.948917 C238.941732,115.267653 236.687622,129.117875 236.687622,144.5 C236.687622,160.403553 238.941732,174.547074 243.450019,186.930988 C247.958307,199.314902 254.067272,209.743304 261.777097,218.216509 C269.486922,226.689713 278.568698,233.174876 289.022699,237.672192 C299.476699,242.169508 310.714581,244.418133 322.736681,244.418133 C329.923806,244.418133 336.42479,244.027068 342.239828,243.244926 C348.054865,242.462784 353.41246,241.224411 358.312773,239.52977 C363.213085,237.835129 367.851978,235.651682 372.229591,232.979364 C376.607203,230.307046 380.952082,227.015581 385.264357,223.104871 C386.571107,221.931659 387.943174,220.986585 389.380599,220.269621 C390.818024,219.552658 392.386101,219.194181 394.084876,219.194181 Z" id="C-Copy" transform="translate(303.331540, 144.500000) scale(-1, 1) translate(-303.331540, -144.500000) "></path>
            </g>
        </g>
    </g>
</svg>