<?xml version="1.0" encoding="UTF-8"?>
<svg width="41px" height="12px" viewBox="0 0 41 12" version="1.1" xmlns="http://www.w3.org/2000/svg" xmlns:xlink="http://www.w3.org/1999/xlink">
    <!-- Generator: Sketch 42 (36781) - http://www.bohemiancoding.com/sketch -->
    <title>seaberry</title>
    <desc>Created with Sketch.</desc>
    <defs></defs>
    <g id="Page-1" stroke="none" stroke-width="1" fill="none" fill-rule="evenodd">
        <g id="Typography-playground-Fruit-theme" transform="translate(-202.000000, -1632.000000)" fill="#FF9F00">
            <g id="seaberry" transform="translate(202.000000, 1632.000000)">
                <path d="M6.47904987,1.71178195 C6.4226884,1.78540638 6.36632778,1.84177424 6.30996631,1.88088722 C6.25360484,1.9200002 6.17376062,1.93955639 6.07043127,1.93955639 C5.97649549,1.93955639 5.88608366,1.91309801 5.79919306,1.86018045 C5.71230246,1.80726289 5.61249719,1.74974467 5.49977426,1.68762406 C5.38705132,1.62550345 5.25319485,1.56798523 5.09820081,1.51506767 C4.94320677,1.46215011 4.75064131,1.43569173 4.52049865,1.43569173 C4.22929774,1.43569173 3.97684911,1.48745813 3.76314522,1.59099248 C3.54944132,1.69452683 3.37214019,1.84292385 3.23123652,2.03618797 C3.09033285,2.22945209 2.98583087,2.46412644 2.91772743,2.74021805 C2.84962399,3.01630965 2.81557278,3.32690805 2.81557278,3.67202256 C2.81557278,4.39906379 2.96469359,4.95584017 3.26293969,5.34236842 C3.56118579,5.72889667 3.96862612,5.92215789 4.48527291,5.92215789 C4.66375089,5.92215789 4.81756842,5.90720316 4.94673012,5.87729323 C5.07589182,5.84738331 5.18861306,5.80942128 5.28489724,5.76340602 C5.38118141,5.71739075 5.46454817,5.66677471 5.535,5.61155639 C5.60545183,5.55633807 5.67238007,5.50572203 5.73578673,5.45970677 C5.79919338,5.4136915 5.86259908,5.37572947 5.92600573,5.34581955 C5.98941238,5.31590962 6.06103734,5.30095489 6.14088275,5.30095489 C6.29118,5.30095489 6.40859796,5.35617238 6.49314016,5.46660902 L7.04970687,6.15683459 C6.84304816,6.39151245 6.62230239,6.58592404 6.38746294,6.74007519 C6.15262349,6.89422633 5.9095683,7.01616496 5.65829009,7.10589474 C5.40701188,7.19562451 5.1522149,7.25774419 4.89389151,7.29225564 C4.63556812,7.32676709 4.37959696,7.34402256 4.12597035,7.34402256 C3.6797754,7.34402256 3.25707073,7.26234668 2.85784367,7.09899248 C2.4586166,6.93563828 2.10871107,6.69751284 1.80811658,6.38460902 C1.50752208,6.0717052 1.26916362,5.68748348 1.09303403,5.23193233 C0.916904443,4.77638118 0.82884097,4.25641646 0.82884097,3.67202256 C0.82884097,3.15205003 0.906336826,2.66889697 1.06133086,2.22254887 C1.2163249,1.77620078 1.44411575,1.38967833 1.74471024,1.06296992 C2.04530474,0.736261524 2.41751968,0.479730255 2.86136624,0.293368421 C3.3052128,0.107006587 3.8183293,0.0138270677 4.40073113,0.0138270677 C4.95495223,0.0138270677 5.4410626,0.101254765 5.85907682,0.276112782 C6.27709104,0.450970799 6.65282852,0.704050975 6.98630054,1.0353609 L6.47904987,1.71178195 Z" id="c" transform="translate(3.939274, 3.678925) rotate(-270.000000) translate(-3.939274, -3.678925) "></path>
                <path d="M10.6232547,6.8546391 C10.5668932,6.92826353 10.5105326,6.98463138 10.4541712,7.02374436 C10.3978097,7.06285734 10.3179655,7.08241353 10.2146361,7.08241353 C10.1207003,7.08241353 10.0302885,7.05595515 9.94339791,7.00303759 C9.85650731,6.95012004 9.75670205,6.89260181 9.64397911,6.8304812 C9.53125617,6.76836059 9.3973997,6.71084237 9.24240566,6.65792481 C9.08741162,6.60500725 8.89484616,6.57854887 8.6647035,6.57854887 C8.37350259,6.57854887 8.12105397,6.63031527 7.90735007,6.73384962 C7.69364617,6.83738398 7.51634504,6.98578099 7.37544137,7.17904511 C7.23453771,7.37230924 7.13003572,7.60698358 7.06193228,7.88307519 C6.99382884,8.15916679 6.95977763,8.46976519 6.95977763,8.8148797 C6.95977763,9.54192093 7.10889844,10.0986973 7.40714454,10.4852256 C7.70539064,10.8717538 8.11283097,11.065015 8.62947776,11.065015 C8.80795574,11.065015 8.96177328,11.0500603 9.09093497,11.0201504 C9.22009667,10.9902405 9.33281791,10.9522784 9.42910209,10.9062632 C9.52538626,10.8602479 9.60875302,10.8096319 9.67920485,10.7544135 C9.74965669,10.6991952 9.81658493,10.6485792 9.87999158,10.6025639 C9.94339823,10.5565486 10.0068039,10.5185866 10.0702106,10.4886767 C10.1336172,10.4587668 10.2052422,10.443812 10.2850876,10.443812 C10.4353848,10.443812 10.5528028,10.4990295 10.637345,10.6094662 L11.1939117,11.2996917 C10.987253,11.5343696 10.7665072,11.7287812 10.5316678,11.8829323 C10.2968283,12.0370835 10.0537732,12.1590221 9.80249495,12.2487519 C9.55121674,12.3384817 9.29641976,12.4006013 9.03809636,12.4351128 C8.77977297,12.4696242 8.52380181,12.4868797 8.2701752,12.4868797 C7.82398025,12.4868797 7.40127558,12.4052038 7.00204852,12.2418496 C6.60282145,12.0784954 6.25291592,11.84037 5.95232143,11.5274662 C5.65172693,11.2145623 5.41336847,10.8303406 5.23723888,10.3747895 C5.06110929,9.91923832 4.97304582,9.3992736 4.97304582,8.8148797 C4.97304582,8.29490717 5.05054168,7.81175411 5.20553571,7.36540602 C5.36052975,6.91905792 5.5883206,6.53253547 5.88891509,6.20582707 C6.18950959,5.87911867 6.56172453,5.6225874 7.00557109,5.43622556 C7.44941765,5.24986373 7.96253415,5.15668421 8.54493598,5.15668421 C9.09915708,5.15668421 9.58526745,5.24411191 10.0032817,5.41896992 C10.4212959,5.59382794 10.7970334,5.84690812 11.1305054,6.17821805 L10.6232547,6.8546391 Z" id="c-copy-7" transform="translate(8.083479, 8.821782) scale(1, -1) rotate(-270.000000) translate(-8.083479, -8.821782) "></path>
                <path d="M14.7674596,1.71178195 C14.7110981,1.78540638 14.6547375,1.84177424 14.598376,1.88088722 C14.5420145,1.9200002 14.4621703,1.93955639 14.358841,1.93955639 C14.2649052,1.93955639 14.1744934,1.91309801 14.0876028,1.86018045 C14.0007122,1.80726289 13.9009069,1.74974467 13.788184,1.68762406 C13.675461,1.62550345 13.5416045,1.56798523 13.3866105,1.51506767 C13.2316165,1.46215011 13.039051,1.43569173 12.8089084,1.43569173 C12.5177074,1.43569173 12.2652588,1.48745813 12.0515549,1.59099248 C11.837851,1.69452683 11.6605499,1.84292385 11.5196462,2.03618797 C11.3787426,2.22945209 11.2742406,2.46412644 11.2061371,2.74021805 C11.1380337,3.01630965 11.1039825,3.32690805 11.1039825,3.67202256 C11.1039825,4.39906379 11.2531033,4.95584017 11.5513494,5.34236842 C11.8495955,5.72889667 12.2570358,5.92215789 12.7736826,5.92215789 C12.9521606,5.92215789 13.1059781,5.90720316 13.2351398,5.87729323 C13.3643015,5.84738331 13.4770228,5.80942128 13.5733069,5.76340602 C13.6695911,5.71739075 13.7529579,5.66677471 13.8234097,5.61155639 C13.8938615,5.55633807 13.9607898,5.50572203 14.0241964,5.45970677 C14.0876031,5.4136915 14.1510088,5.37572947 14.2144154,5.34581955 C14.2778221,5.31590962 14.349447,5.30095489 14.4292925,5.30095489 C14.5795897,5.30095489 14.6970077,5.35617238 14.7815499,5.46660902 L15.3381166,6.15683459 C15.1314579,6.39151245 14.9107121,6.58592404 14.6758726,6.74007519 C14.4410332,6.89422633 14.197978,7.01616496 13.9466998,7.10589474 C13.6954216,7.19562451 13.4406246,7.25774419 13.1823012,7.29225564 C12.9239778,7.32676709 12.6680067,7.34402256 12.4143801,7.34402256 C11.9681851,7.34402256 11.5454804,7.26234668 11.1462534,7.09899248 C10.7470263,6.93563828 10.3971208,6.69751284 10.0965263,6.38460902 C9.79593179,6.0717052 9.55757332,5.68748348 9.38144373,5.23193233 C9.20531415,4.77638118 9.11725067,4.25641646 9.11725067,3.67202256 C9.11725067,3.15205003 9.19474653,2.66889697 9.34974057,2.22254887 C9.5047346,1.77620078 9.73252545,1.38967833 10.0331199,1.06296992 C10.3337144,0.736261524 10.7059294,0.479730255 11.1497759,0.293368421 C11.5936225,0.107006587 12.106739,0.0138270677 12.6891408,0.0138270677 C13.2433619,0.0138270677 13.7294723,0.101254765 14.1474865,0.276112782 C14.5655007,0.450970799 14.9412382,0.704050975 15.2747102,1.0353609 L14.7674596,1.71178195 Z" id="c-copy-4" transform="translate(12.227684, 3.678925) rotate(-270.000000) translate(-12.227684, -3.678925) "></path>
                <path d="M18.9116644,6.8546391 C18.855303,6.92826353 18.7989423,6.98463138 18.7425809,7.02374436 C18.6862194,7.06285734 18.6063752,7.08241353 18.5030458,7.08241353 C18.40911,7.08241353 18.3186982,7.05595515 18.2318076,7.00303759 C18.144917,6.95012004 18.0451117,6.89260181 17.9323888,6.8304812 C17.8196659,6.76836059 17.6858094,6.71084237 17.5308154,6.65792481 C17.3758213,6.60500725 17.1832559,6.57854887 16.9531132,6.57854887 C16.6619123,6.57854887 16.4094637,6.63031527 16.1957598,6.73384962 C15.9820559,6.83738398 15.8047547,6.98578099 15.6638511,7.17904511 C15.5229474,7.37230924 15.4184454,7.60698358 15.350342,7.88307519 C15.2822385,8.15916679 15.2481873,8.46976519 15.2481873,8.8148797 C15.2481873,9.54192093 15.3973081,10.0986973 15.6955542,10.4852256 C15.9938003,10.8717538 16.4012407,11.065015 16.9178875,11.065015 C17.0963654,11.065015 17.250183,11.0500603 17.3793447,11.0201504 C17.5085064,10.9902405 17.6212276,10.9522784 17.7175118,10.9062632 C17.813796,10.8602479 17.8971627,10.8096319 17.9676146,10.7544135 C18.0380664,10.6991952 18.1049946,10.6485792 18.1684013,10.6025639 C18.2318079,10.5565486 18.2952136,10.5185866 18.3586203,10.4886767 C18.4220269,10.4587668 18.4936519,10.443812 18.5734973,10.443812 C18.7237946,10.443812 18.8412125,10.4990295 18.9257547,10.6094662 L19.4823214,11.2996917 C19.2756627,11.5343696 19.0549169,11.7287812 18.8200775,11.8829323 C18.585238,12.0370835 18.3421829,12.1590221 18.0909046,12.2487519 C17.8396264,12.3384817 17.5848295,12.4006013 17.3265061,12.4351128 C17.0681827,12.4696242 16.8122115,12.4868797 16.5585849,12.4868797 C16.11239,12.4868797 15.6896853,12.4052038 15.2904582,12.2418496 C14.8912312,12.0784954 14.5413256,11.84037 14.2407311,11.5274662 C13.9401366,11.2145623 13.7017782,10.8303406 13.5256486,10.3747895 C13.349519,9.91923832 13.2614555,9.3992736 13.2614555,8.8148797 C13.2614555,8.29490717 13.3389514,7.81175411 13.4939454,7.36540602 C13.6489395,6.91905792 13.8767303,6.53253547 14.1773248,6.20582707 C14.4779193,5.87911867 14.8501342,5.6225874 15.2939808,5.43622556 C15.7378274,5.24986373 16.2509439,5.15668421 16.8333457,5.15668421 C17.3875668,5.15668421 17.8736772,5.24411191 18.2916914,5.41896992 C18.7097056,5.59382794 19.0854431,5.84690812 19.4189151,6.17821805 L18.9116644,6.8546391 Z" id="c-copy-8" transform="translate(16.371888, 8.821782) scale(1, -1) rotate(-270.000000) translate(-16.371888, -8.821782) "></path>
                <path d="M23.0558693,1.71178195 C22.9995078,1.78540638 22.9431472,1.84177424 22.8867857,1.88088722 C22.8304242,1.9200002 22.75058,1.93955639 22.6472507,1.93955639 C22.5533149,1.93955639 22.4629031,1.91309801 22.3760125,1.86018045 C22.2891219,1.80726289 22.1893166,1.74974467 22.0765937,1.68762406 C21.9638707,1.62550345 21.8300143,1.56798523 21.6750202,1.51506767 C21.5200262,1.46215011 21.3274607,1.43569173 21.0973181,1.43569173 C20.8061171,1.43569173 20.5536685,1.48745813 20.3399646,1.59099248 C20.1262607,1.69452683 19.9489596,1.84292385 19.8080559,2.03618797 C19.6671523,2.22945209 19.5626503,2.46412644 19.4945468,2.74021805 C19.4264434,3.01630965 19.3923922,3.32690805 19.3923922,3.67202256 C19.3923922,4.39906379 19.541513,4.95584017 19.8397591,5.34236842 C20.1380052,5.72889667 20.5454455,5.92215789 21.0620923,5.92215789 C21.2405703,5.92215789 21.3943878,5.90720316 21.5235495,5.87729323 C21.6527112,5.84738331 21.7654325,5.80942128 21.8617166,5.76340602 C21.9580008,5.71739075 22.0413676,5.66677471 22.1118194,5.61155639 C22.1822712,5.55633807 22.2491995,5.50572203 22.3126061,5.45970677 C22.3760128,5.4136915 22.4394185,5.37572947 22.5028251,5.34581955 C22.5662318,5.31590962 22.6378567,5.30095489 22.7177022,5.30095489 C22.8679994,5.30095489 22.9854174,5.35617238 23.0699596,5.46660902 L23.6265263,6.15683459 C23.4198676,6.39151245 23.1991218,6.58592404 22.9642823,6.74007519 C22.7294429,6.89422633 22.4863877,7.01616496 22.2351095,7.10589474 C21.9838313,7.19562451 21.7290343,7.25774419 21.4707109,7.29225564 C21.2123875,7.32676709 20.9564164,7.34402256 20.7027898,7.34402256 C20.2565948,7.34402256 19.8338901,7.26234668 19.4346631,7.09899248 C19.035436,6.93563828 18.6855305,6.69751284 18.384936,6.38460902 C18.0843415,6.0717052 17.845983,5.68748348 17.6698534,5.23193233 C17.4937238,4.77638118 17.4056604,4.25641646 17.4056604,3.67202256 C17.4056604,3.15205003 17.4831562,2.66889697 17.6381503,2.22254887 C17.7931443,1.77620078 18.0209352,1.38967833 18.3215296,1.06296992 C18.6221241,0.736261524 18.9943391,0.479730255 19.4381856,0.293368421 C19.8820322,0.107006587 20.3951487,0.0138270677 20.9775505,0.0138270677 C21.5317716,0.0138270677 22.017882,0.101254765 22.4358962,0.276112782 C22.8539104,0.450970799 23.2296479,0.704050975 23.5631199,1.0353609 L23.0558693,1.71178195 Z" id="c-copy-5" transform="translate(20.516093, 3.678925) rotate(-270.000000) translate(-20.516093, -3.678925) "></path>
                <path d="M27.2000741,6.8546391 C27.1437127,6.92826353 27.087352,6.98463138 27.0309906,7.02374436 C26.9746291,7.06285734 26.8947849,7.08241353 26.7914555,7.08241353 C26.6975197,7.08241353 26.6071079,7.05595515 26.5202173,7.00303759 C26.4333267,6.95012004 26.3335215,6.89260181 26.2207985,6.8304812 C26.1080756,6.76836059 25.9742191,6.71084237 25.8192251,6.65792481 C25.664231,6.60500725 25.4716656,6.57854887 25.2415229,6.57854887 C24.950322,6.57854887 24.6978734,6.63031527 24.4841695,6.73384962 C24.2704656,6.83738398 24.0931645,6.98578099 23.9522608,7.17904511 C23.8113571,7.37230924 23.7068551,7.60698358 23.6387517,7.88307519 C23.5706482,8.15916679 23.536597,8.46976519 23.536597,8.8148797 C23.536597,9.54192093 23.6857178,10.0986973 23.9839639,10.4852256 C24.28221,10.8717538 24.6896504,11.065015 25.2062972,11.065015 C25.3847752,11.065015 25.5385927,11.0500603 25.6677544,11.0201504 C25.7969161,10.9902405 25.9096373,10.9522784 26.0059215,10.9062632 C26.1022057,10.8602479 26.1855724,10.8096319 26.2560243,10.7544135 C26.3264761,10.6991952 26.3934043,10.6485792 26.456811,10.6025639 C26.5202176,10.5565486 26.5836233,10.5185866 26.64703,10.4886767 C26.7104366,10.4587668 26.7820616,10.443812 26.861907,10.443812 C27.0122043,10.443812 27.1296222,10.4990295 27.2141644,10.6094662 L27.7707311,11.2996917 C27.5640724,11.5343696 27.3433266,11.7287812 27.1084872,11.8829323 C26.8736477,12.0370835 26.6305926,12.1590221 26.3793144,12.2487519 C26.1280361,12.3384817 25.8732392,12.4006013 25.6149158,12.4351128 C25.3565924,12.4696242 25.1006212,12.4868797 24.8469946,12.4868797 C24.4007997,12.4868797 23.978095,12.4052038 23.5788679,12.2418496 C23.1796409,12.0784954 22.8297353,11.84037 22.5291408,11.5274662 C22.2285463,11.2145623 21.9901879,10.8303406 21.8140583,10.3747895 C21.6379287,9.91923832 21.5498652,9.3992736 21.5498652,8.8148797 C21.5498652,8.29490717 21.6273611,7.81175411 21.7823551,7.36540602 C21.9373492,6.91905792 22.16514,6.53253547 22.4657345,6.20582707 C22.766329,5.87911867 23.1385439,5.6225874 23.5823905,5.43622556 C24.0262371,5.24986373 24.5393536,5.15668421 25.1217554,5.15668421 C25.6759765,5.15668421 26.1620869,5.24411191 26.5801011,5.41896992 C26.9981153,5.59382794 27.3738528,5.84690812 27.7073248,6.17821805 L27.2000741,6.8546391 Z" id="c-copy-9" transform="translate(24.660298, 8.821782) scale(1, -1) rotate(-270.000000) translate(-24.660298, -8.821782) "></path>
                <path d="M31.344279,1.71178195 C31.2879175,1.78540638 31.2315569,1.84177424 31.1751954,1.88088722 C31.1188339,1.9200002 31.0389897,1.93955639 30.9356604,1.93955639 C30.8417246,1.93955639 30.7513128,1.91309801 30.6644222,1.86018045 C30.5775316,1.80726289 30.4777263,1.74974467 30.3650034,1.68762406 C30.2522804,1.62550345 30.118424,1.56798523 29.9634299,1.51506767 C29.8084359,1.46215011 29.6158704,1.43569173 29.3857278,1.43569173 C29.0945268,1.43569173 28.8420782,1.48745813 28.6283743,1.59099248 C28.4146704,1.69452683 28.2373693,1.84292385 28.0964656,2.03618797 C27.955562,2.22945209 27.85106,2.46412644 27.7829565,2.74021805 C27.7148531,3.01630965 27.6808019,3.32690805 27.6808019,3.67202256 C27.6808019,4.39906379 27.8299227,4.95584017 28.1281688,5.34236842 C28.4264149,5.72889667 28.8338552,5.92215789 29.350502,5.92215789 C29.52898,5.92215789 29.6827975,5.90720316 29.8119592,5.87729323 C29.9411209,5.84738331 30.0538422,5.80942128 30.1501263,5.76340602 C30.2464105,5.71739075 30.3297773,5.66677471 30.4002291,5.61155639 C30.4706809,5.55633807 30.5376092,5.50572203 30.6010158,5.45970677 C30.6644225,5.4136915 30.7278282,5.37572947 30.7912348,5.34581955 C30.8546415,5.31590962 30.9262664,5.30095489 31.0061119,5.30095489 C31.1564091,5.30095489 31.2738271,5.35617238 31.3583693,5.46660902 L31.914936,6.15683459 C31.7082773,6.39151245 31.4875315,6.58592404 31.252692,6.74007519 C31.0178526,6.89422633 30.7747974,7.01616496 30.5235192,7.10589474 C30.272241,7.19562451 30.017444,7.25774419 29.7591206,7.29225564 C29.5007972,7.32676709 29.2448261,7.34402256 28.9911995,7.34402256 C28.5450045,7.34402256 28.1222998,7.26234668 27.7230728,7.09899248 C27.3238457,6.93563828 26.9739402,6.69751284 26.6733457,6.38460902 C26.3727512,6.0717052 26.1343927,5.68748348 25.9582631,5.23193233 C25.7821336,4.77638118 25.6940701,4.25641646 25.6940701,3.67202256 C25.6940701,3.15205003 25.7715659,2.66889697 25.92656,2.22254887 C26.081554,1.77620078 26.3093449,1.38967833 26.6099394,1.06296992 C26.9105338,0.736261524 27.2827488,0.479730255 27.7265954,0.293368421 C28.1704419,0.107006587 28.6835584,0.0138270677 29.2659602,0.0138270677 C29.8201813,0.0138270677 30.3062917,0.101254765 30.7243059,0.276112782 C31.1423201,0.450970799 31.5180576,0.704050975 31.8515296,1.0353609 L31.344279,1.71178195 Z" id="c-copy-6" transform="translate(28.804503, 3.678925) rotate(-270.000000) translate(-28.804503, -3.678925) "></path>
                <path d="M39.7432008,1.71178195 C39.6868393,1.78540638 39.6304787,1.84177424 39.5741173,1.88088722 C39.5177558,1.9200002 39.4379116,1.93955639 39.3345822,1.93955639 C39.2406464,1.93955639 39.1502346,1.91309801 39.063344,1.86018045 C38.9764534,1.80726289 38.8766481,1.74974467 38.7639252,1.68762406 C38.6512023,1.62550345 38.5173458,1.56798523 38.3623518,1.51506767 C38.2073577,1.46215011 38.0147923,1.43569173 37.7846496,1.43569173 C37.4934487,1.43569173 37.2410001,1.48745813 37.0272962,1.59099248 C36.8135923,1.69452683 36.6362911,1.84292385 36.4953875,2.03618797 C36.3544838,2.22945209 36.2499818,2.46412644 36.1818784,2.74021805 C36.1137749,3.01630965 36.0797237,3.32690805 36.0797237,3.67202256 C36.0797237,4.39906379 36.2288445,4.95584017 36.5270906,5.34236842 C36.8253367,5.72889667 37.2327771,5.92215789 37.7494239,5.92215789 C37.9279018,5.92215789 38.0817194,5.90720316 38.2108811,5.87729323 C38.3400428,5.84738331 38.452764,5.80942128 38.5490482,5.76340602 C38.6453324,5.71739075 38.7286991,5.66677471 38.7991509,5.61155639 C38.8696028,5.55633807 38.936531,5.50572203 38.9999377,5.45970677 C39.0633443,5.4136915 39.12675,5.37572947 39.1901567,5.34581955 C39.2535633,5.31590962 39.3251883,5.30095489 39.4050337,5.30095489 C39.5553309,5.30095489 39.6727489,5.35617238 39.7572911,5.46660902 L40.3138578,6.15683459 C40.1071991,6.39151245 39.8864533,6.58592404 39.6516139,6.74007519 C39.4167744,6.89422633 39.1737192,7.01616496 38.922441,7.10589474 C38.6711628,7.19562451 38.4163658,7.25774419 38.1580425,7.29225564 C37.8997191,7.32676709 37.6437479,7.34402256 37.3901213,7.34402256 C36.9439263,7.34402256 36.5212217,7.26234668 36.1219946,7.09899248 C35.7227675,6.93563828 35.372862,6.69751284 35.0722675,6.38460902 C34.771673,6.0717052 34.5333146,5.68748348 34.357185,5.23193233 C34.1810554,4.77638118 34.0929919,4.25641646 34.0929919,3.67202256 C34.0929919,3.15205003 34.1704878,2.66889697 34.3254818,2.22254887 C34.4804758,1.77620078 34.7082667,1.38967833 35.0088612,1.06296992 C35.3094557,0.736261524 35.6816706,0.479730255 36.1255172,0.293368421 C36.5693637,0.107006587 37.0824802,0.0138270677 37.6648821,0.0138270677 C38.2191032,0.0138270677 38.7052135,0.101254765 39.1232278,0.276112782 C39.541242,0.450970799 39.9169795,0.704050975 40.2504515,1.0353609 L39.7432008,1.71178195 Z" id="c-copy-11" transform="translate(37.203425, 3.678925) rotate(-270.000000) translate(-37.203425, -3.678925) "></path>
                <path d="M35.4884838,6.8546391 C35.4321224,6.92826353 35.3757617,6.98463138 35.3194003,7.02374436 C35.2630388,7.06285734 35.1831946,7.08241353 35.0798652,7.08241353 C34.9859294,7.08241353 34.8955176,7.05595515 34.808627,7.00303759 C34.7217364,6.95012004 34.6219312,6.89260181 34.5092082,6.8304812 C34.3964853,6.76836059 34.2626288,6.71084237 34.1076348,6.65792481 C33.9526407,6.60500725 33.7600753,6.57854887 33.5299326,6.57854887 C33.2387317,6.57854887 32.9862831,6.63031527 32.7725792,6.73384962 C32.5588753,6.83738398 32.3815742,6.98578099 32.2406705,7.17904511 C32.0997668,7.37230924 31.9952648,7.60698358 31.9271614,7.88307519 C31.8590579,8.15916679 31.8250067,8.46976519 31.8250067,8.8148797 C31.8250067,9.54192093 31.9741276,10.0986973 32.2723737,10.4852256 C32.5706198,10.8717538 32.9780601,11.065015 33.4947069,11.065015 C33.6731849,11.065015 33.8270024,11.0500603 33.9561641,11.0201504 C34.0853258,10.9902405 34.198047,10.9522784 34.2943312,10.9062632 C34.3906154,10.8602479 34.4739821,10.8096319 34.544434,10.7544135 C34.6148858,10.6991952 34.681814,10.6485792 34.7452207,10.6025639 C34.8086273,10.5565486 34.872033,10.5185866 34.9354397,10.4886767 C34.9988463,10.4587668 35.0704713,10.443812 35.1503167,10.443812 C35.300614,10.443812 35.4180319,10.4990295 35.5025741,10.6094662 L36.0591408,11.2996917 C35.8524821,11.5343696 35.6317363,11.7287812 35.3968969,11.8829323 C35.1620575,12.0370835 34.9190023,12.1590221 34.6677241,12.2487519 C34.4164458,12.3384817 34.1616489,12.4006013 33.9033255,12.4351128 C33.6450021,12.4696242 33.3890309,12.4868797 33.1354043,12.4868797 C32.6892094,12.4868797 32.2665047,12.4052038 31.8672776,12.2418496 C31.4680506,12.0784954 31.118145,11.84037 30.8175505,11.5274662 C30.516956,11.2145623 30.2785976,10.8303406 30.102468,10.3747895 C29.9263384,9.91923832 29.8382749,9.3992736 29.8382749,8.8148797 C29.8382749,8.29490717 29.9157708,7.81175411 30.0707648,7.36540602 C30.2257589,6.91905792 30.4535497,6.53253547 30.7541442,6.20582707 C31.0547387,5.87911867 31.4269536,5.6225874 31.8708002,5.43622556 C32.3146468,5.24986373 32.8277633,5.15668421 33.4101651,5.15668421 C33.9643862,5.15668421 34.4504966,5.24411191 34.8685108,5.41896992 C35.286525,5.59382794 35.6622625,5.84690812 35.9957345,6.17821805 L35.4884838,6.8546391 Z" id="c-copy-10" transform="translate(32.948708, 8.821782) scale(1, -1) rotate(-270.000000) translate(-32.948708, -8.821782) "></path>
            </g>
        </g>
    </g>
</svg>