<?xml version="1.0" encoding="utf-8"?>
<!-- Generator: Adobe Illustrator 21.0.0, SVG Export Plug-In . SVG Version: 6.00 Build 0)  -->
<svg version="1.1" id="Layer_1" xmlns="http://www.w3.org/2000/svg" xmlns:xlink="http://www.w3.org/1999/xlink" x="0px" y="0px"
	 viewBox="0 0 190 204" style="enable-background:new 0 0 190 204;" xml:space="preserve">
<style type="text/css">
	.st0{fill:#FF9F00;}
</style>
<title>TRex</title>
<desc>Created with Sketch.</desc>
<g>
	<path class="st0" d="M148.4,135.5c-2-3.2-4.3-5.9-6.9-8.2c-2.6-2.2-5.5-4.1-8.5-5.6c6.4-2.4,12-5.5,16.9-9.3c4.9-3.8,9-8,12.4-12.8
		c3.4-4.8,5.9-10,7.6-15.6c0.5-1.7,0.9-3.4,1.3-5.2h-3.7c-0.3,0-0.5-0.1-0.7-0.2c-0.2-0.2-0.3-0.4-0.4-0.8l-3-10.6
		c-0.1-0.5-0.3-0.9-0.4-1.4c-0.1-0.5-0.2-0.9-0.3-1.4c-0.1,0.5-0.2,0.9-0.3,1.4c-0.1,0.5-0.2,0.9-0.4,1.4l-3.1,10.5
		c-0.2,0.7-0.7,1.1-1.3,1.1h-4.9l-4.1-13.1l-4.1,13.1h-5.1c-0.3,0-0.5-0.1-0.7-0.2c-0.2-0.2-0.3-0.4-0.4-0.8l-3-10.6
		c-0.1-0.5-0.3-0.9-0.4-1.4c-0.1-0.5-0.2-0.9-0.3-1.4c-0.1,0.5-0.2,0.9-0.3,1.4c-0.1,0.5-0.2,0.9-0.4,1.4l-3.1,10.5
		c-0.2,0.7-0.7,1.1-1.3,1.1h-2.3c-0.2,0.9-0.5,1.7-0.8,2.6c-1.3,3.7-3.3,7-6,9.7s-6.3,4.9-10.7,6.5c-4.3,1.6-9.6,2.3-15.8,2.3H75.2
		v-58h18.3c11.7,0,20.4,2.4,26,7.2c5.6,4.8,8.4,11.5,8.4,20.1c0,0.4,0,0.9,0,1.3c0-0.1,0.1-0.2,0.1-0.4c0.2-0.7,0.4-1.4,0.6-2.1
		l2.7-9.5c0.1-0.3,0.3-0.6,0.6-0.8c0.3-0.2,0.7-0.3,1.1-0.3h2.8c0.4,0,0.8,0.1,1.2,0.3c0.3,0.2,0.5,0.5,0.6,0.8l2.5,9.5
		c0.2,0.7,0.4,1.4,0.6,2.1s0.4,1.4,0.6,2.1c0.1-0.7,0.2-1.4,0.4-2c0.2-0.7,0.3-1.4,0.5-2.1l2.2-9.5c0.1-0.3,0.3-0.6,0.6-0.8
		c0.3-0.2,0.6-0.3,0.9-0.3l0,0h0.2h4.8h0c0.4,0,0.8,0.1,1.2,0.3c0.3,0.2,0.5,0.5,0.6,0.8l2.1,9.5c0.2,0.7,0.3,1.4,0.4,2.1
		c0.1,0.7,0.3,1.4,0.4,2c0.2-0.7,0.4-1.3,0.6-2c0.2-0.7,0.4-1.4,0.6-2.1l2.7-9.5c0.1-0.3,0.3-0.6,0.6-0.8c0.3-0.2,0.7-0.3,1.1-0.3
		h2.8c0.4,0,0.8,0.1,1.2,0.3c0.3,0.2,0.5,0.5,0.6,0.8l2.5,9.5c0.2,0.7,0.4,1.4,0.6,2.1s0.4,1.4,0.6,2.1c0.1-0.7,0.2-1.4,0.4-2
		c0.2-0.7,0.3-1.4,0.5-2.1l1.8-7.6c-0.5-6.3-1.8-12.2-4.1-17.7c-2.9-7.1-7.5-13.2-13.8-18.4c-6.3-5.2-14.5-9.2-24.5-12.1
		c-8-2.3-17.3-3.7-27.9-4.2c0.5,1.1,0.7,2.3,0.7,3.5c0,6.2-6.4,11.3-14.3,11.3S74,17.9,74,11.7c0-1.3,0.3-2.5,0.8-3.7H62.2H29.8H0
		v19.4h29.8v25.4H9.3v18.6h20.5v23.8H0v2v17.3v2h29.8V140H9.3v18.6h20.5v25.9H0v19.4h62.2v-0.4h13v-72.3h11.6c3.5,0,6.2,0.5,8.1,1.6
		c1.9,1.1,3.6,2.9,5,5.4l32.5,56.8c3.3,5.7,8.8,8.6,16.4,8.6H190L148.4,135.5z"/>
	<ellipse class="st0" cx="92.8" cy="15" rx="3.8" ry="3"/>
</g>
</svg>
